ISO-10303-21;
HEADER;
FILE_DESCRIPTION(('STEP AP242'),
    '1');
FILE_NAME('FreeRover МД - Держатель подшипника',
    '',
    ('UNSPECIFIED'),
    ('UNSPECIFIED'),
    'C3D Converter',
    'C3D Toolkit',
    '');
FILE_SCHEMA(('AP242_MANAGED_MODEL_BASED_3D_ENGINEERING_MIM_LF { 1 0 10303 442 1 1 4 }'));
ENDSEC;

DATA;
#1=PRODUCT_DEFINITION('','UNSPECIFIED',#28,#31);
#2=SHAPE_DEFINITION_REPRESENTATION(#26,#3);
#3=SHAPE_REPRESENTATION('NONE',(#4),#8);
#4=AXIS2_PLACEMENT_3D('',#5,#6,#7);
#5=CARTESIAN_POINT('',(0.,0.,0.));
#6=DIRECTION('',(0.,0.,1.));
#7=DIRECTION('',(1.,0.,0.));
#8=(GEOMETRIC_REPRESENTATION_CONTEXT(3)GLOBAL_UNCERTAINTY_ASSIGNED_CONTEXT((#10))
GLOBAL_UNIT_ASSIGNED_CONTEXT((#9,#11,#12))REPRESENTATION_CONTEXT('NONE','NONE'));
#9=(LENGTH_UNIT()NAMED_UNIT(*)SI_UNIT(.MILLI.,.METRE.));
#10=UNCERTAINTY_MEASURE_WITH_UNIT(LENGTH_MEASURE(1.E-5),#9,'NONE','NONE');
#11=(NAMED_UNIT(*)PLANE_ANGLE_UNIT()SI_UNIT($,.RADIAN.));
#12=(NAMED_UNIT(*)SI_UNIT($,.STERADIAN.)SOLID_ANGLE_UNIT());
#13=MANIFOLD_SOLID_BREP('',#14);
#14=CLOSED_SHELL('',(#53,#54,#55,#56,#57,#58,#59,#60,#61,#62,#63,#64,#65,#66,#67));
#15=COLOUR_RGB('',1.,0.6,0.2);
#16=FILL_AREA_STYLE_COLOUR('',#15);
#17=FILL_AREA_STYLE($,(#16));
#18=SURFACE_STYLE_FILL_AREA(#17);
#19=SURFACE_SIDE_STYLE('',(#18));
#20=SURFACE_STYLE_USAGE(.BOTH.,#19);
#21=PRESENTATION_STYLE_ASSIGNMENT((#20));
#22=MECHANICAL_DESIGN_GEOMETRIC_PRESENTATION_REPRESENTATION('NONE',(#23),#8);
#23=STYLED_ITEM('',(#21),#13);
#24=ADVANCED_BREP_SHAPE_REPRESENTATION('NONE',(#13),#8);
#25=SHAPE_REPRESENTATION_RELATIONSHIP('','',#3,#24);
#26=PRODUCT_DEFINITION_SHAPE('NONE','NONE',#1);
#27=MECHANICAL_CONTEXT('NONE',#32,'mechanical');
#28=PRODUCT_DEFINITION_FORMATION_WITH_SPECIFIED_SOURCE('ANY','UNSPECIFIED',#29,.NOT_KNOWN.);
#29=PRODUCT('FreeRover \X2\041C0414\X0\','\X2\0414043504400436043004420435043B044C\X0\ \X2\043F043E043404480438043F043D0438043A0430\X0\',
'NONE',(#27));
#30=PRODUCT_RELATED_PRODUCT_CATEGORY('detail','',(#29));
#31=DESIGN_CONTEXT('detailed design',#32,'design');
#32=APPLICATION_CONTEXT('configuration controlled 3d designs of mechanical parts and assemblies');
#33=APPLICATION_PROTOCOL_DEFINITION('international standard','config_control_design',
1994,#32);
#34=CC_DESIGN_DATE_AND_TIME_ASSIGNMENT(#35,#39,(#1));
#35=DATE_AND_TIME(#36,#37);
#36=CALENDAR_DATE(0,1,1);
#37=LOCAL_TIME(0,0,0.,#38);
#38=COORDINATED_UNIVERSAL_TIME_OFFSET(0,0,.AHEAD.);
#39=DATE_TIME_ROLE('creation_date');
#40=CC_DESIGN_APPROVAL(#41,(#1));
#41=APPROVAL(#42,'UNSPECIFIED');
#42=APPROVAL_STATUS('not_yet_approved');
#43=APPROVAL_DATE_TIME(#44,#41);
#44=DATE_AND_TIME(#45,#46);
#45=CALENDAR_DATE(0,1,1);
#46=LOCAL_TIME(0,0,0.,#47);
#47=COORDINATED_UNIVERSAL_TIME_OFFSET(0,0,.AHEAD.);
#48=PERSON('UNSPECIFIED','io','UNSPECIFIED',('UNSPECIFIED'),('UNSPECIFIED'),('UNSPECIFIED'));
#49=ORGANIZATION('UNSPECIFIED','UNSPECIFIED','UNSPECIFIED');
#50=PERSON_AND_ORGANIZATION(#48,#49);
#51=PERSON_AND_ORGANIZATION_ROLE('creator');
#52=CC_DESIGN_PERSON_AND_ORGANIZATION_ASSIGNMENT(#50,#51,(#28,#1));
#53=ADVANCED_FACE('',(#68,#70,#72,#74,#76,#78),#80,.F.);
#54=ADVANCED_FACE('',(#85,#87,#89,#91,#93,#95),#97,.T.);
#55=ADVANCED_FACE('',(#102,#104),#106,.F.);
#56=ADVANCED_FACE('',(#111,#113),#115,.F.);
#57=ADVANCED_FACE('',(#120,#122),#124,.F.);
#58=ADVANCED_FACE('',(#129,#131),#133,.F.);
#59=ADVANCED_FACE('',(#138,#140),#142,.F.);
#60=ADVANCED_FACE('',(#147),#149,.F.);
#61=ADVANCED_FACE('',(#154),#156,.T.);
#62=ADVANCED_FACE('',(#161),#163,.T.);
#63=ADVANCED_FACE('',(#168),#170,.T.);
#64=ADVANCED_FACE('',(#175),#177,.F.);
#65=ADVANCED_FACE('',(#182),#184,.T.);
#66=ADVANCED_FACE('',(#189),#191,.T.);
#67=ADVANCED_FACE('',(#196),#198,.T.);
#68=FACE_BOUND('',#69,.T.);
#69=EDGE_LOOP('',(#203,#204,#205,#206,#207,#208,#209,#210));
#70=FACE_BOUND('',#71,.T.);
#71=EDGE_LOOP('',(#211));
#72=FACE_BOUND('',#73,.T.);
#73=EDGE_LOOP('',(#212));
#74=FACE_BOUND('',#75,.T.);
#75=EDGE_LOOP('',(#213));
#76=FACE_BOUND('',#77,.T.);
#77=EDGE_LOOP('',(#214));
#78=FACE_BOUND('',#79,.T.);
#79=EDGE_LOOP('',(#215));
#80=PLANE('',#81);
#81=AXIS2_PLACEMENT_3D('',#82,#83,#84);
#82=CARTESIAN_POINT('',(0.,0.,0.));
#83=DIRECTION('',(0.,1.,6.12323399573677E-17));
#84=DIRECTION('',(6.12323399573677E-17,6.12323399573677E-17,-1.));
#85=FACE_BOUND('',#86,.T.);
#86=EDGE_LOOP('',(#216,#217,#218,#219,#220,#221,#222,#223));
#87=FACE_BOUND('',#88,.T.);
#88=EDGE_LOOP('',(#224));
#89=FACE_BOUND('',#90,.T.);
#90=EDGE_LOOP('',(#225));
#91=FACE_BOUND('',#92,.T.);
#92=EDGE_LOOP('',(#226));
#93=FACE_BOUND('',#94,.T.);
#94=EDGE_LOOP('',(#227));
#95=FACE_BOUND('',#96,.T.);
#96=EDGE_LOOP('',(#228));
#97=PLANE('',#98);
#98=AXIS2_PLACEMENT_3D('',#99,#100,#101);
#99=CARTESIAN_POINT('',(0.,4.,2.44929359829471E-16));
#100=DIRECTION('',(0.,1.,6.12323399573677E-17));
#101=DIRECTION('',(6.12323399573677E-17,6.12323399573677E-17,-1.));
#102=FACE_OUTER_BOUND('',#103,.T.);
#103=EDGE_LOOP('',(#229));
#104=FACE_OUTER_BOUND('',#105,.T.);
#105=EDGE_LOOP('',(#230));
#106=CYLINDRICAL_SURFACE('',#107,1.5);
#107=AXIS2_PLACEMENT_3D('',#108,#109,#110);
#108=CARTESIAN_POINT('',(-2.75545529808154E-15,-9.18485099360515E-16,15.));
#109=DIRECTION('',(0.,1.,6.12323399573677E-17));
#110=DIRECTION('',(6.12323399573676E-17,6.12323399573676E-17,-1.));
#111=FACE_OUTER_BOUND('',#112,.T.);
#112=EDGE_LOOP('',(#231));
#113=FACE_OUTER_BOUND('',#114,.T.);
#114=EDGE_LOOP('',(#232));
#115=CYLINDRICAL_SURFACE('',#116,1.5);
#116=AXIS2_PLACEMENT_3D('',#117,#118,#119);
#117=CARTESIAN_POINT('',(15.,-2.24963967399279E-31,3.67394039744206E-15));
#118=DIRECTION('',(0.,1.,6.12323399573677E-17));
#119=DIRECTION('',(1.,-1.08770485875751E-31,1.77635683940025E-15));
#120=FACE_OUTER_BOUND('',#121,.T.);
#121=EDGE_LOOP('',(#233));
#122=FACE_OUTER_BOUND('',#123,.T.);
#123=EDGE_LOOP('',(#234));
#124=CYLINDRICAL_SURFACE('',#125,1.5);
#125=AXIS2_PLACEMENT_3D('',#126,#127,#128);
#126=CARTESIAN_POINT('',(4.59242549680257E-15,9.18485099360515E-16,-15.));
#127=DIRECTION('',(0.,1.,6.12323399573677E-17));
#128=DIRECTION('',(-4.28626379701574E-16,-6.12323399573676E-17,1.));
#129=FACE_OUTER_BOUND('',#130,.T.);
#130=EDGE_LOOP('',(#235));
#131=FACE_OUTER_BOUND('',#132,.T.);
#132=EDGE_LOOP('',(#236));
#133=CYLINDRICAL_SURFACE('',#134,1.5);
#134=AXIS2_PLACEMENT_3D('',#135,#136,#137);
#135=CARTESIAN_POINT('',(-15.,1.12481983699639E-31,-1.83697019872103E-15));
#136=DIRECTION('',(0.,1.,6.12323399573677E-17));
#137=DIRECTION('',(1.,-3.26311457627254E-31,5.32907051820075E-15));
#138=FACE_OUTER_BOUND('',#139,.T.);
#139=EDGE_LOOP('',(#237));
#140=FACE_OUTER_BOUND('',#141,.T.);
#141=EDGE_LOOP('',(#238));
#142=CYLINDRICAL_SURFACE('',#143,9.5);
#143=AXIS2_PLACEMENT_3D('',#144,#145,#146);
#144=CARTESIAN_POINT('',(1.1284973062865E-31,1.1284973062865E-31,-1.8429759618401E-15));
#145=DIRECTION('',(0.,1.,6.12323399573677E-17));
#146=DIRECTION('',(-1.,7.49879891330929E-33,-1.22464679914735E-16));
#147=FACE_BOUND('',#148,.T.);
#148=EDGE_LOOP('',(#239,#240,#241,#242));
#149=CYLINDRICAL_SURFACE('',#150,41.4352760237968);
#150=AXIS2_PLACEMENT_3D('',#151,#152,#153);
#151=CARTESIAN_POINT('',(38.7399128308531,-2.37213551237759E-15,38.7399128308532));
#152=DIRECTION('',(0.,-1.,-6.12323399573677E-17));
#153=DIRECTION('',(-0.852639539607133,3.19938721678662E-17,-0.522499584208959));
#154=FACE_BOUND('',#155,.T.);
#155=EDGE_LOOP('',(#243,#244,#245,#246));
#156=CYLINDRICAL_SURFACE('',#157,4.);
#157=AXIS2_PLACEMENT_3D('',#158,#159,#160);
#158=CARTESIAN_POINT('',(-2.75545529808154E-15,-9.18485099360515E-16,15.));
#159=DIRECTION('',(0.,1.,6.12323399573677E-17));
#160=DIRECTION('',(-2.68123605052204E-16,-6.12323399573677E-17,1.));
#161=FACE_BOUND('',#162,.T.);
#162=EDGE_LOOP('',(#247,#248,#249,#250));
#163=CYLINDRICAL_SURFACE('',#164,19.);
#164=AXIS2_PLACEMENT_3D('',#165,#166,#167);
#165=CARTESIAN_POINT('',(0.,0.,0.));
#166=DIRECTION('',(0.,1.,6.12323399573677E-17));
#167=DIRECTION('',(6.12323399573676E-17,6.12323399573676E-17,-1.));
#168=FACE_BOUND('',#169,.T.);
#169=EDGE_LOOP('',(#251,#252,#253,#254));
#170=CYLINDRICAL_SURFACE('',#171,4.);
#171=AXIS2_PLACEMENT_3D('',#172,#173,#174);
#172=CARTESIAN_POINT('',(4.59242549680257E-15,9.18485099360515E-16,-15.));
#173=DIRECTION('',(0.,1.,6.12323399573677E-17));
#174=DIRECTION('',(0.852639539607133,3.19938721678663E-17,-0.52249958420896));
#175=FACE_BOUND('',#176,.T.);
#176=EDGE_LOOP('',(#255,#256,#257,#258));
#177=CYLINDRICAL_SURFACE('',#178,41.4352760237968);
#178=AXIS2_PLACEMENT_3D('',#179,#180,#181);
#179=CARTESIAN_POINT('',(38.7399128308531,2.37213551237759E-15,-38.7399128308531));
#180=DIRECTION('',(0.,-1.,-6.12323399573677E-17));
#181=DIRECTION('',(-0.522499584208959,-5.22091141503175E-17,0.852639539607134));
#182=FACE_BOUND('',#183,.T.);
#183=EDGE_LOOP('',(#259,#260,#261,#262));
#184=CYLINDRICAL_SURFACE('',#185,4.);
#185=AXIS2_PLACEMENT_3D('',#186,#187,#188);
#186=CARTESIAN_POINT('',(15.,-1.12114236770629E-31,1.83096443560196E-15));
#187=DIRECTION('',(0.,1.,6.12323399573677E-17));
#188=DIRECTION('',(0.996829558943714,4.87204393681166E-18,-0.0795665156713554));
#189=FACE_BOUND('',#190,.T.);
#190=EDGE_LOOP('',(#263,#264,#265,#266));
#191=PLANE('',#192);
#192=AXIS2_PLACEMENT_3D('',#193,#194,#195);
#193=CARTESIAN_POINT('',(18.9873182357749,-1.9488175747247E-17,0.318266062685427));
#194=DIRECTION('',(1.,0.,0.));
#195=DIRECTION('',(0.,6.12323399573677E-17,-1.));
#196=FACE_BOUND('',#197,.T.);
#197=EDGE_LOOP('',(#267,#268,#269,#270));
#198=CYLINDRICAL_SURFACE('',#199,4.);
#199=AXIS2_PLACEMENT_3D('',#200,#201,#202);
#200=CARTESIAN_POINT('',(15.,-2.24963967399279E-31,3.67394039744206E-15));
#201=DIRECTION('',(0.,1.,6.12323399573677E-17));
#202=DIRECTION('',(0.522499584208958,-5.22091141503175E-17,0.852639539607135));
#203=ORIENTED_EDGE('',*,*,#271,.F.);
#204=ORIENTED_EDGE('',*,*,#272,.F.);
#205=ORIENTED_EDGE('',*,*,#273,.F.);
#206=ORIENTED_EDGE('',*,*,#274,.F.);
#207=ORIENTED_EDGE('',*,*,#275,.F.);
#208=ORIENTED_EDGE('',*,*,#276,.F.);
#209=ORIENTED_EDGE('',*,*,#277,.F.);
#210=ORIENTED_EDGE('',*,*,#278,.F.);
#211=ORIENTED_EDGE('',*,*,#279,.T.);
#212=ORIENTED_EDGE('',*,*,#280,.T.);
#213=ORIENTED_EDGE('',*,*,#281,.T.);
#214=ORIENTED_EDGE('',*,*,#282,.T.);
#215=ORIENTED_EDGE('',*,*,#283,.T.);
#216=ORIENTED_EDGE('',*,*,#284,.T.);
#217=ORIENTED_EDGE('',*,*,#285,.T.);
#218=ORIENTED_EDGE('',*,*,#286,.T.);
#219=ORIENTED_EDGE('',*,*,#287,.T.);
#220=ORIENTED_EDGE('',*,*,#288,.T.);
#221=ORIENTED_EDGE('',*,*,#289,.T.);
#222=ORIENTED_EDGE('',*,*,#290,.T.);
#223=ORIENTED_EDGE('',*,*,#291,.T.);
#224=ORIENTED_EDGE('',*,*,#292,.T.);
#225=ORIENTED_EDGE('',*,*,#293,.T.);
#226=ORIENTED_EDGE('',*,*,#294,.T.);
#227=ORIENTED_EDGE('',*,*,#295,.T.);
#228=ORIENTED_EDGE('',*,*,#296,.T.);
#229=ORIENTED_EDGE('',*,*,#296,.F.);
#230=ORIENTED_EDGE('',*,*,#283,.F.);
#231=ORIENTED_EDGE('',*,*,#295,.F.);
#232=ORIENTED_EDGE('',*,*,#282,.F.);
#233=ORIENTED_EDGE('',*,*,#294,.F.);
#234=ORIENTED_EDGE('',*,*,#281,.F.);
#235=ORIENTED_EDGE('',*,*,#293,.F.);
#236=ORIENTED_EDGE('',*,*,#280,.F.);
#237=ORIENTED_EDGE('',*,*,#292,.F.);
#238=ORIENTED_EDGE('',*,*,#279,.F.);
#239=ORIENTED_EDGE('',*,*,#271,.T.);
#240=ORIENTED_EDGE('',*,*,#297,.T.);
#241=ORIENTED_EDGE('',*,*,#291,.F.);
#242=ORIENTED_EDGE('',*,*,#298,.F.);
#243=ORIENTED_EDGE('',*,*,#272,.T.);
#244=ORIENTED_EDGE('',*,*,#298,.T.);
#245=ORIENTED_EDGE('',*,*,#290,.F.);
#246=ORIENTED_EDGE('',*,*,#299,.F.);
#247=ORIENTED_EDGE('',*,*,#273,.T.);
#248=ORIENTED_EDGE('',*,*,#299,.T.);
#249=ORIENTED_EDGE('',*,*,#289,.F.);
#250=ORIENTED_EDGE('',*,*,#300,.F.);
#251=ORIENTED_EDGE('',*,*,#274,.T.);
#252=ORIENTED_EDGE('',*,*,#300,.T.);
#253=ORIENTED_EDGE('',*,*,#288,.F.);
#254=ORIENTED_EDGE('',*,*,#301,.F.);
#255=ORIENTED_EDGE('',*,*,#275,.T.);
#256=ORIENTED_EDGE('',*,*,#301,.T.);
#257=ORIENTED_EDGE('',*,*,#287,.F.);
#258=ORIENTED_EDGE('',*,*,#302,.F.);
#259=ORIENTED_EDGE('',*,*,#276,.T.);
#260=ORIENTED_EDGE('',*,*,#302,.T.);
#261=ORIENTED_EDGE('',*,*,#286,.F.);
#262=ORIENTED_EDGE('',*,*,#303,.F.);
#263=ORIENTED_EDGE('',*,*,#277,.T.);
#264=ORIENTED_EDGE('',*,*,#303,.T.);
#265=ORIENTED_EDGE('',*,*,#285,.F.);
#266=ORIENTED_EDGE('',*,*,#304,.F.);
#267=ORIENTED_EDGE('',*,*,#278,.T.);
#268=ORIENTED_EDGE('',*,*,#304,.T.);
#269=ORIENTED_EDGE('',*,*,#284,.F.);
#270=ORIENTED_EDGE('',*,*,#297,.F.);
#271=EDGE_CURVE('',#305,#306,#307,.T.);
#272=EDGE_CURVE('',#308,#305,#309,.T.);
#273=EDGE_CURVE('',#310,#308,#311,.T.);
#274=EDGE_CURVE('',#312,#310,#313,.T.);
#275=EDGE_CURVE('',#314,#312,#315,.T.);
#276=EDGE_CURVE('',#316,#314,#317,.T.);
#277=EDGE_CURVE('',#318,#316,#319,.T.);
#278=EDGE_CURVE('',#306,#318,#320,.T.);
#279=EDGE_CURVE('',#321,#321,#322,.T.);
#280=EDGE_CURVE('',#323,#323,#324,.T.);
#281=EDGE_CURVE('',#325,#325,#326,.T.);
#282=EDGE_CURVE('',#327,#327,#328,.T.);
#283=EDGE_CURVE('',#329,#329,#330,.T.);
#284=EDGE_CURVE('',#331,#332,#333,.T.);
#285=EDGE_CURVE('',#332,#334,#335,.T.);
#286=EDGE_CURVE('',#334,#336,#337,.T.);
#287=EDGE_CURVE('',#336,#338,#339,.T.);
#288=EDGE_CURVE('',#338,#340,#341,.T.);
#289=EDGE_CURVE('',#340,#342,#343,.T.);
#290=EDGE_CURVE('',#342,#344,#345,.T.);
#291=EDGE_CURVE('',#344,#331,#346,.T.);
#292=EDGE_CURVE('',#347,#347,#348,.F.);
#293=EDGE_CURVE('',#349,#349,#350,.F.);
#294=EDGE_CURVE('',#351,#351,#352,.F.);
#295=EDGE_CURVE('',#353,#353,#354,.F.);
#296=EDGE_CURVE('',#355,#355,#356,.F.);
#297=EDGE_CURVE('',#306,#331,#357,.T.);
#298=EDGE_CURVE('',#305,#344,#358,.T.);
#299=EDGE_CURVE('',#308,#342,#359,.T.);
#300=EDGE_CURVE('',#310,#340,#360,.T.);
#301=EDGE_CURVE('',#312,#338,#361,.T.);
#302=EDGE_CURVE('',#314,#336,#362,.T.);
#303=EDGE_CURVE('',#316,#334,#363,.T.);
#304=EDGE_CURVE('',#318,#332,#364,.T.);
#305=VERTEX_POINT('',#365);
#306=VERTEX_POINT('',#366);
#307=CIRCLE('',#367,41.4352760237968);
#308=VERTEX_POINT('',#371);
#309=CIRCLE('',#372,4.);
#310=VERTEX_POINT('',#376);
#311=CIRCLE('',#377,19.);
#312=VERTEX_POINT('',#381);
#313=CIRCLE('',#382,4.);
#314=VERTEX_POINT('',#386);
#315=CIRCLE('',#387,41.4352760237968);
#316=VERTEX_POINT('',#391);
#317=CIRCLE('',#392,4.);
#318=VERTEX_POINT('',#396);
#319=LINE('',#397,#398);
#320=CIRCLE('',#400,4.);
#321=VERTEX_POINT('',#404);
#322=CIRCLE('',#405,9.5);
#323=VERTEX_POINT('',#409);
#324=CIRCLE('',#410,1.5);
#325=VERTEX_POINT('',#414);
#326=CIRCLE('',#415,1.5);
#327=VERTEX_POINT('',#419);
#328=CIRCLE('',#420,1.5);
#329=VERTEX_POINT('',#424);
#330=CIRCLE('',#425,1.5);
#331=VERTEX_POINT('',#429);
#332=VERTEX_POINT('',#430);
#333=CIRCLE('',#431,4.);
#334=VERTEX_POINT('',#435);
#335=LINE('',#436,#437);
#336=VERTEX_POINT('',#439);
#337=CIRCLE('',#440,4.);
#338=VERTEX_POINT('',#444);
#339=CIRCLE('',#445,41.4352760237968);
#340=VERTEX_POINT('',#449);
#341=CIRCLE('',#450,4.);
#342=VERTEX_POINT('',#454);
#343=CIRCLE('',#455,19.);
#344=VERTEX_POINT('',#459);
#345=CIRCLE('',#460,4.);
#346=CIRCLE('',#464,41.4352760237968);
#347=VERTEX_POINT('',#468);
#348=CIRCLE('',#469,9.5);
#349=VERTEX_POINT('',#473);
#350=CIRCLE('',#474,1.5);
#351=VERTEX_POINT('',#478);
#352=CIRCLE('',#479,1.5);
#353=VERTEX_POINT('',#483);
#354=CIRCLE('',#484,1.5);
#355=VERTEX_POINT('',#488);
#356=CIRCLE('',#489,1.5);
#357=LINE('',#493,#494);
#358=LINE('',#496,#497);
#359=LINE('',#499,#500);
#360=LINE('',#502,#503);
#361=LINE('',#505,#506);
#362=LINE('',#508,#509);
#363=LINE('',#511,#512);
#364=LINE('',#514,#515);
#365=CARTESIAN_POINT('',(3.41055815842851,-1.04646058803198E-15,17.0899983368359));
#366=CARTESIAN_POINT('',(17.0899983368358,-2.08836456601271E-16,3.41055815842855));
#367=AXIS2_PLACEMENT_3D('',#368,#369,#370);
#368=CARTESIAN_POINT('',(38.7399128308531,-2.37213551237759E-15,38.7399128308532));
#369=DIRECTION('',(-6.16297582203916E-33,-1.,-6.12323399573677E-17));
#370=DIRECTION('',(-0.852639539607133,3.19938721678662E-17,-0.522499584208959));
#371=CARTESIAN_POINT('',(-3.65909654793016E-15,-1.16341445918999E-15,19.));
#372=AXIS2_PLACEMENT_3D('',#373,#374,#375);
#373=CARTESIAN_POINT('',(-2.75545529808154E-15,-9.18485099360515E-16,15.));
#374=DIRECTION('',(4.89261673164855E-33,1.,6.12323399573677E-17));
#375=DIRECTION('',(-2.22044604925031E-16,-6.12323399573677E-17,1.));
#376=CARTESIAN_POINT('',(3.3838605084403E-15,1.16341445918999E-15,-19.));
#377=AXIS2_PLACEMENT_3D('',#378,#379,#380);
#378=CARTESIAN_POINT('',(0.,0.,0.));
#379=DIRECTION('',(0.,1.,6.12323399573677E-17));
#380=DIRECTION('',(6.12323399573676E-17,6.12323399573676E-17,-1.));
#381=CARTESIAN_POINT('',(3.41055815842852,1.04646058803198E-15,-17.0899983368359));
#382=AXIS2_PLACEMENT_3D('',#383,#384,#385);
#383=CARTESIAN_POINT('',(4.59242549680257E-15,9.18485099360515E-16,-15.));
#384=DIRECTION('',(6.16297582203916E-33,1.,6.12323399573677E-17));
#385=DIRECTION('',(0.852639539607133,3.19938721678663E-17,-0.52249958420896));
#386=CARTESIAN_POINT('',(17.0899983368358,2.0883645660127E-16,-3.41055815842854));
#387=AXIS2_PLACEMENT_3D('',#388,#389,#390);
#388=CARTESIAN_POINT('',(38.7399128308531,2.37213551237759E-15,-38.7399128308531));
#389=DIRECTION('',(-3.08148791101958E-33,-1.,-6.12323399573677E-17));
#390=DIRECTION('',(-0.522499584208959,-5.22091141503175E-17,0.852639539607134));
#391=CARTESIAN_POINT('',(18.9873182357749,1.94881757472465E-17,-0.31826606268542));
#392=AXIS2_PLACEMENT_3D('',#393,#394,#395);
#393=CARTESIAN_POINT('',(15.,-1.12114236770629E-31,1.83096443560196E-15));
#394=DIRECTION('',(7.70371977754894E-34,1.,6.12323399573677E-17));
#395=DIRECTION('',(0.996829558943714,4.87204393681166E-18,-0.0795665156713554));
#396=CARTESIAN_POINT('',(18.9873182357749,-1.9488175747247E-17,0.318266062685427));
#397=CARTESIAN_POINT('',(18.9873182357749,-1.9488175747247E-17,0.318266062685427));
#398=VECTOR('',#399,1.);
#399=DIRECTION('',(0.,6.12323399573677E-17,-1.));
#400=AXIS2_PLACEMENT_3D('',#401,#402,#403);
#401=CARTESIAN_POINT('',(15.,-2.24963967399279E-31,3.67394039744206E-15));
#402=DIRECTION('',(-3.08148791101958E-33,1.,6.12323399573677E-17));
#403=DIRECTION('',(0.522499584208958,-5.22091141503175E-17,0.852639539607134));
#404=CARTESIAN_POINT('',(-9.5,1.84088320305088E-31,-3.00639042103008E-15));
#405=AXIS2_PLACEMENT_3D('',#406,#407,#408);
#406=CARTESIAN_POINT('',(1.1284973062865E-31,1.1284973062865E-31,-1.8429759618401E-15));
#407=DIRECTION('',(0.,1.,6.12323399573677E-17));
#408=DIRECTION('',(-1.,7.49879891330929E-33,-1.22464679914735E-16));
#409=CARTESIAN_POINT('',(-13.5,-3.76985202741241E-31,6.1566355785801E-15));
#410=AXIS2_PLACEMENT_3D('',#411,#412,#413);
#411=CARTESIAN_POINT('',(-15.,1.12481983699639E-31,-1.83697019872103E-15));
#412=DIRECTION('',(0.,1.,6.12323399573677E-17));
#413=DIRECTION('',(1.,-3.26311457627254E-31,5.32907051820075E-15));
#414=CARTESIAN_POINT('',(3.76578890737811E-15,8.26636589424464E-16,-13.5));
#415=AXIS2_PLACEMENT_3D('',#416,#417,#418);
#416=CARTESIAN_POINT('',(4.59242549680257E-15,9.18485099360515E-16,-15.));
#417=DIRECTION('',(0.,1.,6.12323399573677E-17));
#418=DIRECTION('',(-4.28626379701574E-16,-6.12323399573677E-17,1.));
#419=CARTESIAN_POINT('',(16.5,-3.88119696212906E-31,6.33847565654244E-15));
#420=AXIS2_PLACEMENT_3D('',#421,#422,#423);
#421=CARTESIAN_POINT('',(15.,-2.24963967399279E-31,3.67394039744206E-15));
#422=DIRECTION('',(0.,1.,6.12323399573677E-17));
#423=DIRECTION('',(1.,-1.08770485875751E-31,1.77635683940025E-15));
#424=CARTESIAN_POINT('',(-2.47990976827339E-15,-8.26636589424463E-16,13.5));
#425=AXIS2_PLACEMENT_3D('',#426,#427,#428);
#426=CARTESIAN_POINT('',(-2.75545529808154E-15,-9.18485099360515E-16,15.));
#427=DIRECTION('',(0.,1.,6.12323399573677E-17));
#428=DIRECTION('',(6.12323399573676E-17,6.12323399573677E-17,-1.));
#429=CARTESIAN_POINT('',(17.0899983368358,4.,3.41055815842855));
#430=CARTESIAN_POINT('',(18.9873182357749,4.,0.318266062685427));
#431=AXIS2_PLACEMENT_3D('',#432,#433,#434);
#432=CARTESIAN_POINT('',(15.,4.,3.91886975727153E-15));
#433=DIRECTION('',(-3.08148791101958E-33,1.,6.12323399573677E-17));
#434=DIRECTION('',(0.522499584208958,-5.22091141503175E-17,0.852639539607134));
#435=CARTESIAN_POINT('',(18.9873182357749,4.,-0.31826606268542));
#436=CARTESIAN_POINT('',(18.9873182357749,4.,0.318266062685427));
#437=VECTOR('',#438,1.);
#438=DIRECTION('',(0.,0.,-1.));
#439=CARTESIAN_POINT('',(17.0899983368358,4.,-3.41055815842854));
#440=AXIS2_PLACEMENT_3D('',#441,#442,#443);
#441=CARTESIAN_POINT('',(15.,4.,2.07589379543143E-15));
#442=DIRECTION('',(7.70371977754894E-34,1.,6.12323399573677E-17));
#443=DIRECTION('',(0.996829558943714,4.87204393681166E-18,-0.0795665156713554));
#444=CARTESIAN_POINT('',(3.41055815842852,4.,-17.0899983368359));
#445=AXIS2_PLACEMENT_3D('',#446,#447,#448);
#446=CARTESIAN_POINT('',(38.7399128308531,4.,-38.7399128308531));
#447=DIRECTION('',(-3.08148791101958E-33,-1.,-6.12323399573677E-17));
#448=DIRECTION('',(-0.522499584208959,-5.22091141503175E-17,0.852639539607134));
#449=CARTESIAN_POINT('',(3.3838605084403E-15,4.,-19.));
#450=AXIS2_PLACEMENT_3D('',#451,#452,#453);
#451=CARTESIAN_POINT('',(4.59242549680257E-15,4.,-15.));
#452=DIRECTION('',(6.16297582203916E-33,1.,6.12323399573677E-17));
#453=DIRECTION('',(0.852639539607133,3.19938721678663E-17,-0.52249958420896));
#454=CARTESIAN_POINT('',(-3.65909654793016E-15,4.,19.));
#455=AXIS2_PLACEMENT_3D('',#456,#457,#458);
#456=CARTESIAN_POINT('',(0.,4.,2.44929359829471E-16));
#457=DIRECTION('',(0.,1.,6.12323399573677E-17));
#458=DIRECTION('',(6.12323399573676E-17,6.12323399573676E-17,-1.));
#459=CARTESIAN_POINT('',(3.41055815842851,4.,17.0899983368359));
#460=AXIS2_PLACEMENT_3D('',#461,#462,#463);
#461=CARTESIAN_POINT('',(-2.75545529808154E-15,4.,15.));
#462=DIRECTION('',(4.89261673164855E-33,1.,6.12323399573677E-17));
#463=DIRECTION('',(-2.22044604925031E-16,-6.12323399573677E-17,1.));
#464=AXIS2_PLACEMENT_3D('',#465,#466,#467);
#465=CARTESIAN_POINT('',(38.7399128308531,4.,38.7399128308532));
#466=DIRECTION('',(-6.16297582203916E-33,-1.,-6.12323399573677E-17));
#467=DIRECTION('',(-0.852639539607133,3.19938721678662E-17,-0.522499584208959));
#468=CARTESIAN_POINT('',(-9.5,4.,-2.76146106120061E-15));
#469=AXIS2_PLACEMENT_3D('',#470,#471,#472);
#470=CARTESIAN_POINT('',(1.1284973062865E-31,4.,-1.59804660201063E-15));
#471=DIRECTION('',(0.,1.,6.12323399573677E-17));
#472=DIRECTION('',(-1.,7.49879891330929E-33,-1.22464679914735E-16));
#473=CARTESIAN_POINT('',(-13.5,4.,6.40156493840957E-15));
#474=AXIS2_PLACEMENT_3D('',#475,#476,#477);
#475=CARTESIAN_POINT('',(-15.,4.,-1.59204083889156E-15));
#476=DIRECTION('',(0.,1.,6.12323399573677E-17));
#477=DIRECTION('',(1.,-3.26311457627254E-31,5.32907051820075E-15));
#478=CARTESIAN_POINT('',(3.76578890737811E-15,4.,-13.5));
#479=AXIS2_PLACEMENT_3D('',#480,#481,#482);
#480=CARTESIAN_POINT('',(4.59242549680257E-15,4.,-15.));
#481=DIRECTION('',(0.,1.,6.12323399573677E-17));
#482=DIRECTION('',(-4.28626379701574E-16,-6.12323399573677E-17,1.));
#483=CARTESIAN_POINT('',(16.5,4.,6.58340501637191E-15));
#484=AXIS2_PLACEMENT_3D('',#485,#486,#487);
#485=CARTESIAN_POINT('',(15.,4.,3.91886975727153E-15));
#486=DIRECTION('',(0.,1.,6.12323399573677E-17));
#487=DIRECTION('',(1.,-1.08770485875751E-31,1.77635683940025E-15));
#488=CARTESIAN_POINT('',(-2.47990976827339E-15,4.,13.5));
#489=AXIS2_PLACEMENT_3D('',#490,#491,#492);
#490=CARTESIAN_POINT('',(-2.75545529808154E-15,4.,15.));
#491=DIRECTION('',(0.,1.,6.12323399573677E-17));
#492=DIRECTION('',(6.12323399573676E-17,6.12323399573677E-17,-1.));
#493=CARTESIAN_POINT('',(17.0899983368358,-2.08836456601271E-16,3.41055815842855));
#494=VECTOR('',#495,1.);
#495=DIRECTION('',(0.,1.,0.));
#496=CARTESIAN_POINT('',(3.41055815842853,-1.04646058803198E-15,17.0899983368358));
#497=VECTOR('',#498,1.);
#498=DIRECTION('',(0.,1.,0.));
#499=CARTESIAN_POINT('',(-3.49024337756996E-15,-1.16341445918999E-15,19.));
#500=VECTOR('',#501,1.);
#501=DIRECTION('',(0.,1.,0.));
#502=CARTESIAN_POINT('',(5.70264852142773E-15,1.16341445918999E-15,-19.));
#503=VECTOR('',#504,1.);
#504=DIRECTION('',(0.,1.,0.));
#505=CARTESIAN_POINT('',(3.41055815842849,1.04646058803198E-15,-17.0899983368359));
#506=VECTOR('',#507,1.);
#507=DIRECTION('',(0.,1.,0.));
#508=CARTESIAN_POINT('',(17.0899983368358,2.0883645660127E-16,-3.41055815842853));
#509=VECTOR('',#510,1.);
#510=DIRECTION('',(0.,1.,1.11022302462516E-16));
#511=CARTESIAN_POINT('',(18.9873182357749,1.94881757472465E-17,-0.31826606268542));
#512=VECTOR('',#513,1.);
#513=DIRECTION('',(0.,1.,5.55111512312578E-17));
#514=CARTESIAN_POINT('',(18.9873182357749,-1.9488175747247E-17,0.318266062685428));
#515=VECTOR('',#516,1.);
#516=DIRECTION('',(0.,1.,5.55111512312578E-17));
ENDSEC;
END-ISO-10303-21;
