ISO-10303-21;
HEADER;
FILE_DESCRIPTION(('STEP AP242'),
    '1');
FILE_NAME('Держатель _ FreeRover МД',
    '',
    ('UNSPECIFIED'),
    ('UNSPECIFIED'),
    'C3D Converter',
    'C3D Toolkit',
    '');
FILE_SCHEMA(('AP242_MANAGED_MODEL_BASED_3D_ENGINEERING_MIM_LF { 1 0 10303 442 1 1 4 }'));
ENDSEC;

DATA;
#1=PRODUCT_DEFINITION('','UNSPECIFIED',#28,#31);
#2=SHAPE_DEFINITION_REPRESENTATION(#26,#3);
#3=SHAPE_REPRESENTATION('NONE',(#4),#8);
#4=AXIS2_PLACEMENT_3D('',#5,#6,#7);
#5=CARTESIAN_POINT('',(0.,0.,0.));
#6=DIRECTION('',(0.,0.,1.));
#7=DIRECTION('',(1.,0.,0.));
#8=(GEOMETRIC_REPRESENTATION_CONTEXT(3)GLOBAL_UNCERTAINTY_ASSIGNED_CONTEXT((#10))
GLOBAL_UNIT_ASSIGNED_CONTEXT((#9,#11,#12))REPRESENTATION_CONTEXT('NONE','NONE'));
#9=(LENGTH_UNIT()NAMED_UNIT(*)SI_UNIT(.MILLI.,.METRE.));
#10=UNCERTAINTY_MEASURE_WITH_UNIT(LENGTH_MEASURE(1.E-5),#9,'NONE','NONE');
#11=(NAMED_UNIT(*)PLANE_ANGLE_UNIT()SI_UNIT($,.RADIAN.));
#12=(NAMED_UNIT(*)SI_UNIT($,.STERADIAN.)SOLID_ANGLE_UNIT());
#13=MANIFOLD_SOLID_BREP('',#14);
#14=CLOSED_SHELL('',(#53,#54,#55,#56,#57,#58,#59,#60,#61,#62,#63,#64,#65,#66,#67,
#68,#69,#70,#71));
#15=COLOUR_RGB('',1.,0.4,0.4);
#16=FILL_AREA_STYLE_COLOUR('',#15);
#17=FILL_AREA_STYLE($,(#16));
#18=SURFACE_STYLE_FILL_AREA(#17);
#19=SURFACE_SIDE_STYLE('',(#18));
#20=SURFACE_STYLE_USAGE(.BOTH.,#19);
#21=PRESENTATION_STYLE_ASSIGNMENT((#20));
#22=MECHANICAL_DESIGN_GEOMETRIC_PRESENTATION_REPRESENTATION('NONE',(#23),#8);
#23=STYLED_ITEM('',(#21),#13);
#24=ADVANCED_BREP_SHAPE_REPRESENTATION('NONE',(#13),#8);
#25=SHAPE_REPRESENTATION_RELATIONSHIP('','',#3,#24);
#26=PRODUCT_DEFINITION_SHAPE('NONE','NONE',#1);
#27=MECHANICAL_CONTEXT('NONE',#32,'mechanical');
#28=PRODUCT_DEFINITION_FORMATION_WITH_SPECIFIED_SOURCE('ANY','UNSPECIFIED',#29,.NOT_KNOWN.);
#29=PRODUCT('FreeRover \X2\041C0414\X0\','\X2\0414043504400436043004420435043B044C\X0\',
'NONE',(#27));
#30=PRODUCT_RELATED_PRODUCT_CATEGORY('detail','',(#29));
#31=DESIGN_CONTEXT('detailed design',#32,'design');
#32=APPLICATION_CONTEXT('configuration controlled 3d designs of mechanical parts and assemblies');
#33=APPLICATION_PROTOCOL_DEFINITION('international standard','config_control_design',
1994,#32);
#34=CC_DESIGN_DATE_AND_TIME_ASSIGNMENT(#35,#39,(#1));
#35=DATE_AND_TIME(#36,#37);
#36=CALENDAR_DATE(0,1,1);
#37=LOCAL_TIME(0,0,0.,#38);
#38=COORDINATED_UNIVERSAL_TIME_OFFSET(0,0,.AHEAD.);
#39=DATE_TIME_ROLE('creation_date');
#40=CC_DESIGN_APPROVAL(#41,(#1));
#41=APPROVAL(#42,'UNSPECIFIED');
#42=APPROVAL_STATUS('not_yet_approved');
#43=APPROVAL_DATE_TIME(#44,#41);
#44=DATE_AND_TIME(#45,#46);
#45=CALENDAR_DATE(0,1,1);
#46=LOCAL_TIME(0,0,0.,#47);
#47=COORDINATED_UNIVERSAL_TIME_OFFSET(0,0,.AHEAD.);
#48=PERSON('UNSPECIFIED','io','UNSPECIFIED',('UNSPECIFIED'),('UNSPECIFIED'),('UNSPECIFIED'));
#49=ORGANIZATION('UNSPECIFIED','UNSPECIFIED','UNSPECIFIED');
#50=PERSON_AND_ORGANIZATION(#48,#49);
#51=PERSON_AND_ORGANIZATION_ROLE('creator');
#52=CC_DESIGN_PERSON_AND_ORGANIZATION_ASSIGNMENT(#50,#51,(#28,#1));
#53=ADVANCED_FACE('',(#72,#74,#76),#78,.T.);
#54=ADVANCED_FACE('',(#83),#85,.F.);
#55=ADVANCED_FACE('',(#90),#92,.T.);
#56=ADVANCED_FACE('',(#97),#99,.T.);
#57=ADVANCED_FACE('',(#104),#106,.T.);
#58=ADVANCED_FACE('',(#111,#113),#115,.F.);
#59=ADVANCED_FACE('',(#120),#122,.T.);
#60=ADVANCED_FACE('',(#127),#129,.T.);
#61=ADVANCED_FACE('',(#134),#136,.T.);
#62=ADVANCED_FACE('',(#141),#143,.T.);
#63=ADVANCED_FACE('',(#148),#150,.T.);
#64=ADVANCED_FACE('',(#155,#157),#159,.T.);
#65=ADVANCED_FACE('',(#164),#166,.T.);
#66=ADVANCED_FACE('',(#171),#173,.T.);
#67=ADVANCED_FACE('',(#178),#180,.T.);
#68=ADVANCED_FACE('',(#185,#187),#189,.F.);
#69=ADVANCED_FACE('',(#194,#196),#198,.F.);
#70=ADVANCED_FACE('',(#203,#205,#207),#209,.T.);
#71=ADVANCED_FACE('',(#214,#216),#218,.F.);
#72=FACE_BOUND('',#73,.T.);
#73=EDGE_LOOP('',(#223,#224,#225,#226,#227,#228,#229,#230,#231,#232,#233,#234,#235,
#236));
#74=FACE_BOUND('',#75,.T.);
#75=EDGE_LOOP('',(#237));
#76=FACE_BOUND('',#77,.T.);
#77=EDGE_LOOP('',(#238));
#78=PLANE('',#79);
#79=AXIS2_PLACEMENT_3D('',#80,#81,#82);
#80=CARTESIAN_POINT('',(-6.,-5.,0.));
#81=DIRECTION('',(-1.48029736616688E-16,-1.,0.));
#82=DIRECTION('',(1.,-1.48029736616688E-16,0.));
#83=FACE_BOUND('',#84,.T.);
#84=EDGE_LOOP('',(#239,#240,#241,#242));
#85=PLANE('',#86);
#86=AXIS2_PLACEMENT_3D('',#87,#88,#89);
#87=CARTESIAN_POINT('',(-2.96059473233375E-16,-2.,0.));
#88=DIRECTION('',(-1.48029736616688E-16,-1.,0.));
#89=DIRECTION('',(-1.,1.48029736616688E-16,1.22464679914735E-16));
#90=FACE_BOUND('',#91,.T.);
#91=EDGE_LOOP('',(#243,#244,#245,#246));
#92=PLANE('',#93);
#93=AXIS2_PLACEMENT_3D('',#94,#95,#96);
#94=CARTESIAN_POINT('',(-1.5,-2.,0.500000000000001));
#95=DIRECTION('',(-1.,1.48029736616688E-16,7.40148683083438E-17));
#96=DIRECTION('',(-7.40148683083438E-17,0.,-1.));
#97=FACE_BOUND('',#98,.T.);
#98=EDGE_LOOP('',(#247,#248,#249,#250));
#99=PLANE('',#100);
#100=AXIS2_PLACEMENT_3D('',#101,#102,#103);
#101=CARTESIAN_POINT('',(1.5,-2.,-2.5));
#102=DIRECTION('',(1.,-1.48029736616688E-16,-7.40148683083438E-17));
#103=DIRECTION('',(7.40148683083438E-17,0.,1.));
#104=FACE_BOUND('',#105,.T.);
#105=EDGE_LOOP('',(#251,#252,#253,#254));
#106=PLANE('',#107);
#107=AXIS2_PLACEMENT_3D('',#108,#109,#110);
#108=CARTESIAN_POINT('',(-6.,5.,0.));
#109=DIRECTION('',(-1.,1.77635683940025E-16,0.));
#110=DIRECTION('',(-1.77635683940025E-16,-1.,0.));
#111=FACE_BOUND('',#112,.T.);
#112=EDGE_LOOP('',(#255,#256,#257,#258,#259,#260,#261,#262));
#113=FACE_BOUND('',#114,.T.);
#114=EDGE_LOOP('',(#263));
#115=PLANE('',#116);
#116=AXIS2_PLACEMENT_3D('',#117,#118,#119);
#117=CARTESIAN_POINT('',(0.,0.,0.));
#118=DIRECTION('',(0.,0.,1.));
#119=DIRECTION('',(-1.,1.22464679914735E-16,0.));
#120=FACE_BOUND('',#121,.T.);
#121=EDGE_LOOP('',(#264,#265,#266,#267));
#122=PLANE('',#123);
#123=AXIS2_PLACEMENT_3D('',#124,#125,#126);
#124=CARTESIAN_POINT('',(-1.5,-2.,-4.5));
#125=DIRECTION('',(0.,0.,-1.));
#126=DIRECTION('',(1.,-1.48029736616688E-16,0.));
#127=FACE_BOUND('',#128,.T.);
#128=EDGE_LOOP('',(#268,#269,#270,#271));
#129=PLANE('',#130);
#130=AXIS2_PLACEMENT_3D('',#131,#132,#133);
#131=CARTESIAN_POINT('',(6.,-5.,0.));
#132=DIRECTION('',(1.,-1.77635683940025E-16,0.));
#133=DIRECTION('',(1.77635683940025E-16,1.,0.));
#134=FACE_BOUND('',#135,.T.);
#135=EDGE_LOOP('',(#272,#273,#274,#275));
#136=PLANE('',#137);
#137=AXIS2_PLACEMENT_3D('',#138,#139,#140);
#138=CARTESIAN_POINT('',(6.,5.,1.42874276124787));
#139=DIRECTION('',(0.970738468576036,-1.72437791792397E-16,-0.240139179699299));
#140=DIRECTION('',(0.240139179699299,0.,0.970738468576036));
#141=FACE_BOUND('',#142,.T.);
#142=EDGE_LOOP('',(#276,#277,#278,#279));
#143=PLANE('',#144);
#144=AXIS2_PLACEMENT_3D('',#145,#146,#147);
#145=CARTESIAN_POINT('',(8.0803946292783,5.,9.83852869867074));
#146=DIRECTION('',(1.,0.,0.));
#147=DIRECTION('',(0.,0.,1.));
#148=FACE_BOUND('',#149,.T.);
#149=EDGE_LOOP('',(#280,#281,#282,#283));
#150=PLANE('',#151);
#151=AXIS2_PLACEMENT_3D('',#152,#153,#154);
#152=CARTESIAN_POINT('',(8.0803946292783,5.,12.8385286986707));
#153=DIRECTION('',(0.72049043377642,0.,0.6934648764261));
#154=DIRECTION('',(-0.6934648764261,0.,0.72049043377642));
#155=FACE_BOUND('',#156,.T.);
#156=EDGE_LOOP('',(#284,#285,#286,#287));
#157=FACE_BOUND('',#158,.T.);
#158=EDGE_LOOP('',(#288));
#159=PLANE('',#160);
#160=AXIS2_PLACEMENT_3D('',#161,#162,#163);
#161=CARTESIAN_POINT('',(0.,0.,15.));
#162=DIRECTION('',(0.,0.,1.));
#163=DIRECTION('',(-1.,1.22464679914735E-16,0.));
#164=FACE_BOUND('',#165,.T.);
#165=EDGE_LOOP('',(#289,#290,#291,#292));
#166=PLANE('',#167);
#167=AXIS2_PLACEMENT_3D('',#168,#169,#170);
#168=CARTESIAN_POINT('',(-5.99999999999999,5.,15.));
#169=DIRECTION('',(-0.720490433776419,1.2798481097612E-16,0.693464876426101));
#170=DIRECTION('',(-0.693464876426101,0.,-0.720490433776419));
#171=FACE_BOUND('',#172,.T.);
#172=EDGE_LOOP('',(#293,#294,#295,#296));
#173=PLANE('',#174);
#174=AXIS2_PLACEMENT_3D('',#175,#176,#177);
#175=CARTESIAN_POINT('',(-8.08039462927829,5.,12.8385286986707));
#176=DIRECTION('',(-1.,0.,5.9211894646675E-16));
#177=DIRECTION('',(-5.9211894646675E-16,0.,-1.));
#178=FACE_BOUND('',#179,.T.);
#179=EDGE_LOOP('',(#297,#298,#299,#300));
#180=PLANE('',#181);
#181=AXIS2_PLACEMENT_3D('',#182,#183,#184);
#182=CARTESIAN_POINT('',(-8.08039462927829,5.,9.83852869867075));
#183=DIRECTION('',(-0.970738468576036,0.,-0.240139179699298));
#184=DIRECTION('',(0.240139179699298,0.,-0.970738468576036));
#185=FACE_OUTER_BOUND('',#186,.T.);
#186=EDGE_LOOP('',(#301));
#187=FACE_OUTER_BOUND('',#188,.T.);
#188=EDGE_LOOP('',(#302));
#189=CYLINDRICAL_SURFACE('',#190,1.55);
#190=AXIS2_PLACEMENT_3D('',#191,#192,#193);
#191=CARTESIAN_POINT('',(5.,5.,11.9911760216549));
#192=DIRECTION('',(-2.55650567019522E-17,-1.,0.));
#193=DIRECTION('',(-6.12323399573677E-17,1.56540824300332E-33,-1.));
#194=FACE_OUTER_BOUND('',#195,.T.);
#195=EDGE_LOOP('',(#303));
#196=FACE_OUTER_BOUND('',#197,.T.);
#197=EDGE_LOOP('',(#304));
#198=CYLINDRICAL_SURFACE('',#199,1.55);
#199=AXIS2_PLACEMENT_3D('',#200,#201,#202);
#200=CARTESIAN_POINT('',(-5.,5.,11.9911760216549));
#201=DIRECTION('',(-2.55650567019522E-17,-1.,0.));
#202=DIRECTION('',(-6.12323399573677E-17,1.56540824300332E-33,-1.));
#203=FACE_BOUND('',#204,.T.);
#204=EDGE_LOOP('',(#305,#306,#307,#308,#309,#310,#311,#312,#313,#314));
#205=FACE_BOUND('',#206,.T.);
#206=EDGE_LOOP('',(#315));
#207=FACE_BOUND('',#208,.T.);
#208=EDGE_LOOP('',(#316));
#209=PLANE('',#210);
#210=AXIS2_PLACEMENT_3D('',#211,#212,#213);
#211=CARTESIAN_POINT('',(6.,5.,0.));
#212=DIRECTION('',(1.48029736616688E-16,1.,0.));
#213=DIRECTION('',(-1.,1.48029736616688E-16,0.));
#214=FACE_OUTER_BOUND('',#215,.T.);
#215=EDGE_LOOP('',(#317));
#216=FACE_OUTER_BOUND('',#217,.T.);
#217=EDGE_LOOP('',(#318));
#218=CYLINDRICAL_SURFACE('',#219,1.5);
#219=AXIS2_PLACEMENT_3D('',#220,#221,#222);
#220=CARTESIAN_POINT('',(2.17540971751503E-31,1.77635683940025E-15,0.));
#221=DIRECTION('',(0.,0.,1.));
#222=DIRECTION('',(1.,1.22464679914735E-16,0.));
#223=ORIENTED_EDGE('',*,*,#319,.F.);
#224=ORIENTED_EDGE('',*,*,#320,.T.);
#225=ORIENTED_EDGE('',*,*,#321,.T.);
#226=ORIENTED_EDGE('',*,*,#322,.F.);
#227=ORIENTED_EDGE('',*,*,#323,.T.);
#228=ORIENTED_EDGE('',*,*,#324,.T.);
#229=ORIENTED_EDGE('',*,*,#325,.T.);
#230=ORIENTED_EDGE('',*,*,#326,.T.);
#231=ORIENTED_EDGE('',*,*,#327,.T.);
#232=ORIENTED_EDGE('',*,*,#328,.T.);
#233=ORIENTED_EDGE('',*,*,#329,.F.);
#234=ORIENTED_EDGE('',*,*,#330,.T.);
#235=ORIENTED_EDGE('',*,*,#331,.T.);
#236=ORIENTED_EDGE('',*,*,#332,.T.);
#237=ORIENTED_EDGE('',*,*,#333,.T.);
#238=ORIENTED_EDGE('',*,*,#334,.T.);
#239=ORIENTED_EDGE('',*,*,#335,.T.);
#240=ORIENTED_EDGE('',*,*,#336,.F.);
#241=ORIENTED_EDGE('',*,*,#337,.F.);
#242=ORIENTED_EDGE('',*,*,#338,.F.);
#243=ORIENTED_EDGE('',*,*,#339,.T.);
#244=ORIENTED_EDGE('',*,*,#338,.T.);
#245=ORIENTED_EDGE('',*,*,#340,.F.);
#246=ORIENTED_EDGE('',*,*,#321,.F.);
#247=ORIENTED_EDGE('',*,*,#341,.T.);
#248=ORIENTED_EDGE('',*,*,#323,.F.);
#249=ORIENTED_EDGE('',*,*,#342,.F.);
#250=ORIENTED_EDGE('',*,*,#336,.T.);
#251=ORIENTED_EDGE('',*,*,#343,.F.);
#252=ORIENTED_EDGE('',*,*,#344,.F.);
#253=ORIENTED_EDGE('',*,*,#345,.T.);
#254=ORIENTED_EDGE('',*,*,#319,.T.);
#255=ORIENTED_EDGE('',*,*,#341,.F.);
#256=ORIENTED_EDGE('',*,*,#335,.F.);
#257=ORIENTED_EDGE('',*,*,#339,.F.);
#258=ORIENTED_EDGE('',*,*,#320,.F.);
#259=ORIENTED_EDGE('',*,*,#345,.F.);
#260=ORIENTED_EDGE('',*,*,#346,.F.);
#261=ORIENTED_EDGE('',*,*,#347,.F.);
#262=ORIENTED_EDGE('',*,*,#324,.F.);
#263=ORIENTED_EDGE('',*,*,#348,.T.);
#264=ORIENTED_EDGE('',*,*,#337,.T.);
#265=ORIENTED_EDGE('',*,*,#342,.T.);
#266=ORIENTED_EDGE('',*,*,#322,.T.);
#267=ORIENTED_EDGE('',*,*,#340,.T.);
#268=ORIENTED_EDGE('',*,*,#349,.F.);
#269=ORIENTED_EDGE('',*,*,#325,.F.);
#270=ORIENTED_EDGE('',*,*,#347,.T.);
#271=ORIENTED_EDGE('',*,*,#350,.T.);
#272=ORIENTED_EDGE('',*,*,#349,.T.);
#273=ORIENTED_EDGE('',*,*,#351,.T.);
#274=ORIENTED_EDGE('',*,*,#352,.T.);
#275=ORIENTED_EDGE('',*,*,#326,.F.);
#276=ORIENTED_EDGE('',*,*,#353,.T.);
#277=ORIENTED_EDGE('',*,*,#354,.T.);
#278=ORIENTED_EDGE('',*,*,#327,.F.);
#279=ORIENTED_EDGE('',*,*,#352,.F.);
#280=ORIENTED_EDGE('',*,*,#355,.T.);
#281=ORIENTED_EDGE('',*,*,#356,.T.);
#282=ORIENTED_EDGE('',*,*,#328,.F.);
#283=ORIENTED_EDGE('',*,*,#354,.F.);
#284=ORIENTED_EDGE('',*,*,#329,.T.);
#285=ORIENTED_EDGE('',*,*,#356,.F.);
#286=ORIENTED_EDGE('',*,*,#357,.T.);
#287=ORIENTED_EDGE('',*,*,#358,.T.);
#288=ORIENTED_EDGE('',*,*,#359,.T.);
#289=ORIENTED_EDGE('',*,*,#360,.T.);
#290=ORIENTED_EDGE('',*,*,#361,.T.);
#291=ORIENTED_EDGE('',*,*,#330,.F.);
#292=ORIENTED_EDGE('',*,*,#358,.F.);
#293=ORIENTED_EDGE('',*,*,#362,.T.);
#294=ORIENTED_EDGE('',*,*,#363,.T.);
#295=ORIENTED_EDGE('',*,*,#331,.F.);
#296=ORIENTED_EDGE('',*,*,#361,.F.);
#297=ORIENTED_EDGE('',*,*,#343,.T.);
#298=ORIENTED_EDGE('',*,*,#332,.F.);
#299=ORIENTED_EDGE('',*,*,#363,.F.);
#300=ORIENTED_EDGE('',*,*,#364,.T.);
#301=ORIENTED_EDGE('',*,*,#365,.F.);
#302=ORIENTED_EDGE('',*,*,#333,.F.);
#303=ORIENTED_EDGE('',*,*,#366,.F.);
#304=ORIENTED_EDGE('',*,*,#334,.F.);
#305=ORIENTED_EDGE('',*,*,#357,.F.);
#306=ORIENTED_EDGE('',*,*,#355,.F.);
#307=ORIENTED_EDGE('',*,*,#353,.F.);
#308=ORIENTED_EDGE('',*,*,#351,.F.);
#309=ORIENTED_EDGE('',*,*,#350,.F.);
#310=ORIENTED_EDGE('',*,*,#346,.T.);
#311=ORIENTED_EDGE('',*,*,#344,.T.);
#312=ORIENTED_EDGE('',*,*,#364,.F.);
#313=ORIENTED_EDGE('',*,*,#362,.F.);
#314=ORIENTED_EDGE('',*,*,#360,.F.);
#315=ORIENTED_EDGE('',*,*,#365,.T.);
#316=ORIENTED_EDGE('',*,*,#366,.T.);
#317=ORIENTED_EDGE('',*,*,#359,.F.);
#318=ORIENTED_EDGE('',*,*,#348,.F.);
#319=EDGE_CURVE('',#367,#368,#369,.T.);
#320=EDGE_CURVE('',#367,#370,#371,.T.);
#321=EDGE_CURVE('',#370,#372,#373,.T.);
#322=EDGE_CURVE('',#374,#372,#375,.T.);
#323=EDGE_CURVE('',#374,#376,#377,.T.);
#324=EDGE_CURVE('',#376,#378,#379,.T.);
#325=EDGE_CURVE('',#378,#380,#381,.T.);
#326=EDGE_CURVE('',#380,#382,#383,.T.);
#327=EDGE_CURVE('',#382,#384,#385,.T.);
#328=EDGE_CURVE('',#384,#386,#387,.T.);
#329=EDGE_CURVE('',#388,#386,#389,.T.);
#330=EDGE_CURVE('',#388,#390,#391,.T.);
#331=EDGE_CURVE('',#390,#392,#393,.T.);
#332=EDGE_CURVE('',#392,#368,#394,.T.);
#333=EDGE_CURVE('',#395,#395,#396,.F.);
#334=EDGE_CURVE('',#397,#397,#398,.F.);
#335=EDGE_CURVE('',#399,#400,#401,.T.);
#336=EDGE_CURVE('',#402,#400,#403,.T.);
#337=EDGE_CURVE('',#404,#402,#405,.T.);
#338=EDGE_CURVE('',#399,#404,#406,.T.);
#339=EDGE_CURVE('',#370,#399,#407,.F.);
#340=EDGE_CURVE('',#372,#404,#408,.T.);
#341=EDGE_CURVE('',#400,#376,#409,.F.);
#342=EDGE_CURVE('',#402,#374,#410,.T.);
#343=EDGE_CURVE('',#411,#368,#412,.T.);
#344=EDGE_CURVE('',#413,#411,#414,.T.);
#345=EDGE_CURVE('',#413,#367,#415,.T.);
#346=EDGE_CURVE('',#416,#413,#417,.T.);
#347=EDGE_CURVE('',#378,#416,#418,.T.);
#348=EDGE_CURVE('',#419,#419,#420,.T.);
#349=EDGE_CURVE('',#380,#421,#422,.T.);
#350=EDGE_CURVE('',#416,#421,#423,.T.);
#351=EDGE_CURVE('',#421,#424,#425,.T.);
#352=EDGE_CURVE('',#424,#382,#426,.T.);
#353=EDGE_CURVE('',#424,#427,#428,.T.);
#354=EDGE_CURVE('',#427,#384,#429,.T.);
#355=EDGE_CURVE('',#427,#430,#431,.T.);
#356=EDGE_CURVE('',#430,#386,#432,.T.);
#357=EDGE_CURVE('',#430,#433,#434,.T.);
#358=EDGE_CURVE('',#433,#388,#435,.T.);
#359=EDGE_CURVE('',#436,#436,#437,.F.);
#360=EDGE_CURVE('',#433,#438,#439,.T.);
#361=EDGE_CURVE('',#438,#390,#440,.T.);
#362=EDGE_CURVE('',#438,#441,#442,.T.);
#363=EDGE_CURVE('',#441,#392,#443,.T.);
#364=EDGE_CURVE('',#441,#411,#444,.T.);
#365=EDGE_CURVE('',#445,#445,#446,.T.);
#366=EDGE_CURVE('',#447,#447,#448,.T.);
#367=VERTEX_POINT('',#449);
#368=VERTEX_POINT('',#450);
#369=LINE('',#451,#452);
#370=VERTEX_POINT('',#454);
#371=LINE('',#455,#456);
#372=VERTEX_POINT('',#458);
#373=LINE('',#459,#460);
#374=VERTEX_POINT('',#462);
#375=LINE('',#463,#464);
#376=VERTEX_POINT('',#466);
#377=LINE('',#467,#468);
#378=VERTEX_POINT('',#470);
#379=LINE('',#471,#472);
#380=VERTEX_POINT('',#474);
#381=LINE('',#475,#476);
#382=VERTEX_POINT('',#478);
#383=LINE('',#479,#480);
#384=VERTEX_POINT('',#482);
#385=LINE('',#483,#484);
#386=VERTEX_POINT('',#486);
#387=LINE('',#487,#488);
#388=VERTEX_POINT('',#490);
#389=LINE('',#491,#492);
#390=VERTEX_POINT('',#494);
#391=LINE('',#495,#496);
#392=VERTEX_POINT('',#498);
#393=LINE('',#499,#500);
#394=LINE('',#502,#503);
#395=VERTEX_POINT('',#505);
#396=CIRCLE('',#506,1.55);
#397=VERTEX_POINT('',#510);
#398=CIRCLE('',#511,1.55);
#399=VERTEX_POINT('',#515);
#400=VERTEX_POINT('',#516);
#401=LINE('',#517,#518);
#402=VERTEX_POINT('',#520);
#403=LINE('',#521,#522);
#404=VERTEX_POINT('',#524);
#405=LINE('',#525,#526);
#406=LINE('',#528,#529);
#407=LINE('',#531,#532);
#408=LINE('',#534,#535);
#409=LINE('',#537,#538);
#410=LINE('',#540,#541);
#411=VERTEX_POINT('',#543);
#412=LINE('',#544,#545);
#413=VERTEX_POINT('',#547);
#414=LINE('',#548,#549);
#415=LINE('',#551,#552);
#416=VERTEX_POINT('',#554);
#417=LINE('',#555,#556);
#418=LINE('',#558,#559);
#419=VERTEX_POINT('',#561);
#420=CIRCLE('',#562,1.5);
#421=VERTEX_POINT('',#566);
#422=LINE('',#567,#568);
#423=LINE('',#570,#571);
#424=VERTEX_POINT('',#573);
#425=LINE('',#574,#575);
#426=LINE('',#577,#578);
#427=VERTEX_POINT('',#580);
#428=LINE('',#581,#582);
#429=LINE('',#584,#585);
#430=VERTEX_POINT('',#587);
#431=LINE('',#588,#589);
#432=LINE('',#591,#592);
#433=VERTEX_POINT('',#594);
#434=LINE('',#595,#596);
#435=LINE('',#598,#599);
#436=VERTEX_POINT('',#601);
#437=CIRCLE('',#602,1.5);
#438=VERTEX_POINT('',#606);
#439=LINE('',#607,#608);
#440=LINE('',#610,#611);
#441=VERTEX_POINT('',#613);
#442=LINE('',#614,#615);
#443=LINE('',#617,#618);
#444=LINE('',#620,#621);
#445=VERTEX_POINT('',#623);
#446=CIRCLE('',#624,1.55);
#447=VERTEX_POINT('',#628);
#448=CIRCLE('',#629,1.55);
#449=CARTESIAN_POINT('',(-6.,-5.,0.));
#450=CARTESIAN_POINT('',(-6.,-5.,1.42874276124789));
#451=CARTESIAN_POINT('',(-6.,-5.,0.));
#452=VECTOR('',#453,1.);
#453=DIRECTION('',(0.,-6.21650337478792E-16,1.));
#454=CARTESIAN_POINT('',(-1.5,-5.,2.86059436305493E-18));
#455=CARTESIAN_POINT('',(-6.,-5.,0.));
#456=VECTOR('',#457,1.);
#457=DIRECTION('',(1.,-1.97372982155583E-16,0.));
#458=CARTESIAN_POINT('',(-1.5,-5.,-4.5));
#459=CARTESIAN_POINT('',(-1.5,-5.,8.58178308916476E-18));
#460=VECTOR('',#461,1.);
#461=DIRECTION('',(0.,0.,-1.));
#462=CARTESIAN_POINT('',(1.5,-5.,-4.5));
#463=CARTESIAN_POINT('',(1.5,-5.,-4.5));
#464=VECTOR('',#465,1.);
#465=DIRECTION('',(-1.,0.,0.));
#466=CARTESIAN_POINT('',(1.5,-5.,-4.91198870557697E-17));
#467=CARTESIAN_POINT('',(1.5,-5.,-4.5));
#468=VECTOR('',#469,1.);
#469=DIRECTION('',(0.,0.,1.));
#470=CARTESIAN_POINT('',(6.,-5.,0.));
#471=CARTESIAN_POINT('',(1.5,-5.,0.));
#472=VECTOR('',#473,1.);
#473=DIRECTION('',(1.,-1.97372982155583E-16,0.));
#474=CARTESIAN_POINT('',(6.,-5.,1.42874276124788));
#475=CARTESIAN_POINT('',(6.,-5.,0.));
#476=VECTOR('',#477,1.);
#477=DIRECTION('',(0.,0.,1.));
#478=CARTESIAN_POINT('',(8.0803946292783,-5.,9.83852869867074));
#479=CARTESIAN_POINT('',(6.,-5.,1.42874276124787));
#480=VECTOR('',#481,1.);
#481=DIRECTION('',(0.240139179699299,0.,0.970738468576036));
#482=CARTESIAN_POINT('',(8.0803946292783,-5.,12.8385286986707));
#483=CARTESIAN_POINT('',(8.0803946292783,-5.,9.83852869867074));
#484=VECTOR('',#485,1.);
#485=DIRECTION('',(0.,0.,1.));
#486=CARTESIAN_POINT('',(6.,-5.,15.));
#487=CARTESIAN_POINT('',(8.0803946292783,-5.,12.8385286986707));
#488=VECTOR('',#489,1.);
#489=DIRECTION('',(-0.6934648764261,0.,0.72049043377642));
#490=CARTESIAN_POINT('',(-5.99999999999999,-5.,15.));
#491=CARTESIAN_POINT('',(-6.,-5.,15.));
#492=VECTOR('',#493,1.);
#493=DIRECTION('',(1.,-1.48029736616688E-16,0.));
#494=CARTESIAN_POINT('',(-8.08039462927829,-5.,12.8385286986707));
#495=CARTESIAN_POINT('',(-5.99999999999999,-5.,15.));
#496=VECTOR('',#497,1.);
#497=DIRECTION('',(-0.693464876426101,0.,-0.720490433776419));
#498=CARTESIAN_POINT('',(-8.08039462927829,-5.,9.83852869867075));
#499=CARTESIAN_POINT('',(-8.08039462927829,-5.,12.8385286986707));
#500=VECTOR('',#501,1.);
#501=DIRECTION('',(0.,0.,-1.));
#502=CARTESIAN_POINT('',(-8.08039462927829,-5.,9.83852869867075));
#503=VECTOR('',#504,1.);
#504=DIRECTION('',(0.240139179699298,0.,-0.970738468576036));
#505=CARTESIAN_POINT('',(6.,-5.,13.1754479498876));
#506=AXIS2_PLACEMENT_3D('',#507,#508,#509);
#507=CARTESIAN_POINT('',(5.,-5.,11.9911760216549));
#508=DIRECTION('',(-1.48029736616688E-16,-1.,0.));
#509=DIRECTION('',(-6.12323399573677E-17,9.06420715631261E-33,-1.));
#510=CARTESIAN_POINT('',(-6.,-5.,10.8069040934222));
#511=AXIS2_PLACEMENT_3D('',#512,#513,#514);
#512=CARTESIAN_POINT('',(-5.,-5.,11.9911760216549));
#513=DIRECTION('',(-1.48029736616688E-16,-1.,0.));
#514=DIRECTION('',(-6.12323399573677E-17,9.06420715631261E-33,-1.));
#515=CARTESIAN_POINT('',(-1.5,-2.,8.58178308916474E-18));
#516=CARTESIAN_POINT('',(1.5,-2.,-1.47359661167309E-16));
#517=CARTESIAN_POINT('',(-1.5,-2.,0.));
#518=VECTOR('',#519,1.);
#519=DIRECTION('',(1.,-7.40148683083438E-17,0.));
#520=CARTESIAN_POINT('',(1.5,-2.,-4.5));
#521=CARTESIAN_POINT('',(1.5,-2.,-4.5));
#522=VECTOR('',#523,1.);
#523=DIRECTION('',(4.93432455388958E-17,0.,1.));
#524=CARTESIAN_POINT('',(-1.5,-2.,-4.5));
#525=CARTESIAN_POINT('',(-1.5,-2.,-4.5));
#526=VECTOR('',#527,1.);
#527=DIRECTION('',(1.,-7.40148683083438E-17,0.));
#528=CARTESIAN_POINT('',(-1.5,-2.,8.58178308916474E-18));
#529=VECTOR('',#530,1.);
#530=DIRECTION('',(-4.93432455388958E-17,0.,-1.));
#531=CARTESIAN_POINT('',(-1.5,-2.,-2.10074782721007E-64));
#532=VECTOR('',#533,1.);
#533=DIRECTION('',(-1.48029736616688E-16,-1.,5.47820073070147E-33));
#534=CARTESIAN_POINT('',(-1.5,-5.,-4.5));
#535=VECTOR('',#536,1.);
#536=DIRECTION('',(1.48029736616688E-16,1.,0.));
#537=CARTESIAN_POINT('',(1.5,-5.,1.64346021921044E-32));
#538=VECTOR('',#539,1.);
#539=DIRECTION('',(1.48029736616688E-16,1.,-5.47820073070147E-33));
#540=CARTESIAN_POINT('',(1.5,-2.,-4.5));
#541=VECTOR('',#542,1.);
#542=DIRECTION('',(-1.48029736616688E-16,-1.,0.));
#543=CARTESIAN_POINT('',(-6.,5.,1.42874276124788));
#544=CARTESIAN_POINT('',(-6.,5.,1.42874276124789));
#545=VECTOR('',#546,1.);
#546=DIRECTION('',(-1.77635683940025E-16,-1.,7.105427357601E-16));
#547=CARTESIAN_POINT('',(-6.,5.,0.));
#548=CARTESIAN_POINT('',(-6.,5.,0.));
#549=VECTOR('',#550,1.);
#550=DIRECTION('',(0.,0.,1.));
#551=CARTESIAN_POINT('',(-6.,5.,0.));
#552=VECTOR('',#553,1.);
#553=DIRECTION('',(-1.77635683940025E-16,-1.,0.));
#554=CARTESIAN_POINT('',(6.,5.,0.));
#555=CARTESIAN_POINT('',(6.,5.,0.));
#556=VECTOR('',#557,1.);
#557=DIRECTION('',(-1.,1.48029736616688E-16,0.));
#558=CARTESIAN_POINT('',(6.,-5.,0.));
#559=VECTOR('',#560,1.);
#560=DIRECTION('',(1.77635683940025E-16,1.,0.));
#561=CARTESIAN_POINT('',(1.5,1.77635683940025E-15,0.));
#562=AXIS2_PLACEMENT_3D('',#563,#564,#565);
#563=CARTESIAN_POINT('',(2.17540971751503E-31,1.77635683940025E-15,0.));
#564=DIRECTION('',(0.,0.,1.));
#565=DIRECTION('',(1.,1.22464679914735E-16,0.));
#566=CARTESIAN_POINT('',(6.,5.,1.42874276124788));
#567=CARTESIAN_POINT('',(6.,-5.,1.42874276124788));
#568=VECTOR('',#569,1.);
#569=DIRECTION('',(1.77635683940025E-16,1.,0.));
#570=CARTESIAN_POINT('',(6.,5.,0.));
#571=VECTOR('',#572,1.);
#572=DIRECTION('',(0.,0.,1.));
#573=CARTESIAN_POINT('',(8.0803946292783,5.,9.83852869867074));
#574=CARTESIAN_POINT('',(6.,5.,1.42874276124787));
#575=VECTOR('',#576,1.);
#576=DIRECTION('',(0.240139179699299,0.,0.970738468576036));
#577=CARTESIAN_POINT('',(8.0803946292783,5.,9.83852869867074));
#578=VECTOR('',#579,1.);
#579=DIRECTION('',(-1.77635683940025E-16,-1.,0.));
#580=CARTESIAN_POINT('',(8.0803946292783,5.,12.8385286986707));
#581=CARTESIAN_POINT('',(8.0803946292783,5.,9.83852869867074));
#582=VECTOR('',#583,1.);
#583=DIRECTION('',(0.,0.,1.));
#584=CARTESIAN_POINT('',(8.0803946292783,5.,12.8385286986707));
#585=VECTOR('',#586,1.);
#586=DIRECTION('',(0.,-1.,0.));
#587=CARTESIAN_POINT('',(6.,5.,15.));
#588=CARTESIAN_POINT('',(8.0803946292783,5.,12.8385286986707));
#589=VECTOR('',#590,1.);
#590=DIRECTION('',(-0.6934648764261,0.,0.72049043377642));
#591=CARTESIAN_POINT('',(6.,5.,15.));
#592=VECTOR('',#593,1.);
#593=DIRECTION('',(-2.66453525910038E-16,-1.,0.));
#594=CARTESIAN_POINT('',(-5.99999999999999,5.,15.));
#595=CARTESIAN_POINT('',(6.,5.,15.));
#596=VECTOR('',#597,1.);
#597=DIRECTION('',(-1.,1.48029736616688E-16,0.));
#598=CARTESIAN_POINT('',(-5.99999999999999,5.,15.));
#599=VECTOR('',#600,1.);
#600=DIRECTION('',(-2.66453525910038E-16,-1.,0.));
#601=CARTESIAN_POINT('',(1.5,1.77635683940025E-15,15.));
#602=AXIS2_PLACEMENT_3D('',#603,#604,#605);
#603=CARTESIAN_POINT('',(2.17540971751503E-31,1.77635683940025E-15,15.));
#604=DIRECTION('',(0.,0.,1.));
#605=DIRECTION('',(1.,1.22464679914735E-16,0.));
#606=CARTESIAN_POINT('',(-8.08039462927829,5.,12.8385286986707));
#607=CARTESIAN_POINT('',(-5.99999999999999,5.,15.));
#608=VECTOR('',#609,1.);
#609=DIRECTION('',(-0.693464876426101,0.,-0.720490433776419));
#610=CARTESIAN_POINT('',(-8.08039462927829,5.,12.8385286986707));
#611=VECTOR('',#612,1.);
#612=DIRECTION('',(-1.77635683940025E-16,-1.,0.));
#613=CARTESIAN_POINT('',(-8.08039462927829,5.,9.83852869867075));
#614=CARTESIAN_POINT('',(-8.08039462927829,5.,12.8385286986707));
#615=VECTOR('',#616,1.);
#616=DIRECTION('',(-1.1842378929335E-15,0.,-1.));
#617=CARTESIAN_POINT('',(-8.08039462927829,5.,9.83852869867075));
#618=VECTOR('',#619,1.);
#619=DIRECTION('',(0.,-1.,0.));
#620=CARTESIAN_POINT('',(-8.08039462927829,5.,9.83852869867075));
#621=VECTOR('',#622,1.);
#622=DIRECTION('',(0.240139179699298,0.,-0.970738468576036));
#623=CARTESIAN_POINT('',(6.,5.,13.1754479498876));
#624=AXIS2_PLACEMENT_3D('',#625,#626,#627);
#625=CARTESIAN_POINT('',(5.,5.,11.9911760216549));
#626=DIRECTION('',(-1.48029736616688E-16,-1.,0.));
#627=DIRECTION('',(-6.12323399573677E-17,9.06420715631261E-33,-1.));
#628=CARTESIAN_POINT('',(-6.00000000000001,5.,10.8069040934222));
#629=AXIS2_PLACEMENT_3D('',#630,#631,#632);
#630=CARTESIAN_POINT('',(-5.,5.,11.9911760216549));
#631=DIRECTION('',(-1.48029736616688E-16,-1.,0.));
#632=DIRECTION('',(-6.12323399573677E-17,9.06420715631261E-33,-1.));
ENDSEC;
END-ISO-10303-21;
