  999
file created by gear template generator
  0
SECTION
  2
HEADER
  9
$ACADVER
  1
AC1006
  9
$INSBASE
  10
0.0
  20
0.0
  30
0.0
  9
$EXTMIN
  10
0.0
  20
0.0
  9
$EXTMAX
  10
10000.0
  20
10000.0
  0
ENDSEC
  0
SECTION
  2
ENTITIES
  0
LINE
  8
0
  10
3.17113
  20
2.01093
  30
0
  11
3.17113
  21
2.01093
  31
0
  0
LINE
  8
0
  10
3.17113
  20
2.01093
  30
0
  11
3.18258
  21
1.98337
  31
0
  0
LINE
  8
0
  10
3.18258
  20
1.98337
  30
0
  11
3.19174
  21
1.97311
  31
0
  0
LINE
  8
0
  10
3.19174
  20
1.97311
  30
0
  11
3.20051
  21
1.96585
  31
0
  0
LINE
  8
0
  10
3.20051
  20
1.96585
  30
0
  11
3.20908
  21
1.96021
  31
0
  0
LINE
  8
0
  10
3.20908
  20
1.96021
  30
0
  11
3.21753
  21
1.95566
  31
0
  0
LINE
  8
0
  10
3.21753
  20
1.95566
  30
0
  11
3.23418
  21
1.94878
  31
0
  0
LINE
  8
0
  10
3.23418
  20
1.94878
  30
0
  11
3.25061
  21
1.94403
  31
0
  0
LINE
  8
0
  10
3.25061
  20
1.94403
  30
0
  11
3.2669
  21
1.94083
  31
0
  0
LINE
  8
0
  10
3.2669
  20
1.94083
  30
0
  11
3.28309
  21
1.93886
  31
0
  0
LINE
  8
0
  10
3.28309
  20
1.93886
  30
0
  11
3.31523
  21
1.93793
  31
0
  0
LINE
  8
0
  10
3.31523
  20
1.93793
  30
0
  11
3.34736
  21
1.93705
  31
0
  0
LINE
  8
0
  10
3.34736
  20
1.93705
  30
0
  11
3.37977
  21
1.93182
  31
0
  0
LINE
  8
0
  10
3.37977
  20
1.93182
  30
0
  11
3.41231
  21
1.92378
  31
0
  0
LINE
  8
0
  10
3.41231
  20
1.92378
  30
0
  11
3.44491
  21
1.91343
  31
0
  0
LINE
  8
0
  10
3.44491
  20
1.91343
  30
0
  11
3.47751
  21
1.90099
  31
0
  0
LINE
  8
0
  10
3.47751
  20
1.90099
  30
0
  11
3.51006
  21
1.88663
  31
0
  0
LINE
  8
0
  10
3.51006
  20
1.88663
  30
0
  11
3.5425
  21
1.87045
  31
0
  0
LINE
  8
0
  10
3.5425
  20
1.87045
  30
0
  11
3.57481
  21
1.85253
  31
0
  0
LINE
  8
0
  10
3.57481
  20
1.85253
  30
0
  11
3.60692
  21
1.83291
  31
0
  0
LINE
  8
0
  10
3.60692
  20
1.83291
  30
0
  11
3.6388
  21
1.81166
  31
0
  0
LINE
  8
0
  10
3.6388
  20
1.81166
  30
0
  11
3.66253
  21
1.79467
  31
0
  0
LINE
  8
0
  10
3.66253
  20
1.79467
  30
0
  11
3.63299
  21
1.5018
  31
0
  0
LINE
  8
0
  10
3.63299
  20
1.5018
  30
0
  11
3.60634
  21
1.48989
  31
0
  0
LINE
  8
0
  10
3.60634
  20
1.48989
  30
0
  11
3.57086
  21
1.47543
  31
0
  0
LINE
  8
0
  10
3.57086
  20
1.47543
  30
0
  11
3.53548
  21
1.46263
  31
0
  0
LINE
  8
0
  10
3.53548
  20
1.46263
  30
0
  11
3.50025
  21
1.45152
  31
0
  0
LINE
  8
0
  10
3.50025
  20
1.45152
  30
0
  11
3.46522
  21
1.44214
  31
0
  0
LINE
  8
0
  10
3.46522
  20
1.44214
  30
0
  11
3.43046
  21
1.43457
  31
0
  0
LINE
  8
0
  10
3.43046
  20
1.43457
  30
0
  11
3.39603
  21
1.4289
  31
0
  0
LINE
  8
0
  10
3.39603
  20
1.4289
  30
0
  11
3.36202
  21
1.42526
  31
0
  0
LINE
  8
0
  10
3.36202
  20
1.42526
  30
0
  11
3.32853
  21
1.42389
  31
0
  0
LINE
  8
0
  10
3.32853
  20
1.42389
  30
0
  11
3.29573
  21
1.42524
  31
0
  0
LINE
  8
0
  10
3.29573
  20
1.42524
  30
0
  11
3.26407
  21
1.43079
  31
0
  0
LINE
  8
0
  10
3.26407
  20
1.43079
  30
0
  11
3.23239
  21
1.43629
  31
0
  0
LINE
  8
0
  10
3.23239
  20
1.43629
  30
0
  11
3.21614
  21
1.4376
  31
0
  0
LINE
  8
0
  10
3.21614
  20
1.4376
  30
0
  11
3.19954
  21
1.43772
  31
0
  0
LINE
  8
0
  10
3.19954
  20
1.43772
  30
0
  11
3.18249
  21
1.43634
  31
0
  0
LINE
  8
0
  10
3.18249
  20
1.43634
  30
0
  11
3.1648
  21
1.43293
  31
0
  0
LINE
  8
0
  10
3.1648
  20
1.43293
  30
0
  11
3.15561
  21
1.43015
  31
0
  0
LINE
  8
0
  10
3.15561
  20
1.43015
  30
0
  11
3.14609
  21
1.42634
  31
0
  0
LINE
  8
0
  10
3.14609
  20
1.42634
  30
0
  11
3.13604
  21
1.42098
  31
0
  0
LINE
  8
0
  10
3.13604
  20
1.42098
  30
0
  11
3.12502
  21
1.41275
  31
0
  0
LINE
  8
0
  10
3.12502
  20
1.41275
  30
0
  11
3.1083
  21
1.38804
  31
0
  0
LINE
  8
0
  10
3.1083
  20
1.38804
  30
0
  11
3.06853
  21
1.28686
  31
0
  0
LINE
  8
0
  10
3.06853
  20
1.28686
  30
0
  11
3.02077
  21
1.18921
  31
0
  0
LINE
  8
0
  10
3.02077
  20
1.18921
  30
0
  11
3.01384
  21
1.16018
  31
0
  0
LINE
  8
0
  10
3.01384
  20
1.16018
  30
0
  11
3.01521
  21
1.1465
  31
0
  0
LINE
  8
0
  10
3.01521
  20
1.1465
  30
0
  11
3.01804
  21
1.13547
  31
0
  0
LINE
  8
0
  10
3.01804
  20
1.13547
  30
0
  11
3.02166
  21
1.12587
  31
0
  0
LINE
  8
0
  10
3.02166
  20
1.12587
  30
0
  11
3.02582
  21
1.11722
  31
0
  0
LINE
  8
0
  10
3.02582
  20
1.11722
  30
0
  11
3.03525
  21
1.10187
  31
0
  0
LINE
  8
0
  10
3.03525
  20
1.10187
  30
0
  11
3.04575
  21
1.08836
  31
0
  0
LINE
  8
0
  10
3.04575
  20
1.08836
  30
0
  11
3.05704
  21
1.0762
  31
0
  0
LINE
  8
0
  10
3.05704
  20
1.0762
  30
0
  11
3.06899
  21
1.0651
  31
0
  0
LINE
  8
0
  10
3.06899
  20
1.0651
  30
0
  11
3.09444
  21
1.04545
  31
0
  0
LINE
  8
0
  10
3.09444
  20
1.04545
  30
0
  11
3.11991
  21
1.02585
  31
0
  0
LINE
  8
0
  10
3.11991
  20
1.02585
  30
0
  11
3.14306
  21
1.00257
  31
0
  0
LINE
  8
0
  10
3.14306
  20
1.00257
  30
0
  11
3.16466
  21
0.97695
  31
0
  0
LINE
  8
0
  10
3.16466
  20
0.97695
  30
0
  11
3.18495
  21
0.9494
  31
0
  0
LINE
  8
0
  10
3.18495
  20
0.9494
  30
0
  11
3.20401
  21
0.92018
  31
0
  0
LINE
  8
0
  10
3.20401
  20
0.92018
  30
0
  11
3.22191
  21
0.88943
  31
0
  0
LINE
  8
0
  10
3.22191
  20
0.88943
  30
0
  11
3.23865
  21
0.85727
  31
0
  0
LINE
  8
0
  10
3.23865
  20
0.85727
  30
0
  11
3.25424
  21
0.82378
  31
0
  0
LINE
  8
0
  10
3.25424
  20
0.82378
  30
0
  11
3.2687
  21
0.78904
  31
0
  0
LINE
  8
0
  10
3.2687
  20
0.78904
  30
0
  11
3.282
  21
0.75311
  31
0
  0
LINE
  8
0
  10
3.282
  20
0.75311
  30
0
  11
3.29121
  21
0.72541
  31
0
  0
LINE
  8
0
  10
3.29121
  20
0.72541
  30
0
  11
3.09516
  21
0.50584
  31
0
  0
LINE
  8
0
  10
3.09516
  20
0.50584
  30
0
  11
3.06661
  21
0.51187
  31
0
  0
LINE
  8
0
  10
3.06661
  20
0.51187
  30
0
  11
3.0294
  21
0.52103
  31
0
  0
LINE
  8
0
  10
3.0294
  20
0.52103
  30
0
  11
2.99325
  21
0.53147
  31
0
  0
LINE
  8
0
  10
2.99325
  20
0.53147
  30
0
  11
2.95822
  21
0.54318
  31
0
  0
LINE
  8
0
  10
2.95822
  20
0.54318
  30
0
  11
2.92437
  21
0.55619
  31
0
  0
LINE
  8
0
  10
2.92437
  20
0.55619
  30
0
  11
2.8918
  21
0.57049
  31
0
  0
LINE
  8
0
  10
2.8918
  20
0.57049
  30
0
  11
2.86061
  21
0.58614
  31
0
  0
LINE
  8
0
  10
2.86061
  20
0.58614
  30
0
  11
2.83096
  21
0.60319
  31
0
  0
LINE
  8
0
  10
2.83096
  20
0.60319
  30
0
  11
2.80305
  21
0.62176
  31
0
  0
LINE
  8
0
  10
2.80305
  20
0.62176
  30
0
  11
2.77731
  21
0.64213
  31
0
  0
LINE
  8
0
  10
2.77731
  20
0.64213
  30
0
  11
2.75496
  21
0.66524
  31
0
  0
LINE
  8
0
  10
2.75496
  20
0.66524
  30
0
  11
2.73257
  21
0.68831
  31
0
  0
LINE
  8
0
  10
2.73257
  20
0.68831
  30
0
  11
2.72019
  21
0.69892
  31
0
  0
LINE
  8
0
  10
2.72019
  20
0.69892
  30
0
  11
2.70683
  21
0.70877
  31
0
  0
LINE
  8
0
  10
2.70683
  20
0.70877
  30
0
  11
2.69222
  21
0.71768
  31
0
  0
LINE
  8
0
  10
2.69222
  20
0.71768
  30
0
  11
2.67591
  21
0.72532
  31
0
  0
LINE
  8
0
  10
2.67591
  20
0.72532
  30
0
  11
2.66685
  21
0.72847
  31
0
  0
LINE
  8
0
  10
2.66685
  20
0.72847
  30
0
  11
2.6569
  21
0.73099
  31
0
  0
LINE
  8
0
  10
2.6569
  20
0.73099
  30
0
  11
2.64562
  21
0.73255
  31
0
  0
LINE
  8
0
  10
2.64562
  20
0.73255
  30
0
  11
2.63187
  21
0.73237
  31
0
  0
LINE
  8
0
  10
2.63187
  20
0.73237
  30
0
  11
2.60381
  21
0.72221
  31
0
  0
LINE
  8
0
  10
2.60381
  20
0.72221
  30
0
  11
2.51217
  21
0.66373
  31
0
  0
LINE
  8
0
  10
2.51217
  20
0.66373
  30
0
  11
2.41613
  21
0.6128
  31
0
  0
LINE
  8
0
  10
2.41613
  20
0.6128
  30
0
  11
2.39346
  21
0.59339
  31
0
  0
LINE
  8
0
  10
2.39346
  20
0.59339
  30
0
  11
2.38653
  21
0.58151
  31
0
  0
LINE
  8
0
  10
2.38653
  20
0.58151
  30
0
  11
2.38233
  21
0.57093
  31
0
  0
LINE
  8
0
  10
2.38233
  20
0.57093
  30
0
  11
2.37962
  21
0.56103
  31
0
  0
LINE
  8
0
  10
2.37962
  20
0.56103
  30
0
  11
2.3779
  21
0.55159
  31
0
  0
LINE
  8
0
  10
2.3779
  20
0.55159
  30
0
  11
2.37651
  21
0.53363
  31
0
  0
LINE
  8
0
  10
2.37651
  20
0.53363
  30
0
  11
2.37706
  21
0.51653
  31
0
  0
LINE
  8
0
  10
2.37706
  20
0.51653
  30
0
  11
2.37905
  21
0.50005
  31
0
  0
LINE
  8
0
  10
2.37905
  20
0.50005
  30
0
  11
2.38219
  21
0.48405
  31
0
  0
LINE
  8
0
  10
2.38219
  20
0.48405
  30
0
  11
2.39123
  21
0.4532
  31
0
  0
LINE
  8
0
  10
2.39123
  20
0.4532
  30
0
  11
2.40032
  21
0.42237
  31
0
  0
LINE
  8
0
  10
2.40032
  20
0.42237
  30
0
  11
2.40536
  21
0.38993
  31
0
  0
LINE
  8
0
  10
2.40536
  20
0.38993
  30
0
  11
2.40778
  21
0.3565
  31
0
  0
LINE
  8
0
  10
2.40778
  20
0.3565
  30
0
  11
2.408
  21
0.32229
  31
0
  0
LINE
  8
0
  10
2.408
  20
0.32229
  30
0
  11
2.40625
  21
0.28745
  31
0
  0
LINE
  8
0
  10
2.40625
  20
0.28745
  30
0
  11
2.40265
  21
0.25205
  31
0
  0
LINE
  8
0
  10
2.40265
  20
0.25205
  30
0
  11
2.39729
  21
0.21619
  31
0
  0
LINE
  8
0
  10
2.39729
  20
0.21619
  30
0
  11
2.39022
  21
0.17993
  31
0
  0
LINE
  8
0
  10
2.39022
  20
0.17993
  30
0
  11
2.38149
  21
0.14333
  31
0
  0
LINE
  8
0
  10
2.38149
  20
0.14333
  30
0
  11
2.37113
  21
0.10644
  31
0
  0
LINE
  8
0
  10
2.37113
  20
0.10644
  30
0
  11
2.36231
  21
0.07862
  31
0
  0
LINE
  8
0
  10
2.36231
  20
0.07862
  30
0
  11
2.07464
  21
0.01622
  31
0
  0
LINE
  8
0
  10
2.07464
  20
0.01622
  30
0
  11
2.05508
  21
0.03788
  31
0
  0
LINE
  8
0
  10
2.05508
  20
0.03788
  30
0
  11
2.03037
  21
0.06715
  31
0
  0
LINE
  8
0
  10
2.03037
  20
0.06715
  30
0
  11
2.00726
  21
0.09685
  31
0
  0
LINE
  8
0
  10
2.00726
  20
0.09685
  30
0
  11
1.9858
  21
0.12692
  31
0
  0
LINE
  8
0
  10
1.9858
  20
0.12692
  30
0
  11
1.96606
  21
0.15734
  31
0
  0
LINE
  8
0
  10
1.96606
  20
0.15734
  30
0
  11
1.94812
  21
0.18806
  31
0
  0
LINE
  8
0
  10
1.94812
  20
0.18806
  30
0
  11
1.93208
  21
0.21905
  31
0
  0
LINE
  8
0
  10
1.93208
  20
0.21905
  30
0
  11
1.91811
  21
0.25027
  31
0
  0
LINE
  8
0
  10
1.91811
  20
0.25027
  30
0
  11
1.90646
  21
0.2817
  31
0
  0
LINE
  8
0
  10
1.90646
  20
0.2817
  30
0
  11
1.8976
  21
0.31331
  31
0
  0
LINE
  8
0
  10
1.8976
  20
0.31331
  30
0
  11
1.89311
  21
0.34513
  31
0
  0
LINE
  8
0
  10
1.89311
  20
0.34513
  30
0
  11
1.88855
  21
0.37696
  31
0
  0
LINE
  8
0
  10
1.88855
  20
0.37696
  30
0
  11
1.88477
  21
0.39282
  31
0
  0
LINE
  8
0
  10
1.88477
  20
0.39282
  30
0
  11
1.87975
  21
0.40865
  31
0
  0
LINE
  8
0
  10
1.87975
  20
0.40865
  30
0
  11
1.87317
  21
0.42444
  31
0
  0
LINE
  8
0
  10
1.87317
  20
0.42444
  30
0
  11
1.86446
  21
0.44021
  31
0
  0
LINE
  8
0
  10
1.86446
  20
0.44021
  30
0
  11
1.85898
  21
0.44809
  31
0
  0
LINE
  8
0
  10
1.85898
  20
0.44809
  30
0
  11
1.85242
  21
0.45597
  31
0
  0
LINE
  8
0
  10
1.85242
  20
0.45597
  30
0
  11
1.84421
  21
0.46387
  31
0
  0
LINE
  8
0
  10
1.84421
  20
0.46387
  30
0
  11
1.83298
  21
0.4718
  31
0
  0
LINE
  8
0
  10
1.83298
  20
0.4718
  30
0
  11
1.80431
  21
0.48007
  31
0
  0
LINE
  8
0
  10
1.80431
  20
0.48007
  30
0
  11
1.6958
  21
0.48662
  31
0
  0
LINE
  8
0
  10
1.6958
  20
0.48662
  30
0
  11
1.58816
  21
0.50188
  31
0
  0
LINE
  8
0
  10
1.58816
  20
0.50188
  30
0
  11
1.55842
  21
0.4995
  31
0
  0
LINE
  8
0
  10
1.55842
  20
0.4995
  30
0
  11
1.54582
  21
0.49397
  31
0
  0
LINE
  8
0
  10
1.54582
  20
0.49397
  30
0
  11
1.53621
  21
0.48787
  31
0
  0
LINE
  8
0
  10
1.53621
  20
0.48787
  30
0
  11
1.5282
  21
0.48145
  31
0
  0
LINE
  8
0
  10
1.5282
  20
0.48145
  30
0
  11
1.52126
  21
0.47483
  31
0
  0
LINE
  8
0
  10
1.52126
  20
0.47483
  30
0
  11
1.50957
  21
0.46112
  31
0
  0
LINE
  8
0
  10
1.50957
  20
0.46112
  30
0
  11
1.49997
  21
0.44696
  31
0
  0
LINE
  8
0
  10
1.49997
  20
0.44696
  30
0
  11
1.49189
  21
0.43245
  31
0
  0
LINE
  8
0
  10
1.49189
  20
0.43245
  30
0
  11
1.48503
  21
0.41767
  31
0
  0
LINE
  8
0
  10
1.48503
  20
0.41767
  30
0
  11
1.4742
  21
0.38739
  31
0
  0
LINE
  8
0
  10
1.4742
  20
0.38739
  30
0
  11
1.46344
  21
0.35711
  31
0
  0
LINE
  8
0
  10
1.46344
  20
0.35711
  30
0
  11
1.44845
  21
0.3279
  31
0
  0
LINE
  8
0
  10
1.44845
  20
0.3279
  30
0
  11
1.43075
  21
0.29943
  31
0
  0
LINE
  8
0
  10
1.43075
  20
0.29943
  30
0
  11
1.41083
  21
0.27163
  31
0
  0
LINE
  8
0
  10
1.41083
  20
0.27163
  30
0
  11
1.38893
  21
0.24447
  31
0
  0
LINE
  8
0
  10
1.38893
  20
0.24447
  30
0
  11
1.36521
  21
0.21795
  31
0
  0
LINE
  8
0
  10
1.36521
  20
0.21795
  30
0
  11
1.3398
  21
0.19209
  31
0
  0
LINE
  8
0
  10
1.3398
  20
0.19209
  30
0
  11
1.31277
  21
0.1669
  31
0
  0
LINE
  8
0
  10
1.31277
  20
0.1669
  30
0
  11
1.28419
  21
0.14242
  31
0
  0
LINE
  8
0
  10
1.28419
  20
0.14242
  30
0
  11
1.25413
  21
0.11867
  31
0
  0
LINE
  8
0
  10
1.25413
  20
0.11867
  30
0
  11
1.23064
  21
0.10135
  31
0
  0
LINE
  8
0
  10
1.23064
  20
0.10135
  30
0
  11
0.96123
  21
0.21995
  31
0
  0
LINE
  8
0
  10
0.96123
  20
0.21995
  30
0
  11
0.95814
  21
0.24897
  31
0
  0
LINE
  8
0
  10
0.95814
  20
0.24897
  30
0
  11
0.95535
  21
0.28718
  31
0
  0
LINE
  8
0
  10
0.95535
  20
0.28718
  30
0
  11
0.95411
  21
0.32479
  31
0
  0
LINE
  8
0
  10
0.95411
  20
0.32479
  30
0
  11
0.95443
  21
0.36173
  31
0
  0
LINE
  8
0
  10
0.95443
  20
0.36173
  30
0
  11
0.95633
  21
0.39794
  31
0
  0
LINE
  8
0
  10
0.95633
  20
0.39794
  30
0
  11
0.95988
  21
0.43334
  31
0
  0
LINE
  8
0
  10
0.95988
  20
0.43334
  30
0
  11
0.96512
  21
0.46784
  31
0
  0
LINE
  8
0
  10
0.96512
  20
0.46784
  30
0
  11
0.97217
  21
0.50131
  31
0
  0
LINE
  8
0
  10
0.97217
  20
0.50131
  30
0
  11
0.98121
  21
0.53358
  31
0
  0
LINE
  8
0
  10
0.98121
  20
0.53358
  30
0
  11
0.99263
  21
0.56436
  31
0
  0
LINE
  8
0
  10
0.99263
  20
0.56436
  30
0
  11
1.0077
  21
0.59275
  31
0
  0
LINE
  8
0
  10
1.0077
  20
0.59275
  30
0
  11
1.02272
  21
0.62118
  31
0
  0
LINE
  8
0
  10
1.02272
  20
0.62118
  30
0
  11
1.02899
  21
0.63624
  31
0
  0
LINE
  8
0
  10
1.02899
  20
0.63624
  30
0
  11
1.03423
  21
0.65199
  31
0
  0
LINE
  8
0
  10
1.03423
  20
0.65199
  30
0
  11
1.03818
  21
0.66863
  31
0
  0
LINE
  8
0
  10
1.03818
  20
0.66863
  30
0
  11
1.04041
  21
0.68651
  31
0
  0
LINE
  8
0
  10
1.04041
  20
0.68651
  30
0
  11
1.04061
  21
0.6961
  31
0
  0
LINE
  8
0
  10
1.04061
  20
0.6961
  30
0
  11
1.03993
  21
0.70634
  31
0
  0
LINE
  8
0
  10
1.03993
  20
0.70634
  30
0
  11
1.03793
  21
0.71755
  31
0
  0
LINE
  8
0
  10
1.03793
  20
0.71755
  30
0
  11
1.03351
  21
0.73057
  31
0
  0
LINE
  8
0
  10
1.03351
  20
0.73057
  30
0
  11
1.01517
  21
0.75412
  31
0
  0
LINE
  8
0
  10
1.01517
  20
0.75412
  30
0
  11
0.93123
  21
0.8232
  31
0
  0
LINE
  8
0
  10
0.93123
  20
0.8232
  30
0
  11
0.85312
  21
0.8988
  31
0
  0
LINE
  8
0
  10
0.85312
  20
0.8988
  30
0
  11
0.82766
  21
0.91436
  31
0
  0
LINE
  8
0
  10
0.82766
  20
0.91436
  30
0
  11
0.81422
  21
0.91729
  31
0
  0
LINE
  8
0
  10
0.81422
  20
0.91729
  30
0
  11
0.80285
  21
0.91801
  31
0
  0
LINE
  8
0
  10
0.80285
  20
0.91801
  30
0
  11
0.79261
  21
0.91753
  31
0
  0
LINE
  8
0
  10
0.79261
  20
0.91753
  30
0
  11
0.7831
  21
0.91625
  31
0
  0
LINE
  8
0
  10
0.7831
  20
0.91625
  30
0
  11
0.76559
  21
0.91202
  31
0
  0
LINE
  8
0
  10
0.76559
  20
0.91202
  30
0
  11
0.74949
  21
0.90621
  31
0
  0
LINE
  8
0
  10
0.74949
  20
0.90621
  30
0
  11
0.73443
  21
0.89923
  31
0
  0
LINE
  8
0
  10
0.73443
  20
0.89923
  30
0
  11
0.72019
  21
0.8913
  31
0
  0
LINE
  8
0
  10
0.72019
  20
0.8913
  30
0
  11
0.69363
  21
0.87316
  31
0
  0
LINE
  8
0
  10
0.69363
  20
0.87316
  30
0
  11
0.66713
  21
0.85499
  31
0
  0
LINE
  8
0
  10
0.66713
  20
0.85499
  30
0
  11
0.63783
  21
0.84017
  31
0
  0
LINE
  8
0
  10
0.63783
  20
0.84017
  30
0
  11
0.60678
  21
0.82754
  31
0
  0
LINE
  8
0
  10
0.60678
  20
0.82754
  30
0
  11
0.57432
  21
0.81676
  31
0
  0
LINE
  8
0
  10
0.57432
  20
0.81676
  30
0
  11
0.54064
  21
0.80766
  31
0
  0
LINE
  8
0
  10
0.54064
  20
0.80766
  30
0
  11
0.50587
  21
0.80014
  31
0
  0
LINE
  8
0
  10
0.50587
  20
0.80014
  30
0
  11
0.4701
  21
0.79416
  31
0
  0
LINE
  8
0
  10
0.4701
  20
0.79416
  30
0
  11
0.43343
  21
0.78968
  31
0
  0
LINE
  8
0
  10
0.43343
  20
0.78968
  30
0
  11
0.39592
  21
0.78667
  31
0
  0
LINE
  8
0
  10
0.39592
  20
0.78667
  30
0
  11
0.35764
  21
0.78512
  31
0
  0
LINE
  8
0
  10
0.35764
  20
0.78512
  30
0
  11
0.32846
  21
0.78492
  31
0
  0
LINE
  8
0
  10
0.32846
  20
0.78492
  30
0
  11
0.18021
  21
1.03922
  31
0
  0
LINE
  8
0
  10
0.18021
  20
1.03922
  30
0
  11
0.19477
  21
1.06452
  31
0
  0
LINE
  8
0
  10
0.19477
  20
1.06452
  30
0
  11
0.21497
  21
1.09707
  31
0
  0
LINE
  8
0
  10
0.21497
  20
1.09707
  30
0
  11
0.23607
  21
1.12823
  31
0
  0
LINE
  8
0
  10
0.23607
  20
1.12823
  30
0
  11
0.25805
  21
1.15793
  31
0
  0
LINE
  8
0
  10
0.25805
  20
1.15793
  30
0
  11
0.28087
  21
1.1861
  31
0
  0
LINE
  8
0
  10
0.28087
  20
1.1861
  30
0
  11
0.30455
  21
1.21266
  31
0
  0
LINE
  8
0
  10
0.30455
  20
1.21266
  30
0
  11
0.32906
  21
1.23748
  31
0
  0
LINE
  8
0
  10
0.32906
  20
1.23748
  30
0
  11
0.35444
  21
1.26042
  31
0
  0
LINE
  8
0
  10
0.35444
  20
1.26042
  30
0
  11
0.38073
  21
1.28121
  31
0
  0
LINE
  8
0
  10
0.38073
  20
1.28121
  30
0
  11
0.40806
  21
1.2994
  31
0
  0
LINE
  8
0
  10
0.40806
  20
1.2994
  30
0
  11
0.43693
  21
1.31351
  31
0
  0
LINE
  8
0
  10
0.43693
  20
1.31351
  30
0
  11
0.4658
  21
1.32769
  31
0
  0
LINE
  8
0
  10
0.4658
  20
1.32769
  30
0
  11
0.47971
  21
1.33618
  31
0
  0
LINE
  8
0
  10
0.47971
  20
1.33618
  30
0
  11
0.49321
  21
1.34584
  31
0
  0
LINE
  8
0
  10
0.49321
  20
1.34584
  30
0
  11
0.5062
  21
1.35698
  31
0
  0
LINE
  8
0
  10
0.5062
  20
1.35698
  30
0
  11
0.5185
  21
1.37014
  31
0
  0
LINE
  8
0
  10
0.5185
  20
1.37014
  30
0
  11
0.5243
  21
1.37778
  31
0
  0
LINE
  8
0
  10
0.5243
  20
1.37778
  30
0
  11
0.52977
  21
1.38646
  31
0
  0
LINE
  8
0
  10
0.52977
  20
1.38646
  30
0
  11
0.53475
  21
1.3967
  31
0
  0
LINE
  8
0
  10
0.53475
  20
1.3967
  30
0
  11
0.53882
  21
1.40984
  31
0
  0
LINE
  8
0
  10
0.53882
  20
1.40984
  30
0
  11
0.53783
  21
1.43966
  31
0
  0
LINE
  8
0
  10
0.53783
  20
1.43966
  30
0
  11
0.51053
  21
1.54489
  31
0
  0
LINE
  8
0
  10
0.51053
  20
1.54489
  30
0
  11
0.49177
  21
1.65197
  31
0
  0
LINE
  8
0
  10
0.49177
  20
1.65197
  30
0
  11
0.48032
  21
1.67952
  31
0
  0
LINE
  8
0
  10
0.48032
  20
1.67952
  30
0
  11
0.47116
  21
1.68979
  31
0
  0
LINE
  8
0
  10
0.47116
  20
1.68979
  30
0
  11
0.46239
  21
1.69705
  31
0
  0
LINE
  8
0
  10
0.46239
  20
1.69705
  30
0
  11
0.45382
  21
1.70269
  31
0
  0
LINE
  8
0
  10
0.45382
  20
1.70269
  30
0
  11
0.44537
  21
1.70724
  31
0
  0
LINE
  8
0
  10
0.44537
  20
1.70724
  30
0
  11
0.42872
  21
1.71411
  31
0
  0
LINE
  8
0
  10
0.42872
  20
1.71411
  30
0
  11
0.41229
  21
1.71887
  31
0
  0
LINE
  8
0
  10
0.41229
  20
1.71887
  30
0
  11
0.396
  21
1.72207
  31
0
  0
LINE
  8
0
  10
0.396
  20
1.72207
  30
0
  11
0.37981
  21
1.72403
  31
0
  0
LINE
  8
0
  10
0.37981
  20
1.72403
  30
0
  11
0.34767
  21
1.72497
  31
0
  0
LINE
  8
0
  10
0.34767
  20
1.72497
  30
0
  11
0.31554
  21
1.72585
  31
0
  0
LINE
  8
0
  10
0.31554
  20
1.72585
  30
0
  11
0.28313
  21
1.73108
  31
0
  0
LINE
  8
0
  10
0.28313
  20
1.73108
  30
0
  11
0.25059
  21
1.73911
  31
0
  0
LINE
  8
0
  10
0.25059
  20
1.73911
  30
0
  11
0.21799
  21
1.74947
  31
0
  0
LINE
  8
0
  10
0.21799
  20
1.74947
  30
0
  11
0.18539
  21
1.76191
  31
0
  0
LINE
  8
0
  10
0.18539
  20
1.76191
  30
0
  11
0.15284
  21
1.77627
  31
0
  0
LINE
  8
0
  10
0.15284
  20
1.77627
  30
0
  11
0.12039
  21
1.79245
  31
0
  0
LINE
  8
0
  10
0.12039
  20
1.79245
  30
0
  11
0.08809
  21
1.81037
  31
0
  0
LINE
  8
0
  10
0.08809
  20
1.81037
  30
0
  11
0.05598
  21
1.82998
  31
0
  0
LINE
  8
0
  10
0.05598
  20
1.82998
  30
0
  11
0.0241
  21
1.85124
  31
0
  0
LINE
  8
0
  10
0.0241
  20
1.85124
  30
0
  11
0.00037
  21
1.86823
  31
0
  0
LINE
  8
0
  10
0.00037
  20
1.86823
  30
0
  11
0.02991
  21
2.1611
  31
0
  0
LINE
  8
0
  10
0.02991
  20
2.1611
  30
0
  11
0.05656
  21
2.17301
  31
0
  0
LINE
  8
0
  10
0.05656
  20
2.17301
  30
0
  11
0.09204
  21
2.18746
  31
0
  0
LINE
  8
0
  10
0.09204
  20
2.18746
  30
0
  11
0.12742
  21
2.20027
  31
0
  0
LINE
  8
0
  10
0.12742
  20
2.20027
  30
0
  11
0.16265
  21
2.21138
  31
0
  0
LINE
  8
0
  10
0.16265
  20
2.21138
  30
0
  11
0.19768
  21
2.22076
  31
0
  0
LINE
  8
0
  10
0.19768
  20
2.22076
  30
0
  11
0.23244
  21
2.22833
  31
0
  0
LINE
  8
0
  10
0.23244
  20
2.22833
  30
0
  11
0.26687
  21
2.234
  31
0
  0
LINE
  8
0
  10
0.26687
  20
2.234
  30
0
  11
0.30088
  21
2.23764
  31
0
  0
LINE
  8
0
  10
0.30088
  20
2.23764
  30
0
  11
0.33437
  21
2.23901
  31
0
  0
LINE
  8
0
  10
0.33437
  20
2.23901
  30
0
  11
0.36717
  21
2.23766
  31
0
  0
LINE
  8
0
  10
0.36717
  20
2.23766
  30
0
  11
0.39883
  21
2.23211
  31
0
  0
LINE
  8
0
  10
0.39883
  20
2.23211
  30
0
  11
0.43051
  21
2.22661
  31
0
  0
LINE
  8
0
  10
0.43051
  20
2.22661
  30
0
  11
0.44676
  21
2.2253
  31
0
  0
LINE
  8
0
  10
0.44676
  20
2.2253
  30
0
  11
0.46336
  21
2.22518
  31
0
  0
LINE
  8
0
  10
0.46336
  20
2.22518
  30
0
  11
0.48041
  21
2.22656
  31
0
  0
LINE
  8
0
  10
0.48041
  20
2.22656
  30
0
  11
0.4981
  21
2.22997
  31
0
  0
LINE
  8
0
  10
0.4981
  20
2.22997
  30
0
  11
0.50729
  21
2.23274
  31
0
  0
LINE
  8
0
  10
0.50729
  20
2.23274
  30
0
  11
0.51681
  21
2.23655
  31
0
  0
LINE
  8
0
  10
0.51681
  20
2.23655
  30
0
  11
0.52686
  21
2.24192
  31
0
  0
LINE
  8
0
  10
0.52686
  20
2.24192
  30
0
  11
0.53788
  21
2.25015
  31
0
  0
LINE
  8
0
  10
0.53788
  20
2.25015
  30
0
  11
0.5546
  21
2.27486
  31
0
  0
LINE
  8
0
  10
0.5546
  20
2.27486
  30
0
  11
0.59436
  21
2.37604
  31
0
  0
LINE
  8
0
  10
0.59436
  20
2.37604
  30
0
  11
0.64213
  21
2.47369
  31
0
  0
LINE
  8
0
  10
0.64213
  20
2.47369
  30
0
  11
0.64906
  21
2.50271
  31
0
  0
LINE
  8
0
  10
0.64906
  20
2.50271
  30
0
  11
0.64769
  21
2.5164
  31
0
  0
LINE
  8
0
  10
0.64769
  20
2.5164
  30
0
  11
0.64486
  21
2.52743
  31
0
  0
LINE
  8
0
  10
0.64486
  20
2.52743
  30
0
  11
0.64124
  21
2.53703
  31
0
  0
LINE
  8
0
  10
0.64124
  20
2.53703
  30
0
  11
0.63708
  21
2.54568
  31
0
  0
LINE
  8
0
  10
0.63708
  20
2.54568
  30
0
  11
0.62765
  21
2.56103
  31
0
  0
LINE
  8
0
  10
0.62765
  20
2.56103
  30
0
  11
0.61715
  21
2.57454
  31
0
  0
LINE
  8
0
  10
0.61715
  20
2.57454
  30
0
  11
0.60586
  21
2.5867
  31
0
  0
LINE
  8
0
  10
0.60586
  20
2.5867
  30
0
  11
0.59391
  21
2.5978
  31
0
  0
LINE
  8
0
  10
0.59391
  20
2.5978
  30
0
  11
0.56846
  21
2.61745
  31
0
  0
LINE
  8
0
  10
0.56846
  20
2.61745
  30
0
  11
0.54299
  21
2.63704
  31
0
  0
LINE
  8
0
  10
0.54299
  20
2.63704
  30
0
  11
0.51984
  21
2.66033
  31
0
  0
LINE
  8
0
  10
0.51984
  20
2.66033
  30
0
  11
0.49823
  21
2.68595
  31
0
  0
LINE
  8
0
  10
0.49823
  20
2.68595
  30
0
  11
0.47795
  21
2.71349
  31
0
  0
LINE
  8
0
  10
0.47795
  20
2.71349
  30
0
  11
0.45888
  21
2.74272
  31
0
  0
LINE
  8
0
  10
0.45888
  20
2.74272
  30
0
  11
0.44099
  21
2.77346
  31
0
  0
LINE
  8
0
  10
0.44099
  20
2.77346
  30
0
  11
0.42425
  21
2.80563
  31
0
  0
LINE
  8
0
  10
0.42425
  20
2.80563
  30
0
  11
0.40865
  21
2.83912
  31
0
  0
LINE
  8
0
  10
0.40865
  20
2.83912
  30
0
  11
0.3942
  21
2.87386
  31
0
  0
LINE
  8
0
  10
0.3942
  20
2.87386
  30
0
  11
0.3809
  21
2.90979
  31
0
  0
LINE
  8
0
  10
0.3809
  20
2.90979
  30
0
  11
0.37169
  21
2.93748
  31
0
  0
LINE
  8
0
  10
0.37169
  20
2.93748
  30
0
  11
0.56774
  21
3.15706
  31
0
  0
LINE
  8
0
  10
0.56774
  20
3.15706
  30
0
  11
0.59629
  21
3.15103
  31
0
  0
LINE
  8
0
  10
0.59629
  20
3.15103
  30
0
  11
0.6335
  21
3.14187
  31
0
  0
LINE
  8
0
  10
0.6335
  20
3.14187
  30
0
  11
0.66965
  21
3.13143
  31
0
  0
LINE
  8
0
  10
0.66965
  20
3.13143
  30
0
  11
0.70468
  21
3.11971
  31
0
  0
LINE
  8
0
  10
0.70468
  20
3.11971
  30
0
  11
0.73853
  21
3.10671
  31
0
  0
LINE
  8
0
  10
0.73853
  20
3.10671
  30
0
  11
0.7711
  21
3.0924
  31
0
  0
LINE
  8
0
  10
0.7711
  20
3.0924
  30
0
  11
0.80229
  21
3.07676
  31
0
  0
LINE
  8
0
  10
0.80229
  20
3.07676
  30
0
  11
0.83194
  21
3.05971
  31
0
  0
LINE
  8
0
  10
0.83194
  20
3.05971
  30
0
  11
0.85984
  21
3.04114
  31
0
  0
LINE
  8
0
  10
0.85984
  20
3.04114
  30
0
  11
0.88559
  21
3.02076
  31
0
  0
LINE
  8
0
  10
0.88559
  20
3.02076
  30
0
  11
0.90793
  21
2.99766
  31
0
  0
LINE
  8
0
  10
0.90793
  20
2.99766
  30
0
  11
0.93033
  21
2.97459
  31
0
  0
LINE
  8
0
  10
0.93033
  20
2.97459
  30
0
  11
0.94271
  21
2.96398
  31
0
  0
LINE
  8
0
  10
0.94271
  20
2.96398
  30
0
  11
0.95607
  21
2.95413
  31
0
  0
LINE
  8
0
  10
0.95607
  20
2.95413
  30
0
  11
0.97068
  21
2.94522
  31
0
  0
LINE
  8
0
  10
0.97068
  20
2.94522
  30
0
  11
0.98699
  21
2.93758
  31
0
  0
LINE
  8
0
  10
0.98699
  20
2.93758
  30
0
  11
0.99605
  21
2.93443
  31
0
  0
LINE
  8
0
  10
0.99605
  20
2.93443
  30
0
  11
1.006
  21
2.93191
  31
0
  0
LINE
  8
0
  10
1.006
  20
2.93191
  30
0
  11
1.01728
  21
2.93034
  31
0
  0
LINE
  8
0
  10
1.01728
  20
2.93034
  30
0
  11
1.03103
  21
2.93053
  31
0
  0
LINE
  8
0
  10
1.03103
  20
2.93053
  30
0
  11
1.05909
  21
2.94069
  31
0
  0
LINE
  8
0
  10
1.05909
  20
2.94069
  30
0
  11
1.15073
  21
2.99917
  31
0
  0
LINE
  8
0
  10
1.15073
  20
2.99917
  30
0
  11
1.24677
  21
3.0501
  31
0
  0
LINE
  8
0
  10
1.24677
  20
3.0501
  30
0
  11
1.26944
  21
3.0695
  31
0
  0
LINE
  8
0
  10
1.26944
  20
3.0695
  30
0
  11
1.27637
  21
3.08138
  31
0
  0
LINE
  8
0
  10
1.27637
  20
3.08138
  30
0
  11
1.28057
  21
3.09197
  31
0
  0
LINE
  8
0
  10
1.28057
  20
3.09197
  30
0
  11
1.28328
  21
3.10187
  31
0
  0
LINE
  8
0
  10
1.28328
  20
3.10187
  30
0
  11
1.285
  21
3.11131
  31
0
  0
LINE
  8
0
  10
1.285
  20
3.11131
  30
0
  11
1.28639
  21
3.12926
  31
0
  0
LINE
  8
0
  10
1.28639
  20
3.12926
  30
0
  11
1.28584
  21
3.14636
  31
0
  0
LINE
  8
0
  10
1.28584
  20
3.14636
  30
0
  11
1.28385
  21
3.16285
  31
0
  0
LINE
  8
0
  10
1.28385
  20
3.16285
  30
0
  11
1.28071
  21
3.17885
  31
0
  0
LINE
  8
0
  10
1.28071
  20
3.17885
  30
0
  11
1.27167
  21
3.2097
  31
0
  0
LINE
  8
0
  10
1.27167
  20
3.2097
  30
0
  11
1.26258
  21
3.24053
  31
0
  0
LINE
  8
0
  10
1.26258
  20
3.24053
  30
0
  11
1.25754
  21
3.27297
  31
0
  0
LINE
  8
0
  10
1.25754
  20
3.27297
  30
0
  11
1.25512
  21
3.3064
  31
0
  0
LINE
  8
0
  10
1.25512
  20
3.3064
  30
0
  11
1.2549
  21
3.34061
  31
0
  0
LINE
  8
0
  10
1.2549
  20
3.34061
  30
0
  11
1.25665
  21
3.37545
  31
0
  0
LINE
  8
0
  10
1.25665
  20
3.37545
  30
0
  11
1.26025
  21
3.41085
  31
0
  0
LINE
  8
0
  10
1.26025
  20
3.41085
  30
0
  11
1.26561
  21
3.44671
  31
0
  0
LINE
  8
0
  10
1.26561
  20
3.44671
  30
0
  11
1.27268
  21
3.48297
  31
0
  0
LINE
  8
0
  10
1.27268
  20
3.48297
  30
0
  11
1.28141
  21
3.51957
  31
0
  0
LINE
  8
0
  10
1.28141
  20
3.51957
  30
0
  11
1.29177
  21
3.55646
  31
0
  0
LINE
  8
0
  10
1.29177
  20
3.55646
  30
0
  11
1.30059
  21
3.58427
  31
0
  0
LINE
  8
0
  10
1.30059
  20
3.58427
  30
0
  11
1.58826
  21
3.64668
  31
0
  0
LINE
  8
0
  10
1.58826
  20
3.64668
  30
0
  11
1.60782
  21
3.62502
  31
0
  0
LINE
  8
0
  10
1.60782
  20
3.62502
  30
0
  11
1.63253
  21
3.59574
  31
0
  0
LINE
  8
0
  10
1.63253
  20
3.59574
  30
0
  11
1.65564
  21
3.56605
  31
0
  0
LINE
  8
0
  10
1.65564
  20
3.56605
  30
0
  11
1.6771
  21
3.53597
  31
0
  0
LINE
  8
0
  10
1.6771
  20
3.53597
  30
0
  11
1.69684
  21
3.50556
  31
0
  0
LINE
  8
0
  10
1.69684
  20
3.50556
  30
0
  11
1.71478
  21
3.47484
  31
0
  0
LINE
  8
0
  10
1.71478
  20
3.47484
  30
0
  11
1.73082
  21
3.44385
  31
0
  0
LINE
  8
0
  10
1.73082
  20
3.44385
  30
0
  11
1.74478
  21
3.41263
  31
0
  0
LINE
  8
0
  10
1.74478
  20
3.41263
  30
0
  11
1.75644
  21
3.3812
  31
0
  0
LINE
  8
0
  10
1.75644
  20
3.3812
  30
0
  11
1.76529
  21
3.34959
  31
0
  0
LINE
  8
0
  10
1.76529
  20
3.34959
  30
0
  11
1.76979
  21
3.31776
  31
0
  0
LINE
  8
0
  10
1.76979
  20
3.31776
  30
0
  11
1.77435
  21
3.28594
  31
0
  0
LINE
  8
0
  10
1.77435
  20
3.28594
  30
0
  11
1.77813
  21
3.27007
  31
0
  0
LINE
  8
0
  10
1.77813
  20
3.27007
  30
0
  11
1.78315
  21
3.25425
  31
0
  0
LINE
  8
0
  10
1.78315
  20
3.25425
  30
0
  11
1.78973
  21
3.23846
  31
0
  0
LINE
  8
0
  10
1.78973
  20
3.23846
  30
0
  11
1.79844
  21
3.22269
  31
0
  0
LINE
  8
0
  10
1.79844
  20
3.22269
  30
0
  11
1.80391
  21
3.21481
  31
0
  0
LINE
  8
0
  10
1.80391
  20
3.21481
  30
0
  11
1.81048
  21
3.20693
  31
0
  0
LINE
  8
0
  10
1.81048
  20
3.20693
  30
0
  11
1.81868
  21
3.19903
  31
0
  0
LINE
  8
0
  10
1.81868
  20
3.19903
  30
0
  11
1.82992
  21
3.19109
  31
0
  0
LINE
  8
0
  10
1.82992
  20
3.19109
  30
0
  11
1.85859
  21
3.18283
  31
0
  0
LINE
  8
0
  10
1.85859
  20
3.18283
  30
0
  11
1.9671
  21
3.17627
  31
0
  0
LINE
  8
0
  10
1.9671
  20
3.17627
  30
0
  11
2.07474
  21
3.16102
  31
0
  0
LINE
  8
0
  10
2.07474
  20
3.16102
  30
0
  11
2.10448
  21
3.1634
  31
0
  0
LINE
  8
0
  10
2.10448
  20
3.1634
  30
0
  11
2.11708
  21
3.16893
  31
0
  0
LINE
  8
0
  10
2.11708
  20
3.16893
  30
0
  11
2.12669
  21
3.17503
  31
0
  0
LINE
  8
0
  10
2.12669
  20
3.17503
  30
0
  11
2.1347
  21
3.18144
  31
0
  0
LINE
  8
0
  10
2.1347
  20
3.18144
  30
0
  11
2.14164
  21
3.18807
  31
0
  0
LINE
  8
0
  10
2.14164
  20
3.18807
  30
0
  11
2.15332
  21
3.20178
  31
0
  0
LINE
  8
0
  10
2.15332
  20
3.20178
  30
0
  11
2.16293
  21
3.21594
  31
0
  0
LINE
  8
0
  10
2.16293
  20
3.21594
  30
0
  11
2.17101
  21
3.23044
  31
0
  0
LINE
  8
0
  10
2.17101
  20
3.23044
  30
0
  11
2.17787
  21
3.24523
  31
0
  0
LINE
  8
0
  10
2.17787
  20
3.24523
  30
0
  11
2.1887
  21
3.27551
  31
0
  0
LINE
  8
0
  10
2.1887
  20
3.27551
  30
0
  11
2.19946
  21
3.30579
  31
0
  0
LINE
  8
0
  10
2.19946
  20
3.30579
  30
0
  11
2.21445
  21
3.335
  31
0
  0
LINE
  8
0
  10
2.21445
  20
3.335
  30
0
  11
2.23215
  21
3.36347
  31
0
  0
LINE
  8
0
  10
2.23215
  20
3.36347
  30
0
  11
2.25207
  21
3.39127
  31
0
  0
LINE
  8
0
  10
2.25207
  20
3.39127
  30
0
  11
2.27397
  21
3.41843
  31
0
  0
LINE
  8
0
  10
2.27397
  20
3.41843
  30
0
  11
2.29768
  21
3.44495
  31
0
  0
LINE
  8
0
  10
2.29768
  20
3.44495
  30
0
  11
2.3231
  21
3.47081
  31
0
  0
LINE
  8
0
  10
2.3231
  20
3.47081
  30
0
  11
2.35013
  21
3.496
  31
0
  0
LINE
  8
0
  10
2.35013
  20
3.496
  30
0
  11
2.37871
  21
3.52048
  31
0
  0
LINE
  8
0
  10
2.37871
  20
3.52048
  30
0
  11
2.40877
  21
3.54423
  31
0
  0
LINE
  8
0
  10
2.40877
  20
3.54423
  30
0
  11
2.43226
  21
3.56155
  31
0
  0
LINE
  8
0
  10
2.43226
  20
3.56155
  30
0
  11
2.70167
  21
3.44295
  31
0
  0
LINE
  8
0
  10
2.70167
  20
3.44295
  30
0
  11
2.70476
  21
3.41393
  31
0
  0
LINE
  8
0
  10
2.70476
  20
3.41393
  30
0
  11
2.70755
  21
3.37571
  31
0
  0
LINE
  8
0
  10
2.70755
  20
3.37571
  30
0
  11
2.70879
  21
3.33811
  31
0
  0
LINE
  8
0
  10
2.70879
  20
3.33811
  30
0
  11
2.70847
  21
3.30116
  31
0
  0
LINE
  8
0
  10
2.70847
  20
3.30116
  30
0
  11
2.70656
  21
3.26495
  31
0
  0
LINE
  8
0
  10
2.70656
  20
3.26495
  30
0
  11
2.70302
  21
3.22956
  31
0
  0
LINE
  8
0
  10
2.70302
  20
3.22956
  30
0
  11
2.69778
  21
3.19506
  31
0
  0
LINE
  8
0
  10
2.69778
  20
3.19506
  30
0
  11
2.69073
  21
3.16159
  31
0
  0
LINE
  8
0
  10
2.69073
  20
3.16159
  30
0
  11
2.68169
  21
3.12931
  31
0
  0
LINE
  8
0
  10
2.68169
  20
3.12931
  30
0
  11
2.67027
  21
3.09853
  31
0
  0
LINE
  8
0
  10
2.67027
  20
3.09853
  30
0
  11
2.6552
  21
3.07014
  31
0
  0
LINE
  8
0
  10
2.6552
  20
3.07014
  30
0
  11
2.64018
  21
3.04171
  31
0
  0
LINE
  8
0
  10
2.64018
  20
3.04171
  30
0
  11
2.63391
  21
3.02666
  31
0
  0
LINE
  8
0
  10
2.63391
  20
3.02666
  30
0
  11
2.62867
  21
3.01091
  31
0
  0
LINE
  8
0
  10
2.62867
  20
3.01091
  30
0
  11
2.62471
  21
2.99427
  31
0
  0
LINE
  8
0
  10
2.62471
  20
2.99427
  30
0
  11
2.62249
  21
2.97639
  31
0
  0
LINE
  8
0
  10
2.62249
  20
2.97639
  30
0
  11
2.62229
  21
2.9668
  31
0
  0
LINE
  8
0
  10
2.62229
  20
2.9668
  30
0
  11
2.62297
  21
2.95656
  31
0
  0
LINE
  8
0
  10
2.62297
  20
2.95656
  30
0
  11
2.62497
  21
2.94535
  31
0
  0
LINE
  8
0
  10
2.62497
  20
2.94535
  30
0
  11
2.62939
  21
2.93232
  31
0
  0
LINE
  8
0
  10
2.62939
  20
2.93232
  30
0
  11
2.64773
  21
2.90878
  31
0
  0
LINE
  8
0
  10
2.64773
  20
2.90878
  30
0
  11
2.73166
  21
2.8397
  31
0
  0
LINE
  8
0
  10
2.73166
  20
2.8397
  30
0
  11
2.80978
  21
2.7641
  31
0
  0
LINE
  8
0
  10
2.80978
  20
2.7641
  30
0
  11
2.83524
  21
2.74853
  31
0
  0
LINE
  8
0
  10
2.83524
  20
2.74853
  30
0
  11
2.84868
  21
2.74561
  31
0
  0
LINE
  8
0
  10
2.84868
  20
2.74561
  30
0
  11
2.86004
  21
2.74489
  31
0
  0
LINE
  8
0
  10
2.86004
  20
2.74489
  30
0
  11
2.87029
  21
2.74537
  31
0
  0
LINE
  8
0
  10
2.87029
  20
2.74537
  30
0
  11
2.8798
  21
2.74665
  31
0
  0
LINE
  8
0
  10
2.8798
  20
2.74665
  30
0
  11
2.89731
  21
2.75088
  31
0
  0
LINE
  8
0
  10
2.89731
  20
2.75088
  30
0
  11
2.9134
  21
2.75669
  31
0
  0
LINE
  8
0
  10
2.9134
  20
2.75669
  30
0
  11
2.92846
  21
2.76367
  31
0
  0
LINE
  8
0
  10
2.92846
  20
2.76367
  30
0
  11
2.94271
  21
2.7716
  31
0
  0
LINE
  8
0
  10
2.94271
  20
2.7716
  30
0
  11
2.96926
  21
2.78973
  31
0
  0
LINE
  8
0
  10
2.96926
  20
2.78973
  30
0
  11
2.99577
  21
2.80791
  31
0
  0
LINE
  8
0
  10
2.99577
  20
2.80791
  30
0
  11
3.02507
  21
2.82273
  31
0
  0
LINE
  8
0
  10
3.02507
  20
2.82273
  30
0
  11
3.05612
  21
2.83536
  31
0
  0
LINE
  8
0
  10
3.05612
  20
2.83536
  30
0
  11
3.08858
  21
2.84614
  31
0
  0
LINE
  8
0
  10
3.08858
  20
2.84614
  30
0
  11
3.12226
  21
2.85524
  31
0
  0
LINE
  8
0
  10
3.12226
  20
2.85524
  30
0
  11
3.15703
  21
2.86275
  31
0
  0
LINE
  8
0
  10
3.15703
  20
2.86275
  30
0
  11
3.1928
  21
2.86874
  31
0
  0
LINE
  8
0
  10
3.1928
  20
2.86874
  30
0
  11
3.22947
  21
2.87322
  31
0
  0
LINE
  8
0
  10
3.22947
  20
2.87322
  30
0
  11
3.26698
  21
2.87623
  31
0
  0
LINE
  8
0
  10
3.26698
  20
2.87623
  30
0
  11
3.30526
  21
2.87778
  31
0
  0
LINE
  8
0
  10
3.30526
  20
2.87778
  30
0
  11
3.33444
  21
2.87798
  31
0
  0
LINE
  8
0
  10
3.33444
  20
2.87798
  30
0
  11
3.48269
  21
2.62367
  31
0
  0
LINE
  8
0
  10
3.48269
  20
2.62367
  30
0
  11
3.46813
  21
2.59838
  31
0
  0
LINE
  8
0
  10
3.46813
  20
2.59838
  30
0
  11
3.44792
  21
2.56583
  31
0
  0
LINE
  8
0
  10
3.44792
  20
2.56583
  30
0
  11
3.42682
  21
2.53467
  31
0
  0
LINE
  8
0
  10
3.42682
  20
2.53467
  30
0
  11
3.40485
  21
2.50497
  31
0
  0
LINE
  8
0
  10
3.40485
  20
2.50497
  30
0
  11
3.38203
  21
2.4768
  31
0
  0
LINE
  8
0
  10
3.38203
  20
2.4768
  30
0
  11
3.35835
  21
2.45024
  31
0
  0
LINE
  8
0
  10
3.35835
  20
2.45024
  30
0
  11
3.33384
  21
2.42542
  31
0
  0
LINE
  8
0
  10
3.33384
  20
2.42542
  30
0
  11
3.30846
  21
2.40248
  31
0
  0
LINE
  8
0
  10
3.30846
  20
2.40248
  30
0
  11
3.28217
  21
2.38169
  31
0
  0
LINE
  8
0
  10
3.28217
  20
2.38169
  30
0
  11
3.25484
  21
2.3635
  31
0
  0
LINE
  8
0
  10
3.25484
  20
2.3635
  30
0
  11
3.22597
  21
2.34938
  31
0
  0
LINE
  8
0
  10
3.22597
  20
2.34938
  30
0
  11
3.1971
  21
2.33521
  31
0
  0
LINE
  8
0
  10
3.1971
  20
2.33521
  30
0
  11
3.18319
  21
2.32672
  31
0
  0
LINE
  8
0
  10
3.18319
  20
2.32672
  30
0
  11
3.16969
  21
2.31706
  31
0
  0
LINE
  8
0
  10
3.16969
  20
2.31706
  30
0
  11
3.1567
  21
2.30592
  31
0
  0
LINE
  8
0
  10
3.1567
  20
2.30592
  30
0
  11
3.1444
  21
2.29276
  31
0
  0
LINE
  8
0
  10
3.1444
  20
2.29276
  30
0
  11
3.1386
  21
2.28512
  31
0
  0
LINE
  8
0
  10
3.1386
  20
2.28512
  30
0
  11
3.13313
  21
2.27644
  31
0
  0
LINE
  8
0
  10
3.13313
  20
2.27644
  30
0
  11
3.12815
  21
2.2662
  31
0
  0
LINE
  8
0
  10
3.12815
  20
2.2662
  30
0
  11
3.12408
  21
2.25306
  31
0
  0
LINE
  8
0
  10
3.12408
  20
2.25306
  30
0
  11
3.12507
  21
2.22323
  31
0
  0
LINE
  8
0
  10
3.12507
  20
2.22323
  30
0
  11
3.15237
  21
2.11801
  31
0
  0
LINE
  8
0
  10
3.15237
  20
2.11801
  30
0
  11
3.17113
  21
2.01093
  31
0
  0
LINE
  8
0
  10
2.33145
  20
1.83145
  30
0
  11
2.33145
  21
1.83145
  31
0
  0
LINE
  8
0
  10
2.33145
  20
1.83145
  30
0
  11
2.31441
  21
1.96086
  31
0
  0
LINE
  8
0
  10
2.31441
  20
1.96086
  30
0
  11
2.26446
  21
2.08145
  31
0
  0
LINE
  8
0
  10
2.26446
  20
2.08145
  30
0
  11
2.185
  21
2.185
  31
0
  0
LINE
  8
0
  10
2.185
  20
2.185
  30
0
  11
2.08145
  21
2.26446
  31
0
  0
LINE
  8
0
  10
2.08145
  20
2.26446
  30
0
  11
1.96086
  21
2.31441
  31
0
  0
LINE
  8
0
  10
1.96086
  20
2.31441
  30
0
  11
1.83145
  21
2.33145
  31
0
  0
LINE
  8
0
  10
1.83145
  20
2.33145
  30
0
  11
1.70204
  21
2.31441
  31
0
  0
LINE
  8
0
  10
1.70204
  20
2.31441
  30
0
  11
1.58145
  21
2.26446
  31
0
  0
LINE
  8
0
  10
1.58145
  20
2.26446
  30
0
  11
1.4779
  21
2.185
  31
0
  0
LINE
  8
0
  10
1.4779
  20
2.185
  30
0
  11
1.39844
  21
2.08145
  31
0
  0
LINE
  8
0
  10
1.39844
  20
2.08145
  30
0
  11
1.34849
  21
1.96086
  31
0
  0
LINE
  8
0
  10
1.34849
  20
1.96086
  30
0
  11
1.33145
  21
1.83145
  31
0
  0
LINE
  8
0
  10
1.33145
  20
1.83145
  30
0
  11
1.34849
  21
1.70204
  31
0
  0
LINE
  8
0
  10
1.34849
  20
1.70204
  30
0
  11
1.39844
  21
1.58145
  31
0
  0
LINE
  8
0
  10
1.39844
  20
1.58145
  30
0
  11
1.4779
  21
1.4779
  31
0
  0
LINE
  8
0
  10
1.4779
  20
1.4779
  30
0
  11
1.58145
  21
1.39844
  31
0
  0
LINE
  8
0
  10
1.58145
  20
1.39844
  30
0
  11
1.70204
  21
1.34849
  31
0
  0
LINE
  8
0
  10
1.70204
  20
1.34849
  30
0
  11
1.83145
  21
1.33145
  31
0
  0
LINE
  8
0
  10
1.83145
  20
1.33145
  30
0
  11
1.96086
  21
1.34849
  31
0
  0
LINE
  8
0
  10
1.96086
  20
1.34849
  30
0
  11
2.08145
  21
1.39844
  31
0
  0
LINE
  8
0
  10
2.08145
  20
1.39844
  30
0
  11
2.185
  21
1.4779
  31
0
  0
LINE
  8
0
  10
2.185
  20
1.4779
  30
0
  11
2.26446
  21
1.58145
  31
0
  0
LINE
  8
0
  10
2.26446
  20
1.58145
  30
0
  11
2.31441
  21
1.70204
  31
0
  0
LINE
  8
0
  10
2.31441
  20
1.70204
  30
0
  11
2.33145
  21
1.83145
  31
0
  0
LINE
  8
0
  10
2.33145
  20
1.83145
  30
0
  11
2.33145
  21
1.83145
  31
0
  0
LINE
  8
0
  10
3.66317
  20
1.80431
  30
0
  11
3.66317
  21
1.80431
  31
0
  0
LINE
  8
0
  10
3.66317
  20
1.80431
  30
0
  11
3.6549
  21
1.83298
  31
0
  0
LINE
  8
0
  10
3.6549
  20
1.83298
  30
0
  11
3.64697
  21
1.84421
  31
0
  0
LINE
  8
0
  10
3.64697
  20
1.84421
  30
0
  11
3.63907
  21
1.85242
  31
0
  0
LINE
  8
0
  10
3.63907
  20
1.85242
  30
0
  11
3.63119
  21
1.85898
  31
0
  0
LINE
  8
0
  10
3.63119
  20
1.85898
  30
0
  11
3.62331
  21
1.86446
  31
0
  0
LINE
  8
0
  10
3.62331
  20
1.86446
  30
0
  11
3.60754
  21
1.87317
  31
0
  0
LINE
  8
0
  10
3.60754
  20
1.87317
  30
0
  11
3.59175
  21
1.87975
  31
0
  0
LINE
  8
0
  10
3.59175
  20
1.87975
  30
0
  11
3.57592
  21
1.88477
  31
0
  0
LINE
  8
0
  10
3.57592
  20
1.88477
  30
0
  11
3.56006
  21
1.88855
  31
0
  0
LINE
  8
0
  10
3.56006
  20
1.88855
  30
0
  11
3.52823
  21
1.89311
  31
0
  0
LINE
  8
0
  10
3.52823
  20
1.89311
  30
0
  11
3.49641
  21
1.8976
  31
0
  0
LINE
  8
0
  10
3.49641
  20
1.8976
  30
0
  11
3.4648
  21
1.90646
  31
0
  0
LINE
  8
0
  10
3.4648
  20
1.90646
  30
0
  11
3.43337
  21
1.91811
  31
0
  0
LINE
  8
0
  10
3.43337
  20
1.91811
  30
0
  11
3.40215
  21
1.93208
  31
0
  0
LINE
  8
0
  10
3.40215
  20
1.93208
  30
0
  11
3.37116
  21
1.94812
  31
0
  0
LINE
  8
0
  10
3.37116
  20
1.94812
  30
0
  11
3.34044
  21
1.96606
  31
0
  0
LINE
  8
0
  10
3.34044
  20
1.96606
  30
0
  11
3.31002
  21
1.9858
  31
0
  0
LINE
  8
0
  10
3.31002
  20
1.9858
  30
0
  11
3.27995
  21
2.00726
  31
0
  0
LINE
  8
0
  10
3.27995
  20
2.00726
  30
0
  11
3.25025
  21
2.03037
  31
0
  0
LINE
  8
0
  10
3.25025
  20
2.03037
  30
0
  11
3.22098
  21
2.05508
  31
0
  0
LINE
  8
0
  10
3.22098
  20
2.05508
  30
0
  11
3.19932
  21
2.07464
  31
0
  0
LINE
  8
0
  10
3.19932
  20
2.07464
  30
0
  11
3.26172
  21
2.36231
  31
0
  0
LINE
  8
0
  10
3.26172
  20
2.36231
  30
0
  11
3.28954
  21
2.37113
  31
0
  0
LINE
  8
0
  10
3.28954
  20
2.37113
  30
0
  11
3.32643
  21
2.38149
  31
0
  0
LINE
  8
0
  10
3.32643
  20
2.38149
  30
0
  11
3.36303
  21
2.39022
  31
0
  0
LINE
  8
0
  10
3.36303
  20
2.39022
  30
0
  11
3.39929
  21
2.39729
  31
0
  0
LINE
  8
0
  10
3.39929
  20
2.39729
  30
0
  11
3.43515
  21
2.40265
  31
0
  0
LINE
  8
0
  10
3.43515
  20
2.40265
  30
0
  11
3.47054
  21
2.40625
  31
0
  0
LINE
  8
0
  10
3.47054
  20
2.40625
  30
0
  11
3.50539
  21
2.408
  31
0
  0
LINE
  8
0
  10
3.50539
  20
2.408
  30
0
  11
3.5396
  21
2.40778
  31
0
  0
LINE
  8
0
  10
3.5396
  20
2.40778
  30
0
  11
3.57303
  21
2.40536
  31
0
  0
LINE
  8
0
  10
3.57303
  20
2.40536
  30
0
  11
3.60547
  21
2.40032
  31
0
  0
LINE
  8
0
  10
3.60547
  20
2.40032
  30
0
  11
3.6363
  21
2.39123
  31
0
  0
LINE
  8
0
  10
3.6363
  20
2.39123
  30
0
  11
3.66715
  21
2.38219
  31
0
  0
LINE
  8
0
  10
3.66715
  20
2.38219
  30
0
  11
3.68315
  21
2.37905
  31
0
  0
LINE
  8
0
  10
3.68315
  20
2.37905
  30
0
  11
3.69963
  21
2.37706
  31
0
  0
LINE
  8
0
  10
3.69963
  20
2.37706
  30
0
  11
3.71673
  21
2.37651
  31
0
  0
LINE
  8
0
  10
3.71673
  20
2.37651
  30
0
  11
3.73469
  21
2.3779
  31
0
  0
LINE
  8
0
  10
3.73469
  20
2.3779
  30
0
  11
3.74413
  21
2.37962
  31
0
  0
LINE
  8
0
  10
3.74413
  20
2.37962
  30
0
  11
3.75403
  21
2.38233
  31
0
  0
LINE
  8
0
  10
3.75403
  20
2.38233
  30
0
  11
3.76461
  21
2.38653
  31
0
  0
LINE
  8
0
  10
3.76461
  20
2.38653
  30
0
  11
3.77649
  21
2.39346
  31
0
  0
LINE
  8
0
  10
3.77649
  20
2.39346
  30
0
  11
3.7959
  21
2.41613
  31
0
  0
LINE
  8
0
  10
3.7959
  20
2.41613
  30
0
  11
3.84683
  21
2.51217
  31
0
  0
LINE
  8
0
  10
3.84683
  20
2.51217
  30
0
  11
3.90531
  21
2.60381
  31
0
  0
LINE
  8
0
  10
3.90531
  20
2.60381
  30
0
  11
3.91547
  21
2.63187
  31
0
  0
LINE
  8
0
  10
3.91547
  20
2.63187
  30
0
  11
3.91565
  21
2.64562
  31
0
  0
LINE
  8
0
  10
3.91565
  20
2.64562
  30
0
  11
3.91409
  21
2.6569
  31
0
  0
LINE
  8
0
  10
3.91409
  20
2.6569
  30
0
  11
3.91157
  21
2.66685
  31
0
  0
LINE
  8
0
  10
3.91157
  20
2.66685
  30
0
  11
3.90841
  21
2.67591
  31
0
  0
LINE
  8
0
  10
3.90841
  20
2.67591
  30
0
  11
3.90078
  21
2.69222
  31
0
  0
LINE
  8
0
  10
3.90078
  20
2.69222
  30
0
  11
3.89187
  21
2.70683
  31
0
  0
LINE
  8
0
  10
3.89187
  20
2.70683
  30
0
  11
3.88202
  21
2.72019
  31
0
  0
LINE
  8
0
  10
3.88202
  20
2.72019
  30
0
  11
3.87141
  21
2.73257
  31
0
  0
LINE
  8
0
  10
3.87141
  20
2.73257
  30
0
  11
3.84834
  21
2.75496
  31
0
  0
LINE
  8
0
  10
3.84834
  20
2.75496
  30
0
  11
3.82523
  21
2.77731
  31
0
  0
LINE
  8
0
  10
3.82523
  20
2.77731
  30
0
  11
3.80486
  21
2.80305
  31
0
  0
LINE
  8
0
  10
3.80486
  20
2.80305
  30
0
  11
3.78629
  21
2.83096
  31
0
  0
LINE
  8
0
  10
3.78629
  20
2.83096
  30
0
  11
3.76924
  21
2.86061
  31
0
  0
LINE
  8
0
  10
3.76924
  20
2.86061
  30
0
  11
3.75359
  21
2.8918
  31
0
  0
LINE
  8
0
  10
3.75359
  20
2.8918
  30
0
  11
3.73929
  21
2.92437
  31
0
  0
LINE
  8
0
  10
3.73929
  20
2.92437
  30
0
  11
3.72628
  21
2.95822
  31
0
  0
LINE
  8
0
  10
3.72628
  20
2.95822
  30
0
  11
3.71456
  21
2.99325
  31
0
  0
LINE
  8
0
  10
3.71456
  20
2.99325
  30
0
  11
3.70413
  21
3.0294
  31
0
  0
LINE
  8
0
  10
3.70413
  20
3.0294
  30
0
  11
3.69497
  21
3.06661
  31
0
  0
LINE
  8
0
  10
3.69497
  20
3.06661
  30
0
  11
3.68894
  21
3.09516
  31
0
  0
LINE
  8
0
  10
3.68894
  20
3.09516
  30
0
  11
3.90851
  21
3.29121
  31
0
  0
LINE
  8
0
  10
3.90851
  20
3.29121
  30
0
  11
3.93621
  21
3.282
  31
0
  0
LINE
  8
0
  10
3.93621
  20
3.282
  30
0
  11
3.97214
  21
3.2687
  31
0
  0
LINE
  8
0
  10
3.97214
  20
3.2687
  30
0
  11
4.00688
  21
3.25424
  31
0
  0
LINE
  8
0
  10
4.00688
  20
3.25424
  30
0
  11
4.04037
  21
3.23865
  31
0
  0
LINE
  8
0
  10
4.04037
  20
3.23865
  30
0
  11
4.07253
  21
3.22191
  31
0
  0
LINE
  8
0
  10
4.07253
  20
3.22191
  30
0
  11
4.10328
  21
3.20401
  31
0
  0
LINE
  8
0
  10
4.10328
  20
3.20401
  30
0
  11
4.1325
  21
3.18495
  31
0
  0
LINE
  8
0
  10
4.1325
  20
3.18495
  30
0
  11
4.16004
  21
3.16466
  31
0
  0
LINE
  8
0
  10
4.16004
  20
3.16466
  30
0
  11
4.18567
  21
3.14306
  31
0
  0
LINE
  8
0
  10
4.18567
  20
3.14306
  30
0
  11
4.20895
  21
3.11991
  31
0
  0
LINE
  8
0
  10
4.20895
  20
3.11991
  30
0
  11
4.22855
  21
3.09444
  31
0
  0
LINE
  8
0
  10
4.22855
  20
3.09444
  30
0
  11
4.2482
  21
3.06899
  31
0
  0
LINE
  8
0
  10
4.2482
  20
3.06899
  30
0
  11
4.2593
  21
3.05704
  31
0
  0
LINE
  8
0
  10
4.2593
  20
3.05704
  30
0
  11
4.27146
  21
3.04575
  31
0
  0
LINE
  8
0
  10
4.27146
  20
3.04575
  30
0
  11
4.28497
  21
3.03525
  31
0
  0
LINE
  8
0
  10
4.28497
  20
3.03525
  30
0
  11
4.30032
  21
3.02582
  31
0
  0
LINE
  8
0
  10
4.30032
  20
3.02582
  30
0
  11
4.30897
  21
3.02166
  31
0
  0
LINE
  8
0
  10
4.30897
  20
3.02166
  30
0
  11
4.31857
  21
3.01804
  31
0
  0
LINE
  8
0
  10
4.31857
  20
3.01804
  30
0
  11
4.3296
  21
3.01521
  31
0
  0
LINE
  8
0
  10
4.3296
  20
3.01521
  30
0
  11
4.34328
  21
3.01384
  31
0
  0
LINE
  8
0
  10
4.34328
  20
3.01384
  30
0
  11
4.37231
  21
3.02077
  31
0
  0
LINE
  8
0
  10
4.37231
  20
3.02077
  30
0
  11
4.46996
  21
3.06853
  31
0
  0
LINE
  8
0
  10
4.46996
  20
3.06853
  30
0
  11
4.57114
  21
3.1083
  31
0
  0
LINE
  8
0
  10
4.57114
  20
3.1083
  30
0
  11
4.59585
  21
3.12502
  31
0
  0
LINE
  8
0
  10
4.59585
  20
3.12502
  30
0
  11
4.60408
  21
3.13604
  31
0
  0
LINE
  8
0
  10
4.60408
  20
3.13604
  30
0
  11
4.60944
  21
3.14609
  31
0
  0
LINE
  8
0
  10
4.60944
  20
3.14609
  30
0
  11
4.61325
  21
3.15561
  31
0
  0
LINE
  8
0
  10
4.61325
  20
3.15561
  30
0
  11
4.61603
  21
3.1648
  31
0
  0
LINE
  8
0
  10
4.61603
  20
3.1648
  30
0
  11
4.61944
  21
3.18249
  31
0
  0
LINE
  8
0
  10
4.61944
  20
3.18249
  30
0
  11
4.62082
  21
3.19954
  31
0
  0
LINE
  8
0
  10
4.62082
  20
3.19954
  30
0
  11
4.6207
  21
3.21614
  31
0
  0
LINE
  8
0
  10
4.6207
  20
3.21614
  30
0
  11
4.61939
  21
3.23239
  31
0
  0
LINE
  8
0
  10
4.61939
  20
3.23239
  30
0
  11
4.61389
  21
3.26407
  31
0
  0
LINE
  8
0
  10
4.61389
  20
3.26407
  30
0
  11
4.60833
  21
3.29573
  31
0
  0
LINE
  8
0
  10
4.60833
  20
3.29573
  30
0
  11
4.60699
  21
3.32853
  31
0
  0
LINE
  8
0
  10
4.60699
  20
3.32853
  30
0
  11
4.60836
  21
3.36202
  31
0
  0
LINE
  8
0
  10
4.60836
  20
3.36202
  30
0
  11
4.612
  21
3.39603
  31
0
  0
LINE
  8
0
  10
4.612
  20
3.39603
  30
0
  11
4.61767
  21
3.43046
  31
0
  0
LINE
  8
0
  10
4.61767
  20
3.43046
  30
0
  11
4.62524
  21
3.46522
  31
0
  0
LINE
  8
0
  10
4.62524
  20
3.46522
  30
0
  11
4.63462
  21
3.50025
  31
0
  0
LINE
  8
0
  10
4.63462
  20
3.50025
  30
0
  11
4.64573
  21
3.53548
  31
0
  0
LINE
  8
0
  10
4.64573
  20
3.53548
  30
0
  11
4.65853
  21
3.57086
  31
0
  0
LINE
  8
0
  10
4.65853
  20
3.57086
  30
0
  11
4.67299
  21
3.60634
  31
0
  0
LINE
  8
0
  10
4.67299
  20
3.60634
  30
0
  11
4.6849
  21
3.63299
  31
0
  0
LINE
  8
0
  10
4.6849
  20
3.63299
  30
0
  11
4.97777
  21
3.66253
  31
0
  0
LINE
  8
0
  10
4.97777
  20
3.66253
  30
0
  11
4.99476
  21
3.6388
  31
0
  0
LINE
  8
0
  10
4.99476
  20
3.6388
  30
0
  11
5.01601
  21
3.60692
  31
0
  0
LINE
  8
0
  10
5.01601
  20
3.60692
  30
0
  11
5.03563
  21
3.57481
  31
0
  0
LINE
  8
0
  10
5.03563
  20
3.57481
  30
0
  11
5.05355
  21
3.5425
  31
0
  0
LINE
  8
0
  10
5.05355
  20
3.5425
  30
0
  11
5.06973
  21
3.51006
  31
0
  0
LINE
  8
0
  10
5.06973
  20
3.51006
  30
0
  11
5.08409
  21
3.47751
  31
0
  0
LINE
  8
0
  10
5.08409
  20
3.47751
  30
0
  11
5.09653
  21
3.44491
  31
0
  0
LINE
  8
0
  10
5.09653
  20
3.44491
  30
0
  11
5.10688
  21
3.41231
  31
0
  0
LINE
  8
0
  10
5.10688
  20
3.41231
  30
0
  11
5.11492
  21
3.37977
  31
0
  0
LINE
  8
0
  10
5.11492
  20
3.37977
  30
0
  11
5.12015
  21
3.34736
  31
0
  0
LINE
  8
0
  10
5.12015
  20
3.34736
  30
0
  11
5.12103
  21
3.31523
  31
0
  0
LINE
  8
0
  10
5.12103
  20
3.31523
  30
0
  11
5.12196
  21
3.28309
  31
0
  0
LINE
  8
0
  10
5.12196
  20
3.28309
  30
0
  11
5.12392
  21
3.2669
  31
0
  0
LINE
  8
0
  10
5.12392
  20
3.2669
  30
0
  11
5.12712
  21
3.25061
  31
0
  0
LINE
  8
0
  10
5.12712
  20
3.25061
  30
0
  11
5.13188
  21
3.23418
  31
0
  0
LINE
  8
0
  10
5.13188
  20
3.23418
  30
0
  11
5.13876
  21
3.21753
  31
0
  0
LINE
  8
0
  10
5.13876
  20
3.21753
  30
0
  11
5.14331
  21
3.20908
  31
0
  0
LINE
  8
0
  10
5.14331
  20
3.20908
  30
0
  11
5.14895
  21
3.20051
  31
0
  0
LINE
  8
0
  10
5.14895
  20
3.20051
  30
0
  11
5.15621
  21
3.19174
  31
0
  0
LINE
  8
0
  10
5.15621
  20
3.19174
  30
0
  11
5.16647
  21
3.18258
  31
0
  0
LINE
  8
0
  10
5.16647
  20
3.18258
  30
0
  11
5.19403
  21
3.17113
  31
0
  0
LINE
  8
0
  10
5.19403
  20
3.17113
  30
0
  11
5.30111
  21
3.15237
  31
0
  0
LINE
  8
0
  10
5.30111
  20
3.15237
  30
0
  11
5.40633
  21
3.12507
  31
0
  0
LINE
  8
0
  10
5.40633
  20
3.12507
  30
0
  11
5.43616
  21
3.12408
  31
0
  0
LINE
  8
0
  10
5.43616
  20
3.12408
  30
0
  11
5.44929
  21
3.12815
  31
0
  0
LINE
  8
0
  10
5.44929
  20
3.12815
  30
0
  11
5.45954
  21
3.13313
  31
0
  0
LINE
  8
0
  10
5.45954
  20
3.13313
  30
0
  11
5.46822
  21
3.1386
  31
0
  0
LINE
  8
0
  10
5.46822
  20
3.1386
  30
0
  11
5.47586
  21
3.1444
  31
0
  0
LINE
  8
0
  10
5.47586
  20
3.1444
  30
0
  11
5.48902
  21
3.1567
  31
0
  0
LINE
  8
0
  10
5.48902
  20
3.1567
  30
0
  11
5.50016
  21
3.16969
  31
0
  0
LINE
  8
0
  10
5.50016
  20
3.16969
  30
0
  11
5.50982
  21
3.18319
  31
0
  0
LINE
  8
0
  10
5.50982
  20
3.18319
  30
0
  11
5.51831
  21
3.1971
  31
0
  0
LINE
  8
0
  10
5.51831
  20
3.1971
  30
0
  11
5.53248
  21
3.22597
  31
0
  0
LINE
  8
0
  10
5.53248
  20
3.22597
  30
0
  11
5.5466
  21
3.25484
  31
0
  0
LINE
  8
0
  10
5.5466
  20
3.25484
  30
0
  11
5.56479
  21
3.28217
  31
0
  0
LINE
  8
0
  10
5.56479
  20
3.28217
  30
0
  11
5.58558
  21
3.30846
  31
0
  0
LINE
  8
0
  10
5.58558
  20
3.30846
  30
0
  11
5.60852
  21
3.33384
  31
0
  0
LINE
  8
0
  10
5.60852
  20
3.33384
  30
0
  11
5.63334
  21
3.35835
  31
0
  0
LINE
  8
0
  10
5.63334
  20
3.35835
  30
0
  11
5.6599
  21
3.38203
  31
0
  0
LINE
  8
0
  10
5.6599
  20
3.38203
  30
0
  11
5.68807
  21
3.40485
  31
0
  0
LINE
  8
0
  10
5.68807
  20
3.40485
  30
0
  11
5.71777
  21
3.42682
  31
0
  0
LINE
  8
0
  10
5.71777
  20
3.42682
  30
0
  11
5.74893
  21
3.44792
  31
0
  0
LINE
  8
0
  10
5.74893
  20
3.44792
  30
0
  11
5.78148
  21
3.46813
  31
0
  0
LINE
  8
0
  10
5.78148
  20
3.46813
  30
0
  11
5.80677
  21
3.48269
  31
0
  0
LINE
  8
0
  10
5.80677
  20
3.48269
  30
0
  11
6.06108
  21
3.33444
  31
0
  0
LINE
  8
0
  10
6.06108
  20
3.33444
  30
0
  11
6.06088
  21
3.30526
  31
0
  0
LINE
  8
0
  10
6.06088
  20
3.30526
  30
0
  11
6.05933
  21
3.26698
  31
0
  0
LINE
  8
0
  10
6.05933
  20
3.26698
  30
0
  11
6.05632
  21
3.22947
  31
0
  0
LINE
  8
0
  10
6.05632
  20
3.22947
  30
0
  11
6.05184
  21
3.1928
  31
0
  0
LINE
  8
0
  10
6.05184
  20
3.1928
  30
0
  11
6.04585
  21
3.15703
  31
0
  0
LINE
  8
0
  10
6.04585
  20
3.15703
  30
0
  11
6.03834
  21
3.12226
  31
0
  0
LINE
  8
0
  10
6.03834
  20
3.12226
  30
0
  11
6.02924
  21
3.08858
  31
0
  0
LINE
  8
0
  10
6.02924
  20
3.08858
  30
0
  11
6.01845
  21
3.05612
  31
0
  0
LINE
  8
0
  10
6.01845
  20
3.05612
  30
0
  11
6.00583
  21
3.02507
  31
0
  0
LINE
  8
0
  10
6.00583
  20
3.02507
  30
0
  11
5.99101
  21
2.99577
  31
0
  0
LINE
  8
0
  10
5.99101
  20
2.99577
  30
0
  11
5.97283
  21
2.96926
  31
0
  0
LINE
  8
0
  10
5.97283
  20
2.96926
  30
0
  11
5.9547
  21
2.94271
  31
0
  0
LINE
  8
0
  10
5.9547
  20
2.94271
  30
0
  11
5.94677
  21
2.92846
  31
0
  0
LINE
  8
0
  10
5.94677
  20
2.92846
  30
0
  11
5.93979
  21
2.9134
  31
0
  0
LINE
  8
0
  10
5.93979
  20
2.9134
  30
0
  11
5.93398
  21
2.89731
  31
0
  0
LINE
  8
0
  10
5.93398
  20
2.89731
  30
0
  11
5.92975
  21
2.8798
  31
0
  0
LINE
  8
0
  10
5.92975
  20
2.8798
  30
0
  11
5.92847
  21
2.87029
  31
0
  0
LINE
  8
0
  10
5.92847
  20
2.87029
  30
0
  11
5.92799
  21
2.86004
  31
0
  0
LINE
  8
0
  10
5.92799
  20
2.86004
  30
0
  11
5.92871
  21
2.84868
  31
0
  0
LINE
  8
0
  10
5.92871
  20
2.84868
  30
0
  11
5.93163
  21
2.83524
  31
0
  0
LINE
  8
0
  10
5.93163
  20
2.83524
  30
0
  11
5.94719
  21
2.80978
  31
0
  0
LINE
  8
0
  10
5.94719
  20
2.80978
  30
0
  11
6.0228
  21
2.73166
  31
0
  0
LINE
  8
0
  10
6.0228
  20
2.73166
  30
0
  11
6.09188
  21
2.64773
  31
0
  0
LINE
  8
0
  10
6.09188
  20
2.64773
  30
0
  11
6.11542
  21
2.62939
  31
0
  0
LINE
  8
0
  10
6.11542
  20
2.62939
  30
0
  11
6.12845
  21
2.62497
  31
0
  0
LINE
  8
0
  10
6.12845
  20
2.62497
  30
0
  11
6.13966
  21
2.62297
  31
0
  0
LINE
  8
0
  10
6.13966
  20
2.62297
  30
0
  11
6.1499
  21
2.62229
  31
0
  0
LINE
  8
0
  10
6.1499
  20
2.62229
  30
0
  11
6.15949
  21
2.62249
  31
0
  0
LINE
  8
0
  10
6.15949
  20
2.62249
  30
0
  11
6.17736
  21
2.62471
  31
0
  0
LINE
  8
0
  10
6.17736
  20
2.62471
  30
0
  11
6.19401
  21
2.62867
  31
0
  0
LINE
  8
0
  10
6.19401
  20
2.62867
  30
0
  11
6.20976
  21
2.63391
  31
0
  0
LINE
  8
0
  10
6.20976
  20
2.63391
  30
0
  11
6.22481
  21
2.64018
  31
0
  0
LINE
  8
0
  10
6.22481
  20
2.64018
  30
0
  11
6.25324
  21
2.6552
  31
0
  0
LINE
  8
0
  10
6.25324
  20
2.6552
  30
0
  11
6.28163
  21
2.67027
  31
0
  0
LINE
  8
0
  10
6.28163
  20
2.67027
  30
0
  11
6.31241
  21
2.68169
  31
0
  0
LINE
  8
0
  10
6.31241
  20
2.68169
  30
0
  11
6.34469
  21
2.69073
  31
0
  0
LINE
  8
0
  10
6.34469
  20
2.69073
  30
0
  11
6.37816
  21
2.69778
  31
0
  0
LINE
  8
0
  10
6.37816
  20
2.69778
  30
0
  11
6.41265
  21
2.70302
  31
0
  0
LINE
  8
0
  10
6.41265
  20
2.70302
  30
0
  11
6.44805
  21
2.70656
  31
0
  0
LINE
  8
0
  10
6.44805
  20
2.70656
  30
0
  11
6.48426
  21
2.70847
  31
0
  0
LINE
  8
0
  10
6.48426
  20
2.70847
  30
0
  11
6.52121
  21
2.70879
  31
0
  0
LINE
  8
0
  10
6.52121
  20
2.70879
  30
0
  11
6.55881
  21
2.70755
  31
0
  0
LINE
  8
0
  10
6.55881
  20
2.70755
  30
0
  11
6.59703
  21
2.70476
  31
0
  0
LINE
  8
0
  10
6.59703
  20
2.70476
  30
0
  11
6.62605
  21
2.70167
  31
0
  0
LINE
  8
0
  10
6.62605
  20
2.70167
  30
0
  11
6.74464
  21
2.43226
  31
0
  0
LINE
  8
0
  10
6.74464
  20
2.43226
  30
0
  11
6.72733
  21
2.40877
  31
0
  0
LINE
  8
0
  10
6.72733
  20
2.40877
  30
0
  11
6.70358
  21
2.37871
  31
0
  0
LINE
  8
0
  10
6.70358
  20
2.37871
  30
0
  11
6.67909
  21
2.35013
  31
0
  0
LINE
  8
0
  10
6.67909
  20
2.35013
  30
0
  11
6.65391
  21
2.3231
  31
0
  0
LINE
  8
0
  10
6.65391
  20
2.3231
  30
0
  11
6.62805
  21
2.29768
  31
0
  0
LINE
  8
0
  10
6.62805
  20
2.29768
  30
0
  11
6.60153
  21
2.27397
  31
0
  0
LINE
  8
0
  10
6.60153
  20
2.27397
  30
0
  11
6.57437
  21
2.25207
  31
0
  0
LINE
  8
0
  10
6.57437
  20
2.25207
  30
0
  11
6.54657
  21
2.23215
  31
0
  0
LINE
  8
0
  10
6.54657
  20
2.23215
  30
0
  11
6.5181
  21
2.21445
  31
0
  0
LINE
  8
0
  10
6.5181
  20
2.21445
  30
0
  11
6.48889
  21
2.19946
  31
0
  0
LINE
  8
0
  10
6.48889
  20
2.19946
  30
0
  11
6.45861
  21
2.1887
  31
0
  0
LINE
  8
0
  10
6.45861
  20
2.1887
  30
0
  11
6.42833
  21
2.17787
  31
0
  0
LINE
  8
0
  10
6.42833
  20
2.17787
  30
0
  11
6.41354
  21
2.17101
  31
0
  0
LINE
  8
0
  10
6.41354
  20
2.17101
  30
0
  11
6.39904
  21
2.16293
  31
0
  0
LINE
  8
0
  10
6.39904
  20
2.16293
  30
0
  11
6.38488
  21
2.15332
  31
0
  0
LINE
  8
0
  10
6.38488
  20
2.15332
  30
0
  11
6.37117
  21
2.14164
  31
0
  0
LINE
  8
0
  10
6.37117
  20
2.14164
  30
0
  11
6.36454
  21
2.1347
  31
0
  0
LINE
  8
0
  10
6.36454
  20
2.1347
  30
0
  11
6.35813
  21
2.12669
  31
0
  0
LINE
  8
0
  10
6.35813
  20
2.12669
  30
0
  11
6.35203
  21
2.11708
  31
0
  0
LINE
  8
0
  10
6.35203
  20
2.11708
  30
0
  11
6.3465
  21
2.10448
  31
0
  0
LINE
  8
0
  10
6.3465
  20
2.10448
  30
0
  11
6.34412
  21
2.07474
  31
0
  0
LINE
  8
0
  10
6.34412
  20
2.07474
  30
0
  11
6.35937
  21
1.9671
  31
0
  0
LINE
  8
0
  10
6.35937
  20
1.9671
  30
0
  11
6.36593
  21
1.85859
  31
0
  0
LINE
  8
0
  10
6.36593
  20
1.85859
  30
0
  11
6.37419
  21
1.82992
  31
0
  0
LINE
  8
0
  10
6.37419
  20
1.82992
  30
0
  11
6.38213
  21
1.81868
  31
0
  0
LINE
  8
0
  10
6.38213
  20
1.81868
  30
0
  11
6.39003
  21
1.81048
  31
0
  0
LINE
  8
0
  10
6.39003
  20
1.81048
  30
0
  11
6.39791
  21
1.80391
  31
0
  0
LINE
  8
0
  10
6.39791
  20
1.80391
  30
0
  11
6.40579
  21
1.79844
  31
0
  0
LINE
  8
0
  10
6.40579
  20
1.79844
  30
0
  11
6.42156
  21
1.78973
  31
0
  0
LINE
  8
0
  10
6.42156
  20
1.78973
  30
0
  11
6.43735
  21
1.78315
  31
0
  0
LINE
  8
0
  10
6.43735
  20
1.78315
  30
0
  11
6.45317
  21
1.77813
  31
0
  0
LINE
  8
0
  10
6.45317
  20
1.77813
  30
0
  11
6.46903
  21
1.77435
  31
0
  0
LINE
  8
0
  10
6.46903
  20
1.77435
  30
0
  11
6.50086
  21
1.76979
  31
0
  0
LINE
  8
0
  10
6.50086
  20
1.76979
  30
0
  11
6.53269
  21
1.76529
  31
0
  0
LINE
  8
0
  10
6.53269
  20
1.76529
  30
0
  11
6.5643
  21
1.75644
  31
0
  0
LINE
  8
0
  10
6.5643
  20
1.75644
  30
0
  11
6.59573
  21
1.74478
  31
0
  0
LINE
  8
0
  10
6.59573
  20
1.74478
  30
0
  11
6.62695
  21
1.73082
  31
0
  0
LINE
  8
0
  10
6.62695
  20
1.73082
  30
0
  11
6.65794
  21
1.71478
  31
0
  0
LINE
  8
0
  10
6.65794
  20
1.71478
  30
0
  11
6.68866
  21
1.69684
  31
0
  0
LINE
  8
0
  10
6.68866
  20
1.69684
  30
0
  11
6.71907
  21
1.6771
  31
0
  0
LINE
  8
0
  10
6.71907
  20
1.6771
  30
0
  11
6.74915
  21
1.65564
  31
0
  0
LINE
  8
0
  10
6.74915
  20
1.65564
  30
0
  11
6.77884
  21
1.63253
  31
0
  0
LINE
  8
0
  10
6.77884
  20
1.63253
  30
0
  11
6.80812
  21
1.60782
  31
0
  0
LINE
  8
0
  10
6.80812
  20
1.60782
  30
0
  11
6.82978
  21
1.58826
  31
0
  0
LINE
  8
0
  10
6.82978
  20
1.58826
  30
0
  11
6.76737
  21
1.30059
  31
0
  0
LINE
  8
0
  10
6.76737
  20
1.30059
  30
0
  11
6.73956
  21
1.29177
  31
0
  0
LINE
  8
0
  10
6.73956
  20
1.29177
  30
0
  11
6.70267
  21
1.28141
  31
0
  0
LINE
  8
0
  10
6.70267
  20
1.28141
  30
0
  11
6.66607
  21
1.27268
  31
0
  0
LINE
  8
0
  10
6.66607
  20
1.27268
  30
0
  11
6.62981
  21
1.26561
  31
0
  0
LINE
  8
0
  10
6.62981
  20
1.26561
  30
0
  11
6.59394
  21
1.26025
  31
0
  0
LINE
  8
0
  10
6.59394
  20
1.26025
  30
0
  11
6.55855
  21
1.25665
  31
0
  0
LINE
  8
0
  10
6.55855
  20
1.25665
  30
0
  11
6.52371
  21
1.2549
  31
0
  0
LINE
  8
0
  10
6.52371
  20
1.2549
  30
0
  11
6.4895
  21
1.25512
  31
0
  0
LINE
  8
0
  10
6.4895
  20
1.25512
  30
0
  11
6.45607
  21
1.25754
  31
0
  0
LINE
  8
0
  10
6.45607
  20
1.25754
  30
0
  11
6.42363
  21
1.26258
  31
0
  0
LINE
  8
0
  10
6.42363
  20
1.26258
  30
0
  11
6.3928
  21
1.27167
  31
0
  0
LINE
  8
0
  10
6.3928
  20
1.27167
  30
0
  11
6.36194
  21
1.28071
  31
0
  0
LINE
  8
0
  10
6.36194
  20
1.28071
  30
0
  11
6.34595
  21
1.28385
  31
0
  0
LINE
  8
0
  10
6.34595
  20
1.28385
  30
0
  11
6.32946
  21
1.28584
  31
0
  0
LINE
  8
0
  10
6.32946
  20
1.28584
  30
0
  11
6.31236
  21
1.28639
  31
0
  0
LINE
  8
0
  10
6.31236
  20
1.28639
  30
0
  11
6.2944
  21
1.285
  31
0
  0
LINE
  8
0
  10
6.2944
  20
1.285
  30
0
  11
6.28496
  21
1.28328
  31
0
  0
LINE
  8
0
  10
6.28496
  20
1.28328
  30
0
  11
6.27507
  21
1.28057
  31
0
  0
LINE
  8
0
  10
6.27507
  20
1.28057
  30
0
  11
6.26448
  21
1.27637
  31
0
  0
LINE
  8
0
  10
6.26448
  20
1.27637
  30
0
  11
6.2526
  21
1.26944
  31
0
  0
LINE
  8
0
  10
6.2526
  20
1.26944
  30
0
  11
6.2332
  21
1.24677
  31
0
  0
LINE
  8
0
  10
6.2332
  20
1.24677
  30
0
  11
6.18227
  21
1.15073
  31
0
  0
LINE
  8
0
  10
6.18227
  20
1.15073
  30
0
  11
6.12379
  21
1.05909
  31
0
  0
LINE
  8
0
  10
6.12379
  20
1.05909
  30
0
  11
6.11363
  21
1.03103
  31
0
  0
LINE
  8
0
  10
6.11363
  20
1.03103
  30
0
  11
6.11344
  21
1.01728
  31
0
  0
LINE
  8
0
  10
6.11344
  20
1.01728
  30
0
  11
6.11501
  21
1.006
  31
0
  0
LINE
  8
0
  10
6.11501
  20
1.006
  30
0
  11
6.11753
  21
0.99605
  31
0
  0
LINE
  8
0
  10
6.11753
  20
0.99605
  30
0
  11
6.12068
  21
0.98699
  31
0
  0
LINE
  8
0
  10
6.12068
  20
0.98699
  30
0
  11
6.12832
  21
0.97068
  31
0
  0
LINE
  8
0
  10
6.12832
  20
0.97068
  30
0
  11
6.13723
  21
0.95607
  31
0
  0
LINE
  8
0
  10
6.13723
  20
0.95607
  30
0
  11
6.14708
  21
0.94271
  31
0
  0
LINE
  8
0
  10
6.14708
  20
0.94271
  30
0
  11
6.15769
  21
0.93033
  31
0
  0
LINE
  8
0
  10
6.15769
  20
0.93033
  30
0
  11
6.18076
  21
0.90793
  31
0
  0
LINE
  8
0
  10
6.18076
  20
0.90793
  30
0
  11
6.20386
  21
0.88559
  31
0
  0
LINE
  8
0
  10
6.20386
  20
0.88559
  30
0
  11
6.22423
  21
0.85984
  31
0
  0
LINE
  8
0
  10
6.22423
  20
0.85984
  30
0
  11
6.24281
  21
0.83194
  31
0
  0
LINE
  8
0
  10
6.24281
  20
0.83194
  30
0
  11
6.25986
  21
0.80229
  31
0
  0
LINE
  8
0
  10
6.25986
  20
0.80229
  30
0
  11
6.2755
  21
0.7711
  31
0
  0
LINE
  8
0
  10
6.2755
  20
0.7711
  30
0
  11
6.28981
  21
0.73853
  31
0
  0
LINE
  8
0
  10
6.28981
  20
0.73853
  30
0
  11
6.30281
  21
0.70468
  31
0
  0
LINE
  8
0
  10
6.30281
  20
0.70468
  30
0
  11
6.31453
  21
0.66965
  31
0
  0
LINE
  8
0
  10
6.31453
  20
0.66965
  30
0
  11
6.32497
  21
0.6335
  31
0
  0
LINE
  8
0
  10
6.32497
  20
0.6335
  30
0
  11
6.33413
  21
0.59629
  31
0
  0
LINE
  8
0
  10
6.33413
  20
0.59629
  30
0
  11
6.34016
  21
0.56774
  31
0
  0
LINE
  8
0
  10
6.34016
  20
0.56774
  30
0
  11
6.12058
  21
0.37169
  31
0
  0
LINE
  8
0
  10
6.12058
  20
0.37169
  30
0
  11
6.09289
  21
0.3809
  31
0
  0
LINE
  8
0
  10
6.09289
  20
0.3809
  30
0
  11
6.05696
  21
0.3942
  31
0
  0
LINE
  8
0
  10
6.05696
  20
0.3942
  30
0
  11
6.02222
  21
0.40865
  31
0
  0
LINE
  8
0
  10
6.02222
  20
0.40865
  30
0
  11
5.98873
  21
0.42425
  31
0
  0
LINE
  8
0
  10
5.98873
  20
0.42425
  30
0
  11
5.95656
  21
0.44099
  31
0
  0
LINE
  8
0
  10
5.95656
  20
0.44099
  30
0
  11
5.92581
  21
0.45888
  31
0
  0
LINE
  8
0
  10
5.92581
  20
0.45888
  30
0
  11
5.89659
  21
0.47795
  31
0
  0
LINE
  8
0
  10
5.89659
  20
0.47795
  30
0
  11
5.86905
  21
0.49823
  31
0
  0
LINE
  8
0
  10
5.86905
  20
0.49823
  30
0
  11
5.84343
  21
0.51984
  31
0
  0
LINE
  8
0
  10
5.84343
  20
0.51984
  30
0
  11
5.82014
  21
0.54299
  31
0
  0
LINE
  8
0
  10
5.82014
  20
0.54299
  30
0
  11
5.80055
  21
0.56846
  31
0
  0
LINE
  8
0
  10
5.80055
  20
0.56846
  30
0
  11
5.7809
  21
0.59391
  31
0
  0
LINE
  8
0
  10
5.7809
  20
0.59391
  30
0
  11
5.7698
  21
0.60586
  31
0
  0
LINE
  8
0
  10
5.7698
  20
0.60586
  30
0
  11
5.75763
  21
0.61715
  31
0
  0
LINE
  8
0
  10
5.75763
  20
0.61715
  30
0
  11
5.74413
  21
0.62765
  31
0
  0
LINE
  8
0
  10
5.74413
  20
0.62765
  30
0
  11
5.72878
  21
0.63708
  31
0
  0
LINE
  8
0
  10
5.72878
  20
0.63708
  30
0
  11
5.72013
  21
0.64124
  31
0
  0
LINE
  8
0
  10
5.72013
  20
0.64124
  30
0
  11
5.71053
  21
0.64486
  31
0
  0
LINE
  8
0
  10
5.71053
  20
0.64486
  30
0
  11
5.6995
  21
0.64769
  31
0
  0
LINE
  8
0
  10
5.6995
  20
0.64769
  30
0
  11
5.68581
  21
0.64906
  31
0
  0
LINE
  8
0
  10
5.68581
  20
0.64906
  30
0
  11
5.65679
  21
0.64213
  31
0
  0
LINE
  8
0
  10
5.65679
  20
0.64213
  30
0
  11
5.55914
  21
0.59436
  31
0
  0
LINE
  8
0
  10
5.55914
  20
0.59436
  30
0
  11
5.45796
  21
0.5546
  31
0
  0
LINE
  8
0
  10
5.45796
  20
0.5546
  30
0
  11
5.43325
  21
0.53788
  31
0
  0
LINE
  8
0
  10
5.43325
  20
0.53788
  30
0
  11
5.42501
  21
0.52686
  31
0
  0
LINE
  8
0
  10
5.42501
  20
0.52686
  30
0
  11
5.41965
  21
0.51681
  31
0
  0
LINE
  8
0
  10
5.41965
  20
0.51681
  30
0
  11
5.41584
  21
0.50729
  31
0
  0
LINE
  8
0
  10
5.41584
  20
0.50729
  30
0
  11
5.41307
  21
0.4981
  31
0
  0
LINE
  8
0
  10
5.41307
  20
0.4981
  30
0
  11
5.40966
  21
0.48041
  31
0
  0
LINE
  8
0
  10
5.40966
  20
0.48041
  30
0
  11
5.40828
  21
0.46336
  31
0
  0
LINE
  8
0
  10
5.40828
  20
0.46336
  30
0
  11
5.40839
  21
0.44676
  31
0
  0
LINE
  8
0
  10
5.40839
  20
0.44676
  30
0
  11
5.40971
  21
0.43051
  31
0
  0
LINE
  8
0
  10
5.40971
  20
0.43051
  30
0
  11
5.41521
  21
0.39883
  31
0
  0
LINE
  8
0
  10
5.41521
  20
0.39883
  30
0
  11
5.42076
  21
0.36717
  31
0
  0
LINE
  8
0
  10
5.42076
  20
0.36717
  30
0
  11
5.42211
  21
0.33437
  31
0
  0
LINE
  8
0
  10
5.42211
  20
0.33437
  30
0
  11
5.42074
  21
0.30088
  31
0
  0
LINE
  8
0
  10
5.42074
  20
0.30088
  30
0
  11
5.4171
  21
0.26687
  31
0
  0
LINE
  8
0
  10
5.4171
  20
0.26687
  30
0
  11
5.41143
  21
0.23244
  31
0
  0
LINE
  8
0
  10
5.41143
  20
0.23244
  30
0
  11
5.40386
  21
0.19768
  31
0
  0
LINE
  8
0
  10
5.40386
  20
0.19768
  30
0
  11
5.39448
  21
0.16265
  31
0
  0
LINE
  8
0
  10
5.39448
  20
0.16265
  30
0
  11
5.38337
  21
0.12742
  31
0
  0
LINE
  8
0
  10
5.38337
  20
0.12742
  30
0
  11
5.37056
  21
0.09204
  31
0
  0
LINE
  8
0
  10
5.37056
  20
0.09204
  30
0
  11
5.35611
  21
0.05656
  31
0
  0
LINE
  8
0
  10
5.35611
  20
0.05656
  30
0
  11
5.3442
  21
0.02991
  31
0
  0
LINE
  8
0
  10
5.3442
  20
0.02991
  30
0
  11
5.05132
  21
0.00037
  31
0
  0
LINE
  8
0
  10
5.05132
  20
0.00037
  30
0
  11
5.03433
  21
0.0241
  31
0
  0
LINE
  8
0
  10
5.03433
  20
0.0241
  30
0
  11
5.01308
  21
0.05598
  31
0
  0
LINE
  8
0
  10
5.01308
  20
0.05598
  30
0
  11
4.99347
  21
0.08809
  31
0
  0
LINE
  8
0
  10
4.99347
  20
0.08809
  30
0
  11
4.97555
  21
0.12039
  31
0
  0
LINE
  8
0
  10
4.97555
  20
0.12039
  30
0
  11
4.95936
  21
0.15284
  31
0
  0
LINE
  8
0
  10
4.95936
  20
0.15284
  30
0
  11
4.945
  21
0.18539
  31
0
  0
LINE
  8
0
  10
4.945
  20
0.18539
  30
0
  11
4.93257
  21
0.21799
  31
0
  0
LINE
  8
0
  10
4.93257
  20
0.21799
  30
0
  11
4.92221
  21
0.25059
  31
0
  0
LINE
  8
0
  10
4.92221
  20
0.25059
  30
0
  11
4.91418
  21
0.28313
  31
0
  0
LINE
  8
0
  10
4.91418
  20
0.28313
  30
0
  11
4.90895
  21
0.31554
  31
0
  0
LINE
  8
0
  10
4.90895
  20
0.31554
  30
0
  11
4.90807
  21
0.34767
  31
0
  0
LINE
  8
0
  10
4.90807
  20
0.34767
  30
0
  11
4.90713
  21
0.37981
  31
0
  0
LINE
  8
0
  10
4.90713
  20
0.37981
  30
0
  11
4.90517
  21
0.396
  31
0
  0
LINE
  8
0
  10
4.90517
  20
0.396
  30
0
  11
4.90197
  21
0.41229
  31
0
  0
LINE
  8
0
  10
4.90197
  20
0.41229
  30
0
  11
4.89721
  21
0.42872
  31
0
  0
LINE
  8
0
  10
4.89721
  20
0.42872
  30
0
  11
4.89034
  21
0.44537
  31
0
  0
LINE
  8
0
  10
4.89034
  20
0.44537
  30
0
  11
4.88579
  21
0.45382
  31
0
  0
LINE
  8
0
  10
4.88579
  20
0.45382
  30
0
  11
4.88015
  21
0.46239
  31
0
  0
LINE
  8
0
  10
4.88015
  20
0.46239
  30
0
  11
4.87289
  21
0.47116
  31
0
  0
LINE
  8
0
  10
4.87289
  20
0.47116
  30
0
  11
4.86262
  21
0.48032
  31
0
  0
LINE
  8
0
  10
4.86262
  20
0.48032
  30
0
  11
4.83507
  21
0.49177
  31
0
  0
LINE
  8
0
  10
4.83507
  20
0.49177
  30
0
  11
4.72799
  21
0.51053
  31
0
  0
LINE
  8
0
  10
4.72799
  20
0.51053
  30
0
  11
4.62276
  21
0.53783
  31
0
  0
LINE
  8
0
  10
4.62276
  20
0.53783
  30
0
  11
4.59294
  21
0.53882
  31
0
  0
LINE
  8
0
  10
4.59294
  20
0.53882
  30
0
  11
4.5798
  21
0.53475
  31
0
  0
LINE
  8
0
  10
4.5798
  20
0.53475
  30
0
  11
4.56956
  21
0.52977
  31
0
  0
LINE
  8
0
  10
4.56956
  20
0.52977
  30
0
  11
4.56088
  21
0.5243
  31
0
  0
LINE
  8
0
  10
4.56088
  20
0.5243
  30
0
  11
4.55323
  21
0.5185
  31
0
  0
LINE
  8
0
  10
4.55323
  20
0.5185
  30
0
  11
4.54008
  21
0.5062
  31
0
  0
LINE
  8
0
  10
4.54008
  20
0.5062
  30
0
  11
4.52894
  21
0.49321
  31
0
  0
LINE
  8
0
  10
4.52894
  20
0.49321
  30
0
  11
4.51928
  21
0.47971
  31
0
  0
LINE
  8
0
  10
4.51928
  20
0.47971
  30
0
  11
4.51078
  21
0.4658
  31
0
  0
LINE
  8
0
  10
4.51078
  20
0.4658
  30
0
  11
4.49661
  21
0.43693
  31
0
  0
LINE
  8
0
  10
4.49661
  20
0.43693
  30
0
  11
4.4825
  21
0.40806
  31
0
  0
LINE
  8
0
  10
4.4825
  20
0.40806
  30
0
  11
4.46431
  21
0.38073
  31
0
  0
LINE
  8
0
  10
4.46431
  20
0.38073
  30
0
  11
4.44351
  21
0.35444
  31
0
  0
LINE
  8
0
  10
4.44351
  20
0.35444
  30
0
  11
4.42058
  21
0.32906
  31
0
  0
LINE
  8
0
  10
4.42058
  20
0.32906
  30
0
  11
4.39575
  21
0.30455
  31
0
  0
LINE
  8
0
  10
4.39575
  20
0.30455
  30
0
  11
4.3692
  21
0.28087
  31
0
  0
LINE
  8
0
  10
4.3692
  20
0.28087
  30
0
  11
4.34103
  21
0.25805
  31
0
  0
LINE
  8
0
  10
4.34103
  20
0.25805
  30
0
  11
4.31133
  21
0.23607
  31
0
  0
LINE
  8
0
  10
4.31133
  20
0.23607
  30
0
  11
4.28017
  21
0.21497
  31
0
  0
LINE
  8
0
  10
4.28017
  20
0.21497
  30
0
  11
4.24762
  21
0.19477
  31
0
  0
LINE
  8
0
  10
4.24762
  20
0.19477
  30
0
  11
4.22232
  21
0.18021
  31
0
  0
LINE
  8
0
  10
4.22232
  20
0.18021
  30
0
  11
3.96802
  21
0.32846
  31
0
  0
LINE
  8
0
  10
3.96802
  20
0.32846
  30
0
  11
3.96822
  21
0.35764
  31
0
  0
LINE
  8
0
  10
3.96822
  20
0.35764
  30
0
  11
3.96977
  21
0.39592
  31
0
  0
LINE
  8
0
  10
3.96977
  20
0.39592
  30
0
  11
3.97278
  21
0.43343
  31
0
  0
LINE
  8
0
  10
3.97278
  20
0.43343
  30
0
  11
3.97726
  21
0.4701
  31
0
  0
LINE
  8
0
  10
3.97726
  20
0.4701
  30
0
  11
3.98324
  21
0.50587
  31
0
  0
LINE
  8
0
  10
3.98324
  20
0.50587
  30
0
  11
3.99076
  21
0.54064
  31
0
  0
LINE
  8
0
  10
3.99076
  20
0.54064
  30
0
  11
3.99986
  21
0.57432
  31
0
  0
LINE
  8
0
  10
3.99986
  20
0.57432
  30
0
  11
4.01064
  21
0.60678
  31
0
  0
LINE
  8
0
  10
4.01064
  20
0.60678
  30
0
  11
4.02327
  21
0.63783
  31
0
  0
LINE
  8
0
  10
4.02327
  20
0.63783
  30
0
  11
4.03809
  21
0.66713
  31
0
  0
LINE
  8
0
  10
4.03809
  20
0.66713
  30
0
  11
4.05626
  21
0.69363
  31
0
  0
LINE
  8
0
  10
4.05626
  20
0.69363
  30
0
  11
4.0744
  21
0.72019
  31
0
  0
LINE
  8
0
  10
4.0744
  20
0.72019
  30
0
  11
4.08232
  21
0.73443
  31
0
  0
LINE
  8
0
  10
4.08232
  20
0.73443
  30
0
  11
4.08931
  21
0.74949
  31
0
  0
LINE
  8
0
  10
4.08931
  20
0.74949
  30
0
  11
4.09512
  21
0.76559
  31
0
  0
LINE
  8
0
  10
4.09512
  20
0.76559
  30
0
  11
4.09934
  21
0.7831
  31
0
  0
LINE
  8
0
  10
4.09934
  20
0.7831
  30
0
  11
4.10063
  21
0.79261
  31
0
  0
LINE
  8
0
  10
4.10063
  20
0.79261
  30
0
  11
4.10111
  21
0.80285
  31
0
  0
LINE
  8
0
  10
4.10111
  20
0.80285
  30
0
  11
4.10039
  21
0.81422
  31
0
  0
LINE
  8
0
  10
4.10039
  20
0.81422
  30
0
  11
4.09746
  21
0.82766
  31
0
  0
LINE
  8
0
  10
4.09746
  20
0.82766
  30
0
  11
4.0819
  21
0.85312
  31
0
  0
LINE
  8
0
  10
4.0819
  20
0.85312
  30
0
  11
4.0063
  21
0.93123
  31
0
  0
LINE
  8
0
  10
4.0063
  20
0.93123
  30
0
  11
3.93721
  21
1.01517
  31
0
  0
LINE
  8
0
  10
3.93721
  20
1.01517
  30
0
  11
3.91367
  21
1.03351
  31
0
  0
LINE
  8
0
  10
3.91367
  20
1.03351
  30
0
  11
3.90065
  21
1.03793
  31
0
  0
LINE
  8
0
  10
3.90065
  20
1.03793
  30
0
  11
3.88944
  21
1.03993
  31
0
  0
LINE
  8
0
  10
3.88944
  20
1.03993
  30
0
  11
3.8792
  21
1.04061
  31
0
  0
LINE
  8
0
  10
3.8792
  20
1.04061
  30
0
  11
3.86961
  21
1.04041
  31
0
  0
LINE
  8
0
  10
3.86961
  20
1.04041
  30
0
  11
3.85173
  21
1.03818
  31
0
  0
LINE
  8
0
  10
3.85173
  20
1.03818
  30
0
  11
3.83509
  21
1.03423
  31
0
  0
LINE
  8
0
  10
3.83509
  20
1.03423
  30
0
  11
3.81933
  21
1.02899
  31
0
  0
LINE
  8
0
  10
3.81933
  20
1.02899
  30
0
  11
3.80428
  21
1.02272
  31
0
  0
LINE
  8
0
  10
3.80428
  20
1.02272
  30
0
  11
3.77585
  21
1.0077
  31
0
  0
LINE
  8
0
  10
3.77585
  20
1.0077
  30
0
  11
3.74746
  21
0.99263
  31
0
  0
LINE
  8
0
  10
3.74746
  20
0.99263
  30
0
  11
3.71668
  21
0.98121
  31
0
  0
LINE
  8
0
  10
3.71668
  20
0.98121
  30
0
  11
3.68441
  21
0.97217
  31
0
  0
LINE
  8
0
  10
3.68441
  20
0.97217
  30
0
  11
3.65094
  21
0.96512
  31
0
  0
LINE
  8
0
  10
3.65094
  20
0.96512
  30
0
  11
3.61644
  21
0.95988
  31
0
  0
LINE
  8
0
  10
3.61644
  20
0.95988
  30
0
  11
3.58104
  21
0.95633
  31
0
  0
LINE
  8
0
  10
3.58104
  20
0.95633
  30
0
  11
3.54483
  21
0.95443
  31
0
  0
LINE
  8
0
  10
3.54483
  20
0.95443
  30
0
  11
3.50789
  21
0.95411
  31
0
  0
LINE
  8
0
  10
3.50789
  20
0.95411
  30
0
  11
3.47028
  21
0.95535
  31
0
  0
LINE
  8
0
  10
3.47028
  20
0.95535
  30
0
  11
3.43207
  21
0.95814
  31
0
  0
LINE
  8
0
  10
3.43207
  20
0.95814
  30
0
  11
3.40305
  21
0.96123
  31
0
  0
LINE
  8
0
  10
3.40305
  20
0.96123
  30
0
  11
3.28445
  21
1.23064
  31
0
  0
LINE
  8
0
  10
3.28445
  20
1.23064
  30
0
  11
3.30177
  21
1.25413
  31
0
  0
LINE
  8
0
  10
3.30177
  20
1.25413
  30
0
  11
3.32552
  21
1.28419
  31
0
  0
LINE
  8
0
  10
3.32552
  20
1.28419
  30
0
  11
3.35
  21
1.31277
  31
0
  0
LINE
  8
0
  10
3.35
  20
1.31277
  30
0
  11
3.37519
  21
1.3398
  31
0
  0
LINE
  8
0
  10
3.37519
  20
1.3398
  30
0
  11
3.40105
  21
1.36521
  31
0
  0
LINE
  8
0
  10
3.40105
  20
1.36521
  30
0
  11
3.42756
  21
1.38893
  31
0
  0
LINE
  8
0
  10
3.42756
  20
1.38893
  30
0
  11
3.45473
  21
1.41083
  31
0
  0
LINE
  8
0
  10
3.45473
  20
1.41083
  30
0
  11
3.48253
  21
1.43075
  31
0
  0
LINE
  8
0
  10
3.48253
  20
1.43075
  30
0
  11
3.511
  21
1.44845
  31
0
  0
LINE
  8
0
  10
3.511
  20
1.44845
  30
0
  11
3.5402
  21
1.46344
  31
0
  0
LINE
  8
0
  10
3.5402
  20
1.46344
  30
0
  11
3.57049
  21
1.4742
  31
0
  0
LINE
  8
0
  10
3.57049
  20
1.4742
  30
0
  11
3.60077
  21
1.48503
  31
0
  0
LINE
  8
0
  10
3.60077
  20
1.48503
  30
0
  11
3.61555
  21
1.49189
  31
0
  0
LINE
  8
0
  10
3.61555
  20
1.49189
  30
0
  11
3.63006
  21
1.49997
  31
0
  0
LINE
  8
0
  10
3.63006
  20
1.49997
  30
0
  11
3.64422
  21
1.50957
  31
0
  0
LINE
  8
0
  10
3.64422
  20
1.50957
  30
0
  11
3.65793
  21
1.52126
  31
0
  0
LINE
  8
0
  10
3.65793
  20
1.52126
  30
0
  11
3.66455
  21
1.5282
  31
0
  0
LINE
  8
0
  10
3.66455
  20
1.5282
  30
0
  11
3.67097
  21
1.53621
  31
0
  0
LINE
  8
0
  10
3.67097
  20
1.53621
  30
0
  11
3.67706
  21
1.54582
  31
0
  0
LINE
  8
0
  10
3.67706
  20
1.54582
  30
0
  11
3.6826
  21
1.55842
  31
0
  0
LINE
  8
0
  10
3.6826
  20
1.55842
  30
0
  11
3.68497
  21
1.58816
  31
0
  0
LINE
  8
0
  10
3.68497
  20
1.58816
  30
0
  11
3.66972
  21
1.6958
  31
0
  0
LINE
  8
0
  10
3.66972
  20
1.6958
  30
0
  11
3.66317
  21
1.80431
  31
0
  0
LINE
  8
0
  10
5.51455
  20
1.83145
  30
0
  11
5.51455
  21
1.83145
  31
0
  0
LINE
  8
0
  10
5.51455
  20
1.83145
  30
0
  11
5.49751
  21
1.96086
  31
0
  0
LINE
  8
0
  10
5.49751
  20
1.96086
  30
0
  11
5.44756
  21
2.08145
  31
0
  0
LINE
  8
0
  10
5.44756
  20
2.08145
  30
0
  11
5.3681
  21
2.185
  31
0
  0
LINE
  8
0
  10
5.3681
  20
2.185
  30
0
  11
5.26455
  21
2.26446
  31
0
  0
LINE
  8
0
  10
5.26455
  20
2.26446
  30
0
  11
5.14396
  21
2.31441
  31
0
  0
LINE
  8
0
  10
5.14396
  20
2.31441
  30
0
  11
5.01455
  21
2.33145
  31
0
  0
LINE
  8
0
  10
5.01455
  20
2.33145
  30
0
  11
4.88514
  21
2.31441
  31
0
  0
LINE
  8
0
  10
4.88514
  20
2.31441
  30
0
  11
4.76455
  21
2.26446
  31
0
  0
LINE
  8
0
  10
4.76455
  20
2.26446
  30
0
  11
4.66099
  21
2.185
  31
0
  0
LINE
  8
0
  10
4.66099
  20
2.185
  30
0
  11
4.58154
  21
2.08145
  31
0
  0
LINE
  8
0
  10
4.58154
  20
2.08145
  30
0
  11
4.53159
  21
1.96086
  31
0
  0
LINE
  8
0
  10
4.53159
  20
1.96086
  30
0
  11
4.51455
  21
1.83145
  31
0
  0
LINE
  8
0
  10
4.51455
  20
1.83145
  30
0
  11
4.53159
  21
1.70204
  31
0
  0
LINE
  8
0
  10
4.53159
  20
1.70204
  30
0
  11
4.58154
  21
1.58145
  31
0
  0
LINE
  8
0
  10
4.58154
  20
1.58145
  30
0
  11
4.66099
  21
1.4779
  31
0
  0
LINE
  8
0
  10
4.66099
  20
1.4779
  30
0
  11
4.76455
  21
1.39844
  31
0
  0
LINE
  8
0
  10
4.76455
  20
1.39844
  30
0
  11
4.88514
  21
1.34849
  31
0
  0
LINE
  8
0
  10
4.88514
  20
1.34849
  30
0
  11
5.01455
  21
1.33145
  31
0
  0
LINE
  8
0
  10
5.01455
  20
1.33145
  30
0
  11
5.14396
  21
1.34849
  31
0
  0
LINE
  8
0
  10
5.14396
  20
1.34849
  30
0
  11
5.26455
  21
1.39844
  31
0
  0
LINE
  8
0
  10
5.26455
  20
1.39844
  30
0
  11
5.3681
  21
1.4779
  31
0
  0
LINE
  8
0
  10
5.3681
  20
1.4779
  30
0
  11
5.44756
  21
1.58145
  31
0
  0
LINE
  8
0
  10
5.44756
  20
1.58145
  30
0
  11
5.49751
  21
1.70204
  31
0
  0
LINE
  8
0
  10
5.49751
  20
1.70204
  30
0
  11
5.51455
  21
1.83145
  31
0
  0
LINE
  8
0
  10
5.51455
  20
1.83145
  30
0
  11
5.51455
  21
1.83145
  31
0
  0
ENDSEC
  0
EOF
