  999
file created by gear template generator
  0
SECTION
  2
HEADER
  9
$ACADVER
  1
AC1006
  9
$INSBASE
  10
0.0
  20
0.0
  30
0.0
  9
$EXTMIN
  10
0.0
  20
0.0
  9
$EXTMAX
  10
10000.0
  20
10000.0
  0
ENDSEC
  0
SECTION
  2
ENTITIES
  0
LINE
  8
0
  10
3.36702
  20
1.47375
  30
0
  11
3.36702
  21
1.47375
  31
0
  0
LINE
  8
0
  10
3.36702
  20
1.47375
  30
0
  11
3.36161
  21
1.43669
  31
0
  0
LINE
  8
0
  10
3.36161
  20
1.43669
  30
0
  11
3.36466
  21
1.41986
  31
0
  0
LINE
  8
0
  10
3.36466
  20
1.41986
  30
0
  11
3.3692
  21
1.40654
  31
0
  0
LINE
  8
0
  10
3.3692
  20
1.40654
  30
0
  11
3.37456
  21
1.3951
  31
0
  0
LINE
  8
0
  10
3.37456
  20
1.3951
  30
0
  11
3.38047
  21
1.38491
  31
0
  0
LINE
  8
0
  10
3.38047
  20
1.38491
  30
0
  11
3.39344
  21
1.36711
  31
0
  0
LINE
  8
0
  10
3.39344
  20
1.36711
  30
0
  11
3.40752
  21
1.35172
  31
0
  0
LINE
  8
0
  10
3.40752
  20
1.35172
  30
0
  11
3.42245
  21
1.33811
  31
0
  0
LINE
  8
0
  10
3.42245
  20
1.33811
  30
0
  11
3.43807
  21
1.32591
  31
0
  0
LINE
  8
0
  10
3.43807
  20
1.32591
  30
0
  11
3.47097
  21
1.30489
  31
0
  0
LINE
  8
0
  10
3.47097
  20
1.30489
  30
0
  11
3.50471
  21
1.28554
  31
0
  0
LINE
  8
0
  10
3.50471
  20
1.28554
  30
0
  11
3.53561
  21
1.26064
  31
0
  0
LINE
  8
0
  10
3.53561
  20
1.26064
  30
0
  11
3.56466
  21
1.23224
  31
0
  0
LINE
  8
0
  10
3.56466
  20
1.23224
  30
0
  11
3.59216
  21
1.20109
  31
0
  0
LINE
  8
0
  10
3.59216
  20
1.20109
  30
0
  11
3.61823
  21
1.16755
  31
0
  0
LINE
  8
0
  10
3.61823
  20
1.16755
  30
0
  11
3.64292
  21
1.13185
  31
0
  0
LINE
  8
0
  10
3.64292
  20
1.13185
  30
0
  11
3.66623
  21
1.09415
  31
0
  0
LINE
  8
0
  10
3.66623
  20
1.09415
  30
0
  11
3.68816
  21
1.05457
  31
0
  0
LINE
  8
0
  10
3.68816
  20
1.05457
  30
0
  11
3.70869
  21
1.01322
  31
0
  0
LINE
  8
0
  10
3.70869
  20
1.01322
  30
0
  11
3.72781
  21
0.97018
  31
0
  0
LINE
  8
0
  10
3.72781
  20
0.97018
  30
0
  11
3.7412
  21
0.93684
  31
0
  0
LINE
  8
0
  10
3.7412
  20
0.93684
  30
0
  11
3.63912
  21
0.79157
  31
0
  0
LINE
  8
0
  10
3.63912
  20
0.79157
  30
0
  11
3.52475
  21
0.65578
  31
0
  0
LINE
  8
0
  10
3.52475
  20
0.65578
  30
0
  11
3.4891
  21
0.66021
  31
0
  0
LINE
  8
0
  10
3.4891
  20
0.66021
  30
0
  11
3.4426
  21
0.66769
  31
0
  0
LINE
  8
0
  10
3.4426
  20
0.66769
  30
0
  11
3.39737
  21
0.67698
  31
0
  0
LINE
  8
0
  10
3.39737
  20
0.67698
  30
0
  11
3.35351
  21
0.68808
  31
0
  0
LINE
  8
0
  10
3.35351
  20
0.68808
  30
0
  11
3.3111
  21
0.70098
  31
0
  0
LINE
  8
0
  10
3.3111
  20
0.70098
  30
0
  11
3.27028
  21
0.71573
  31
0
  0
LINE
  8
0
  10
3.27028
  20
0.71573
  30
0
  11
3.2312
  21
0.73236
  31
0
  0
LINE
  8
0
  10
3.2312
  20
0.73236
  30
0
  11
3.19406
  21
0.751
  31
0
  0
LINE
  8
0
  10
3.19406
  20
0.751
  30
0
  11
3.15918
  21
0.77183
  31
0
  0
LINE
  8
0
  10
3.15918
  20
0.77183
  30
0
  11
3.12721
  21
0.79535
  31
0
  0
LINE
  8
0
  10
3.12721
  20
0.79535
  30
0
  11
3.09988
  21
0.82302
  31
0
  0
LINE
  8
0
  10
3.09988
  20
0.82302
  30
0
  11
3.07115
  21
0.84946
  31
0
  0
LINE
  8
0
  10
3.07115
  20
0.84946
  30
0
  11
3.05537
  21
0.86144
  31
0
  0
LINE
  8
0
  10
3.05537
  20
0.86144
  30
0
  11
3.0384
  21
0.8724
  31
0
  0
LINE
  8
0
  10
3.0384
  20
0.8724
  30
0
  11
3.01992
  21
0.88209
  31
0
  0
LINE
  8
0
  10
3.01992
  20
0.88209
  30
0
  11
2.99939
  21
0.89008
  31
0
  0
LINE
  8
0
  10
2.99939
  20
0.89008
  30
0
  11
2.98803
  21
0.89319
  31
0
  0
LINE
  8
0
  10
2.98803
  20
0.89319
  30
0
  11
2.97561
  21
0.89545
  31
0
  0
LINE
  8
0
  10
2.97561
  20
0.89545
  30
0
  11
2.96157
  21
0.89643
  31
0
  0
LINE
  8
0
  10
2.96157
  20
0.89643
  30
0
  11
2.94452
  21
0.89509
  31
0
  0
LINE
  8
0
  10
2.94452
  20
0.89509
  30
0
  11
2.91007
  21
0.88039
  31
0
  0
LINE
  8
0
  10
2.91007
  20
0.88039
  30
0
  11
2.80624
  21
0.80795
  31
0
  0
LINE
  8
0
  10
2.80624
  20
0.80795
  30
0
  11
2.69649
  21
0.74485
  31
0
  0
LINE
  8
0
  10
2.69649
  20
0.74485
  30
0
  11
2.66852
  21
0.71994
  31
0
  0
LINE
  8
0
  10
2.66852
  20
0.71994
  30
0
  11
2.66005
  21
0.70508
  31
0
  0
LINE
  8
0
  10
2.66005
  20
0.70508
  30
0
  11
2.65496
  21
0.69196
  31
0
  0
LINE
  8
0
  10
2.65496
  20
0.69196
  30
0
  11
2.65171
  21
0.67975
  31
0
  0
LINE
  8
0
  10
2.65171
  20
0.67975
  30
0
  11
2.64969
  21
0.66815
  31
0
  0
LINE
  8
0
  10
2.64969
  20
0.66815
  30
0
  11
2.64818
  21
0.64617
  31
0
  0
LINE
  8
0
  10
2.64818
  20
0.64617
  30
0
  11
2.64908
  21
0.62533
  31
0
  0
LINE
  8
0
  10
2.64908
  20
0.62533
  30
0
  11
2.65177
  21
0.60531
  31
0
  0
LINE
  8
0
  10
2.65177
  20
0.60531
  30
0
  11
2.65589
  21
0.58593
  31
0
  0
LINE
  8
0
  10
2.65589
  20
0.58593
  30
0
  11
2.66758
  21
0.54867
  31
0
  0
LINE
  8
0
  10
2.66758
  20
0.54867
  30
0
  11
2.68099
  21
0.51217
  31
0
  0
LINE
  8
0
  10
2.68099
  20
0.51217
  30
0
  11
2.68865
  21
0.47322
  31
0
  0
LINE
  8
0
  10
2.68865
  20
0.47322
  30
0
  11
2.69265
  21
0.43279
  31
0
  0
LINE
  8
0
  10
2.69265
  20
0.43279
  30
0
  11
2.6937
  21
0.39125
  31
0
  0
LINE
  8
0
  10
2.6937
  20
0.39125
  30
0
  11
2.69211
  21
0.34881
  31
0
  0
LINE
  8
0
  10
2.69211
  20
0.34881
  30
0
  11
2.68807
  21
0.30559
  31
0
  0
LINE
  8
0
  10
2.68807
  20
0.30559
  30
0
  11
2.68169
  21
0.26173
  31
0
  0
LINE
  8
0
  10
2.68169
  20
0.26173
  30
0
  11
2.67305
  21
0.21732
  31
0
  0
LINE
  8
0
  10
2.67305
  20
0.21732
  30
0
  11
2.6622
  21
0.17244
  31
0
  0
LINE
  8
0
  10
2.6622
  20
0.17244
  30
0
  11
2.64918
  21
0.12718
  31
0
  0
LINE
  8
0
  10
2.64918
  20
0.12718
  30
0
  11
2.63801
  21
0.09303
  31
0
  0
LINE
  8
0
  10
2.63801
  20
0.09303
  30
0
  11
2.46644
  21
0.04737
  31
0
  0
LINE
  8
0
  10
2.46644
  20
0.04737
  30
0
  11
2.29154
  21
0.01686
  31
0
  0
LINE
  8
0
  10
2.29154
  20
0.01686
  30
0
  11
2.26707
  21
0.04317
  31
0
  0
LINE
  8
0
  10
2.26707
  20
0.04317
  30
0
  11
2.23626
  21
0.07879
  31
0
  0
LINE
  8
0
  10
2.23626
  20
0.07879
  30
0
  11
2.20759
  21
0.11498
  31
0
  0
LINE
  8
0
  10
2.20759
  20
0.11498
  30
0
  11
2.18112
  21
0.15167
  31
0
  0
LINE
  8
0
  10
2.18112
  20
0.15167
  30
0
  11
2.15693
  21
0.18881
  31
0
  0
LINE
  8
0
  10
2.15693
  20
0.18881
  30
0
  11
2.13514
  21
0.22635
  31
0
  0
LINE
  8
0
  10
2.13514
  20
0.22635
  30
0
  11
2.11589
  21
0.26422
  31
0
  0
LINE
  8
0
  10
2.11589
  20
0.26422
  30
0
  11
2.09942
  21
0.30236
  31
0
  0
LINE
  8
0
  10
2.09942
  20
0.30236
  30
0
  11
2.08609
  21
0.34074
  31
0
  0
LINE
  8
0
  10
2.08609
  20
0.34074
  30
0
  11
2.07671
  21
0.37931
  31
0
  0
LINE
  8
0
  10
2.07671
  20
0.37931
  30
0
  11
2.07357
  21
0.41807
  31
0
  0
LINE
  8
0
  10
2.07357
  20
0.41807
  30
0
  11
2.06856
  21
0.4568
  31
0
  0
LINE
  8
0
  10
2.06856
  20
0.4568
  30
0
  11
2.06417
  21
0.47612
  31
0
  0
LINE
  8
0
  10
2.06417
  20
0.47612
  30
0
  11
2.05821
  21
0.49542
  31
0
  0
LINE
  8
0
  10
2.05821
  20
0.49542
  30
0
  11
2.05029
  21
0.51472
  31
0
  0
LINE
  8
0
  10
2.05029
  20
0.51472
  30
0
  11
2.0397
  21
0.53404
  31
0
  0
LINE
  8
0
  10
2.0397
  20
0.53404
  30
0
  11
2.03299
  21
0.54372
  31
0
  0
LINE
  8
0
  10
2.03299
  20
0.54372
  30
0
  11
2.02492
  21
0.55344
  31
0
  0
LINE
  8
0
  10
2.02492
  20
0.55344
  30
0
  11
2.0148
  21
0.56322
  31
0
  0
LINE
  8
0
  10
2.0148
  20
0.56322
  30
0
  11
2.00088
  21
0.57314
  31
0
  0
LINE
  8
0
  10
2.00088
  20
0.57314
  30
0
  11
1.96504
  21
0.58403
  31
0
  0
LINE
  8
0
  10
1.96504
  20
0.58403
  30
0
  11
1.83894
  21
0.59527
  31
0
  0
LINE
  8
0
  10
1.83894
  20
0.59527
  30
0
  11
1.7143
  21
0.61749
  31
0
  0
LINE
  8
0
  10
1.7143
  20
0.61749
  30
0
  11
1.67687
  21
0.61638
  31
0
  0
LINE
  8
0
  10
1.67687
  20
0.61638
  30
0
  11
1.66083
  21
0.61045
  31
0
  0
LINE
  8
0
  10
1.66083
  20
0.61045
  30
0
  11
1.64849
  21
0.60366
  31
0
  0
LINE
  8
0
  10
1.64849
  20
0.60366
  30
0
  11
1.63816
  21
0.5964
  31
0
  0
LINE
  8
0
  10
1.63816
  20
0.5964
  30
0
  11
1.62915
  21
0.58881
  31
0
  0
LINE
  8
0
  10
1.62915
  20
0.58881
  30
0
  11
1.61387
  21
0.57295
  31
0
  0
LINE
  8
0
  10
1.61387
  20
0.57295
  30
0
  11
1.60116
  21
0.5564
  31
0
  0
LINE
  8
0
  10
1.60116
  20
0.5564
  30
0
  11
1.59035
  21
0.53934
  31
0
  0
LINE
  8
0
  10
1.59035
  20
0.53934
  30
0
  11
1.58105
  21
0.52184
  31
0
  0
LINE
  8
0
  10
1.58105
  20
0.52184
  30
0
  11
1.56606
  21
0.48579
  31
0
  0
LINE
  8
0
  10
1.56606
  20
0.48579
  30
0
  11
1.55286
  21
0.44921
  31
0
  0
LINE
  8
0
  10
1.55286
  20
0.44921
  30
0
  11
1.5337
  21
0.41444
  31
0
  0
LINE
  8
0
  10
1.5337
  20
0.41444
  30
0
  11
1.51078
  21
0.3809
  31
0
  0
LINE
  8
0
  10
1.51078
  20
0.3809
  30
0
  11
1.48488
  21
0.34841
  31
0
  0
LINE
  8
0
  10
1.48488
  20
0.34841
  30
0
  11
1.45638
  21
0.31691
  31
0
  0
LINE
  8
0
  10
1.45638
  20
0.31691
  30
0
  11
1.42551
  21
0.28641
  31
0
  0
LINE
  8
0
  10
1.42551
  20
0.28641
  30
0
  11
1.39243
  21
0.2569
  31
0
  0
LINE
  8
0
  10
1.39243
  20
0.2569
  30
0
  11
1.35726
  21
0.22843
  31
0
  0
LINE
  8
0
  10
1.35726
  20
0.22843
  30
0
  11
1.3201
  21
0.20103
  31
0
  0
LINE
  8
0
  10
1.3201
  20
0.20103
  30
0
  11
1.28103
  21
0.17473
  31
0
  0
LINE
  8
0
  10
1.28103
  20
0.17473
  30
0
  11
1.25053
  21
0.15576
  31
0
  0
LINE
  8
0
  10
1.25053
  20
0.15576
  30
0
  11
1.08974
  21
0.23106
  31
0
  0
LINE
  8
0
  10
1.08974
  20
0.23106
  30
0
  11
0.93615
  21
0.32011
  31
0
  0
LINE
  8
0
  10
0.93615
  20
0.32011
  30
0
  11
0.93432
  21
0.35599
  31
0
  0
LINE
  8
0
  10
0.93432
  20
0.35599
  30
0
  11
0.93362
  21
0.40308
  31
0
  0
LINE
  8
0
  10
0.93362
  20
0.40308
  30
0
  11
0.93491
  21
0.44923
  31
0
  0
LINE
  8
0
  10
0.93491
  20
0.44923
  30
0
  11
0.93822
  21
0.49436
  31
0
  0
LINE
  8
0
  10
0.93822
  20
0.49436
  30
0
  11
0.94356
  21
0.53836
  31
0
  0
LINE
  8
0
  10
0.94356
  20
0.53836
  30
0
  11
0.951
  21
0.58112
  31
0
  0
LINE
  8
0
  10
0.951
  20
0.58112
  30
0
  11
0.9606
  21
0.6225
  31
0
  0
LINE
  8
0
  10
0.9606
  20
0.6225
  30
0
  11
0.9725
  21
0.66231
  31
0
  0
LINE
  8
0
  10
0.9725
  20
0.66231
  30
0
  11
0.98695
  21
0.70028
  31
0
  0
LINE
  8
0
  10
0.98695
  20
0.70028
  30
0
  11
1.00456
  21
0.73585
  31
0
  0
LINE
  8
0
  10
1.00456
  20
0.73585
  30
0
  11
1.02708
  21
0.76756
  31
0
  0
LINE
  8
0
  10
1.02708
  20
0.76756
  30
0
  11
1.04812
  21
0.80045
  31
0
  0
LINE
  8
0
  10
1.04812
  20
0.80045
  30
0
  11
1.05718
  21
0.81807
  31
0
  0
LINE
  8
0
  10
1.05718
  20
0.81807
  30
0
  11
1.06502
  21
0.83669
  31
0
  0
LINE
  8
0
  10
1.06502
  20
0.83669
  30
0
  11
1.07136
  21
0.85657
  31
0
  0
LINE
  8
0
  10
1.07136
  20
0.85657
  30
0
  11
1.07566
  21
0.87817
  31
0
  0
LINE
  8
0
  10
1.07566
  20
0.87817
  30
0
  11
1.07675
  21
0.8899
  31
0
  0
LINE
  8
0
  10
1.07675
  20
0.8899
  30
0
  11
1.07682
  21
0.90253
  31
0
  0
LINE
  8
0
  10
1.07682
  20
0.90253
  30
0
  11
1.07535
  21
0.91653
  31
0
  0
LINE
  8
0
  10
1.07535
  20
0.91653
  30
0
  11
1.07106
  21
0.93308
  31
0
  0
LINE
  8
0
  10
1.07106
  20
0.93308
  30
0
  11
1.05061
  21
0.96445
  31
0
  0
LINE
  8
0
  10
1.05061
  20
0.96445
  30
0
  11
0.96124
  21
1.05412
  31
0
  0
LINE
  8
0
  10
0.96124
  20
1.05412
  30
0
  11
0.88004
  21
1.15126
  31
0
  0
LINE
  8
0
  10
0.88004
  20
1.15126
  30
0
  11
0.85065
  21
1.17447
  31
0
  0
LINE
  8
0
  10
0.85065
  20
1.17447
  30
0
  11
0.83455
  21
1.18024
  31
0
  0
LINE
  8
0
  10
0.83455
  20
1.18024
  30
0
  11
0.82074
  21
1.18297
  31
0
  0
LINE
  8
0
  10
0.82074
  20
1.18297
  30
0
  11
0.80816
  21
1.18405
  31
0
  0
LINE
  8
0
  10
0.80816
  20
1.18405
  30
0
  11
0.79638
  21
1.18403
  31
0
  0
LINE
  8
0
  10
0.79638
  20
1.18403
  30
0
  11
0.77447
  21
1.1817
  31
0
  0
LINE
  8
0
  10
0.77447
  20
1.1817
  30
0
  11
0.75411
  21
1.17719
  31
0
  0
LINE
  8
0
  10
0.75411
  20
1.17719
  30
0
  11
0.73486
  21
1.17106
  31
0
  0
LINE
  8
0
  10
0.73486
  20
1.17106
  30
0
  11
0.71648
  21
1.16364
  31
0
  0
LINE
  8
0
  10
0.71648
  20
1.16364
  30
0
  11
0.68182
  21
1.14566
  31
0
  0
LINE
  8
0
  10
0.68182
  20
1.14566
  30
0
  11
0.6482
  21
1.12612
  31
0
  0
LINE
  8
0
  10
0.6482
  20
1.12612
  30
0
  11
0.61118
  21
1.1118
  31
0
  0
LINE
  8
0
  10
0.61118
  20
1.1118
  30
0
  11
0.57206
  21
1.10085
  31
0
  0
LINE
  8
0
  10
0.57206
  20
1.10085
  30
0
  11
0.53133
  21
1.0926
  31
0
  0
LINE
  8
0
  10
0.53133
  20
1.0926
  30
0
  11
0.48925
  21
1.0868
  31
0
  0
LINE
  8
0
  10
0.48925
  20
1.0868
  30
0
  11
0.446
  21
1.08327
  31
0
  0
LINE
  8
0
  10
0.446
  20
1.08327
  30
0
  11
0.40169
  21
1.08193
  31
0
  0
LINE
  8
0
  10
0.40169
  20
1.08193
  30
0
  11
0.35645
  21
1.08273
  31
0
  0
LINE
  8
0
  10
0.35645
  20
1.08273
  30
0
  11
0.31037
  21
1.08562
  31
0
  0
LINE
  8
0
  10
0.31037
  20
1.08562
  30
0
  11
0.26354
  21
1.09059
  31
0
  0
LINE
  8
0
  10
0.26354
  20
1.09059
  30
0
  11
0.22797
  21
1.09566
  31
0
  0
LINE
  8
0
  10
0.22797
  20
1.09566
  30
0
  11
0.1532
  21
1.25669
  31
0
  0
LINE
  8
0
  10
0.1532
  20
1.25669
  30
0
  11
0.09279
  21
1.42364
  31
0
  0
LINE
  8
0
  10
0.09279
  20
1.42364
  30
0
  11
0.11445
  21
1.45231
  31
0
  0
LINE
  8
0
  10
0.11445
  20
1.45231
  30
0
  11
0.14418
  21
1.48883
  31
0
  0
LINE
  8
0
  10
0.14418
  20
1.48883
  30
0
  11
0.17484
  21
1.52335
  31
0
  0
LINE
  8
0
  10
0.17484
  20
1.52335
  30
0
  11
0.20638
  21
1.55579
  31
0
  0
LINE
  8
0
  10
0.20638
  20
1.55579
  30
0
  11
0.23876
  21
1.58606
  31
0
  0
LINE
  8
0
  10
0.23876
  20
1.58606
  30
0
  11
0.27194
  21
1.61404
  31
0
  0
LINE
  8
0
  10
0.27194
  20
1.61404
  30
0
  11
0.30589
  21
1.63957
  31
0
  0
LINE
  8
0
  10
0.30589
  20
1.63957
  30
0
  11
0.3406
  21
1.66242
  31
0
  0
LINE
  8
0
  10
0.3406
  20
1.66242
  30
0
  11
0.37607
  21
1.68221
  31
0
  0
LINE
  8
0
  10
0.37607
  20
1.68221
  30
0
  11
0.41243
  21
1.69814
  31
0
  0
LINE
  8
0
  10
0.41243
  20
1.69814
  30
0
  11
0.45006
  21
1.70796
  31
0
  0
LINE
  8
0
  10
0.45006
  20
1.70796
  30
0
  11
0.48732
  21
1.71963
  31
0
  0
LINE
  8
0
  10
0.48732
  20
1.71963
  30
0
  11
0.50559
  21
1.72731
  31
0
  0
LINE
  8
0
  10
0.50559
  20
1.72731
  30
0
  11
0.52357
  21
1.73653
  31
0
  0
LINE
  8
0
  10
0.52357
  20
1.73653
  30
0
  11
0.54119
  21
1.74768
  31
0
  0
LINE
  8
0
  10
0.54119
  20
1.74768
  30
0
  11
0.55838
  21
1.76146
  31
0
  0
LINE
  8
0
  10
0.55838
  20
1.76146
  30
0
  11
0.56675
  21
1.76974
  31
0
  0
LINE
  8
0
  10
0.56675
  20
1.76974
  30
0
  11
0.57492
  21
1.77938
  31
0
  0
LINE
  8
0
  10
0.57492
  20
1.77938
  30
0
  11
0.58279
  21
1.79104
  31
0
  0
LINE
  8
0
  10
0.58279
  20
1.79104
  30
0
  11
0.59015
  21
1.80648
  31
0
  0
LINE
  8
0
  10
0.59015
  20
1.80648
  30
0
  11
0.59465
  21
1.84366
  31
0
  0
LINE
  8
0
  10
0.59465
  20
1.84366
  30
0
  11
0.58382
  21
1.9698
  31
0
  0
LINE
  8
0
  10
0.58382
  20
1.9698
  30
0
  11
0.58406
  21
2.0964
  31
0
  0
LINE
  8
0
  10
0.58406
  20
2.0964
  30
0
  11
0.57646
  21
2.13308
  31
0
  0
LINE
  8
0
  10
0.57646
  20
2.13308
  30
0
  11
0.56784
  21
2.14784
  31
0
  0
LINE
  8
0
  10
0.56784
  20
2.14784
  30
0
  11
0.55902
  21
2.15881
  31
0
  0
LINE
  8
0
  10
0.55902
  20
2.15881
  30
0
  11
0.55007
  21
2.16773
  31
0
  0
LINE
  8
0
  10
0.55007
  20
2.16773
  30
0
  11
0.54103
  21
2.17528
  31
0
  0
LINE
  8
0
  10
0.54103
  20
2.17528
  30
0
  11
0.52276
  21
2.18758
  31
0
  0
LINE
  8
0
  10
0.52276
  20
2.18758
  30
0
  11
0.50426
  21
2.19722
  31
0
  0
LINE
  8
0
  10
0.50426
  20
2.19722
  30
0
  11
0.48557
  21
2.2049
  31
0
  0
LINE
  8
0
  10
0.48557
  20
2.2049
  30
0
  11
0.46673
  21
2.21102
  31
0
  0
LINE
  8
0
  10
0.46673
  20
2.21102
  30
0
  11
0.42862
  21
2.21953
  31
0
  0
LINE
  8
0
  10
0.42862
  20
2.21953
  30
0
  11
0.3903
  21
2.22617
  31
0
  0
LINE
  8
0
  10
0.3903
  20
2.22617
  30
0
  11
0.35274
  21
2.239
  31
0
  0
LINE
  8
0
  10
0.35274
  20
2.239
  30
0
  11
0.31573
  21
2.25575
  31
0
  0
LINE
  8
0
  10
0.31573
  20
2.25575
  30
0
  11
0.27923
  21
2.27562
  31
0
  0
LINE
  8
0
  10
0.27923
  20
2.27562
  30
0
  11
0.24326
  21
2.29821
  31
0
  0
LINE
  8
0
  10
0.24326
  20
2.29821
  30
0
  11
0.20786
  21
2.32332
  31
0
  0
LINE
  8
0
  10
0.20786
  20
2.32332
  30
0
  11
0.17306
  21
2.35077
  31
0
  0
LINE
  8
0
  10
0.17306
  20
2.35077
  30
0
  11
0.13892
  21
2.38046
  31
0
  0
LINE
  8
0
  10
0.13892
  20
2.38046
  30
0
  11
0.10548
  21
2.4123
  31
0
  0
LINE
  8
0
  10
0.10548
  20
2.4123
  30
0
  11
0.07279
  21
2.44621
  31
0
  0
LINE
  8
0
  10
0.07279
  20
2.44621
  30
0
  11
0.04881
  21
2.47296
  31
0
  0
LINE
  8
0
  10
0.04881
  20
2.47296
  30
0
  11
0.09504
  21
2.64437
  31
0
  0
LINE
  8
0
  10
0.09504
  20
2.64437
  30
0
  11
0.15607
  21
2.8111
  31
0
  0
LINE
  8
0
  10
0.15607
  20
2.8111
  30
0
  11
0.19109
  21
2.81913
  31
0
  0
LINE
  8
0
  10
0.19109
  20
2.81913
  30
0
  11
0.23734
  21
2.828
  31
0
  0
LINE
  8
0
  10
0.23734
  20
2.828
  30
0
  11
0.28302
  21
2.83474
  31
0
  0
LINE
  8
0
  10
0.28302
  20
2.83474
  30
0
  11
0.32804
  21
2.83932
  31
0
  0
LINE
  8
0
  10
0.32804
  20
2.83932
  30
0
  11
0.3723
  21
2.84169
  31
0
  0
LINE
  8
0
  10
0.3723
  20
2.84169
  30
0
  11
0.4157
  21
2.8418
  31
0
  0
LINE
  8
0
  10
0.4157
  20
2.8418
  30
0
  11
0.45811
  21
2.83953
  31
0
  0
LINE
  8
0
  10
0.45811
  20
2.83953
  30
0
  11
0.49939
  21
2.83472
  31
0
  0
LINE
  8
0
  10
0.49939
  20
2.83472
  30
0
  11
0.53929
  21
2.82708
  31
0
  0
LINE
  8
0
  10
0.53929
  20
2.82708
  30
0
  11
0.57738
  21
2.81591
  31
0
  0
LINE
  8
0
  10
0.57738
  20
2.81591
  30
0
  11
0.61252
  21
2.79925
  31
0
  0
LINE
  8
0
  10
0.61252
  20
2.79925
  30
0
  11
0.64856
  21
2.78423
  31
0
  0
LINE
  8
0
  10
0.64856
  20
2.78423
  30
0
  11
0.66749
  21
2.77837
  31
0
  0
LINE
  8
0
  10
0.66749
  20
2.77837
  30
0
  11
0.68719
  21
2.77388
  31
0
  0
LINE
  8
0
  10
0.68719
  20
2.77388
  30
0
  11
0.70786
  21
2.77109
  31
0
  0
LINE
  8
0
  10
0.70786
  20
2.77109
  30
0
  11
0.72988
  21
2.77061
  31
0
  0
LINE
  8
0
  10
0.72988
  20
2.77061
  30
0
  11
0.74162
  21
2.77157
  31
0
  0
LINE
  8
0
  10
0.74162
  20
2.77157
  30
0
  11
0.75407
  21
2.7737
  31
0
  0
LINE
  8
0
  10
0.75407
  20
2.7737
  30
0
  11
0.7676
  21
2.77757
  31
0
  0
LINE
  8
0
  10
0.7676
  20
2.77757
  30
0
  11
0.78316
  21
2.78467
  31
0
  0
LINE
  8
0
  10
0.78316
  20
2.78467
  30
0
  11
0.81051
  21
2.81026
  31
0
  0
LINE
  8
0
  10
0.81051
  20
2.81026
  30
0
  11
0.88329
  21
2.91385
  31
0
  0
LINE
  8
0
  10
0.88329
  20
2.91385
  30
0
  11
0.96485
  21
3.01068
  31
0
  0
LINE
  8
0
  10
0.96485
  20
3.01068
  30
0
  11
0.98261
  21
3.04365
  31
0
  0
LINE
  8
0
  10
0.98261
  20
3.04365
  30
0
  11
0.98549
  21
3.06051
  31
0
  0
LINE
  8
0
  10
0.98549
  20
3.06051
  30
0
  11
0.98578
  21
3.07458
  31
0
  0
LINE
  8
0
  10
0.98578
  20
3.07458
  30
0
  11
0.98466
  21
3.08716
  31
0
  0
LINE
  8
0
  10
0.98466
  20
3.08716
  30
0
  11
0.98259
  21
3.09876
  31
0
  0
LINE
  8
0
  10
0.98259
  20
3.09876
  30
0
  11
0.9765
  21
3.11993
  31
0
  0
LINE
  8
0
  10
0.9765
  20
3.11993
  30
0
  11
0.96852
  21
3.1392
  31
0
  0
LINE
  8
0
  10
0.96852
  20
3.1392
  30
0
  11
0.95915
  21
3.1571
  31
0
  0
LINE
  8
0
  10
0.95915
  20
3.1571
  30
0
  11
0.94865
  21
3.1739
  31
0
  0
LINE
  8
0
  10
0.94865
  20
3.1739
  30
0
  11
0.92492
  21
3.20491
  31
0
  0
LINE
  8
0
  10
0.92492
  20
3.20491
  30
0
  11
0.89983
  21
3.23463
  31
0
  0
LINE
  8
0
  10
0.89983
  20
3.23463
  30
0
  11
0.87931
  21
3.26861
  31
0
  0
LINE
  8
0
  10
0.87931
  20
3.26861
  30
0
  11
0.86173
  21
3.30523
  31
0
  0
LINE
  8
0
  10
0.86173
  20
3.30523
  30
0
  11
0.84654
  21
3.34391
  31
0
  0
LINE
  8
0
  10
0.84654
  20
3.34391
  30
0
  11
0.83351
  21
3.38434
  31
0
  0
LINE
  8
0
  10
0.83351
  20
3.38434
  30
0
  11
0.82252
  21
3.42632
  31
0
  0
LINE
  8
0
  10
0.82252
  20
3.42632
  30
0
  11
0.81351
  21
3.46972
  31
0
  0
LINE
  8
0
  10
0.81351
  20
3.46972
  30
0
  11
0.80644
  21
3.51441
  31
0
  0
LINE
  8
0
  10
0.80644
  20
3.51441
  30
0
  11
0.80129
  21
3.5603
  31
0
  0
LINE
  8
0
  10
0.80129
  20
3.5603
  30
0
  11
0.79805
  21
3.60728
  31
0
  0
LINE
  8
0
  10
0.79805
  20
3.60728
  30
0
  11
0.79687
  21
3.64319
  31
0
  0
LINE
  8
0
  10
0.79687
  20
3.64319
  30
0
  11
0.94247
  21
3.74478
  31
0
  0
LINE
  8
0
  10
0.94247
  20
3.74478
  30
0
  11
1.09639
  21
3.83327
  31
0
  0
LINE
  8
0
  10
1.09639
  20
3.83327
  30
0
  11
1.12838
  21
3.81692
  31
0
  0
LINE
  8
0
  10
1.12838
  20
3.81692
  30
0
  11
1.16951
  21
3.79398
  31
0
  0
LINE
  8
0
  10
1.16951
  20
3.79398
  30
0
  11
1.20883
  21
3.76978
  31
0
  0
LINE
  8
0
  10
1.20883
  20
3.76978
  30
0
  11
1.24626
  21
3.74435
  31
0
  0
LINE
  8
0
  10
1.24626
  20
3.74435
  30
0
  11
1.28169
  21
3.71772
  31
0
  0
LINE
  8
0
  10
1.28169
  20
3.71772
  30
0
  11
1.31501
  21
3.6899
  31
0
  0
LINE
  8
0
  10
1.31501
  20
3.6899
  30
0
  11
1.34604
  21
3.6609
  31
0
  0
LINE
  8
0
  10
1.34604
  20
3.6609
  30
0
  11
1.37457
  21
3.63069
  31
0
  0
LINE
  8
0
  10
1.37457
  20
3.63069
  30
0
  11
1.40022
  21
3.59919
  31
0
  0
LINE
  8
0
  10
1.40022
  20
3.59919
  30
0
  11
1.42222
  21
3.56615
  31
0
  0
LINE
  8
0
  10
1.42222
  20
3.56615
  30
0
  11
1.43843
  21
3.5308
  31
0
  0
LINE
  8
0
  10
1.43843
  20
3.5308
  30
0
  11
1.45639
  21
3.49613
  31
0
  0
LINE
  8
0
  10
1.45639
  20
3.49613
  30
0
  11
1.46713
  21
3.47947
  31
0
  0
LINE
  8
0
  10
1.46713
  20
3.47947
  30
0
  11
1.47933
  21
3.46337
  31
0
  0
LINE
  8
0
  10
1.47933
  20
3.46337
  30
0
  11
1.49337
  21
3.44795
  31
0
  0
LINE
  8
0
  10
1.49337
  20
3.44795
  30
0
  11
1.50993
  21
3.43341
  31
0
  0
LINE
  8
0
  10
1.50993
  20
3.43341
  30
0
  11
1.51954
  21
3.42661
  31
0
  0
LINE
  8
0
  10
1.51954
  20
3.42661
  30
0
  11
1.53045
  21
3.42024
  31
0
  0
LINE
  8
0
  10
1.53045
  20
3.42024
  30
0
  11
1.5433
  21
3.41451
  31
0
  0
LINE
  8
0
  10
1.5433
  20
3.41451
  30
0
  11
1.55978
  21
3.40994
  31
0
  0
LINE
  8
0
  10
1.55978
  20
3.40994
  30
0
  11
1.59718
  21
3.41197
  31
0
  0
LINE
  8
0
  10
1.59718
  20
3.41197
  30
0
  11
1.71952
  21
3.44453
  31
0
  0
LINE
  8
0
  10
1.71952
  20
3.44453
  30
0
  11
1.84424
  21
3.46629
  31
0
  0
LINE
  8
0
  10
1.84424
  20
3.46629
  30
0
  11
1.87904
  21
3.48014
  31
0
  0
LINE
  8
0
  10
1.87904
  20
3.48014
  30
0
  11
1.89208
  21
3.49119
  31
0
  0
LINE
  8
0
  10
1.89208
  20
3.49119
  30
0
  11
1.90135
  21
3.50179
  31
0
  0
LINE
  8
0
  10
1.90135
  20
3.50179
  30
0
  11
1.90858
  21
3.51215
  31
0
  0
LINE
  8
0
  10
1.90858
  20
3.51215
  30
0
  11
1.91445
  21
3.52235
  31
0
  0
LINE
  8
0
  10
1.91445
  20
3.52235
  30
0
  11
1.92339
  21
3.54249
  31
0
  0
LINE
  8
0
  10
1.92339
  20
3.54249
  30
0
  11
1.92966
  21
3.56238
  31
0
  0
LINE
  8
0
  10
1.92966
  20
3.56238
  30
0
  11
1.93399
  21
3.58212
  31
0
  0
LINE
  8
0
  10
1.93399
  20
3.58212
  30
0
  11
1.93675
  21
3.60174
  31
0
  0
LINE
  8
0
  10
1.93675
  20
3.60174
  30
0
  11
1.9385
  21
3.64074
  31
0
  0
LINE
  8
0
  10
1.9385
  20
3.64074
  30
0
  11
1.93839
  21
3.67964
  31
0
  0
LINE
  8
0
  10
1.93839
  20
3.67964
  30
0
  11
1.9445
  21
3.71886
  31
0
  0
LINE
  8
0
  10
1.9445
  20
3.71886
  30
0
  11
1.95457
  21
3.75821
  31
0
  0
LINE
  8
0
  10
1.95457
  20
3.75821
  30
0
  11
1.9678
  21
3.7976
  31
0
  0
LINE
  8
0
  10
1.9678
  20
3.7976
  30
0
  11
1.98381
  21
3.83695
  31
0
  0
LINE
  8
0
  10
1.98381
  20
3.83695
  30
0
  11
2.00238
  21
3.87618
  31
0
  0
LINE
  8
0
  10
2.00238
  20
3.87618
  30
0
  11
2.02338
  21
3.91521
  31
0
  0
LINE
  8
0
  10
2.02338
  20
3.91521
  30
0
  11
2.04669
  21
3.95399
  31
0
  0
LINE
  8
0
  10
2.04669
  20
3.95399
  30
0
  11
2.07223
  21
3.99245
  31
0
  0
LINE
  8
0
  10
2.07223
  20
3.99245
  30
0
  11
2.09995
  21
4.03053
  31
0
  0
LINE
  8
0
  10
2.09995
  20
4.03053
  30
0
  11
2.12213
  21
4.05879
  31
0
  0
LINE
  8
0
  10
2.12213
  20
4.05879
  30
0
  11
2.29897
  21
4.04303
  31
0
  0
LINE
  8
0
  10
2.29897
  20
4.04303
  30
0
  11
2.47376
  21
4.01187
  31
0
  0
LINE
  8
0
  10
2.47376
  20
4.01187
  30
0
  11
2.48775
  21
3.97878
  31
0
  0
LINE
  8
0
  10
2.48775
  20
3.97878
  30
0
  11
2.50452
  21
3.93477
  31
0
  0
LINE
  8
0
  10
2.50452
  20
3.93477
  30
0
  11
2.51908
  21
3.89096
  31
0
  0
LINE
  8
0
  10
2.51908
  20
3.89096
  30
0
  11
2.53141
  21
3.84743
  31
0
  0
LINE
  8
0
  10
2.53141
  20
3.84743
  30
0
  11
2.54143
  21
3.80425
  31
0
  0
LINE
  8
0
  10
2.54143
  20
3.80425
  30
0
  11
2.54907
  21
3.76153
  31
0
  0
LINE
  8
0
  10
2.54907
  20
3.76153
  30
0
  11
2.55421
  21
3.71936
  31
0
  0
LINE
  8
0
  10
2.55421
  20
3.71936
  30
0
  11
2.55664
  21
3.67788
  31
0
  0
LINE
  8
0
  10
2.55664
  20
3.67788
  30
0
  11
2.55604
  21
3.63726
  31
0
  0
LINE
  8
0
  10
2.55604
  20
3.63726
  30
0
  11
2.55166
  21
3.59781
  31
0
  0
LINE
  8
0
  10
2.55166
  20
3.59781
  30
0
  11
2.54135
  21
3.56031
  31
0
  0
LINE
  8
0
  10
2.54135
  20
3.56031
  30
0
  11
2.53282
  21
3.52221
  31
0
  0
LINE
  8
0
  10
2.53282
  20
3.52221
  30
0
  11
2.53034
  21
3.50255
  31
0
  0
LINE
  8
0
  10
2.53034
  20
3.50255
  30
0
  11
2.52933
  21
3.48237
  31
0
  0
LINE
  8
0
  10
2.52933
  20
3.48237
  30
0
  11
2.53018
  21
3.46153
  31
0
  0
LINE
  8
0
  10
2.53018
  20
3.46153
  30
0
  11
2.53352
  21
3.43975
  31
0
  0
LINE
  8
0
  10
2.53352
  20
3.43975
  30
0
  11
2.53651
  21
3.42836
  31
0
  0
LINE
  8
0
  10
2.53651
  20
3.42836
  30
0
  11
2.54077
  21
3.41647
  31
0
  0
LINE
  8
0
  10
2.54077
  20
3.41647
  30
0
  11
2.54694
  21
3.40382
  31
0
  0
LINE
  8
0
  10
2.54694
  20
3.40382
  30
0
  11
2.55663
  21
3.38973
  31
0
  0
LINE
  8
0
  10
2.55663
  20
3.38973
  30
0
  11
2.58657
  21
3.36724
  31
0
  0
LINE
  8
0
  10
2.58657
  20
3.36724
  30
0
  11
2.70123
  21
3.31355
  31
0
  0
LINE
  8
0
  10
2.70123
  20
3.31355
  30
0
  11
2.81075
  21
3.25004
  31
0
  0
LINE
  8
0
  10
2.81075
  20
3.25004
  30
0
  11
2.84631
  21
3.23828
  31
0
  0
LINE
  8
0
  10
2.84631
  20
3.23828
  30
0
  11
2.86341
  21
3.23837
  31
0
  0
LINE
  8
0
  10
2.86341
  20
3.23837
  30
0
  11
2.87732
  21
3.24053
  31
0
  0
LINE
  8
0
  10
2.87732
  20
3.24053
  30
0
  11
2.88951
  21
3.24382
  31
0
  0
LINE
  8
0
  10
2.88951
  20
3.24382
  30
0
  11
2.90057
  21
3.24786
  31
0
  0
LINE
  8
0
  10
2.90057
  20
3.24786
  30
0
  11
2.92036
  21
3.25754
  31
0
  0
LINE
  8
0
  10
2.92036
  20
3.25754
  30
0
  11
2.93796
  21
3.26875
  31
0
  0
LINE
  8
0
  10
2.93796
  20
3.26875
  30
0
  11
2.95395
  21
3.28109
  31
0
  0
LINE
  8
0
  10
2.95395
  20
3.28109
  30
0
  11
2.96868
  21
3.29434
  31
0
  0
LINE
  8
0
  10
2.96868
  20
3.29434
  30
0
  11
2.9951
  21
3.32309
  31
0
  0
LINE
  8
0
  10
2.9951
  20
3.32309
  30
0
  11
3.02001
  21
3.35296
  31
0
  0
LINE
  8
0
  10
3.02001
  20
3.35296
  30
0
  11
3.0499
  21
3.37907
  31
0
  0
LINE
  8
0
  10
3.0499
  20
3.37907
  30
0
  11
3.08292
  21
3.40275
  31
0
  0
LINE
  8
0
  10
3.08292
  20
3.40275
  30
0
  11
3.11837
  21
3.42442
  31
0
  0
LINE
  8
0
  10
3.11837
  20
3.42442
  30
0
  11
3.15592
  21
3.44427
  31
0
  0
LINE
  8
0
  10
3.15592
  20
3.44427
  30
0
  11
3.19537
  21
3.46238
  31
0
  0
LINE
  8
0
  10
3.19537
  20
3.46238
  30
0
  11
3.23654
  21
3.47879
  31
0
  0
LINE
  8
0
  10
3.23654
  20
3.47879
  30
0
  11
3.27933
  21
3.49352
  31
0
  0
LINE
  8
0
  10
3.27933
  20
3.49352
  30
0
  11
3.32362
  21
3.50656
  31
0
  0
LINE
  8
0
  10
3.32362
  20
3.50656
  30
0
  11
3.36932
  21
3.51791
  31
0
  0
LINE
  8
0
  10
3.36932
  20
3.51791
  30
0
  11
3.40448
  21
3.5253
  31
0
  0
LINE
  8
0
  10
3.40448
  20
3.5253
  30
0
  11
3.52982
  21
3.39956
  31
0
  0
LINE
  8
0
  10
3.52982
  20
3.39956
  30
0
  11
3.64369
  21
3.26334
  31
0
  0
LINE
  8
0
  10
3.64369
  20
3.26334
  30
0
  11
3.63314
  21
3.229
  31
0
  0
LINE
  8
0
  10
3.63314
  20
3.229
  30
0
  11
3.61769
  21
3.18451
  31
0
  0
LINE
  8
0
  10
3.61769
  20
3.18451
  30
0
  11
3.60069
  21
3.14158
  31
0
  0
LINE
  8
0
  10
3.60069
  20
3.14158
  30
0
  11
3.58214
  21
3.10031
  31
0
  0
LINE
  8
0
  10
3.58214
  20
3.10031
  30
0
  11
3.56207
  21
3.06079
  31
0
  0
LINE
  8
0
  10
3.56207
  20
3.06079
  30
0
  11
3.54046
  21
3.02315
  31
0
  0
LINE
  8
0
  10
3.54046
  20
3.02315
  30
0
  11
3.51729
  21
2.98755
  31
0
  0
LINE
  8
0
  10
3.51729
  20
2.98755
  30
0
  11
3.49249
  21
2.95421
  31
0
  0
LINE
  8
0
  10
3.49249
  20
2.95421
  30
0
  11
3.46592
  21
2.92348
  31
0
  0
LINE
  8
0
  10
3.46592
  20
2.92348
  30
0
  11
3.43721
  21
2.89608
  31
0
  0
LINE
  8
0
  10
3.43721
  20
2.89608
  30
0
  11
3.40521
  21
2.87397
  31
0
  0
LINE
  8
0
  10
3.40521
  20
2.87397
  30
0
  11
3.37418
  21
2.85027
  31
0
  0
LINE
  8
0
  10
3.37418
  20
2.85027
  30
0
  11
3.35964
  21
2.8368
  31
0
  0
LINE
  8
0
  10
3.35964
  20
2.8368
  30
0
  11
3.3459
  21
2.82199
  31
0
  0
LINE
  8
0
  10
3.3459
  20
2.82199
  30
0
  11
3.33315
  21
2.80548
  31
0
  0
LINE
  8
0
  10
3.33315
  20
2.80548
  30
0
  11
3.32172
  21
2.78665
  31
0
  0
LINE
  8
0
  10
3.32172
  20
2.78665
  30
0
  11
3.31668
  21
2.77601
  31
0
  0
LINE
  8
0
  10
3.31668
  20
2.77601
  30
0
  11
3.3123
  21
2.76416
  31
0
  0
LINE
  8
0
  10
3.3123
  20
2.76416
  30
0
  11
3.30889
  21
2.7505
  31
0
  0
LINE
  8
0
  10
3.30889
  20
2.7505
  30
0
  11
3.30726
  21
2.73348
  31
0
  0
LINE
  8
0
  10
3.30726
  20
2.73348
  30
0
  11
3.31575
  21
2.69701
  31
0
  0
LINE
  8
0
  10
3.31575
  20
2.69701
  30
0
  11
3.36906
  21
2.58218
  31
0
  0
LINE
  8
0
  10
3.36906
  20
2.58218
  30
0
  11
3.41214
  21
2.46313
  31
0
  0
LINE
  8
0
  10
3.41214
  20
2.46313
  30
0
  11
3.43182
  21
2.43126
  31
0
  0
LINE
  8
0
  10
3.43182
  20
2.43126
  30
0
  11
3.44498
  21
2.42034
  31
0
  0
LINE
  8
0
  10
3.44498
  20
2.42034
  30
0
  11
3.45702
  21
2.41305
  31
0
  0
LINE
  8
0
  10
3.45702
  20
2.41305
  30
0
  11
3.46848
  21
2.40773
  31
0
  0
LINE
  8
0
  10
3.46848
  20
2.40773
  30
0
  11
3.47955
  21
2.40372
  31
0
  0
LINE
  8
0
  10
3.47955
  20
2.40372
  30
0
  11
3.50093
  21
2.39842
  31
0
  0
LINE
  8
0
  10
3.50093
  20
2.39842
  30
0
  11
3.52161
  21
2.39569
  31
0
  0
LINE
  8
0
  10
3.52161
  20
2.39569
  30
0
  11
3.5418
  21
2.39486
  31
0
  0
LINE
  8
0
  10
3.5418
  20
2.39486
  30
0
  11
3.5616
  21
2.39555
  31
0
  0
LINE
  8
0
  10
3.5616
  20
2.39555
  30
0
  11
3.60032
  21
2.40059
  31
0
  0
LINE
  8
0
  10
3.60032
  20
2.40059
  30
0
  11
3.6386
  21
2.40746
  31
0
  0
LINE
  8
0
  10
3.6386
  20
2.40746
  30
0
  11
3.67828
  21
2.40825
  31
0
  0
LINE
  8
0
  10
3.67828
  20
2.40825
  30
0
  11
3.71879
  21
2.40516
  31
0
  0
LINE
  8
0
  10
3.71879
  20
2.40516
  30
0
  11
3.75988
  21
2.39898
  31
0
  0
LINE
  8
0
  10
3.75988
  20
2.39898
  30
0
  11
3.80141
  21
2.39005
  31
0
  0
LINE
  8
0
  10
3.80141
  20
2.39005
  30
0
  11
3.84326
  21
2.37857
  31
0
  0
LINE
  8
0
  10
3.84326
  20
2.37857
  30
0
  11
3.88535
  21
2.36467
  31
0
  0
LINE
  8
0
  10
3.88535
  20
2.36467
  30
0
  11
3.92759
  21
2.34845
  31
0
  0
LINE
  8
0
  10
3.92759
  20
2.34845
  30
0
  11
3.9699
  21
2.32997
  31
0
  0
LINE
  8
0
  10
3.9699
  20
2.32997
  30
0
  11
4.01221
  21
2.30928
  31
0
  0
LINE
  8
0
  10
4.01221
  20
2.30928
  30
0
  11
4.0439
  21
2.29235
  31
0
  0
LINE
  8
0
  10
4.0439
  20
2.29235
  30
0
  11
4.05908
  21
2.11546
  31
0
  0
LINE
  8
0
  10
4.05908
  20
2.11546
  30
0
  11
4.05875
  21
1.93792
  31
0
  0
LINE
  8
0
  10
4.05875
  20
1.93792
  30
0
  11
4.0286
  21
1.91839
  31
0
  0
LINE
  8
0
  10
4.0286
  20
1.91839
  30
0
  11
3.98817
  21
1.89424
  31
0
  0
LINE
  8
0
  10
3.98817
  20
1.89424
  30
0
  11
3.94755
  21
1.87228
  31
0
  0
LINE
  8
0
  10
3.94755
  20
1.87228
  30
0
  11
3.90682
  21
1.85258
  31
0
  0
LINE
  8
0
  10
3.90682
  20
1.85258
  30
0
  11
3.86604
  21
1.83521
  31
0
  0
LINE
  8
0
  10
3.86604
  20
1.83521
  30
0
  11
3.82529
  21
1.82027
  31
0
  0
LINE
  8
0
  10
3.82529
  20
1.82027
  30
0
  11
3.78466
  21
1.80789
  31
0
  0
LINE
  8
0
  10
3.78466
  20
1.80789
  30
0
  11
3.74423
  21
1.79829
  31
0
  0
LINE
  8
0
  10
3.74423
  20
1.79829
  30
0
  11
3.70412
  21
1.79183
  31
0
  0
LINE
  8
0
  10
3.70412
  20
1.79183
  30
0
  11
3.66451
  21
1.7893
  31
0
  0
LINE
  8
0
  10
3.66451
  20
1.7893
  30
0
  11
3.62579
  21
1.79293
  31
0
  0
LINE
  8
0
  10
3.62579
  20
1.79293
  30
0
  11
3.58678
  21
1.79472
  31
0
  0
LINE
  8
0
  10
3.58678
  20
1.79472
  30
0
  11
3.56699
  21
1.79375
  31
0
  0
LINE
  8
0
  10
3.56699
  20
1.79375
  30
0
  11
3.54694
  21
1.79123
  31
0
  0
LINE
  8
0
  10
3.54694
  20
1.79123
  30
0
  11
3.52657
  21
1.78678
  31
0
  0
LINE
  8
0
  10
3.52657
  20
1.78678
  30
0
  11
3.5057
  21
1.77971
  31
0
  0
LINE
  8
0
  10
3.5057
  20
1.77971
  30
0
  11
3.495
  21
1.77479
  31
0
  0
LINE
  8
0
  10
3.495
  20
1.77479
  30
0
  11
3.48403
  21
1.76853
  31
0
  0
LINE
  8
0
  10
3.48403
  20
1.76853
  30
0
  11
3.47264
  21
1.76026
  31
0
  0
LINE
  8
0
  10
3.47264
  20
1.76026
  30
0
  11
3.46045
  21
1.74827
  31
0
  0
LINE
  8
0
  10
3.46045
  20
1.74827
  30
0
  11
3.4435
  21
1.71487
  31
0
  0
LINE
  8
0
  10
3.4435
  20
1.71487
  30
0
  11
3.41054
  21
1.59264
  31
0
  0
LINE
  8
0
  10
3.41054
  20
1.59264
  30
0
  11
3.36702
  21
1.47375
  31
0
  0
LINE
  8
0
  10
2.53043
  20
2.03043
  30
0
  11
2.53043
  21
2.03043
  31
0
  0
LINE
  8
0
  10
2.53043
  20
2.03043
  30
0
  11
2.51339
  21
2.15984
  31
0
  0
LINE
  8
0
  10
2.51339
  20
2.15984
  30
0
  11
2.46344
  21
2.28043
  31
0
  0
LINE
  8
0
  10
2.46344
  20
2.28043
  30
0
  11
2.38399
  21
2.38399
  31
0
  0
LINE
  8
0
  10
2.38399
  20
2.38399
  30
0
  11
2.28043
  21
2.46344
  31
0
  0
LINE
  8
0
  10
2.28043
  20
2.46344
  30
0
  11
2.15984
  21
2.51339
  31
0
  0
LINE
  8
0
  10
2.15984
  20
2.51339
  30
0
  11
2.03043
  21
2.53043
  31
0
  0
LINE
  8
0
  10
2.03043
  20
2.53043
  30
0
  11
1.90102
  21
2.51339
  31
0
  0
LINE
  8
0
  10
1.90102
  20
2.51339
  30
0
  11
1.78043
  21
2.46344
  31
0
  0
LINE
  8
0
  10
1.78043
  20
2.46344
  30
0
  11
1.67688
  21
2.38399
  31
0
  0
LINE
  8
0
  10
1.67688
  20
2.38399
  30
0
  11
1.59742
  21
2.28043
  31
0
  0
LINE
  8
0
  10
1.59742
  20
2.28043
  30
0
  11
1.54747
  21
2.15984
  31
0
  0
LINE
  8
0
  10
1.54747
  20
2.15984
  30
0
  11
1.53043
  21
2.03043
  31
0
  0
LINE
  8
0
  10
1.53043
  20
2.03043
  30
0
  11
1.54747
  21
1.90102
  31
0
  0
LINE
  8
0
  10
1.54747
  20
1.90102
  30
0
  11
1.59742
  21
1.78043
  31
0
  0
LINE
  8
0
  10
1.59742
  20
1.78043
  30
0
  11
1.67688
  21
1.67688
  31
0
  0
LINE
  8
0
  10
1.67688
  20
1.67688
  30
0
  11
1.78043
  21
1.59742
  31
0
  0
LINE
  8
0
  10
1.78043
  20
1.59742
  30
0
  11
1.90102
  21
1.54747
  31
0
  0
LINE
  8
0
  10
1.90102
  20
1.54747
  30
0
  11
2.03043
  21
1.53043
  31
0
  0
LINE
  8
0
  10
2.03043
  20
1.53043
  30
0
  11
2.15984
  21
1.54747
  31
0
  0
LINE
  8
0
  10
2.15984
  20
1.54747
  30
0
  11
2.28043
  21
1.59742
  31
0
  0
LINE
  8
0
  10
2.28043
  20
1.59742
  30
0
  11
2.38399
  21
1.67688
  31
0
  0
LINE
  8
0
  10
2.38399
  20
1.67688
  30
0
  11
2.46344
  21
1.78043
  31
0
  0
LINE
  8
0
  10
2.46344
  20
1.78043
  30
0
  11
2.51339
  21
1.90102
  31
0
  0
LINE
  8
0
  10
2.51339
  20
1.90102
  30
0
  11
2.53043
  21
2.03043
  31
0
  0
LINE
  8
0
  10
2.53043
  20
2.03043
  30
0
  11
2.53043
  21
2.03043
  31
0
  0
LINE
  8
0
  10
5.1142
  20
1.2506
  30
0
  11
5.1142
  21
1.2506
  31
0
  0
LINE
  8
0
  10
5.1142
  20
1.2506
  30
0
  11
5.08686
  21
1.27619
  31
0
  0
LINE
  8
0
  10
5.08686
  20
1.27619
  30
0
  11
5.0713
  21
1.28329
  31
0
  0
LINE
  8
0
  10
5.0713
  20
1.28329
  30
0
  11
5.05777
  21
1.28716
  31
0
  0
LINE
  8
0
  10
5.05777
  20
1.28716
  30
0
  11
5.04532
  21
1.28929
  31
0
  0
LINE
  8
0
  10
5.04532
  20
1.28929
  30
0
  11
5.03358
  21
1.29026
  31
0
  0
LINE
  8
0
  10
5.03358
  20
1.29026
  30
0
  11
5.01155
  21
1.28977
  31
0
  0
LINE
  8
0
  10
5.01155
  20
1.28977
  30
0
  11
4.99088
  21
1.28698
  31
0
  0
LINE
  8
0
  10
4.99088
  20
1.28698
  30
0
  11
4.97119
  21
1.28249
  31
0
  0
LINE
  8
0
  10
4.97119
  20
1.28249
  30
0
  11
4.95226
  21
1.27663
  31
0
  0
LINE
  8
0
  10
4.95226
  20
1.27663
  30
0
  11
4.91621
  21
1.26161
  31
0
  0
LINE
  8
0
  10
4.91621
  20
1.26161
  30
0
  11
4.88107
  21
1.24495
  31
0
  0
LINE
  8
0
  10
4.88107
  20
1.24495
  30
0
  11
4.84298
  21
1.23378
  31
0
  0
LINE
  8
0
  10
4.84298
  20
1.23378
  30
0
  11
4.80308
  21
1.22614
  31
0
  0
LINE
  8
0
  10
4.80308
  20
1.22614
  30
0
  11
4.76181
  21
1.22133
  31
0
  0
LINE
  8
0
  10
4.76181
  20
1.22133
  30
0
  11
4.71939
  21
1.21907
  31
0
  0
LINE
  8
0
  10
4.71939
  20
1.21907
  30
0
  11
4.67599
  21
1.21917
  31
0
  0
LINE
  8
0
  10
4.67599
  20
1.21917
  30
0
  11
4.63173
  21
1.22155
  31
0
  0
LINE
  8
0
  10
4.63173
  20
1.22155
  30
0
  11
4.58672
  21
1.22613
  31
0
  0
LINE
  8
0
  10
4.58672
  20
1.22613
  30
0
  11
4.54104
  21
1.23287
  31
0
  0
LINE
  8
0
  10
4.54104
  20
1.23287
  30
0
  11
4.49479
  21
1.24173
  31
0
  0
LINE
  8
0
  10
4.49479
  20
1.24173
  30
0
  11
4.45977
  21
1.24977
  31
0
  0
LINE
  8
0
  10
4.45977
  20
1.24977
  30
0
  11
4.39874
  21
1.41649
  31
0
  0
LINE
  8
0
  10
4.39874
  20
1.41649
  30
0
  11
4.35251
  21
1.58791
  31
0
  0
LINE
  8
0
  10
4.35251
  20
1.58791
  30
0
  11
4.37649
  21
1.61466
  31
0
  0
LINE
  8
0
  10
4.37649
  20
1.61466
  30
0
  11
4.40917
  21
1.64857
  31
0
  0
LINE
  8
0
  10
4.40917
  20
1.64857
  30
0
  11
4.44261
  21
1.6804
  31
0
  0
LINE
  8
0
  10
4.44261
  20
1.6804
  30
0
  11
4.47676
  21
1.71009
  31
0
  0
LINE
  8
0
  10
4.47676
  20
1.71009
  30
0
  11
4.51155
  21
1.73755
  31
0
  0
LINE
  8
0
  10
4.51155
  20
1.73755
  30
0
  11
4.54696
  21
1.76265
  31
0
  0
LINE
  8
0
  10
4.54696
  20
1.76265
  30
0
  11
4.58293
  21
1.78525
  31
0
  0
LINE
  8
0
  10
4.58293
  20
1.78525
  30
0
  11
4.61942
  21
1.80511
  31
0
  0
LINE
  8
0
  10
4.61942
  20
1.80511
  30
0
  11
4.65643
  21
1.82186
  31
0
  0
LINE
  8
0
  10
4.65643
  20
1.82186
  30
0
  11
4.69399
  21
1.83469
  31
0
  0
LINE
  8
0
  10
4.69399
  20
1.83469
  30
0
  11
4.73232
  21
1.84134
  31
0
  0
LINE
  8
0
  10
4.73232
  20
1.84134
  30
0
  11
4.77042
  21
1.84984
  31
0
  0
LINE
  8
0
  10
4.77042
  20
1.84984
  30
0
  11
4.78927
  21
1.85596
  31
0
  0
LINE
  8
0
  10
4.78927
  20
1.85596
  30
0
  11
4.80795
  21
1.86365
  31
0
  0
LINE
  8
0
  10
4.80795
  20
1.86365
  30
0
  11
4.82645
  21
1.87329
  31
0
  0
LINE
  8
0
  10
4.82645
  20
1.87329
  30
0
  11
4.84473
  21
1.88558
  31
0
  0
LINE
  8
0
  10
4.84473
  20
1.88558
  30
0
  11
4.85377
  21
1.89314
  31
0
  0
LINE
  8
0
  10
4.85377
  20
1.89314
  30
0
  11
4.86271
  21
1.90205
  31
0
  0
LINE
  8
0
  10
4.86271
  20
1.90205
  30
0
  11
4.87154
  21
1.91302
  31
0
  0
LINE
  8
0
  10
4.87154
  20
1.91302
  30
0
  11
4.88016
  21
1.92779
  31
0
  0
LINE
  8
0
  10
4.88016
  20
1.92779
  30
0
  11
4.88775
  21
1.96446
  31
0
  0
LINE
  8
0
  10
4.88775
  20
1.96446
  30
0
  11
4.88752
  21
2.09106
  31
0
  0
LINE
  8
0
  10
4.88752
  20
2.09106
  30
0
  11
4.89835
  21
2.2172
  31
0
  0
LINE
  8
0
  10
4.89835
  20
2.2172
  30
0
  11
4.89385
  21
2.25438
  31
0
  0
LINE
  8
0
  10
4.89385
  20
2.25438
  30
0
  11
4.88649
  21
2.26982
  31
0
  0
LINE
  8
0
  10
4.88649
  20
2.26982
  30
0
  11
4.87861
  21
2.28149
  31
0
  0
LINE
  8
0
  10
4.87861
  20
2.28149
  30
0
  11
4.87045
  21
2.29112
  31
0
  0
LINE
  8
0
  10
4.87045
  20
2.29112
  30
0
  11
4.86207
  21
2.2994
  31
0
  0
LINE
  8
0
  10
4.86207
  20
2.2994
  30
0
  11
4.84489
  21
2.31319
  31
0
  0
LINE
  8
0
  10
4.84489
  20
2.31319
  30
0
  11
4.82726
  21
2.32434
  31
0
  0
LINE
  8
0
  10
4.82726
  20
2.32434
  30
0
  11
4.80929
  21
2.33356
  31
0
  0
LINE
  8
0
  10
4.80929
  20
2.33356
  30
0
  11
4.79102
  21
2.34124
  31
0
  0
LINE
  8
0
  10
4.79102
  20
2.34124
  30
0
  11
4.75376
  21
2.3529
  31
0
  0
LINE
  8
0
  10
4.75376
  20
2.3529
  30
0
  11
4.71612
  21
2.36273
  31
0
  0
LINE
  8
0
  10
4.71612
  20
2.36273
  30
0
  11
4.67977
  21
2.37865
  31
0
  0
LINE
  8
0
  10
4.67977
  20
2.37865
  30
0
  11
4.64429
  21
2.39845
  31
0
  0
LINE
  8
0
  10
4.64429
  20
2.39845
  30
0
  11
4.60958
  21
2.42129
  31
0
  0
LINE
  8
0
  10
4.60958
  20
2.42129
  30
0
  11
4.57563
  21
2.44682
  31
0
  0
LINE
  8
0
  10
4.57563
  20
2.44682
  30
0
  11
4.54245
  21
2.4748
  31
0
  0
LINE
  8
0
  10
4.54245
  20
2.4748
  30
0
  11
4.51008
  21
2.50507
  31
0
  0
LINE
  8
0
  10
4.51008
  20
2.50507
  30
0
  11
4.47854
  21
2.53751
  31
0
  0
LINE
  8
0
  10
4.47854
  20
2.53751
  30
0
  11
4.44788
  21
2.57204
  31
0
  0
LINE
  8
0
  10
4.44788
  20
2.57204
  30
0
  11
4.41815
  21
2.60856
  31
0
  0
LINE
  8
0
  10
4.41815
  20
2.60856
  30
0
  11
4.39648
  21
2.63722
  31
0
  0
LINE
  8
0
  10
4.39648
  20
2.63722
  30
0
  11
4.4569
  21
2.80417
  31
0
  0
LINE
  8
0
  10
4.4569
  20
2.80417
  30
0
  11
4.53167
  21
2.9652
  31
0
  0
LINE
  8
0
  10
4.53167
  20
2.9652
  30
0
  11
4.56723
  21
2.97028
  31
0
  0
LINE
  8
0
  10
4.56723
  20
2.97028
  30
0
  11
4.61407
  21
2.97524
  31
0
  0
LINE
  8
0
  10
4.61407
  20
2.97524
  30
0
  11
4.66015
  21
2.97814
  31
0
  0
LINE
  8
0
  10
4.66015
  20
2.97814
  30
0
  11
4.70539
  21
2.97893
  31
0
  0
LINE
  8
0
  10
4.70539
  20
2.97893
  30
0
  11
4.74969
  21
2.9776
  31
0
  0
LINE
  8
0
  10
4.74969
  20
2.9776
  30
0
  11
4.79295
  21
2.97407
  31
0
  0
LINE
  8
0
  10
4.79295
  20
2.97407
  30
0
  11
4.83503
  21
2.96826
  31
0
  0
LINE
  8
0
  10
4.83503
  20
2.96826
  30
0
  11
4.87575
  21
2.96002
  31
0
  0
LINE
  8
0
  10
4.87575
  20
2.96002
  30
0
  11
4.91487
  21
2.94906
  31
0
  0
LINE
  8
0
  10
4.91487
  20
2.94906
  30
0
  11
4.95189
  21
2.93475
  31
0
  0
LINE
  8
0
  10
4.95189
  20
2.93475
  30
0
  11
4.98552
  21
2.9152
  31
0
  0
LINE
  8
0
  10
4.98552
  20
2.9152
  30
0
  11
5.02018
  21
2.89722
  31
0
  0
LINE
  8
0
  10
5.02018
  20
2.89722
  30
0
  11
5.03855
  21
2.8898
  31
0
  0
LINE
  8
0
  10
5.03855
  20
2.8898
  30
0
  11
5.0578
  21
2.88367
  31
0
  0
LINE
  8
0
  10
5.0578
  20
2.88367
  30
0
  11
5.07817
  21
2.87917
  31
0
  0
LINE
  8
0
  10
5.07817
  20
2.87917
  30
0
  11
5.10008
  21
2.87684
  31
0
  0
LINE
  8
0
  10
5.10008
  20
2.87684
  30
0
  11
5.11185
  21
2.87682
  31
0
  0
LINE
  8
0
  10
5.11185
  20
2.87682
  30
0
  11
5.12444
  21
2.8779
  31
0
  0
LINE
  8
0
  10
5.12444
  20
2.8779
  30
0
  11
5.13825
  21
2.88062
  31
0
  0
LINE
  8
0
  10
5.13825
  20
2.88062
  30
0
  11
5.15434
  21
2.8864
  31
0
  0
LINE
  8
0
  10
5.15434
  20
2.8864
  30
0
  11
5.18373
  21
2.90961
  31
0
  0
LINE
  8
0
  10
5.18373
  20
2.90961
  30
0
  11
5.26493
  21
3.00674
  31
0
  0
LINE
  8
0
  10
5.26493
  20
3.00674
  30
0
  11
5.35431
  21
3.09641
  31
0
  0
LINE
  8
0
  10
5.35431
  20
3.09641
  30
0
  11
5.37476
  21
3.12778
  31
0
  0
LINE
  8
0
  10
5.37476
  20
3.12778
  30
0
  11
5.37905
  21
3.14434
  31
0
  0
LINE
  8
0
  10
5.37905
  20
3.14434
  30
0
  11
5.38051
  21
3.15834
  31
0
  0
LINE
  8
0
  10
5.38051
  20
3.15834
  30
0
  11
5.38045
  21
3.17097
  31
0
  0
LINE
  8
0
  10
5.38045
  20
3.17097
  30
0
  11
5.37936
  21
3.18269
  31
0
  0
LINE
  8
0
  10
5.37936
  20
3.18269
  30
0
  11
5.37506
  21
3.2043
  31
0
  0
LINE
  8
0
  10
5.37506
  20
3.2043
  30
0
  11
5.36872
  21
3.22417
  31
0
  0
LINE
  8
0
  10
5.36872
  20
3.22417
  30
0
  11
5.36088
  21
3.24279
  31
0
  0
LINE
  8
0
  10
5.36088
  20
3.24279
  30
0
  11
5.35182
  21
3.26041
  31
0
  0
LINE
  8
0
  10
5.35182
  20
3.26041
  30
0
  11
5.33077
  21
3.2933
  31
0
  0
LINE
  8
0
  10
5.33077
  20
3.2933
  30
0
  11
5.30826
  21
3.32502
  31
0
  0
LINE
  8
0
  10
5.30826
  20
3.32502
  30
0
  11
5.29065
  21
3.36059
  31
0
  0
LINE
  8
0
  10
5.29065
  20
3.36059
  30
0
  11
5.27619
  21
3.39855
  31
0
  0
LINE
  8
0
  10
5.27619
  20
3.39855
  30
0
  11
5.26429
  21
3.43836
  31
0
  0
LINE
  8
0
  10
5.26429
  20
3.43836
  30
0
  11
5.25469
  21
3.47974
  31
0
  0
LINE
  8
0
  10
5.25469
  20
3.47974
  30
0
  11
5.24726
  21
3.5225
  31
0
  0
LINE
  8
0
  10
5.24726
  20
3.5225
  30
0
  11
5.24191
  21
3.5665
  31
0
  0
LINE
  8
0
  10
5.24191
  20
3.5665
  30
0
  11
5.23861
  21
3.61163
  31
0
  0
LINE
  8
0
  10
5.23861
  20
3.61163
  30
0
  11
5.23731
  21
3.65778
  31
0
  0
LINE
  8
0
  10
5.23731
  20
3.65778
  30
0
  11
5.23801
  21
3.70487
  31
0
  0
LINE
  8
0
  10
5.23801
  20
3.70487
  30
0
  11
5.23984
  21
3.74075
  31
0
  0
LINE
  8
0
  10
5.23984
  20
3.74075
  30
0
  11
5.39344
  21
3.82981
  31
0
  0
LINE
  8
0
  10
5.39344
  20
3.82981
  30
0
  11
5.55422
  21
3.90511
  31
0
  0
LINE
  8
0
  10
5.55422
  20
3.90511
  30
0
  11
5.58473
  21
3.88613
  31
0
  0
LINE
  8
0
  10
5.58473
  20
3.88613
  30
0
  11
5.6238
  21
3.85983
  31
0
  0
LINE
  8
0
  10
5.6238
  20
3.85983
  30
0
  11
5.66096
  21
3.83243
  31
0
  0
LINE
  8
0
  10
5.66096
  20
3.83243
  30
0
  11
5.69612
  21
3.80396
  31
0
  0
LINE
  8
0
  10
5.69612
  20
3.80396
  30
0
  11
5.7292
  21
3.77446
  31
0
  0
LINE
  8
0
  10
5.7292
  20
3.77446
  30
0
  11
5.76007
  21
3.74395
  31
0
  0
LINE
  8
0
  10
5.76007
  20
3.74395
  30
0
  11
5.78857
  21
3.71245
  31
0
  0
LINE
  8
0
  10
5.78857
  20
3.71245
  30
0
  11
5.81447
  21
3.67996
  31
0
  0
LINE
  8
0
  10
5.81447
  20
3.67996
  30
0
  11
5.8374
  21
3.64642
  31
0
  0
LINE
  8
0
  10
5.8374
  20
3.64642
  30
0
  11
5.85656
  21
3.61166
  31
0
  0
LINE
  8
0
  10
5.85656
  20
3.61166
  30
0
  11
5.86975
  21
3.57507
  31
0
  0
LINE
  8
0
  10
5.86975
  20
3.57507
  30
0
  11
5.88474
  21
3.53902
  31
0
  0
LINE
  8
0
  10
5.88474
  20
3.53902
  30
0
  11
5.89405
  21
3.52153
  31
0
  0
LINE
  8
0
  10
5.89405
  20
3.52153
  30
0
  11
5.90486
  21
3.50446
  31
0
  0
LINE
  8
0
  10
5.90486
  20
3.50446
  30
0
  11
5.91756
  21
3.48791
  31
0
  0
LINE
  8
0
  10
5.91756
  20
3.48791
  30
0
  11
5.93285
  21
3.47205
  31
0
  0
LINE
  8
0
  10
5.93285
  20
3.47205
  30
0
  11
5.94186
  21
3.46446
  31
0
  0
LINE
  8
0
  10
5.94186
  20
3.46446
  30
0
  11
5.95219
  21
3.4572
  31
0
  0
LINE
  8
0
  10
5.95219
  20
3.4572
  30
0
  11
5.96452
  21
3.45041
  31
0
  0
LINE
  8
0
  10
5.96452
  20
3.45041
  30
0
  11
5.98056
  21
3.44449
  31
0
  0
LINE
  8
0
  10
5.98056
  20
3.44449
  30
0
  11
6.018
  21
3.44338
  31
0
  0
LINE
  8
0
  10
6.018
  20
3.44338
  30
0
  11
6.14264
  21
3.46559
  31
0
  0
LINE
  8
0
  10
6.14264
  20
3.46559
  30
0
  11
6.26874
  21
3.47683
  31
0
  0
LINE
  8
0
  10
6.26874
  20
3.47683
  30
0
  11
6.30457
  21
3.48772
  31
0
  0
LINE
  8
0
  10
6.30457
  20
3.48772
  30
0
  11
6.3185
  21
3.49765
  31
0
  0
LINE
  8
0
  10
6.3185
  20
3.49765
  30
0
  11
6.32862
  21
3.50743
  31
0
  0
LINE
  8
0
  10
6.32862
  20
3.50743
  30
0
  11
6.33669
  21
3.51714
  31
0
  0
LINE
  8
0
  10
6.33669
  20
3.51714
  30
0
  11
6.34339
  21
3.52683
  31
0
  0
LINE
  8
0
  10
6.34339
  20
3.52683
  30
0
  11
6.35398
  21
3.54614
  31
0
  0
LINE
  8
0
  10
6.35398
  20
3.54614
  30
0
  11
6.3619
  21
3.56544
  31
0
  0
LINE
  8
0
  10
6.3619
  20
3.56544
  30
0
  11
6.36786
  21
3.58475
  31
0
  0
LINE
  8
0
  10
6.36786
  20
3.58475
  30
0
  11
6.37225
  21
3.60407
  31
0
  0
LINE
  8
0
  10
6.37225
  20
3.60407
  30
0
  11
6.37727
  21
3.64279
  31
0
  0
LINE
  8
0
  10
6.37727
  20
3.64279
  30
0
  11
6.38041
  21
3.68156
  31
0
  0
LINE
  8
0
  10
6.38041
  20
3.68156
  30
0
  11
6.38978
  21
3.72012
  31
0
  0
LINE
  8
0
  10
6.38978
  20
3.72012
  30
0
  11
6.40311
  21
3.7585
  31
0
  0
LINE
  8
0
  10
6.40311
  20
3.7585
  30
0
  11
6.41959
  21
3.79665
  31
0
  0
LINE
  8
0
  10
6.41959
  20
3.79665
  30
0
  11
6.43883
  21
3.83452
  31
0
  0
LINE
  8
0
  10
6.43883
  20
3.83452
  30
0
  11
6.46062
  21
3.87205
  31
0
  0
LINE
  8
0
  10
6.46062
  20
3.87205
  30
0
  11
6.48481
  21
3.90919
  31
0
  0
LINE
  8
0
  10
6.48481
  20
3.90919
  30
0
  11
6.51128
  21
3.94589
  31
0
  0
LINE
  8
0
  10
6.51128
  20
3.94589
  30
0
  11
6.53996
  21
3.98208
  31
0
  0
LINE
  8
0
  10
6.53996
  20
3.98208
  30
0
  11
6.57076
  21
4.0177
  31
0
  0
LINE
  8
0
  10
6.57076
  20
4.0177
  30
0
  11
6.59523
  21
4.04401
  31
0
  0
LINE
  8
0
  10
6.59523
  20
4.04401
  30
0
  11
6.77013
  21
4.0135
  31
0
  0
LINE
  8
0
  10
6.77013
  20
4.0135
  30
0
  11
6.9417
  21
3.96783
  31
0
  0
LINE
  8
0
  10
6.9417
  20
3.96783
  30
0
  11
6.95288
  21
3.93368
  31
0
  0
LINE
  8
0
  10
6.95288
  20
3.93368
  30
0
  11
6.9659
  21
3.88843
  31
0
  0
LINE
  8
0
  10
6.9659
  20
3.88843
  30
0
  11
6.97675
  21
3.84355
  31
0
  0
LINE
  8
0
  10
6.97675
  20
3.84355
  30
0
  11
6.98539
  21
3.79913
  31
0
  0
LINE
  8
0
  10
6.98539
  20
3.79913
  30
0
  11
6.99177
  21
3.75527
  31
0
  0
LINE
  8
0
  10
6.99177
  20
3.75527
  30
0
  11
6.99581
  21
3.71206
  31
0
  0
LINE
  8
0
  10
6.99581
  20
3.71206
  30
0
  11
6.99739
  21
3.66961
  31
0
  0
LINE
  8
0
  10
6.99739
  20
3.66961
  30
0
  11
6.99635
  21
3.62807
  31
0
  0
LINE
  8
0
  10
6.99635
  20
3.62807
  30
0
  11
6.99235
  21
3.58764
  31
0
  0
LINE
  8
0
  10
6.99235
  20
3.58764
  30
0
  11
6.98468
  21
3.5487
  31
0
  0
LINE
  8
0
  10
6.98468
  20
3.5487
  30
0
  11
6.97127
  21
3.51219
  31
0
  0
LINE
  8
0
  10
6.97127
  20
3.51219
  30
0
  11
6.95958
  21
3.47494
  31
0
  0
LINE
  8
0
  10
6.95958
  20
3.47494
  30
0
  11
6.95546
  21
3.45555
  31
0
  0
LINE
  8
0
  10
6.95546
  20
3.45555
  30
0
  11
6.95278
  21
3.43553
  31
0
  0
LINE
  8
0
  10
6.95278
  20
3.43553
  30
0
  11
6.95187
  21
3.41469
  31
0
  0
LINE
  8
0
  10
6.95187
  20
3.41469
  30
0
  11
6.95338
  21
3.39271
  31
0
  0
LINE
  8
0
  10
6.95338
  20
3.39271
  30
0
  11
6.95541
  21
3.38111
  31
0
  0
LINE
  8
0
  10
6.95541
  20
3.38111
  30
0
  11
6.95866
  21
3.3689
  31
0
  0
LINE
  8
0
  10
6.95866
  20
3.3689
  30
0
  11
6.96374
  21
3.35578
  31
0
  0
LINE
  8
0
  10
6.96374
  20
3.35578
  30
0
  11
6.97222
  21
3.34093
  31
0
  0
LINE
  8
0
  10
6.97222
  20
3.34093
  30
0
  11
7.00018
  21
3.31602
  31
0
  0
LINE
  8
0
  10
7.00018
  20
3.31602
  30
0
  11
7.10994
  21
3.25292
  31
0
  0
LINE
  8
0
  10
7.10994
  20
3.25292
  30
0
  11
7.21377
  21
3.18047
  31
0
  0
LINE
  8
0
  10
7.21377
  20
3.18047
  30
0
  11
7.24821
  21
3.16578
  31
0
  0
LINE
  8
0
  10
7.24821
  20
3.16578
  30
0
  11
7.26526
  21
3.16443
  31
0
  0
LINE
  8
0
  10
7.26526
  20
3.16443
  30
0
  11
7.2793
  21
3.16542
  31
0
  0
LINE
  8
0
  10
7.2793
  20
3.16542
  30
0
  11
7.29173
  21
3.16767
  31
0
  0
LINE
  8
0
  10
7.29173
  20
3.16767
  30
0
  11
7.30309
  21
3.17078
  31
0
  0
LINE
  8
0
  10
7.30309
  20
3.17078
  30
0
  11
7.32362
  21
3.17877
  31
0
  0
LINE
  8
0
  10
7.32362
  20
3.17877
  30
0
  11
7.34209
  21
3.18846
  31
0
  0
LINE
  8
0
  10
7.34209
  20
3.18846
  30
0
  11
7.35906
  21
3.19942
  31
0
  0
LINE
  8
0
  10
7.35906
  20
3.19942
  30
0
  11
7.37485
  21
3.2114
  31
0
  0
LINE
  8
0
  10
7.37485
  20
3.2114
  30
0
  11
7.40358
  21
3.23784
  31
0
  0
LINE
  8
0
  10
7.40358
  20
3.23784
  30
0
  11
7.4309
  21
3.26552
  31
0
  0
LINE
  8
0
  10
7.4309
  20
3.26552
  30
0
  11
7.46288
  21
3.28904
  31
0
  0
LINE
  8
0
  10
7.46288
  20
3.28904
  30
0
  11
7.49776
  21
3.30987
  31
0
  0
LINE
  8
0
  10
7.49776
  20
3.30987
  30
0
  11
7.5349
  21
3.3285
  31
0
  0
LINE
  8
0
  10
7.5349
  20
3.3285
  30
0
  11
7.57398
  21
3.34514
  31
0
  0
LINE
  8
0
  10
7.57398
  20
3.34514
  30
0
  11
7.6148
  21
3.35988
  31
0
  0
LINE
  8
0
  10
7.6148
  20
3.35988
  30
0
  11
7.6572
  21
3.37279
  31
0
  0
LINE
  8
0
  10
7.6572
  20
3.37279
  30
0
  11
7.70107
  21
3.38388
  31
0
  0
LINE
  8
0
  10
7.70107
  20
3.38388
  30
0
  11
7.7463
  21
3.39317
  31
0
  0
LINE
  8
0
  10
7.7463
  20
3.39317
  30
0
  11
7.79279
  21
3.40066
  31
0
  0
LINE
  8
0
  10
7.79279
  20
3.40066
  30
0
  11
7.82844
  21
3.40508
  31
0
  0
LINE
  8
0
  10
7.82844
  20
3.40508
  30
0
  11
7.94282
  21
3.26929
  31
0
  0
LINE
  8
0
  10
7.94282
  20
3.26929
  30
0
  11
8.04489
  21
3.12402
  31
0
  0
LINE
  8
0
  10
8.04489
  20
3.12402
  30
0
  11
8.0315
  21
3.09068
  31
0
  0
LINE
  8
0
  10
8.0315
  20
3.09068
  30
0
  11
8.01239
  21
3.04764
  31
0
  0
LINE
  8
0
  10
8.01239
  20
3.04764
  30
0
  11
7.99185
  21
3.00629
  31
0
  0
LINE
  8
0
  10
7.99185
  20
3.00629
  30
0
  11
7.96992
  21
2.96671
  31
0
  0
LINE
  8
0
  10
7.96992
  20
2.96671
  30
0
  11
7.94661
  21
2.92901
  31
0
  0
LINE
  8
0
  10
7.94661
  20
2.92901
  30
0
  11
7.92193
  21
2.89331
  31
0
  0
LINE
  8
0
  10
7.92193
  20
2.89331
  30
0
  11
7.89586
  21
2.85978
  31
0
  0
LINE
  8
0
  10
7.89586
  20
2.85978
  30
0
  11
7.86836
  21
2.82863
  31
0
  0
LINE
  8
0
  10
7.86836
  20
2.82863
  30
0
  11
7.83931
  21
2.80023
  31
0
  0
LINE
  8
0
  10
7.83931
  20
2.80023
  30
0
  11
7.8084
  21
2.77532
  31
0
  0
LINE
  8
0
  10
7.8084
  20
2.77532
  30
0
  11
7.77466
  21
2.75597
  31
0
  0
LINE
  8
0
  10
7.77466
  20
2.75597
  30
0
  11
7.74176
  21
2.73495
  31
0
  0
LINE
  8
0
  10
7.74176
  20
2.73495
  30
0
  11
7.72615
  21
2.72275
  31
0
  0
LINE
  8
0
  10
7.72615
  20
2.72275
  30
0
  11
7.71122
  21
2.70914
  31
0
  0
LINE
  8
0
  10
7.71122
  20
2.70914
  30
0
  11
7.69713
  21
2.69376
  31
0
  0
LINE
  8
0
  10
7.69713
  20
2.69376
  30
0
  11
7.68416
  21
2.67595
  31
0
  0
LINE
  8
0
  10
7.68416
  20
2.67595
  30
0
  11
7.67825
  21
2.66576
  31
0
  0
LINE
  8
0
  10
7.67825
  20
2.66576
  30
0
  11
7.6729
  21
2.65432
  31
0
  0
LINE
  8
0
  10
7.6729
  20
2.65432
  30
0
  11
7.66836
  21
2.641
  31
0
  0
LINE
  8
0
  10
7.66836
  20
2.641
  30
0
  11
7.6653
  21
2.62417
  31
0
  0
LINE
  8
0
  10
7.6653
  20
2.62417
  30
0
  11
7.67071
  21
2.58711
  31
0
  0
LINE
  8
0
  10
7.67071
  20
2.58711
  30
0
  11
7.71423
  21
2.46823
  31
0
  0
LINE
  8
0
  10
7.71423
  20
2.46823
  30
0
  11
7.7472
  21
2.34599
  31
0
  0
LINE
  8
0
  10
7.7472
  20
2.34599
  30
0
  11
7.76414
  21
2.31259
  31
0
  0
LINE
  8
0
  10
7.76414
  20
2.31259
  30
0
  11
7.77634
  21
2.3006
  31
0
  0
LINE
  8
0
  10
7.77634
  20
2.3006
  30
0
  11
7.78773
  21
2.29233
  31
0
  0
LINE
  8
0
  10
7.78773
  20
2.29233
  30
0
  11
7.7987
  21
2.28607
  31
0
  0
LINE
  8
0
  10
7.7987
  20
2.28607
  30
0
  11
7.8094
  21
2.28115
  31
0
  0
LINE
  8
0
  10
7.8094
  20
2.28115
  30
0
  11
7.83026
  21
2.27408
  31
0
  0
LINE
  8
0
  10
7.83026
  20
2.27408
  30
0
  11
7.85064
  21
2.26963
  31
0
  0
LINE
  8
0
  10
7.85064
  20
2.26963
  30
0
  11
7.87069
  21
2.26711
  31
0
  0
LINE
  8
0
  10
7.87069
  20
2.26711
  30
0
  11
7.89048
  21
2.26614
  31
0
  0
LINE
  8
0
  10
7.89048
  20
2.26614
  30
0
  11
7.92948
  21
2.26793
  31
0
  0
LINE
  8
0
  10
7.92948
  20
2.26793
  30
0
  11
7.9682
  21
2.27157
  31
0
  0
LINE
  8
0
  10
7.9682
  20
2.27157
  30
0
  11
8.00781
  21
2.26903
  31
0
  0
LINE
  8
0
  10
8.00781
  20
2.26903
  30
0
  11
8.04792
  21
2.26257
  31
0
  0
LINE
  8
0
  10
8.04792
  20
2.26257
  30
0
  11
8.08835
  21
2.25297
  31
0
  0
LINE
  8
0
  10
8.08835
  20
2.25297
  30
0
  11
8.12898
  21
2.24059
  31
0
  0
LINE
  8
0
  10
8.12898
  20
2.24059
  30
0
  11
8.16973
  21
2.22565
  31
0
  0
LINE
  8
0
  10
8.16973
  20
2.22565
  30
0
  11
8.21051
  21
2.20828
  31
0
  0
LINE
  8
0
  10
8.21051
  20
2.20828
  30
0
  11
8.25125
  21
2.18858
  31
0
  0
LINE
  8
0
  10
8.25125
  20
2.18858
  30
0
  11
8.29186
  21
2.16663
  31
0
  0
LINE
  8
0
  10
8.29186
  20
2.16663
  30
0
  11
8.33229
  21
2.14248
  31
0
  0
LINE
  8
0
  10
8.33229
  20
2.14248
  30
0
  11
8.36245
  21
2.12295
  31
0
  0
LINE
  8
0
  10
8.36245
  20
2.12295
  30
0
  11
8.36278
  21
1.94541
  31
0
  0
LINE
  8
0
  10
8.36278
  20
1.94541
  30
0
  11
8.3476
  21
1.76851
  31
0
  0
LINE
  8
0
  10
8.3476
  20
1.76851
  30
0
  11
8.31591
  21
1.75158
  31
0
  0
LINE
  8
0
  10
8.31591
  20
1.75158
  30
0
  11
8.2736
  21
1.7309
  31
0
  0
LINE
  8
0
  10
8.2736
  20
1.7309
  30
0
  11
8.23129
  21
1.71242
  31
0
  0
LINE
  8
0
  10
8.23129
  20
1.71242
  30
0
  11
8.18905
  21
1.6962
  31
0
  0
LINE
  8
0
  10
8.18905
  20
1.6962
  30
0
  11
8.14696
  21
1.6823
  31
0
  0
LINE
  8
0
  10
8.14696
  20
1.6823
  30
0
  11
8.1051
  21
1.67082
  31
0
  0
LINE
  8
0
  10
8.1051
  20
1.67082
  30
0
  11
8.06358
  21
1.66188
  31
0
  0
LINE
  8
0
  10
8.06358
  20
1.66188
  30
0
  11
8.02249
  21
1.6557
  31
0
  0
LINE
  8
0
  10
8.02249
  20
1.6557
  30
0
  11
7.98198
  21
1.65262
  31
0
  0
LINE
  8
0
  10
7.98198
  20
1.65262
  30
0
  11
7.94229
  21
1.65341
  31
0
  0
LINE
  8
0
  10
7.94229
  20
1.65341
  30
0
  11
7.90401
  21
1.66027
  31
0
  0
LINE
  8
0
  10
7.90401
  20
1.66027
  30
0
  11
7.8653
  21
1.66531
  31
0
  0
LINE
  8
0
  10
7.8653
  20
1.66531
  30
0
  11
7.84549
  21
1.666
  31
0
  0
LINE
  8
0
  10
7.84549
  20
1.666
  30
0
  11
7.82531
  21
1.66518
  31
0
  0
LINE
  8
0
  10
7.82531
  20
1.66518
  30
0
  11
7.80463
  21
1.66245
  31
0
  0
LINE
  8
0
  10
7.80463
  20
1.66245
  30
0
  11
7.78324
  21
1.65714
  31
0
  0
LINE
  8
0
  10
7.78324
  20
1.65714
  30
0
  11
7.77217
  21
1.65313
  31
0
  0
LINE
  8
0
  10
7.77217
  20
1.65313
  30
0
  11
7.76071
  21
1.64781
  31
0
  0
LINE
  8
0
  10
7.76071
  20
1.64781
  30
0
  11
7.74867
  21
1.64053
  31
0
  0
LINE
  8
0
  10
7.74867
  20
1.64053
  30
0
  11
7.73552
  21
1.6296
  31
0
  0
LINE
  8
0
  10
7.73552
  20
1.6296
  30
0
  11
7.71584
  21
1.59774
  31
0
  0
LINE
  8
0
  10
7.71584
  20
1.59774
  30
0
  11
7.67276
  21
1.47869
  31
0
  0
LINE
  8
0
  10
7.67276
  20
1.47869
  30
0
  11
7.61944
  21
1.36386
  31
0
  0
LINE
  8
0
  10
7.61944
  20
1.36386
  30
0
  11
7.61095
  21
1.32738
  31
0
  0
LINE
  8
0
  10
7.61095
  20
1.32738
  30
0
  11
7.61259
  21
1.31036
  31
0
  0
LINE
  8
0
  10
7.61259
  20
1.31036
  30
0
  11
7.616
  21
1.2967
  31
0
  0
LINE
  8
0
  10
7.616
  20
1.2967
  30
0
  11
7.62038
  21
1.28486
  31
0
  0
LINE
  8
0
  10
7.62038
  20
1.28486
  30
0
  11
7.62541
  21
1.27421
  31
0
  0
LINE
  8
0
  10
7.62541
  20
1.27421
  30
0
  11
7.63685
  21
1.25538
  31
0
  0
LINE
  8
0
  10
7.63685
  20
1.25538
  30
0
  11
7.6496
  21
1.23887
  31
0
  0
LINE
  8
0
  10
7.6496
  20
1.23887
  30
0
  11
7.66334
  21
1.22406
  31
0
  0
LINE
  8
0
  10
7.66334
  20
1.22406
  30
0
  11
7.67787
  21
1.2106
  31
0
  0
LINE
  8
0
  10
7.67787
  20
1.2106
  30
0
  11
7.7089
  21
1.18689
  31
0
  0
LINE
  8
0
  10
7.7089
  20
1.18689
  30
0
  11
7.7409
  21
1.16479
  31
0
  0
LINE
  8
0
  10
7.7409
  20
1.16479
  30
0
  11
7.76962
  21
1.13739
  31
0
  0
LINE
  8
0
  10
7.76962
  20
1.13739
  30
0
  11
7.79619
  21
1.10665
  31
0
  0
LINE
  8
0
  10
7.79619
  20
1.10665
  30
0
  11
7.82099
  21
1.07331
  31
0
  0
LINE
  8
0
  10
7.82099
  20
1.07331
  30
0
  11
7.84416
  21
1.03771
  31
0
  0
LINE
  8
0
  10
7.84416
  20
1.03771
  30
0
  11
7.86577
  21
1.00007
  31
0
  0
LINE
  8
0
  10
7.86577
  20
1.00007
  30
0
  11
7.88584
  21
0.96056
  31
0
  0
LINE
  8
0
  10
7.88584
  20
0.96056
  30
0
  11
7.90438
  21
0.91928
  31
0
  0
LINE
  8
0
  10
7.90438
  20
0.91928
  30
0
  11
7.92138
  21
0.87636
  31
0
  0
LINE
  8
0
  10
7.92138
  20
0.87636
  30
0
  11
7.93683
  21
0.83187
  31
0
  0
LINE
  8
0
  10
7.93683
  20
0.83187
  30
0
  11
7.94738
  21
0.79752
  31
0
  0
LINE
  8
0
  10
7.94738
  20
0.79752
  30
0
  11
7.83351
  21
0.66131
  31
0
  0
LINE
  8
0
  10
7.83351
  20
0.66131
  30
0
  11
7.70818
  21
0.53556
  31
0
  0
LINE
  8
0
  10
7.70818
  20
0.53556
  30
0
  11
7.67302
  21
0.54295
  31
0
  0
LINE
  8
0
  10
7.67302
  20
0.54295
  30
0
  11
7.62731
  21
0.5543
  31
0
  0
LINE
  8
0
  10
7.62731
  20
0.5543
  30
0
  11
7.58302
  21
0.56735
  31
0
  0
LINE
  8
0
  10
7.58302
  20
0.56735
  30
0
  11
7.54024
  21
0.58207
  31
0
  0
LINE
  8
0
  10
7.54024
  20
0.58207
  30
0
  11
7.49906
  21
0.59848
  31
0
  0
LINE
  8
0
  10
7.49906
  20
0.59848
  30
0
  11
7.45962
  21
0.61659
  31
0
  0
LINE
  8
0
  10
7.45962
  20
0.61659
  30
0
  11
7.42207
  21
0.63644
  31
0
  0
LINE
  8
0
  10
7.42207
  20
0.63644
  30
0
  11
7.38661
  21
0.65811
  31
0
  0
LINE
  8
0
  10
7.38661
  20
0.65811
  30
0
  11
7.3536
  21
0.68179
  31
0
  0
LINE
  8
0
  10
7.3536
  20
0.68179
  30
0
  11
7.32371
  21
0.7079
  31
0
  0
LINE
  8
0
  10
7.32371
  20
0.7079
  30
0
  11
7.29879
  21
0.73777
  31
0
  0
LINE
  8
0
  10
7.29879
  20
0.73777
  30
0
  11
7.27238
  21
0.76652
  31
0
  0
LINE
  8
0
  10
7.27238
  20
0.76652
  30
0
  11
7.25765
  21
0.77978
  31
0
  0
LINE
  8
0
  10
7.25765
  20
0.77978
  30
0
  11
7.24165
  21
0.79212
  31
0
  0
LINE
  8
0
  10
7.24165
  20
0.79212
  30
0
  11
7.22406
  21
0.80332
  31
0
  0
LINE
  8
0
  10
7.22406
  20
0.80332
  30
0
  11
7.20427
  21
0.813
  31
0
  0
LINE
  8
0
  10
7.20427
  20
0.813
  30
0
  11
7.19321
  21
0.81705
  31
0
  0
LINE
  8
0
  10
7.19321
  20
0.81705
  30
0
  11
7.18101
  21
0.82034
  31
0
  0
LINE
  8
0
  10
7.18101
  20
0.82034
  30
0
  11
7.16711
  21
0.8225
  31
0
  0
LINE
  8
0
  10
7.16711
  20
0.8225
  30
0
  11
7.15
  21
0.82258
  31
0
  0
LINE
  8
0
  10
7.15
  20
0.82258
  30
0
  11
7.11445
  21
0.81082
  31
0
  0
LINE
  8
0
  10
7.11445
  20
0.81082
  30
0
  11
7.00492
  21
0.74732
  31
0
  0
LINE
  8
0
  10
7.00492
  20
0.74732
  30
0
  11
6.89027
  21
0.69362
  31
0
  0
LINE
  8
0
  10
6.89027
  20
0.69362
  30
0
  11
6.86032
  21
0.67114
  31
0
  0
LINE
  8
0
  10
6.86032
  20
0.67114
  30
0
  11
6.85063
  21
0.65705
  31
0
  0
LINE
  8
0
  10
6.85063
  20
0.65705
  30
0
  11
6.84447
  21
0.64439
  31
0
  0
LINE
  8
0
  10
6.84447
  20
0.64439
  30
0
  11
6.84021
  21
0.6325
  31
0
  0
LINE
  8
0
  10
6.84021
  20
0.6325
  30
0
  11
6.83722
  21
0.62111
  31
0
  0
LINE
  8
0
  10
6.83722
  20
0.62111
  30
0
  11
6.83387
  21
0.59934
  31
0
  0
LINE
  8
0
  10
6.83387
  20
0.59934
  30
0
  11
6.83303
  21
0.57849
  31
0
  0
LINE
  8
0
  10
6.83303
  20
0.57849
  30
0
  11
6.83403
  21
0.55832
  31
0
  0
LINE
  8
0
  10
6.83403
  20
0.55832
  30
0
  11
6.83652
  21
0.53866
  31
0
  0
LINE
  8
0
  10
6.83652
  20
0.53866
  30
0
  11
6.84505
  21
0.50056
  31
0
  0
LINE
  8
0
  10
6.84505
  20
0.50056
  30
0
  11
6.85535
  21
0.46305
  31
0
  0
LINE
  8
0
  10
6.85535
  20
0.46305
  30
0
  11
6.85974
  21
0.4236
  31
0
  0
LINE
  8
0
  10
6.85974
  20
0.4236
  30
0
  11
6.86034
  21
0.38298
  31
0
  0
LINE
  8
0
  10
6.86034
  20
0.38298
  30
0
  11
6.8579
  21
0.3415
  31
0
  0
LINE
  8
0
  10
6.8579
  20
0.3415
  30
0
  11
6.85277
  21
0.29934
  31
0
  0
LINE
  8
0
  10
6.85277
  20
0.29934
  30
0
  11
6.84513
  21
0.25661
  31
0
  0
LINE
  8
0
  10
6.84513
  20
0.25661
  30
0
  11
6.8351
  21
0.21344
  31
0
  0
LINE
  8
0
  10
6.8351
  20
0.21344
  30
0
  11
6.82278
  21
0.1699
  31
0
  0
LINE
  8
0
  10
6.82278
  20
0.1699
  30
0
  11
6.80821
  21
0.12609
  31
0
  0
LINE
  8
0
  10
6.80821
  20
0.12609
  30
0
  11
6.79145
  21
0.08208
  31
0
  0
LINE
  8
0
  10
6.79145
  20
0.08208
  30
0
  11
6.77745
  21
0.04899
  31
0
  0
LINE
  8
0
  10
6.77745
  20
0.04899
  30
0
  11
6.60266
  21
0.01784
  31
0
  0
LINE
  8
0
  10
6.60266
  20
0.01784
  30
0
  11
6.42582
  21
0.00207
  31
0
  0
LINE
  8
0
  10
6.42582
  20
0.00207
  30
0
  11
6.40364
  21
0.03034
  31
0
  0
LINE
  8
0
  10
6.40364
  20
0.03034
  30
0
  11
6.37593
  21
0.06841
  31
0
  0
LINE
  8
0
  10
6.37593
  20
0.06841
  30
0
  11
6.35038
  21
0.10687
  31
0
  0
LINE
  8
0
  10
6.35038
  20
0.10687
  30
0
  11
6.32707
  21
0.14565
  31
0
  0
LINE
  8
0
  10
6.32707
  20
0.14565
  30
0
  11
6.30608
  21
0.18469
  31
0
  0
LINE
  8
0
  10
6.30608
  20
0.18469
  30
0
  11
6.2875
  21
0.22391
  31
0
  0
LINE
  8
0
  10
6.2875
  20
0.22391
  30
0
  11
6.27149
  21
0.26326
  31
0
  0
LINE
  8
0
  10
6.27149
  20
0.26326
  30
0
  11
6.25827
  21
0.30265
  31
0
  0
LINE
  8
0
  10
6.25827
  20
0.30265
  30
0
  11
6.2482
  21
0.34201
  31
0
  0
LINE
  8
0
  10
6.2482
  20
0.34201
  30
0
  11
6.24208
  21
0.38123
  31
0
  0
LINE
  8
0
  10
6.24208
  20
0.38123
  30
0
  11
6.2422
  21
0.42012
  31
0
  0
LINE
  8
0
  10
6.2422
  20
0.42012
  30
0
  11
6.24044
  21
0.45912
  31
0
  0
LINE
  8
0
  10
6.24044
  20
0.45912
  30
0
  11
6.23768
  21
0.47875
  31
0
  0
LINE
  8
0
  10
6.23768
  20
0.47875
  30
0
  11
6.23336
  21
0.49848
  31
0
  0
LINE
  8
0
  10
6.23336
  20
0.49848
  30
0
  11
6.22708
  21
0.51837
  31
0
  0
LINE
  8
0
  10
6.22708
  20
0.51837
  30
0
  11
6.21814
  21
0.53851
  31
0
  0
LINE
  8
0
  10
6.21814
  20
0.53851
  30
0
  11
6.21228
  21
0.54872
  31
0
  0
LINE
  8
0
  10
6.21228
  20
0.54872
  30
0
  11
6.20505
  21
0.55908
  31
0
  0
LINE
  8
0
  10
6.20505
  20
0.55908
  30
0
  11
6.19578
  21
0.56967
  31
0
  0
LINE
  8
0
  10
6.19578
  20
0.56967
  30
0
  11
6.18273
  21
0.58073
  31
0
  0
LINE
  8
0
  10
6.18273
  20
0.58073
  30
0
  11
6.14794
  21
0.59458
  31
0
  0
LINE
  8
0
  10
6.14794
  20
0.59458
  30
0
  11
6.02322
  21
0.61633
  31
0
  0
LINE
  8
0
  10
6.02322
  20
0.61633
  30
0
  11
5.90087
  21
0.6489
  31
0
  0
LINE
  8
0
  10
5.90087
  20
0.6489
  30
0
  11
5.86348
  21
0.65092
  31
0
  0
LINE
  8
0
  10
5.86348
  20
0.65092
  30
0
  11
5.847
  21
0.64636
  31
0
  0
LINE
  8
0
  10
5.847
  20
0.64636
  30
0
  11
5.83414
  21
0.64063
  31
0
  0
LINE
  8
0
  10
5.83414
  20
0.64063
  30
0
  11
5.82323
  21
0.63425
  31
0
  0
LINE
  8
0
  10
5.82323
  20
0.63425
  30
0
  11
5.81362
  21
0.62745
  31
0
  0
LINE
  8
0
  10
5.81362
  20
0.62745
  30
0
  11
5.79707
  21
0.61292
  31
0
  0
LINE
  8
0
  10
5.79707
  20
0.61292
  30
0
  11
5.78302
  21
0.59749
  31
0
  0
LINE
  8
0
  10
5.78302
  20
0.59749
  30
0
  11
5.77082
  21
0.58139
  31
0
  0
LINE
  8
0
  10
5.77082
  20
0.58139
  30
0
  11
5.76008
  21
0.56474
  31
0
  0
LINE
  8
0
  10
5.76008
  20
0.56474
  30
0
  11
5.74213
  21
0.53007
  31
0
  0
LINE
  8
0
  10
5.74213
  20
0.53007
  30
0
  11
5.72592
  21
0.49471
  31
0
  0
LINE
  8
0
  10
5.72592
  20
0.49471
  30
0
  11
5.70392
  21
0.46168
  31
0
  0
LINE
  8
0
  10
5.70392
  20
0.46168
  30
0
  11
5.67827
  21
0.43017
  31
0
  0
LINE
  8
0
  10
5.67827
  20
0.43017
  30
0
  11
5.64974
  21
0.39996
  31
0
  0
LINE
  8
0
  10
5.64974
  20
0.39996
  30
0
  11
5.6187
  21
0.37096
  31
0
  0
LINE
  8
0
  10
5.6187
  20
0.37096
  30
0
  11
5.58539
  21
0.34314
  31
0
  0
LINE
  8
0
  10
5.58539
  20
0.34314
  30
0
  11
5.54996
  21
0.31651
  31
0
  0
LINE
  8
0
  10
5.54996
  20
0.31651
  30
0
  11
5.51253
  21
0.29108
  31
0
  0
LINE
  8
0
  10
5.51253
  20
0.29108
  30
0
  11
5.47321
  21
0.26689
  31
0
  0
LINE
  8
0
  10
5.47321
  20
0.26689
  30
0
  11
5.43208
  21
0.24395
  31
0
  0
LINE
  8
0
  10
5.43208
  20
0.24395
  30
0
  11
5.40009
  21
0.22759
  31
0
  0
LINE
  8
0
  10
5.40009
  20
0.22759
  30
0
  11
5.24617
  21
0.31608
  31
0
  0
LINE
  8
0
  10
5.24617
  20
0.31608
  30
0
  11
5.10057
  21
0.41768
  31
0
  0
LINE
  8
0
  10
5.10057
  20
0.41768
  30
0
  11
5.10174
  21
0.45358
  31
0
  0
LINE
  8
0
  10
5.10174
  20
0.45358
  30
0
  11
5.10498
  21
0.50057
  31
0
  0
LINE
  8
0
  10
5.10498
  20
0.50057
  30
0
  11
5.11014
  21
0.54645
  31
0
  0
LINE
  8
0
  10
5.11014
  20
0.54645
  30
0
  11
5.11721
  21
0.59114
  31
0
  0
LINE
  8
0
  10
5.11721
  20
0.59114
  30
0
  11
5.12622
  21
0.63454
  31
0
  0
LINE
  8
0
  10
5.12622
  20
0.63454
  30
0
  11
5.1372
  21
0.67653
  31
0
  0
LINE
  8
0
  10
5.1372
  20
0.67653
  30
0
  11
5.15023
  21
0.71696
  31
0
  0
LINE
  8
0
  10
5.15023
  20
0.71696
  30
0
  11
5.16542
  21
0.75563
  31
0
  0
LINE
  8
0
  10
5.16542
  20
0.75563
  30
0
  11
5.183
  21
0.79226
  31
0
  0
LINE
  8
0
  10
5.183
  20
0.79226
  30
0
  11
5.20353
  21
0.82623
  31
0
  0
LINE
  8
0
  10
5.20353
  20
0.82623
  30
0
  11
5.22862
  21
0.85595
  31
0
  0
LINE
  8
0
  10
5.22862
  20
0.85595
  30
0
  11
5.25234
  21
0.88696
  31
0
  0
LINE
  8
0
  10
5.25234
  20
0.88696
  30
0
  11
5.26284
  21
0.90377
  31
0
  0
LINE
  8
0
  10
5.26284
  20
0.90377
  30
0
  11
5.27222
  21
0.92166
  31
0
  0
LINE
  8
0
  10
5.27222
  20
0.92166
  30
0
  11
5.28019
  21
0.94094
  31
0
  0
LINE
  8
0
  10
5.28019
  20
0.94094
  30
0
  11
5.28629
  21
0.9621
  31
0
  0
LINE
  8
0
  10
5.28629
  20
0.9621
  30
0
  11
5.28836
  21
0.9737
  31
0
  0
LINE
  8
0
  10
5.28836
  20
0.9737
  30
0
  11
5.28948
  21
0.98628
  31
0
  0
LINE
  8
0
  10
5.28948
  20
0.98628
  30
0
  11
5.28919
  21
1.00035
  31
0
  0
LINE
  8
0
  10
5.28919
  20
1.00035
  30
0
  11
5.2863
  21
1.01721
  31
0
  0
LINE
  8
0
  10
5.2863
  20
1.01721
  30
0
  11
5.26855
  21
1.05018
  31
0
  0
LINE
  8
0
  10
5.26855
  20
1.05018
  30
0
  11
5.18699
  21
1.14702
  31
0
  0
LINE
  8
0
  10
5.18699
  20
1.14702
  30
0
  11
5.1142
  21
1.2506
  31
0
  0
LINE
  8
0
  10
6.83413
  20
2.03043
  30
0
  11
6.83413
  21
2.03043
  31
0
  0
LINE
  8
0
  10
6.83413
  20
2.03043
  30
0
  11
6.81709
  21
2.15984
  31
0
  0
LINE
  8
0
  10
6.81709
  20
2.15984
  30
0
  11
6.76714
  21
2.28043
  31
0
  0
LINE
  8
0
  10
6.76714
  20
2.28043
  30
0
  11
6.68768
  21
2.38399
  31
0
  0
LINE
  8
0
  10
6.68768
  20
2.38399
  30
0
  11
6.58413
  21
2.46344
  31
0
  0
LINE
  8
0
  10
6.58413
  20
2.46344
  30
0
  11
6.46354
  21
2.51339
  31
0
  0
LINE
  8
0
  10
6.46354
  20
2.51339
  30
0
  11
6.33413
  21
2.53043
  31
0
  0
LINE
  8
0
  10
6.33413
  20
2.53043
  30
0
  11
6.20472
  21
2.51339
  31
0
  0
LINE
  8
0
  10
6.20472
  20
2.51339
  30
0
  11
6.08413
  21
2.46344
  31
0
  0
LINE
  8
0
  10
6.08413
  20
2.46344
  30
0
  11
5.98057
  21
2.38399
  31
0
  0
LINE
  8
0
  10
5.98057
  20
2.38399
  30
0
  11
5.90111
  21
2.28043
  31
0
  0
LINE
  8
0
  10
5.90111
  20
2.28043
  30
0
  11
5.85116
  21
2.15984
  31
0
  0
LINE
  8
0
  10
5.85116
  20
2.15984
  30
0
  11
5.83413
  21
2.03043
  31
0
  0
LINE
  8
0
  10
5.83413
  20
2.03043
  30
0
  11
5.85116
  21
1.90102
  31
0
  0
LINE
  8
0
  10
5.85116
  20
1.90102
  30
0
  11
5.90111
  21
1.78043
  31
0
  0
LINE
  8
0
  10
5.90111
  20
1.78043
  30
0
  11
5.98057
  21
1.67688
  31
0
  0
LINE
  8
0
  10
5.98057
  20
1.67688
  30
0
  11
6.08413
  21
1.59742
  31
0
  0
LINE
  8
0
  10
6.08413
  20
1.59742
  30
0
  11
6.20472
  21
1.54747
  31
0
  0
LINE
  8
0
  10
6.20472
  20
1.54747
  30
0
  11
6.33413
  21
1.53043
  31
0
  0
LINE
  8
0
  10
6.33413
  20
1.53043
  30
0
  11
6.46354
  21
1.54747
  31
0
  0
LINE
  8
0
  10
6.46354
  20
1.54747
  30
0
  11
6.58413
  21
1.59742
  31
0
  0
LINE
  8
0
  10
6.58413
  20
1.59742
  30
0
  11
6.68768
  21
1.67688
  31
0
  0
LINE
  8
0
  10
6.68768
  20
1.67688
  30
0
  11
6.76714
  21
1.78043
  31
0
  0
LINE
  8
0
  10
6.76714
  20
1.78043
  30
0
  11
6.81709
  21
1.90102
  31
0
  0
LINE
  8
0
  10
6.81709
  20
1.90102
  30
0
  11
6.83413
  21
2.03043
  31
0
  0
LINE
  8
0
  10
6.83413
  20
2.03043
  30
0
  11
6.83413
  21
2.03043
  31
0
  0
ENDSEC
  0
EOF
