  999
file created by gear template generator
  0
SECTION
  2
HEADER
  9
$ACADVER
  1
AC1006
  9
$INSBASE
  10
0.0
  20
0.0
  30
0.0
  9
$EXTMIN
  10
0.0
  20
0.0
  9
$EXTMAX
  10
10000.0
  20
10000.0
  0
ENDSEC
  0
SECTION
  2
ENTITIES
  0
LINE
  8
0
  10
5.72137
  20
3.31213
  30
0
  11
5.72137
  21
3.31213
  31
0
  0
LINE
  8
0
  10
5.72137
  20
3.31213
  30
0
  11
5.73599
  21
3.27626
  31
0
  0
LINE
  8
0
  10
5.73599
  20
3.27626
  30
0
  11
5.74884
  21
3.2629
  31
0
  0
LINE
  8
0
  10
5.74884
  20
3.2629
  30
0
  11
5.7614
  21
3.25351
  31
0
  0
LINE
  8
0
  10
5.7614
  20
3.25351
  30
0
  11
5.78611
  21
3.24056
  31
0
  0
LINE
  8
0
  10
5.78611
  20
3.24056
  30
0
  11
5.8107
  21
3.22886
  31
0
  0
LINE
  8
0
  10
5.8107
  20
3.22886
  30
0
  11
5.83482
  21
3.22646
  31
0
  0
LINE
  8
0
  10
5.83482
  20
3.22646
  30
0
  11
5.8832
  21
3.21799
  31
0
  0
LINE
  8
0
  10
5.8832
  20
3.21799
  30
0
  11
5.93168
  21
3.20583
  31
0
  0
LINE
  8
0
  10
5.93168
  20
3.20583
  30
0
  11
5.98019
  21
3.1906
  31
0
  0
LINE
  8
0
  10
5.98019
  20
3.1906
  30
0
  11
6.02866
  21
3.17264
  31
0
  0
LINE
  8
0
  10
6.02866
  20
3.17264
  30
0
  11
6.07705
  21
3.15214
  31
0
  0
LINE
  8
0
  10
6.07705
  20
3.15214
  30
0
  11
6.12531
  21
3.12926
  31
0
  0
LINE
  8
0
  10
6.12531
  20
3.12926
  30
0
  11
6.17339
  21
3.10411
  31
0
  0
LINE
  8
0
  10
6.17339
  20
3.10411
  30
0
  11
6.20931
  21
3.0838
  31
0
  0
LINE
  8
0
  10
6.20931
  20
3.0838
  30
0
  11
6.19229
  21
2.77938
  31
0
  0
LINE
  8
0
  10
6.19229
  20
2.77938
  30
0
  11
6.15433
  21
2.7632
  31
0
  0
LINE
  8
0
  10
6.15433
  20
2.7632
  30
0
  11
6.10375
  21
2.74356
  31
0
  0
LINE
  8
0
  10
6.10375
  20
2.74356
  30
0
  11
6.05324
  21
2.72621
  31
0
  0
LINE
  8
0
  10
6.05324
  20
2.72621
  30
0
  11
6.00287
  21
2.71123
  31
0
  0
LINE
  8
0
  10
6.00287
  20
2.71123
  30
0
  11
5.95269
  21
2.69878
  31
0
  0
LINE
  8
0
  10
5.95269
  20
2.69878
  30
0
  11
5.90279
  21
2.68906
  31
0
  0
LINE
  8
0
  10
5.90279
  20
2.68906
  30
0
  11
5.85326
  21
2.68238
  31
0
  0
LINE
  8
0
  10
5.85326
  20
2.68238
  30
0
  11
5.80423
  21
2.67936
  31
0
  0
LINE
  8
0
  10
5.80423
  20
2.67936
  30
0
  11
5.77999
  21
2.67965
  31
0
  0
LINE
  8
0
  10
5.77999
  20
2.67965
  30
0
  11
5.75426
  21
2.67077
  31
0
  0
LINE
  8
0
  10
5.75426
  20
2.67077
  30
0
  11
5.72825
  21
2.66065
  31
0
  0
LINE
  8
0
  10
5.72825
  20
2.66065
  30
0
  11
5.71473
  21
2.65273
  31
0
  0
LINE
  8
0
  10
5.71473
  20
2.65273
  30
0
  11
5.70046
  21
2.64088
  31
0
  0
LINE
  8
0
  10
5.70046
  20
2.64088
  30
0
  11
5.68194
  21
2.60686
  31
0
  0
LINE
  8
0
  10
5.68194
  20
2.60686
  30
0
  11
5.63451
  21
2.40466
  31
0
  0
LINE
  8
0
  10
5.63451
  20
2.40466
  30
0
  11
5.63598
  21
2.36596
  31
0
  0
LINE
  8
0
  10
5.63598
  20
2.36596
  30
0
  11
5.64349
  21
2.349
  31
0
  0
LINE
  8
0
  10
5.64349
  20
2.349
  30
0
  11
5.65208
  21
2.33589
  31
0
  0
LINE
  8
0
  10
5.65208
  20
2.33589
  30
0
  11
5.67087
  21
2.31527
  31
0
  0
LINE
  8
0
  10
5.67087
  20
2.31527
  30
0
  11
5.68997
  21
2.29586
  31
0
  0
LINE
  8
0
  10
5.68997
  20
2.29586
  30
0
  11
5.71182
  21
2.28535
  31
0
  0
LINE
  8
0
  10
5.71182
  20
2.28535
  30
0
  11
5.75439
  21
2.26085
  31
0
  0
LINE
  8
0
  10
5.75439
  20
2.26085
  30
0
  11
5.79579
  21
2.23284
  31
0
  0
LINE
  8
0
  10
5.79579
  20
2.23284
  30
0
  11
5.83616
  21
2.20194
  31
0
  0
LINE
  8
0
  10
5.83616
  20
2.20194
  30
0
  11
5.87557
  21
2.16848
  31
0
  0
LINE
  8
0
  10
5.87557
  20
2.16848
  30
0
  11
5.91403
  21
2.13267
  31
0
  0
LINE
  8
0
  10
5.91403
  20
2.13267
  30
0
  11
5.95155
  21
2.09467
  31
0
  0
LINE
  8
0
  10
5.95155
  20
2.09467
  30
0
  11
5.98813
  21
2.05458
  31
0
  0
LINE
  8
0
  10
5.98813
  20
2.05458
  30
0
  11
6.01493
  21
2.02322
  31
0
  0
LINE
  8
0
  10
6.01493
  20
2.02322
  30
0
  11
5.89482
  21
1.74298
  31
0
  0
LINE
  8
0
  10
5.89482
  20
1.74298
  30
0
  11
5.85362
  21
1.74076
  31
0
  0
LINE
  8
0
  10
5.85362
  20
1.74076
  30
0
  11
5.79937
  21
1.7396
  31
0
  0
LINE
  8
0
  10
5.79937
  20
1.7396
  30
0
  11
5.74597
  21
1.74057
  31
0
  0
LINE
  8
0
  10
5.74597
  20
1.74057
  30
0
  11
5.69352
  21
1.74373
  31
0
  0
LINE
  8
0
  10
5.69352
  20
1.74373
  30
0
  11
5.64211
  21
1.74919
  31
0
  0
LINE
  8
0
  10
5.64211
  20
1.74919
  30
0
  11
5.59189
  21
1.75712
  31
0
  0
LINE
  8
0
  10
5.59189
  20
1.75712
  30
0
  11
5.54306
  21
1.76778
  31
0
  0
LINE
  8
0
  10
5.54306
  20
1.76778
  30
0
  11
5.49596
  21
1.78171
  31
0
  0
LINE
  8
0
  10
5.49596
  20
1.78171
  30
0
  11
5.47328
  21
1.79028
  31
0
  0
LINE
  8
0
  10
5.47328
  20
1.79028
  30
0
  11
5.44606
  21
1.79073
  31
0
  0
LINE
  8
0
  10
5.44606
  20
1.79073
  30
0
  11
5.41816
  21
1.79012
  31
0
  0
LINE
  8
0
  10
5.41816
  20
1.79012
  30
0
  11
5.40274
  21
1.7873
  31
0
  0
LINE
  8
0
  10
5.40274
  20
1.7873
  30
0
  11
5.38528
  21
1.78104
  31
0
  0
LINE
  8
0
  10
5.38528
  20
1.78104
  30
0
  11
5.35625
  21
1.75542
  31
0
  0
LINE
  8
0
  10
5.35625
  20
1.75542
  30
0
  11
5.24252
  21
1.58163
  31
0
  0
LINE
  8
0
  10
5.24252
  20
1.58163
  30
0
  11
5.23066
  21
1.54476
  31
0
  0
LINE
  8
0
  10
5.23066
  20
1.54476
  30
0
  11
5.23192
  21
1.52626
  31
0
  0
LINE
  8
0
  10
5.23192
  20
1.52626
  30
0
  11
5.23551
  21
1.511
  31
0
  0
LINE
  8
0
  10
5.23551
  20
1.511
  30
0
  11
5.24612
  21
1.48519
  31
0
  0
LINE
  8
0
  10
5.24612
  20
1.48519
  30
0
  11
5.25743
  21
1.46042
  31
0
  0
LINE
  8
0
  10
5.25743
  20
1.46042
  30
0
  11
5.27436
  21
1.44307
  31
0
  0
LINE
  8
0
  10
5.27436
  20
1.44307
  30
0
  11
5.30598
  21
1.40548
  31
0
  0
LINE
  8
0
  10
5.30598
  20
1.40548
  30
0
  11
5.3353
  21
1.36501
  31
0
  0
LINE
  8
0
  10
5.3353
  20
1.36501
  30
0
  11
5.36267
  21
1.32216
  31
0
  0
LINE
  8
0
  10
5.36267
  20
1.32216
  30
0
  11
5.38826
  21
1.27724
  31
0
  0
LINE
  8
0
  10
5.38826
  20
1.27724
  30
0
  11
5.41215
  21
1.23044
  31
0
  0
LINE
  8
0
  10
5.41215
  20
1.23044
  30
0
  11
5.43442
  21
1.18189
  31
0
  0
LINE
  8
0
  10
5.43442
  20
1.18189
  30
0
  11
5.45508
  21
1.13172
  31
0
  0
LINE
  8
0
  10
5.45508
  20
1.13172
  30
0
  11
5.46954
  21
1.09308
  31
0
  0
LINE
  8
0
  10
5.46954
  20
1.09308
  30
0
  11
5.26082
  21
0.87082
  31
0
  0
LINE
  8
0
  10
5.26082
  20
0.87082
  30
0
  11
5.22135
  21
0.88282
  31
0
  0
LINE
  8
0
  10
5.22135
  20
0.88282
  30
0
  11
5.16997
  21
0.90029
  31
0
  0
LINE
  8
0
  10
5.16997
  20
0.90029
  30
0
  11
5.12013
  21
0.91946
  31
0
  0
LINE
  8
0
  10
5.12013
  20
0.91946
  30
0
  11
5.07191
  21
0.94037
  31
0
  0
LINE
  8
0
  10
5.07191
  20
0.94037
  30
0
  11
5.02548
  21
0.96309
  31
0
  0
LINE
  8
0
  10
5.02548
  20
0.96309
  30
0
  11
4.981
  21
0.98771
  31
0
  0
LINE
  8
0
  10
4.981
  20
0.98771
  30
0
  11
4.93876
  21
1.01443
  31
0
  0
LINE
  8
0
  10
4.93876
  20
1.01443
  30
0
  11
4.89926
  21
1.04363
  31
0
  0
LINE
  8
0
  10
4.89926
  20
1.04363
  30
0
  11
4.88088
  21
1.05944
  31
0
  0
LINE
  8
0
  10
4.88088
  20
1.05944
  30
0
  11
4.85545
  21
1.06918
  31
0
  0
LINE
  8
0
  10
4.85545
  20
1.06918
  30
0
  11
4.82903
  21
1.07814
  31
0
  0
LINE
  8
0
  10
4.82903
  20
1.07814
  30
0
  11
4.81358
  21
1.08077
  31
0
  0
LINE
  8
0
  10
4.81358
  20
1.08077
  30
0
  11
4.79503
  21
1.08086
  31
0
  0
LINE
  8
0
  10
4.79503
  20
1.08086
  30
0
  11
4.75898
  21
1.06671
  31
0
  0
LINE
  8
0
  10
4.75898
  20
1.06671
  30
0
  11
4.59268
  21
0.9423
  31
0
  0
LINE
  8
0
  10
4.59268
  20
0.9423
  30
0
  11
4.56892
  21
0.91171
  31
0
  0
LINE
  8
0
  10
4.56892
  20
0.91171
  30
0
  11
4.56378
  21
0.89389
  31
0
  0
LINE
  8
0
  10
4.56378
  20
0.89389
  30
0
  11
4.56193
  21
0.87832
  31
0
  0
LINE
  8
0
  10
4.56193
  20
0.87832
  30
0
  11
4.56307
  21
0.85045
  31
0
  0
LINE
  8
0
  10
4.56307
  20
0.85045
  30
0
  11
4.56523
  21
0.8233
  31
0
  0
LINE
  8
0
  10
4.56523
  20
0.8233
  30
0
  11
4.57521
  21
0.80121
  31
0
  0
LINE
  8
0
  10
4.57521
  20
0.80121
  30
0
  11
4.59206
  21
0.75507
  31
0
  0
LINE
  8
0
  10
4.59206
  20
0.75507
  30
0
  11
4.60578
  21
0.70701
  31
0
  0
LINE
  8
0
  10
4.60578
  20
0.70701
  30
0
  11
4.61684
  21
0.65739
  31
0
  0
LINE
  8
0
  10
4.61684
  20
0.65739
  30
0
  11
4.62552
  21
0.60643
  31
0
  0
LINE
  8
0
  10
4.62552
  20
0.60643
  30
0
  11
4.63197
  21
0.55427
  31
0
  0
LINE
  8
0
  10
4.63197
  20
0.55427
  30
0
  11
4.63628
  21
0.50104
  31
0
  0
LINE
  8
0
  10
4.63628
  20
0.50104
  30
0
  11
4.63854
  21
0.44682
  31
0
  0
LINE
  8
0
  10
4.63854
  20
0.44682
  30
0
  11
4.63891
  21
0.40557
  31
0
  0
LINE
  8
0
  10
4.63891
  20
0.40557
  30
0
  11
4.36676
  21
0.2681
  31
0
  0
LINE
  8
0
  10
4.36676
  20
0.2681
  30
0
  11
4.33377
  21
0.29288
  31
0
  0
LINE
  8
0
  10
4.33377
  20
0.29288
  30
0
  11
4.29147
  21
0.32686
  31
0
  0
LINE
  8
0
  10
4.29147
  20
0.32686
  30
0
  11
4.25119
  21
0.36193
  31
0
  0
LINE
  8
0
  10
4.25119
  20
0.36193
  30
0
  11
4.21304
  21
0.39807
  31
0
  0
LINE
  8
0
  10
4.21304
  20
0.39807
  30
0
  11
4.17717
  21
0.43529
  31
0
  0
LINE
  8
0
  10
4.17717
  20
0.43529
  30
0
  11
4.14379
  21
0.47365
  31
0
  0
LINE
  8
0
  10
4.14379
  20
0.47365
  30
0
  11
4.11324
  21
0.5132
  31
0
  0
LINE
  8
0
  10
4.11324
  20
0.5132
  30
0
  11
4.08611
  21
0.55415
  31
0
  0
LINE
  8
0
  10
4.08611
  20
0.55415
  30
0
  11
4.07425
  21
0.57529
  31
0
  0
LINE
  8
0
  10
4.07425
  20
0.57529
  30
0
  11
4.05368
  21
0.59314
  31
0
  0
LINE
  8
0
  10
4.05368
  20
0.59314
  30
0
  11
4.03192
  21
0.6106
  31
0
  0
LINE
  8
0
  10
4.03192
  20
0.6106
  30
0
  11
4.0183
  21
0.61835
  31
0
  0
LINE
  8
0
  10
4.0183
  20
0.61835
  30
0
  11
4.0009
  21
0.62478
  31
0
  0
LINE
  8
0
  10
4.0009
  20
0.62478
  30
0
  11
3.96219
  21
0.62381
  31
0
  0
LINE
  8
0
  10
3.96219
  20
0.62381
  30
0
  11
3.76336
  21
0.56378
  31
0
  0
LINE
  8
0
  10
3.76336
  20
0.56378
  30
0
  11
3.73058
  21
0.54316
  31
0
  0
LINE
  8
0
  10
3.73058
  20
0.54316
  30
0
  11
3.71965
  21
0.52818
  31
0
  0
LINE
  8
0
  10
3.71965
  20
0.52818
  30
0
  11
3.71259
  21
0.51418
  31
0
  0
LINE
  8
0
  10
3.71259
  20
0.51418
  30
0
  11
3.70412
  21
0.4876
  31
0
  0
LINE
  8
0
  10
3.70412
  20
0.4876
  30
0
  11
3.69687
  21
0.46136
  31
0
  0
LINE
  8
0
  10
3.69687
  20
0.46136
  30
0
  11
3.69869
  21
0.43718
  31
0
  0
LINE
  8
0
  10
3.69869
  20
0.43718
  30
0
  11
3.69875
  21
0.38806
  31
0
  0
LINE
  8
0
  10
3.69875
  20
0.38806
  30
0
  11
3.69519
  21
0.3382
  31
0
  0
LINE
  8
0
  10
3.69519
  20
0.3382
  30
0
  11
3.68862
  21
0.28779
  31
0
  0
LINE
  8
0
  10
3.68862
  20
0.28779
  30
0
  11
3.67935
  21
0.23693
  31
0
  0
LINE
  8
0
  10
3.67935
  20
0.23693
  30
0
  11
3.66757
  21
0.18572
  31
0
  0
LINE
  8
0
  10
3.66757
  20
0.18572
  30
0
  11
3.65342
  21
0.13422
  31
0
  0
LINE
  8
0
  10
3.65342
  20
0.13422
  30
0
  11
3.63699
  21
0.0825
  31
0
  0
LINE
  8
0
  10
3.63699
  20
0.0825
  30
0
  11
3.62323
  21
0.04361
  31
0
  0
LINE
  8
0
  10
3.62323
  20
0.04361
  30
0
  11
3.32048
  21
0.00751
  31
0
  0
LINE
  8
0
  10
3.32048
  20
0.00751
  30
0
  11
3.29795
  21
0.04208
  31
0
  0
LINE
  8
0
  10
3.29795
  20
0.04208
  30
0
  11
3.26983
  21
0.08848
  31
0
  0
LINE
  8
0
  10
3.26983
  20
0.08848
  30
0
  11
3.24397
  21
0.13521
  31
0
  0
LINE
  8
0
  10
3.24397
  20
0.13521
  30
0
  11
3.22047
  21
0.18222
  31
0
  0
LINE
  8
0
  10
3.22047
  20
0.18222
  30
0
  11
3.1995
  21
0.22947
  31
0
  0
LINE
  8
0
  10
3.1995
  20
0.22947
  30
0
  11
3.18126
  21
0.27692
  31
0
  0
LINE
  8
0
  10
3.18126
  20
0.27692
  30
0
  11
3.16608
  21
0.32454
  31
0
  0
LINE
  8
0
  10
3.16608
  20
0.32454
  30
0
  11
3.15459
  21
0.3723
  31
0
  0
LINE
  8
0
  10
3.15459
  20
0.3723
  30
0
  11
3.15067
  21
0.39623
  31
0
  0
LINE
  8
0
  10
3.15067
  20
0.39623
  30
0
  11
3.13745
  21
0.42002
  31
0
  0
LINE
  8
0
  10
3.13745
  20
0.42002
  30
0
  11
3.12297
  21
0.44388
  31
0
  0
LINE
  8
0
  10
3.12297
  20
0.44388
  30
0
  11
3.11282
  21
0.45582
  31
0
  0
LINE
  8
0
  10
3.11282
  20
0.45582
  30
0
  11
3.09867
  21
0.46781
  31
0
  0
LINE
  8
0
  10
3.09867
  20
0.46781
  30
0
  11
3.06196
  21
0.48015
  31
0
  0
LINE
  8
0
  10
3.06196
  20
0.48015
  30
0
  11
2.85459
  21
0.49174
  31
0
  0
LINE
  8
0
  10
2.85459
  20
0.49174
  30
0
  11
2.81674
  21
0.48357
  31
0
  0
LINE
  8
0
  10
2.81674
  20
0.48357
  30
0
  11
2.80134
  21
0.47324
  31
0
  0
LINE
  8
0
  10
2.80134
  20
0.47324
  30
0
  11
2.78992
  21
0.4625
  31
0
  0
LINE
  8
0
  10
2.78992
  20
0.4625
  30
0
  11
2.77287
  21
0.44041
  31
0
  0
LINE
  8
0
  10
2.77287
  20
0.44041
  30
0
  11
2.75708
  21
0.41823
  31
0
  0
LINE
  8
0
  10
2.75708
  20
0.41823
  30
0
  11
2.75052
  21
0.39489
  31
0
  0
LINE
  8
0
  10
2.75052
  20
0.39489
  30
0
  11
2.73378
  21
0.34871
  31
0
  0
LINE
  8
0
  10
2.73378
  20
0.34871
  30
0
  11
2.71339
  21
0.30308
  31
0
  0
LINE
  8
0
  10
2.71339
  20
0.30308
  30
0
  11
2.68997
  21
0.25796
  31
0
  0
LINE
  8
0
  10
2.68997
  20
0.25796
  30
0
  11
2.66386
  21
0.21334
  31
0
  0
LINE
  8
0
  10
2.66386
  20
0.21334
  30
0
  11
2.63527
  21
0.16924
  31
0
  0
LINE
  8
0
  10
2.63527
  20
0.16924
  30
0
  11
2.60436
  21
0.12569
  31
0
  0
LINE
  8
0
  10
2.60436
  20
0.12569
  30
0
  11
2.57124
  21
0.08271
  31
0
  0
LINE
  8
0
  10
2.57124
  20
0.08271
  30
0
  11
2.545
  21
0.05086
  31
0
  0
LINE
  8
0
  10
2.545
  20
0.05086
  30
0
  11
2.24817
  21
0.12049
  31
0
  0
LINE
  8
0
  10
2.24817
  20
0.12049
  30
0
  11
2.23882
  21
0.16067
  31
0
  0
LINE
  8
0
  10
2.23882
  20
0.16067
  30
0
  11
2.22827
  21
0.2139
  31
0
  0
LINE
  8
0
  10
2.22827
  20
0.2139
  30
0
  11
2.21995
  21
0.26666
  31
0
  0
LINE
  8
0
  10
2.21995
  20
0.26666
  30
0
  11
2.21395
  21
0.31886
  31
0
  0
LINE
  8
0
  10
2.21395
  20
0.31886
  30
0
  11
2.2104
  21
0.37044
  31
0
  0
LINE
  8
0
  10
2.2104
  20
0.37044
  30
0
  11
2.20949
  21
0.42127
  31
0
  0
LINE
  8
0
  10
2.20949
  20
0.42127
  30
0
  11
2.21151
  21
0.47121
  31
0
  0
LINE
  8
0
  10
2.21151
  20
0.47121
  30
0
  11
2.21705
  21
0.52002
  31
0
  0
LINE
  8
0
  10
2.21705
  20
0.52002
  30
0
  11
2.22155
  21
0.54384
  31
0
  0
LINE
  8
0
  10
2.22155
  20
0.54384
  30
0
  11
2.21727
  21
0.57072
  31
0
  0
LINE
  8
0
  10
2.21727
  20
0.57072
  30
0
  11
2.21182
  21
0.59809
  31
0
  0
LINE
  8
0
  10
2.21182
  20
0.59809
  30
0
  11
2.20636
  21
0.61279
  31
0
  0
LINE
  8
0
  10
2.20636
  20
0.61279
  30
0
  11
2.19717
  21
0.62889
  31
0
  0
LINE
  8
0
  10
2.19717
  20
0.62889
  30
0
  11
2.16689
  21
0.65304
  31
0
  0
LINE
  8
0
  10
2.16689
  20
0.65304
  30
0
  11
1.976
  21
0.73486
  31
0
  0
LINE
  8
0
  10
1.976
  20
0.73486
  30
0
  11
1.93763
  21
0.74013
  31
0
  0
LINE
  8
0
  10
1.93763
  20
0.74013
  30
0
  11
1.91963
  21
0.73568
  31
0
  0
LINE
  8
0
  10
1.91963
  20
0.73568
  30
0
  11
1.90522
  21
0.7295
  31
0
  0
LINE
  8
0
  10
1.90522
  20
0.7295
  30
0
  11
1.88165
  21
0.71457
  31
0
  0
LINE
  8
0
  10
1.88165
  20
0.71457
  30
0
  11
1.85922
  21
0.69913
  31
0
  0
LINE
  8
0
  10
1.85922
  20
0.69913
  30
0
  11
1.84508
  21
0.67944
  31
0
  0
LINE
  8
0
  10
1.84508
  20
0.67944
  30
0
  11
1.81355
  21
0.64178
  31
0
  0
LINE
  8
0
  10
1.81355
  20
0.64178
  30
0
  11
1.77878
  21
0.60587
  31
0
  0
LINE
  8
0
  10
1.77878
  20
0.60587
  30
0
  11
1.74134
  21
0.57148
  31
0
  0
LINE
  8
0
  10
1.74134
  20
0.57148
  30
0
  11
1.70155
  21
0.53848
  31
0
  0
LINE
  8
0
  10
1.70155
  20
0.53848
  30
0
  11
1.6596
  21
0.50682
  31
0
  0
LINE
  8
0
  10
1.6596
  20
0.50682
  30
0
  11
1.61566
  21
0.47646
  31
0
  0
LINE
  8
0
  10
1.61566
  20
0.47646
  30
0
  11
1.56983
  21
0.4474
  31
0
  0
LINE
  8
0
  10
1.56983
  20
0.4474
  30
0
  11
1.53429
  21
0.42646
  31
0
  0
LINE
  8
0
  10
1.53429
  20
0.42646
  30
0
  11
1.27916
  21
0.5934
  31
0
  0
LINE
  8
0
  10
1.27916
  20
0.5934
  30
0
  11
1.28413
  21
0.63436
  31
0
  0
LINE
  8
0
  10
1.28413
  20
0.63436
  30
0
  11
1.29241
  21
0.68799
  31
0
  0
LINE
  8
0
  10
1.29241
  20
0.68799
  30
0
  11
1.30264
  21
0.74041
  31
0
  0
LINE
  8
0
  10
1.30264
  20
0.74041
  30
0
  11
1.31486
  21
0.79152
  31
0
  0
LINE
  8
0
  10
1.31486
  20
0.79152
  30
0
  11
1.32916
  21
0.8412
  31
0
  0
LINE
  8
0
  10
1.32916
  20
0.8412
  30
0
  11
1.34569
  21
0.88928
  31
0
  0
LINE
  8
0
  10
1.34569
  20
0.88928
  30
0
  11
1.36467
  21
0.93551
  31
0
  0
LINE
  8
0
  10
1.36467
  20
0.93551
  30
0
  11
1.38657
  21
0.97948
  31
0
  0
LINE
  8
0
  10
1.38657
  20
0.97948
  30
0
  11
1.39895
  21
1.00033
  31
0
  0
LINE
  8
0
  10
1.39895
  20
1.00033
  30
0
  11
1.40412
  21
1.02706
  31
0
  0
LINE
  8
0
  10
1.40412
  20
1.02706
  30
0
  11
1.40836
  21
1.05464
  31
0
  0
LINE
  8
0
  10
1.40836
  20
1.05464
  30
0
  11
1.40826
  21
1.07031
  31
0
  0
LINE
  8
0
  10
1.40826
  20
1.07031
  30
0
  11
1.40513
  21
1.08859
  31
0
  0
LINE
  8
0
  10
1.40513
  20
1.08859
  30
0
  11
1.38494
  21
1.12164
  31
0
  0
LINE
  8
0
  10
1.38494
  20
1.12164
  30
0
  11
1.23354
  21
1.26381
  31
0
  0
LINE
  8
0
  10
1.23354
  20
1.26381
  30
0
  11
1.19928
  21
1.28189
  31
0
  0
LINE
  8
0
  10
1.19928
  20
1.28189
  30
0
  11
1.18085
  21
1.28387
  31
0
  0
LINE
  8
0
  10
1.18085
  20
1.28387
  30
0
  11
1.16519
  21
1.28298
  31
0
  0
LINE
  8
0
  10
1.16519
  20
1.28298
  30
0
  11
1.13794
  21
1.27702
  31
0
  0
LINE
  8
0
  10
1.13794
  20
1.27702
  30
0
  11
1.11158
  21
1.27018
  31
0
  0
LINE
  8
0
  10
1.11158
  20
1.27018
  30
0
  11
1.09156
  21
1.25652
  31
0
  0
LINE
  8
0
  10
1.09156
  20
1.25652
  30
0
  11
1.04905
  21
1.2319
  31
0
  0
LINE
  8
0
  10
1.04905
  20
1.2319
  30
0
  11
1.0041
  21
1.21005
  31
0
  0
LINE
  8
0
  10
1.0041
  20
1.21005
  30
0
  11
0.95715
  21
1.19054
  31
0
  0
LINE
  8
0
  10
0.95715
  20
1.19054
  30
0
  11
0.90847
  21
1.17314
  31
0
  0
LINE
  8
0
  10
0.90847
  20
1.17314
  30
0
  11
0.85823
  21
1.15774
  31
0
  0
LINE
  8
0
  10
0.85823
  20
1.15774
  30
0
  11
0.80655
  21
1.14424
  31
0
  0
LINE
  8
0
  10
0.80655
  20
1.14424
  30
0
  11
0.75355
  21
1.13261
  31
0
  0
LINE
  8
0
  10
0.75355
  20
1.13261
  30
0
  11
0.71299
  21
1.12508
  31
0
  0
LINE
  8
0
  10
0.71299
  20
1.12508
  30
0
  11
0.53035
  21
1.36922
  31
0
  0
LINE
  8
0
  10
0.53035
  20
1.36922
  30
0
  11
0.54902
  21
1.40601
  31
0
  0
LINE
  8
0
  10
0.54902
  20
1.40601
  30
0
  11
0.57515
  21
1.45357
  31
0
  0
LINE
  8
0
  10
0.57515
  20
1.45357
  30
0
  11
0.60268
  21
1.49933
  31
0
  0
LINE
  8
0
  10
0.60268
  20
1.49933
  30
0
  11
0.63165
  21
1.54318
  31
0
  0
LINE
  8
0
  10
0.63165
  20
1.54318
  30
0
  11
0.66208
  21
1.58497
  31
0
  0
LINE
  8
0
  10
0.66208
  20
1.58497
  30
0
  11
0.69406
  21
1.62449
  31
0
  0
LINE
  8
0
  10
0.69406
  20
1.62449
  30
0
  11
0.72771
  21
1.66145
  31
0
  0
LINE
  8
0
  10
0.72771
  20
1.66145
  30
0
  11
0.76332
  21
1.69528
  31
0
  0
LINE
  8
0
  10
0.76332
  20
1.69528
  30
0
  11
0.78208
  21
1.71063
  31
0
  0
LINE
  8
0
  10
0.78208
  20
1.71063
  30
0
  11
0.79608
  21
1.73398
  31
0
  0
LINE
  8
0
  10
0.79608
  20
1.73398
  30
0
  11
0.8095
  21
1.75845
  31
0
  0
LINE
  8
0
  10
0.8095
  20
1.75845
  30
0
  11
0.81477
  21
1.77321
  31
0
  0
LINE
  8
0
  10
0.81477
  20
1.77321
  30
0
  11
0.81808
  21
1.79146
  31
0
  0
LINE
  8
0
  10
0.81808
  20
1.79146
  30
0
  11
0.81041
  21
1.82942
  31
0
  0
LINE
  8
0
  10
0.81041
  20
1.82942
  30
0
  11
0.71676
  21
2.0148
  31
0
  0
LINE
  8
0
  10
0.71676
  20
2.0148
  30
0
  11
0.69076
  21
2.04351
  31
0
  0
LINE
  8
0
  10
0.69076
  20
2.04351
  30
0
  11
0.67411
  21
2.05167
  31
0
  0
LINE
  8
0
  10
0.67411
  20
2.05167
  30
0
  11
0.6591
  21
2.05619
  31
0
  0
LINE
  8
0
  10
0.6591
  20
2.05619
  30
0
  11
0.63145
  21
2.05991
  31
0
  0
LINE
  8
0
  10
0.63145
  20
2.05991
  30
0
  11
0.60434
  21
2.0625
  31
0
  0
LINE
  8
0
  10
0.60434
  20
2.0625
  30
0
  11
0.58085
  21
2.05651
  31
0
  0
LINE
  8
0
  10
0.58085
  20
2.05651
  30
0
  11
0.53249
  21
2.04792
  31
0
  0
LINE
  8
0
  10
0.53249
  20
2.04792
  30
0
  11
0.48277
  21
2.04276
  31
0
  0
LINE
  8
0
  10
0.48277
  20
2.04276
  30
0
  11
0.43199
  21
2.04048
  31
0
  0
LINE
  8
0
  10
0.43199
  20
2.04048
  30
0
  11
0.38029
  21
2.04078
  31
0
  0
LINE
  8
0
  10
0.38029
  20
2.04078
  30
0
  11
0.32781
  21
2.04349
  31
0
  0
LINE
  8
0
  10
0.32781
  20
2.04349
  30
0
  11
0.27464
  21
2.04848
  31
0
  0
LINE
  8
0
  10
0.27464
  20
2.04848
  30
0
  11
0.22085
  21
2.05568
  31
0
  0
LINE
  8
0
  10
0.22085
  20
2.05568
  30
0
  11
0.18016
  21
2.06248
  31
0
  0
LINE
  8
0
  10
0.18016
  20
2.06248
  30
0
  11
0.09203
  21
2.35436
  31
0
  0
LINE
  8
0
  10
0.09203
  20
2.35436
  30
0
  11
0.12217
  21
2.38254
  31
0
  0
LINE
  8
0
  10
0.12217
  20
2.38254
  30
0
  11
0.16298
  21
2.4183
  31
0
  0
LINE
  8
0
  10
0.16298
  20
2.4183
  30
0
  11
0.20451
  21
2.45188
  31
0
  0
LINE
  8
0
  10
0.20451
  20
2.45188
  30
0
  11
0.24672
  21
2.48318
  31
0
  0
LINE
  8
0
  10
0.24672
  20
2.48318
  30
0
  11
0.28961
  21
2.51204
  31
0
  0
LINE
  8
0
  10
0.28961
  20
2.51204
  30
0
  11
0.33318
  21
2.53825
  31
0
  0
LINE
  8
0
  10
0.33318
  20
2.53825
  30
0
  11
0.37744
  21
2.56146
  31
0
  0
LINE
  8
0
  10
0.37744
  20
2.56146
  30
0
  11
0.42248
  21
2.58107
  31
0
  0
LINE
  8
0
  10
0.42248
  20
2.58107
  30
0
  11
0.44536
  21
2.58908
  31
0
  0
LINE
  8
0
  10
0.44536
  20
2.58908
  30
0
  11
0.4665
  21
2.60624
  31
0
  0
LINE
  8
0
  10
0.4665
  20
2.60624
  30
0
  11
0.48748
  21
2.62464
  31
0
  0
LINE
  8
0
  10
0.48748
  20
2.62464
  30
0
  11
0.49748
  21
2.63671
  31
0
  0
LINE
  8
0
  10
0.49748
  20
2.63671
  30
0
  11
0.50683
  21
2.65272
  31
0
  0
LINE
  8
0
  10
0.50683
  20
2.65272
  30
0
  11
0.5126
  21
2.69102
  31
0
  0
LINE
  8
0
  10
0.5126
  20
2.69102
  30
0
  11
0.48801
  21
2.89725
  31
0
  0
LINE
  8
0
  10
0.48801
  20
2.89725
  30
0
  11
0.47339
  21
2.93312
  31
0
  0
LINE
  8
0
  10
0.47339
  20
2.93312
  30
0
  11
0.46054
  21
2.94648
  31
0
  0
LINE
  8
0
  10
0.46054
  20
2.94648
  30
0
  11
0.44798
  21
2.95586
  31
0
  0
LINE
  8
0
  10
0.44798
  20
2.95586
  30
0
  11
0.42327
  21
2.96881
  31
0
  0
LINE
  8
0
  10
0.42327
  20
2.96881
  30
0
  11
0.39868
  21
2.98052
  31
0
  0
LINE
  8
0
  10
0.39868
  20
2.98052
  30
0
  11
0.37456
  21
2.98292
  31
0
  0
LINE
  8
0
  10
0.37456
  20
2.98292
  30
0
  11
0.32617
  21
2.99139
  31
0
  0
LINE
  8
0
  10
0.32617
  20
2.99139
  30
0
  11
0.27769
  21
3.00355
  31
0
  0
LINE
  8
0
  10
0.27769
  20
3.00355
  30
0
  11
0.22919
  21
3.01878
  31
0
  0
LINE
  8
0
  10
0.22919
  20
3.01878
  30
0
  11
0.18071
  21
3.03674
  31
0
  0
LINE
  8
0
  10
0.18071
  20
3.03674
  30
0
  11
0.13232
  21
3.05724
  31
0
  0
LINE
  8
0
  10
0.13232
  20
3.05724
  30
0
  11
0.08406
  21
3.08011
  31
0
  0
LINE
  8
0
  10
0.08406
  20
3.08011
  30
0
  11
0.03599
  21
3.10527
  31
0
  0
LINE
  8
0
  10
0.03599
  20
3.10527
  30
0
  11
0.00007
  21
3.12558
  31
0
  0
LINE
  8
0
  10
0.00007
  20
3.12558
  30
0
  11
0.01709
  21
3.43
  31
0
  0
LINE
  8
0
  10
0.01709
  20
3.43
  30
0
  11
0.05504
  21
3.44618
  31
0
  0
LINE
  8
0
  10
0.05504
  20
3.44618
  30
0
  11
0.10563
  21
3.46582
  31
0
  0
LINE
  8
0
  10
0.10563
  20
3.46582
  30
0
  11
0.15614
  21
3.48317
  31
0
  0
LINE
  8
0
  10
0.15614
  20
3.48317
  30
0
  11
0.20651
  21
3.49814
  31
0
  0
LINE
  8
0
  10
0.20651
  20
3.49814
  30
0
  11
0.25668
  21
3.51059
  31
0
  0
LINE
  8
0
  10
0.25668
  20
3.51059
  30
0
  11
0.30659
  21
3.52032
  31
0
  0
LINE
  8
0
  10
0.30659
  20
3.52032
  30
0
  11
0.35612
  21
3.527
  31
0
  0
LINE
  8
0
  10
0.35612
  20
3.527
  30
0
  11
0.40515
  21
3.53002
  31
0
  0
LINE
  8
0
  10
0.40515
  20
3.53002
  30
0
  11
0.42939
  21
3.52972
  31
0
  0
LINE
  8
0
  10
0.42939
  20
3.52972
  30
0
  11
0.45512
  21
3.53861
  31
0
  0
LINE
  8
0
  10
0.45512
  20
3.53861
  30
0
  11
0.48113
  21
3.54873
  31
0
  0
LINE
  8
0
  10
0.48113
  20
3.54873
  30
0
  11
0.49465
  21
3.55665
  31
0
  0
LINE
  8
0
  10
0.49465
  20
3.55665
  30
0
  11
0.50892
  21
3.5685
  31
0
  0
LINE
  8
0
  10
0.50892
  20
3.5685
  30
0
  11
0.52744
  21
3.60251
  31
0
  0
LINE
  8
0
  10
0.52744
  20
3.60251
  30
0
  11
0.57487
  21
3.80472
  31
0
  0
LINE
  8
0
  10
0.57487
  20
3.80472
  30
0
  11
0.5734
  21
3.84342
  31
0
  0
LINE
  8
0
  10
0.5734
  20
3.84342
  30
0
  11
0.56589
  21
3.86037
  31
0
  0
LINE
  8
0
  10
0.56589
  20
3.86037
  30
0
  11
0.5573
  21
3.87349
  31
0
  0
LINE
  8
0
  10
0.5573
  20
3.87349
  30
0
  11
0.5385
  21
3.89411
  31
0
  0
LINE
  8
0
  10
0.5385
  20
3.89411
  30
0
  11
0.51941
  21
3.91351
  31
0
  0
LINE
  8
0
  10
0.51941
  20
3.91351
  30
0
  11
0.49756
  21
3.92402
  31
0
  0
LINE
  8
0
  10
0.49756
  20
3.92402
  30
0
  11
0.45499
  21
3.94853
  31
0
  0
LINE
  8
0
  10
0.45499
  20
3.94853
  30
0
  11
0.41359
  21
3.97654
  31
0
  0
LINE
  8
0
  10
0.41359
  20
3.97654
  30
0
  11
0.37322
  21
4.00744
  31
0
  0
LINE
  8
0
  10
0.37322
  20
4.00744
  30
0
  11
0.33381
  21
4.0409
  31
0
  0
LINE
  8
0
  10
0.33381
  20
4.0409
  30
0
  11
0.29535
  21
4.07671
  31
0
  0
LINE
  8
0
  10
0.29535
  20
4.07671
  30
0
  11
0.25783
  21
4.11471
  31
0
  0
LINE
  8
0
  10
0.25783
  20
4.11471
  30
0
  11
0.22125
  21
4.15479
  31
0
  0
LINE
  8
0
  10
0.22125
  20
4.15479
  30
0
  11
0.19445
  21
4.18616
  31
0
  0
LINE
  8
0
  10
0.19445
  20
4.18616
  30
0
  11
0.31456
  21
4.4664
  31
0
  0
LINE
  8
0
  10
0.31456
  20
4.4664
  30
0
  11
0.35576
  21
4.46862
  31
0
  0
LINE
  8
0
  10
0.35576
  20
4.46862
  30
0
  11
0.41001
  21
4.46978
  31
0
  0
LINE
  8
0
  10
0.41001
  20
4.46978
  30
0
  11
0.46341
  21
4.46881
  31
0
  0
LINE
  8
0
  10
0.46341
  20
4.46881
  30
0
  11
0.51586
  21
4.46565
  31
0
  0
LINE
  8
0
  10
0.51586
  20
4.46565
  30
0
  11
0.56727
  21
4.46019
  31
0
  0
LINE
  8
0
  10
0.56727
  20
4.46019
  30
0
  11
0.61749
  21
4.45226
  31
0
  0
LINE
  8
0
  10
0.61749
  20
4.45226
  30
0
  11
0.66632
  21
4.4416
  31
0
  0
LINE
  8
0
  10
0.66632
  20
4.4416
  30
0
  11
0.71342
  21
4.42767
  31
0
  0
LINE
  8
0
  10
0.71342
  20
4.42767
  30
0
  11
0.7361
  21
4.4191
  31
0
  0
LINE
  8
0
  10
0.7361
  20
4.4191
  30
0
  11
0.76332
  21
4.41865
  31
0
  0
LINE
  8
0
  10
0.76332
  20
4.41865
  30
0
  11
0.79122
  21
4.41926
  31
0
  0
LINE
  8
0
  10
0.79122
  20
4.41926
  30
0
  11
0.80664
  21
4.42208
  31
0
  0
LINE
  8
0
  10
0.80664
  20
4.42208
  30
0
  11
0.82409
  21
4.42834
  31
0
  0
LINE
  8
0
  10
0.82409
  20
4.42834
  30
0
  11
0.85313
  21
4.45396
  31
0
  0
LINE
  8
0
  10
0.85313
  20
4.45396
  30
0
  11
0.96686
  21
4.62775
  31
0
  0
LINE
  8
0
  10
0.96686
  20
4.62775
  30
0
  11
0.97871
  21
4.66462
  31
0
  0
LINE
  8
0
  10
0.97871
  20
4.66462
  30
0
  11
0.97746
  21
4.68312
  31
0
  0
LINE
  8
0
  10
0.97746
  20
4.68312
  30
0
  11
0.97387
  21
4.69838
  31
0
  0
LINE
  8
0
  10
0.97387
  20
4.69838
  30
0
  11
0.96326
  21
4.72419
  31
0
  0
LINE
  8
0
  10
0.96326
  20
4.72419
  30
0
  11
0.95195
  21
4.74896
  31
0
  0
LINE
  8
0
  10
0.95195
  20
4.74896
  30
0
  11
0.93502
  21
4.7663
  31
0
  0
LINE
  8
0
  10
0.93502
  20
4.7663
  30
0
  11
0.9034
  21
4.80389
  31
0
  0
LINE
  8
0
  10
0.9034
  20
4.80389
  30
0
  11
0.87407
  21
4.84437
  31
0
  0
LINE
  8
0
  10
0.87407
  20
4.84437
  30
0
  11
0.8467
  21
4.88721
  31
0
  0
LINE
  8
0
  10
0.8467
  20
4.88721
  30
0
  11
0.82112
  21
4.93213
  31
0
  0
LINE
  8
0
  10
0.82112
  20
4.93213
  30
0
  11
0.79722
  21
4.97894
  31
0
  0
LINE
  8
0
  10
0.79722
  20
4.97894
  30
0
  11
0.77496
  21
5.02748
  31
0
  0
LINE
  8
0
  10
0.77496
  20
5.02748
  30
0
  11
0.7543
  21
5.07766
  31
0
  0
LINE
  8
0
  10
0.7543
  20
5.07766
  30
0
  11
0.73984
  21
5.1163
  31
0
  0
LINE
  8
0
  10
0.73984
  20
5.1163
  30
0
  11
0.94856
  21
5.33856
  31
0
  0
LINE
  8
0
  10
0.94856
  20
5.33856
  30
0
  11
0.98803
  21
5.32656
  31
0
  0
LINE
  8
0
  10
0.98803
  20
5.32656
  30
0
  11
1.0394
  21
5.30909
  31
0
  0
LINE
  8
0
  10
1.0394
  20
5.30909
  30
0
  11
1.08925
  21
5.28992
  31
0
  0
LINE
  8
0
  10
1.08925
  20
5.28992
  30
0
  11
1.13746
  21
5.26901
  31
0
  0
LINE
  8
0
  10
1.13746
  20
5.26901
  30
0
  11
1.1839
  21
5.24629
  31
0
  0
LINE
  8
0
  10
1.1839
  20
5.24629
  30
0
  11
1.22838
  21
5.22167
  31
0
  0
LINE
  8
0
  10
1.22838
  20
5.22167
  30
0
  11
1.27062
  21
5.19494
  31
0
  0
LINE
  8
0
  10
1.27062
  20
5.19494
  30
0
  11
1.31012
  21
5.16575
  31
0
  0
LINE
  8
0
  10
1.31012
  20
5.16575
  30
0
  11
1.3285
  21
5.14993
  31
0
  0
LINE
  8
0
  10
1.3285
  20
5.14993
  30
0
  11
1.35392
  21
5.1402
  31
0
  0
LINE
  8
0
  10
1.35392
  20
5.1402
  30
0
  11
1.38035
  21
5.13124
  31
0
  0
LINE
  8
0
  10
1.38035
  20
5.13124
  30
0
  11
1.3958
  21
5.12861
  31
0
  0
LINE
  8
0
  10
1.3958
  20
5.12861
  30
0
  11
1.41434
  21
5.12852
  31
0
  0
LINE
  8
0
  10
1.41434
  20
5.12852
  30
0
  11
1.4504
  21
5.14267
  31
0
  0
LINE
  8
0
  10
1.4504
  20
5.14267
  30
0
  11
1.6167
  21
5.26708
  31
0
  0
LINE
  8
0
  10
1.6167
  20
5.26708
  30
0
  11
1.64045
  21
5.29767
  31
0
  0
LINE
  8
0
  10
1.64045
  20
5.29767
  30
0
  11
1.6456
  21
5.31549
  31
0
  0
LINE
  8
0
  10
1.6456
  20
5.31549
  30
0
  11
1.64745
  21
5.33105
  31
0
  0
LINE
  8
0
  10
1.64745
  20
5.33105
  30
0
  11
1.64631
  21
5.35893
  31
0
  0
LINE
  8
0
  10
1.64631
  20
5.35893
  30
0
  11
1.64415
  21
5.38607
  31
0
  0
LINE
  8
0
  10
1.64415
  20
5.38607
  30
0
  11
1.63417
  21
5.40817
  31
0
  0
LINE
  8
0
  10
1.63417
  20
5.40817
  30
0
  11
1.61731
  21
5.4543
  31
0
  0
LINE
  8
0
  10
1.61731
  20
5.4543
  30
0
  11
1.6036
  21
5.50237
  31
0
  0
LINE
  8
0
  10
1.6036
  20
5.50237
  30
0
  11
1.59254
  21
5.55199
  31
0
  0
LINE
  8
0
  10
1.59254
  20
5.55199
  30
0
  11
1.58386
  21
5.60295
  31
0
  0
LINE
  8
0
  10
1.58386
  20
5.60295
  30
0
  11
1.57741
  21
5.65511
  31
0
  0
LINE
  8
0
  10
1.57741
  20
5.65511
  30
0
  11
1.5731
  21
5.70834
  31
0
  0
LINE
  8
0
  10
1.5731
  20
5.70834
  30
0
  11
1.57084
  21
5.76255
  31
0
  0
LINE
  8
0
  10
1.57084
  20
5.76255
  30
0
  11
1.57047
  21
5.80381
  31
0
  0
LINE
  8
0
  10
1.57047
  20
5.80381
  30
0
  11
1.84261
  21
5.94128
  31
0
  0
LINE
  8
0
  10
1.84261
  20
5.94128
  30
0
  11
1.8756
  21
5.9165
  31
0
  0
LINE
  8
0
  10
1.8756
  20
5.9165
  30
0
  11
1.9179
  21
5.88251
  31
0
  0
LINE
  8
0
  10
1.9179
  20
5.88251
  30
0
  11
1.95819
  21
5.84745
  31
0
  0
LINE
  8
0
  10
1.95819
  20
5.84745
  30
0
  11
1.99634
  21
5.81131
  31
0
  0
LINE
  8
0
  10
1.99634
  20
5.81131
  30
0
  11
2.03221
  21
5.77409
  31
0
  0
LINE
  8
0
  10
2.03221
  20
5.77409
  30
0
  11
2.06558
  21
5.73573
  31
0
  0
LINE
  8
0
  10
2.06558
  20
5.73573
  30
0
  11
2.09613
  21
5.69618
  31
0
  0
LINE
  8
0
  10
2.09613
  20
5.69618
  30
0
  11
2.12327
  21
5.65523
  31
0
  0
LINE
  8
0
  10
2.12327
  20
5.65523
  30
0
  11
2.13513
  21
5.63408
  31
0
  0
LINE
  8
0
  10
2.13513
  20
5.63408
  30
0
  11
2.15569
  21
5.61624
  31
0
  0
LINE
  8
0
  10
2.15569
  20
5.61624
  30
0
  11
2.17746
  21
5.59878
  31
0
  0
LINE
  8
0
  10
2.17746
  20
5.59878
  30
0
  11
2.19108
  21
5.59103
  31
0
  0
LINE
  8
0
  10
2.19108
  20
5.59103
  30
0
  11
2.20848
  21
5.5846
  31
0
  0
LINE
  8
0
  10
2.20848
  20
5.5846
  30
0
  11
2.24719
  21
5.58556
  31
0
  0
LINE
  8
0
  10
2.24719
  20
5.58556
  30
0
  11
2.44602
  21
5.64559
  31
0
  0
LINE
  8
0
  10
2.44602
  20
5.64559
  30
0
  11
2.4788
  21
5.66622
  31
0
  0
LINE
  8
0
  10
2.4788
  20
5.66622
  30
0
  11
2.48973
  21
5.6812
  31
0
  0
LINE
  8
0
  10
2.48973
  20
5.6812
  30
0
  11
2.49679
  21
5.69519
  31
0
  0
LINE
  8
0
  10
2.49679
  20
5.69519
  30
0
  11
2.50525
  21
5.72178
  31
0
  0
LINE
  8
0
  10
2.50525
  20
5.72178
  30
0
  11
2.51251
  21
5.74802
  31
0
  0
LINE
  8
0
  10
2.51251
  20
5.74802
  30
0
  11
2.51069
  21
5.7722
  31
0
  0
LINE
  8
0
  10
2.51069
  20
5.7722
  30
0
  11
2.51063
  21
5.82132
  31
0
  0
LINE
  8
0
  10
2.51063
  20
5.82132
  30
0
  11
2.51418
  21
5.87117
  31
0
  0
LINE
  8
0
  10
2.51418
  20
5.87117
  30
0
  11
2.52076
  21
5.92159
  31
0
  0
LINE
  8
0
  10
2.52076
  20
5.92159
  30
0
  11
2.53003
  21
5.97244
  31
0
  0
LINE
  8
0
  10
2.53003
  20
5.97244
  30
0
  11
2.54181
  21
6.02366
  31
0
  0
LINE
  8
0
  10
2.54181
  20
6.02366
  30
0
  11
2.55596
  21
6.07516
  31
0
  0
LINE
  8
0
  10
2.55596
  20
6.07516
  30
0
  11
2.57239
  21
6.12687
  31
0
  0
LINE
  8
0
  10
2.57239
  20
6.12687
  30
0
  11
2.58615
  21
6.16577
  31
0
  0
LINE
  8
0
  10
2.58615
  20
6.16577
  30
0
  11
2.8889
  21
6.20187
  31
0
  0
LINE
  8
0
  10
2.8889
  20
6.20187
  30
0
  11
2.91142
  21
6.1673
  31
0
  0
LINE
  8
0
  10
2.91142
  20
6.1673
  30
0
  11
2.93955
  21
6.1209
  31
0
  0
LINE
  8
0
  10
2.93955
  20
6.1209
  30
0
  11
2.96541
  21
6.07417
  31
0
  0
LINE
  8
0
  10
2.96541
  20
6.07417
  30
0
  11
2.9889
  21
6.02716
  31
0
  0
LINE
  8
0
  10
2.9889
  20
6.02716
  30
0
  11
3.00988
  21
5.97991
  31
0
  0
LINE
  8
0
  10
3.00988
  20
5.97991
  30
0
  11
3.02812
  21
5.93246
  31
0
  0
LINE
  8
0
  10
3.02812
  20
5.93246
  30
0
  11
3.0433
  21
5.88484
  31
0
  0
LINE
  8
0
  10
3.0433
  20
5.88484
  30
0
  11
3.05479
  21
5.83708
  31
0
  0
LINE
  8
0
  10
3.05479
  20
5.83708
  30
0
  11
3.0587
  21
5.81315
  31
0
  0
LINE
  8
0
  10
3.0587
  20
5.81315
  30
0
  11
3.07193
  21
5.78935
  31
0
  0
LINE
  8
0
  10
3.07193
  20
5.78935
  30
0
  11
3.0864
  21
5.7655
  31
0
  0
LINE
  8
0
  10
3.0864
  20
5.7655
  30
0
  11
3.09656
  21
5.75356
  31
0
  0
LINE
  8
0
  10
3.09656
  20
5.75356
  30
0
  11
3.1107
  21
5.74157
  31
0
  0
LINE
  8
0
  10
3.1107
  20
5.74157
  30
0
  11
3.14742
  21
5.72923
  31
0
  0
LINE
  8
0
  10
3.14742
  20
5.72923
  30
0
  11
3.35478
  21
5.71764
  31
0
  0
LINE
  8
0
  10
3.35478
  20
5.71764
  30
0
  11
3.39264
  21
5.7258
  31
0
  0
LINE
  8
0
  10
3.39264
  20
5.7258
  30
0
  11
3.40804
  21
5.73614
  31
0
  0
LINE
  8
0
  10
3.40804
  20
5.73614
  30
0
  11
3.41946
  21
5.74688
  31
0
  0
LINE
  8
0
  10
3.41946
  20
5.74688
  30
0
  11
3.4365
  21
5.76897
  31
0
  0
LINE
  8
0
  10
3.4365
  20
5.76897
  30
0
  11
3.4523
  21
5.79115
  31
0
  0
LINE
  8
0
  10
3.4523
  20
5.79115
  30
0
  11
3.45885
  21
5.81449
  31
0
  0
LINE
  8
0
  10
3.45885
  20
5.81449
  30
0
  11
3.4756
  21
5.86067
  31
0
  0
LINE
  8
0
  10
3.4756
  20
5.86067
  30
0
  11
3.49599
  21
5.9063
  31
0
  0
LINE
  8
0
  10
3.49599
  20
5.9063
  30
0
  11
3.51941
  21
5.95142
  31
0
  0
LINE
  8
0
  10
3.51941
  20
5.95142
  30
0
  11
3.54552
  21
5.99604
  31
0
  0
LINE
  8
0
  10
3.54552
  20
5.99604
  30
0
  11
3.5741
  21
6.04014
  31
0
  0
LINE
  8
0
  10
3.5741
  20
6.04014
  30
0
  11
3.60501
  21
6.08369
  31
0
  0
LINE
  8
0
  10
3.60501
  20
6.08369
  30
0
  11
3.63814
  21
6.12667
  31
0
  0
LINE
  8
0
  10
3.63814
  20
6.12667
  30
0
  11
3.66437
  21
6.15851
  31
0
  0
LINE
  8
0
  10
3.66437
  20
6.15851
  30
0
  11
3.96121
  21
6.08889
  31
0
  0
LINE
  8
0
  10
3.96121
  20
6.08889
  30
0
  11
3.97055
  21
6.0487
  31
0
  0
LINE
  8
0
  10
3.97055
  20
6.0487
  30
0
  11
3.98111
  21
5.99548
  31
0
  0
LINE
  8
0
  10
3.98111
  20
5.99548
  30
0
  11
3.98943
  21
5.94272
  31
0
  0
LINE
  8
0
  10
3.98943
  20
5.94272
  30
0
  11
3.99543
  21
5.89051
  31
0
  0
LINE
  8
0
  10
3.99543
  20
5.89051
  30
0
  11
3.99898
  21
5.83894
  31
0
  0
LINE
  8
0
  10
3.99898
  20
5.83894
  30
0
  11
3.99989
  21
5.78811
  31
0
  0
LINE
  8
0
  10
3.99989
  20
5.78811
  30
0
  11
3.99787
  21
5.73817
  31
0
  0
LINE
  8
0
  10
3.99787
  20
5.73817
  30
0
  11
3.99233
  21
5.68936
  31
0
  0
LINE
  8
0
  10
3.99233
  20
5.68936
  30
0
  11
3.98783
  21
5.66554
  31
0
  0
LINE
  8
0
  10
3.98783
  20
5.66554
  30
0
  11
3.99211
  21
5.63865
  31
0
  0
LINE
  8
0
  10
3.99211
  20
5.63865
  30
0
  11
3.99756
  21
5.61129
  31
0
  0
LINE
  8
0
  10
3.99756
  20
5.61129
  30
0
  11
4.00301
  21
5.59659
  31
0
  0
LINE
  8
0
  10
4.00301
  20
5.59659
  30
0
  11
4.01221
  21
5.58049
  31
0
  0
LINE
  8
0
  10
4.01221
  20
5.58049
  30
0
  11
4.04248
  21
5.55634
  31
0
  0
LINE
  8
0
  10
4.04248
  20
5.55634
  30
0
  11
4.23338
  21
5.47452
  31
0
  0
LINE
  8
0
  10
4.23338
  20
5.47452
  30
0
  11
4.27175
  21
5.46925
  31
0
  0
LINE
  8
0
  10
4.27175
  20
5.46925
  30
0
  11
4.28975
  21
5.47369
  31
0
  0
LINE
  8
0
  10
4.28975
  20
5.47369
  30
0
  11
4.30416
  21
5.47988
  31
0
  0
LINE
  8
0
  10
4.30416
  20
5.47988
  30
0
  11
4.32773
  21
5.49481
  31
0
  0
LINE
  8
0
  10
4.32773
  20
5.49481
  30
0
  11
4.35016
  21
5.51025
  31
0
  0
LINE
  8
0
  10
4.35016
  20
5.51025
  30
0
  11
4.3643
  21
5.52993
  31
0
  0
LINE
  8
0
  10
4.3643
  20
5.52993
  30
0
  11
4.39583
  21
5.5676
  31
0
  0
LINE
  8
0
  10
4.39583
  20
5.5676
  30
0
  11
4.4306
  21
5.60351
  31
0
  0
LINE
  8
0
  10
4.4306
  20
5.60351
  30
0
  11
4.46804
  21
5.6379
  31
0
  0
LINE
  8
0
  10
4.46804
  20
5.6379
  30
0
  11
4.50783
  21
5.6709
  31
0
  0
LINE
  8
0
  10
4.50783
  20
5.6709
  30
0
  11
4.54978
  21
5.70256
  31
0
  0
LINE
  8
0
  10
4.54978
  20
5.70256
  30
0
  11
4.59372
  21
5.73291
  31
0
  0
LINE
  8
0
  10
4.59372
  20
5.73291
  30
0
  11
4.63954
  21
5.76197
  31
0
  0
LINE
  8
0
  10
4.63954
  20
5.76197
  30
0
  11
4.67509
  21
5.78292
  31
0
  0
LINE
  8
0
  10
4.67509
  20
5.78292
  30
0
  11
4.93021
  21
5.61597
  31
0
  0
LINE
  8
0
  10
4.93021
  20
5.61597
  30
0
  11
4.92525
  21
5.57501
  31
0
  0
LINE
  8
0
  10
4.92525
  20
5.57501
  30
0
  11
4.91696
  21
5.52139
  31
0
  0
LINE
  8
0
  10
4.91696
  20
5.52139
  30
0
  11
4.90674
  21
5.46897
  31
0
  0
LINE
  8
0
  10
4.90674
  20
5.46897
  30
0
  11
4.89452
  21
5.41786
  31
0
  0
LINE
  8
0
  10
4.89452
  20
5.41786
  30
0
  11
4.88022
  21
5.36818
  31
0
  0
LINE
  8
0
  10
4.88022
  20
5.36818
  30
0
  11
4.86369
  21
5.3201
  31
0
  0
LINE
  8
0
  10
4.86369
  20
5.3201
  30
0
  11
4.8447
  21
5.27387
  31
0
  0
LINE
  8
0
  10
4.8447
  20
5.27387
  30
0
  11
4.82281
  21
5.22989
  31
0
  0
LINE
  8
0
  10
4.82281
  20
5.22989
  30
0
  11
4.81043
  21
5.20905
  31
0
  0
LINE
  8
0
  10
4.81043
  20
5.20905
  30
0
  11
4.80526
  21
5.18232
  31
0
  0
LINE
  8
0
  10
4.80526
  20
5.18232
  30
0
  11
4.80102
  21
5.15474
  31
0
  0
LINE
  8
0
  10
4.80102
  20
5.15474
  30
0
  11
4.80112
  21
5.13907
  31
0
  0
LINE
  8
0
  10
4.80112
  20
5.13907
  30
0
  11
4.80425
  21
5.12079
  31
0
  0
LINE
  8
0
  10
4.80425
  20
5.12079
  30
0
  11
4.82444
  21
5.08774
  31
0
  0
LINE
  8
0
  10
4.82444
  20
5.08774
  30
0
  11
4.97584
  21
4.94557
  31
0
  0
LINE
  8
0
  10
4.97584
  20
4.94557
  30
0
  11
5.01009
  21
4.92749
  31
0
  0
LINE
  8
0
  10
5.01009
  20
4.92749
  30
0
  11
5.02853
  21
4.92551
  31
0
  0
LINE
  8
0
  10
5.02853
  20
4.92551
  30
0
  11
5.04418
  21
4.9264
  31
0
  0
LINE
  8
0
  10
5.04418
  20
4.9264
  30
0
  11
5.07144
  21
4.93236
  31
0
  0
LINE
  8
0
  10
5.07144
  20
4.93236
  30
0
  11
5.09779
  21
4.9392
  31
0
  0
LINE
  8
0
  10
5.09779
  20
4.9392
  30
0
  11
5.11782
  21
4.95286
  31
0
  0
LINE
  8
0
  10
5.11782
  20
4.95286
  30
0
  11
5.16033
  21
4.97747
  31
0
  0
LINE
  8
0
  10
5.16033
  20
4.97747
  30
0
  11
5.20528
  21
4.99932
  31
0
  0
LINE
  8
0
  10
5.20528
  20
4.99932
  30
0
  11
5.25223
  21
5.01884
  31
0
  0
LINE
  8
0
  10
5.25223
  20
5.01884
  30
0
  11
5.30091
  21
5.03623
  31
0
  0
LINE
  8
0
  10
5.30091
  20
5.03623
  30
0
  11
5.35115
  21
5.05164
  31
0
  0
LINE
  8
0
  10
5.35115
  20
5.05164
  30
0
  11
5.40283
  21
5.06513
  31
0
  0
LINE
  8
0
  10
5.40283
  20
5.06513
  30
0
  11
5.45583
  21
5.07677
  31
0
  0
LINE
  8
0
  10
5.45583
  20
5.07677
  30
0
  11
5.49639
  21
5.0843
  31
0
  0
LINE
  8
0
  10
5.49639
  20
5.0843
  30
0
  11
5.67903
  21
4.84016
  31
0
  0
LINE
  8
0
  10
5.67903
  20
4.84016
  30
0
  11
5.66036
  21
4.80337
  31
0
  0
LINE
  8
0
  10
5.66036
  20
4.80337
  30
0
  11
5.63423
  21
4.75581
  31
0
  0
LINE
  8
0
  10
5.63423
  20
4.75581
  30
0
  11
5.60669
  21
4.71005
  31
0
  0
LINE
  8
0
  10
5.60669
  20
4.71005
  30
0
  11
5.57773
  21
4.6662
  31
0
  0
LINE
  8
0
  10
5.57773
  20
4.6662
  30
0
  11
5.5473
  21
4.62441
  31
0
  0
LINE
  8
0
  10
5.5473
  20
4.62441
  30
0
  11
5.51532
  21
4.58488
  31
0
  0
LINE
  8
0
  10
5.51532
  20
4.58488
  30
0
  11
5.48167
  21
4.54793
  31
0
  0
LINE
  8
0
  10
5.48167
  20
4.54793
  30
0
  11
5.44606
  21
4.5141
  31
0
  0
LINE
  8
0
  10
5.44606
  20
4.5141
  30
0
  11
5.4273
  21
4.49874
  31
0
  0
LINE
  8
0
  10
5.4273
  20
4.49874
  30
0
  11
5.4133
  21
4.47539
  31
0
  0
LINE
  8
0
  10
5.4133
  20
4.47539
  30
0
  11
5.39988
  21
4.45093
  31
0
  0
LINE
  8
0
  10
5.39988
  20
4.45093
  30
0
  11
5.39461
  21
4.43616
  31
0
  0
LINE
  8
0
  10
5.39461
  20
4.43616
  30
0
  11
5.3913
  21
4.41792
  31
0
  0
LINE
  8
0
  10
5.3913
  20
4.41792
  30
0
  11
5.39897
  21
4.37996
  31
0
  0
LINE
  8
0
  10
5.39897
  20
4.37996
  30
0
  11
5.49262
  21
4.19457
  31
0
  0
LINE
  8
0
  10
5.49262
  20
4.19457
  30
0
  11
5.51862
  21
4.16587
  31
0
  0
LINE
  8
0
  10
5.51862
  20
4.16587
  30
0
  11
5.53527
  21
4.15771
  31
0
  0
LINE
  8
0
  10
5.53527
  20
4.15771
  30
0
  11
5.55028
  21
4.15319
  31
0
  0
LINE
  8
0
  10
5.55028
  20
4.15319
  30
0
  11
5.57793
  21
4.14947
  31
0
  0
LINE
  8
0
  10
5.57793
  20
4.14947
  30
0
  11
5.60503
  21
4.14688
  31
0
  0
LINE
  8
0
  10
5.60503
  20
4.14688
  30
0
  11
5.62853
  21
4.15287
  31
0
  0
LINE
  8
0
  10
5.62853
  20
4.15287
  30
0
  11
5.67689
  21
4.16146
  31
0
  0
LINE
  8
0
  10
5.67689
  20
4.16146
  30
0
  11
5.7266
  21
4.16662
  31
0
  0
LINE
  8
0
  10
5.7266
  20
4.16662
  30
0
  11
5.77739
  21
4.1689
  31
0
  0
LINE
  8
0
  10
5.77739
  20
4.1689
  30
0
  11
5.82909
  21
4.1686
  31
0
  0
LINE
  8
0
  10
5.82909
  20
4.1686
  30
0
  11
5.88157
  21
4.16589
  31
0
  0
LINE
  8
0
  10
5.88157
  20
4.16589
  30
0
  11
5.93474
  21
4.1609
  31
0
  0
LINE
  8
0
  10
5.93474
  20
4.1609
  30
0
  11
5.98853
  21
4.1537
  31
0
  0
LINE
  8
0
  10
5.98853
  20
4.1537
  30
0
  11
6.02922
  21
4.1469
  31
0
  0
LINE
  8
0
  10
6.02922
  20
4.1469
  30
0
  11
6.11735
  21
3.85502
  31
0
  0
LINE
  8
0
  10
6.11735
  20
3.85502
  30
0
  11
6.08721
  21
3.82684
  31
0
  0
LINE
  8
0
  10
6.08721
  20
3.82684
  30
0
  11
6.0464
  21
3.79108
  31
0
  0
LINE
  8
0
  10
6.0464
  20
3.79108
  30
0
  11
6.00487
  21
3.7575
  31
0
  0
LINE
  8
0
  10
6.00487
  20
3.7575
  30
0
  11
5.96266
  21
3.7262
  31
0
  0
LINE
  8
0
  10
5.96266
  20
3.7262
  30
0
  11
5.91977
  21
3.69734
  31
0
  0
LINE
  8
0
  10
5.91977
  20
3.69734
  30
0
  11
5.8762
  21
3.67113
  31
0
  0
LINE
  8
0
  10
5.8762
  20
3.67113
  30
0
  11
5.83194
  21
3.64791
  31
0
  0
LINE
  8
0
  10
5.83194
  20
3.64791
  30
0
  11
5.7869
  21
3.6283
  31
0
  0
LINE
  8
0
  10
5.7869
  20
3.6283
  30
0
  11
5.76402
  21
3.62029
  31
0
  0
LINE
  8
0
  10
5.76402
  20
3.62029
  30
0
  11
5.74288
  21
3.60314
  31
0
  0
LINE
  8
0
  10
5.74288
  20
3.60314
  30
0
  11
5.7219
  21
3.58474
  31
0
  0
LINE
  8
0
  10
5.7219
  20
3.58474
  30
0
  11
5.7119
  21
3.57267
  31
0
  0
LINE
  8
0
  10
5.7119
  20
3.57267
  30
0
  11
5.70255
  21
3.55665
  31
0
  0
LINE
  8
0
  10
5.70255
  20
3.55665
  30
0
  11
5.69678
  21
3.51836
  31
0
  0
LINE
  8
0
  10
5.69678
  20
3.51836
  30
0
  11
5.72137
  21
3.31213
  31
0
  0
LINE
  8
0
  10
4.32785
  20
3.33677
  30
0
  11
4.32785
  21
3.33677
  31
0
  0
LINE
  8
0
  10
4.32785
  20
3.33677
  30
0
  11
5.12241
  21
3.29235
  31
0
  0
LINE
  8
0
  10
5.12241
  20
3.29235
  30
0
  11
5.25432
  21
3.43521
  31
0
  0
LINE
  8
0
  10
5.25432
  20
3.43521
  30
0
  11
5.22594
  21
3.58472
  31
0
  0
LINE
  8
0
  10
5.22594
  20
3.58472
  30
0
  11
5.18718
  21
3.73188
  31
0
  0
LINE
  8
0
  10
5.18718
  20
3.73188
  30
0
  11
5.13823
  21
3.87596
  31
0
  0
LINE
  8
0
  10
5.13823
  20
3.87596
  30
0
  11
5.07932
  21
4.01627
  31
0
  0
LINE
  8
0
  10
5.07932
  20
4.01627
  30
0
  11
5.01074
  21
4.15212
  31
0
  0
LINE
  8
0
  10
5.01074
  20
4.15212
  30
0
  11
4.93283
  21
4.28284
  31
0
  0
LINE
  8
0
  10
4.93283
  20
4.28284
  30
0
  11
4.84597
  21
4.4078
  31
0
  0
LINE
  8
0
  10
4.84597
  20
4.4078
  30
0
  11
4.75058
  21
4.52637
  31
0
  0
LINE
  8
0
  10
4.75058
  20
4.52637
  30
0
  11
4.64714
  21
4.63798
  31
0
  0
LINE
  8
0
  10
4.64714
  20
4.63798
  30
0
  11
4.53614
  21
4.74209
  31
0
  0
LINE
  8
0
  10
4.53614
  20
4.74209
  30
0
  11
4.41814
  21
4.83818
  31
0
  0
LINE
  8
0
  10
4.41814
  20
4.83818
  30
0
  11
4.29371
  21
4.92578
  31
0
  0
LINE
  8
0
  10
4.29371
  20
4.92578
  30
0
  11
4.10912
  21
4.86467
  31
0
  0
LINE
  8
0
  10
4.10912
  20
4.86467
  30
0
  11
3.82134
  21
4.12273
  31
0
  0
LINE
  8
0
  10
3.82134
  20
4.12273
  30
0
  11
3.88721
  21
3.87777
  31
0
  0
LINE
  8
0
  10
3.88721
  20
3.87777
  30
0
  11
3.98606
  21
3.76286
  31
0
  0
LINE
  8
0
  10
3.98606
  20
3.76286
  30
0
  11
4.06817
  21
3.63545
  31
0
  0
LINE
  8
0
  10
4.06817
  20
3.63545
  30
0
  11
4.13199
  21
3.49796
  31
0
  0
LINE
  8
0
  10
4.13199
  20
3.49796
  30
0
  11
4.32785
  21
3.33677
  31
0
  0
LINE
  8
0
  10
3.26194
  20
4.3397
  30
0
  11
3.26194
  21
4.3397
  31
0
  0
LINE
  8
0
  10
3.26194
  20
4.3397
  30
0
  11
3.54972
  21
5.08165
  31
0
  0
LINE
  8
0
  10
3.54972
  20
5.08165
  30
0
  11
3.45462
  21
5.25124
  31
0
  0
LINE
  8
0
  10
3.45462
  20
5.25124
  30
0
  11
3.30366
  21
5.27046
  31
0
  0
LINE
  8
0
  10
3.30366
  20
5.27046
  30
0
  11
3.15173
  21
5.27907
  31
0
  0
LINE
  8
0
  10
3.15173
  20
5.27907
  30
0
  11
2.99956
  21
5.27704
  31
0
  0
LINE
  8
0
  10
2.99956
  20
5.27704
  30
0
  11
2.84791
  21
5.26437
  31
0
  0
LINE
  8
0
  10
2.84791
  20
5.26437
  30
0
  11
2.69752
  21
5.24112
  31
0
  0
LINE
  8
0
  10
2.69752
  20
5.24112
  30
0
  11
2.54912
  21
5.20742
  31
0
  0
LINE
  8
0
  10
2.54912
  20
5.20742
  30
0
  11
2.40344
  21
5.16343
  31
0
  0
LINE
  8
0
  10
2.40344
  20
5.16343
  30
0
  11
2.2612
  21
5.10935
  31
0
  0
LINE
  8
0
  10
2.2612
  20
5.10935
  30
0
  11
2.12308
  21
5.04546
  31
0
  0
LINE
  8
0
  10
2.12308
  20
5.04546
  30
0
  11
1.98977
  21
4.97207
  31
0
  0
LINE
  8
0
  10
1.98977
  20
4.97207
  30
0
  11
1.86192
  21
4.88953
  31
0
  0
LINE
  8
0
  10
1.86192
  20
4.88953
  30
0
  11
1.74016
  21
4.79826
  31
0
  0
LINE
  8
0
  10
1.74016
  20
4.79826
  30
0
  11
1.74123
  21
4.60382
  31
0
  0
LINE
  8
0
  10
1.74123
  20
4.60382
  30
0
  11
2.35793
  21
4.10085
  31
0
  0
LINE
  8
0
  10
2.35793
  20
4.10085
  30
0
  11
2.61126
  21
4.08781
  31
0
  0
LINE
  8
0
  10
2.61126
  20
4.08781
  30
0
  11
2.75109
  21
4.14631
  31
0
  0
LINE
  8
0
  10
2.75109
  20
4.14631
  30
0
  11
2.89764
  21
4.18503
  31
0
  0
LINE
  8
0
  10
2.89764
  20
4.18503
  30
0
  11
3.04812
  21
4.20323
  31
0
  0
LINE
  8
0
  10
3.04812
  20
4.20323
  30
0
  11
3.26194
  21
4.3397
  31
0
  0
LINE
  8
0
  10
1.97871
  20
3.63589
  30
0
  11
1.97871
  21
3.63589
  31
0
  0
LINE
  8
0
  10
1.97871
  20
3.63589
  30
0
  11
1.36201
  21
4.13885
  31
0
  0
LINE
  8
0
  10
1.36201
  20
4.13885
  30
0
  11
1.17133
  21
4.10081
  31
0
  0
LINE
  8
0
  10
1.17133
  20
4.10081
  30
0
  11
1.10641
  21
3.96318
  31
0
  0
LINE
  8
0
  10
1.10641
  20
3.96318
  30
0
  11
1.05127
  21
3.82134
  31
0
  0
LINE
  8
0
  10
1.05127
  20
3.82134
  30
0
  11
1.00618
  21
3.676
  31
0
  0
LINE
  8
0
  10
1.00618
  20
3.676
  30
0
  11
0.97137
  21
3.52786
  31
0
  0
LINE
  8
0
  10
0.97137
  20
3.52786
  30
0
  11
0.947
  21
3.37764
  31
0
  0
LINE
  8
0
  10
0.947
  20
3.37764
  30
0
  11
0.93319
  21
3.22609
  31
0
  0
LINE
  8
0
  10
0.93319
  20
3.22609
  30
0
  11
0.93002
  21
3.07395
  31
0
  0
LINE
  8
0
  10
0.93002
  20
3.07395
  30
0
  11
0.93749
  21
2.92196
  31
0
  0
LINE
  8
0
  10
0.93749
  20
2.92196
  30
0
  11
0.95557
  21
2.77086
  31
0
  0
LINE
  8
0
  10
0.95557
  20
2.77086
  30
0
  11
0.98418
  21
2.62139
  31
0
  0
LINE
  8
0
  10
0.98418
  20
2.62139
  30
0
  11
1.02316
  21
2.4743
  31
0
  0
LINE
  8
0
  10
1.02316
  20
2.4743
  30
0
  11
1.07234
  21
2.33028
  31
0
  0
LINE
  8
0
  10
1.07234
  20
2.33028
  30
0
  11
1.2576
  21
2.27122
  31
0
  0
LINE
  8
0
  10
1.2576
  20
2.27122
  30
0
  11
1.92652
  21
2.70231
  31
0
  0
LINE
  8
0
  10
1.92652
  20
2.70231
  30
0
  11
2.01721
  21
2.93921
  31
0
  0
LINE
  8
0
  10
2.01721
  20
2.93921
  30
0
  11
2.00478
  21
3.09028
  31
0
  0
LINE
  8
0
  10
2.00478
  20
3.09028
  30
0
  11
2.01324
  21
3.24162
  31
0
  0
LINE
  8
0
  10
2.01324
  20
3.24162
  30
0
  11
2.04243
  21
3.39036
  31
0
  0
LINE
  8
0
  10
2.04243
  20
3.39036
  30
0
  11
1.97871
  21
3.63589
  31
0
  0
LINE
  8
0
  10
2.25154
  20
2.19797
  30
0
  11
2.25154
  21
2.19797
  31
0
  0
LINE
  8
0
  10
2.25154
  20
2.19797
  30
0
  11
1.58262
  21
1.76688
  31
0
  0
LINE
  8
0
  10
1.58262
  20
1.76688
  30
0
  11
1.55988
  21
1.57377
  31
0
  0
LINE
  8
0
  10
1.55988
  20
1.57377
  30
0
  11
1.67071
  21
1.4695
  31
0
  0
LINE
  8
0
  10
1.67071
  20
1.4695
  30
0
  11
1.78857
  21
1.37323
  31
0
  0
LINE
  8
0
  10
1.78857
  20
1.37323
  30
0
  11
1.91287
  21
1.28543
  31
0
  0
LINE
  8
0
  10
1.91287
  20
1.28543
  30
0
  11
2.043
  21
1.20654
  31
0
  0
LINE
  8
0
  10
2.043
  20
1.20654
  30
0
  11
2.17833
  21
1.13695
  31
0
  0
LINE
  8
0
  10
2.17833
  20
1.13695
  30
0
  11
2.3182
  21
1.07699
  31
0
  0
LINE
  8
0
  10
2.3182
  20
1.07699
  30
0
  11
2.46191
  21
1.02695
  31
0
  0
LINE
  8
0
  10
2.46191
  20
1.02695
  30
0
  11
2.60878
  21
0.98709
  31
0
  0
LINE
  8
0
  10
2.60878
  20
0.98709
  30
0
  11
2.75807
  21
0.9576
  31
0
  0
LINE
  8
0
  10
2.75807
  20
0.9576
  30
0
  11
2.90906
  21
0.93862
  31
0
  0
LINE
  8
0
  10
2.90906
  20
0.93862
  30
0
  11
3.061
  21
0.93024
  31
0
  0
LINE
  8
0
  10
3.061
  20
0.93024
  30
0
  11
3.21316
  21
0.93251
  31
0
  0
LINE
  8
0
  10
3.21316
  20
0.93251
  30
0
  11
3.32658
  21
1.09045
  31
0
  0
LINE
  8
0
  10
3.32658
  20
1.09045
  30
0
  11
3.1233
  21
1.85984
  31
0
  0
LINE
  8
0
  10
3.1233
  20
1.85984
  30
0
  11
2.92602
  21
2.0193
  31
0
  0
LINE
  8
0
  10
2.92602
  20
2.0193
  30
0
  11
2.77851
  21
2.05416
  31
0
  0
LINE
  8
0
  10
2.77851
  20
2.05416
  30
0
  11
2.63719
  21
2.10898
  31
0
  0
LINE
  8
0
  10
2.63719
  20
2.10898
  30
0
  11
2.50474
  21
2.1827
  31
0
  0
LINE
  8
0
  10
2.50474
  20
2.1827
  30
0
  11
2.25154
  21
2.19797
  31
0
  0
LINE
  8
0
  10
3.70339
  20
2.01311
  30
0
  11
3.70339
  21
2.01311
  31
0
  0
LINE
  8
0
  10
3.70339
  20
2.01311
  30
0
  11
3.90667
  21
1.24371
  31
0
  0
LINE
  8
0
  10
3.90667
  20
1.24371
  30
0
  11
4.0833
  21
1.16241
  31
0
  0
LINE
  8
0
  10
4.0833
  20
1.16241
  30
0
  11
4.21673
  21
1.23559
  31
0
  0
LINE
  8
0
  10
4.21673
  20
1.23559
  30
0
  11
4.3447
  21
1.31793
  31
0
  0
LINE
  8
0
  10
4.3447
  20
1.31793
  30
0
  11
4.46661
  21
1.40902
  31
0
  0
LINE
  8
0
  10
4.46661
  20
1.40902
  30
0
  11
4.58185
  21
1.5084
  31
0
  0
LINE
  8
0
  10
4.58185
  20
1.5084
  30
0
  11
4.68986
  21
1.6156
  31
0
  0
LINE
  8
0
  10
4.68986
  20
1.6156
  30
0
  11
4.79011
  21
1.7301
  31
0
  0
LINE
  8
0
  10
4.79011
  20
1.7301
  30
0
  11
4.8821
  21
1.85132
  31
0
  0
LINE
  8
0
  10
4.8821
  20
1.85132
  30
0
  11
4.9654
  21
1.97867
  31
0
  0
LINE
  8
0
  10
4.9654
  20
1.97867
  30
0
  11
5.03958
  21
2.11155
  31
0
  0
LINE
  8
0
  10
5.03958
  20
2.11155
  30
0
  11
5.10429
  21
2.24928
  31
0
  0
LINE
  8
0
  10
5.10429
  20
2.24928
  30
0
  11
5.15921
  21
2.3912
  31
0
  0
LINE
  8
0
  10
5.15921
  20
2.3912
  30
0
  11
5.20408
  21
2.53661
  31
0
  0
LINE
  8
0
  10
5.20408
  20
2.53661
  30
0
  11
5.08892
  21
2.69328
  31
0
  0
LINE
  8
0
  10
5.08892
  20
2.69328
  30
0
  11
4.29436
  21
2.73771
  31
0
  0
LINE
  8
0
  10
4.29436
  20
2.73771
  30
0
  11
4.08175
  21
2.59936
  31
0
  0
LINE
  8
0
  10
4.08175
  20
2.59936
  30
0
  11
4.003
  21
2.46984
  31
0
  0
LINE
  8
0
  10
4.003
  20
2.46984
  30
0
  11
3.9072
  21
2.35238
  31
0
  0
LINE
  8
0
  10
3.9072
  20
2.35238
  30
0
  11
3.79616
  21
2.2492
  31
0
  0
LINE
  8
0
  10
3.79616
  20
2.2492
  30
0
  11
3.70339
  21
2.01311
  31
0
  0
LINE
  8
0
  10
3.60469
  20
3.10469
  30
0
  11
3.60469
  21
3.10469
  31
0
  0
LINE
  8
0
  10
3.60469
  20
3.10469
  30
0
  11
3.58765
  21
3.2341
  31
0
  0
LINE
  8
0
  10
3.58765
  20
3.2341
  30
0
  11
3.5377
  21
3.35469
  31
0
  0
LINE
  8
0
  10
3.5377
  20
3.35469
  30
0
  11
3.45824
  21
3.45824
  31
0
  0
LINE
  8
0
  10
3.45824
  20
3.45824
  30
0
  11
3.35469
  21
3.5377
  31
0
  0
LINE
  8
0
  10
3.35469
  20
3.5377
  30
0
  11
3.2341
  21
3.58765
  31
0
  0
LINE
  8
0
  10
3.2341
  20
3.58765
  30
0
  11
3.10469
  21
3.60469
  31
0
  0
LINE
  8
0
  10
3.10469
  20
3.60469
  30
0
  11
2.97528
  21
3.58765
  31
0
  0
LINE
  8
0
  10
2.97528
  20
3.58765
  30
0
  11
2.85469
  21
3.5377
  31
0
  0
LINE
  8
0
  10
2.85469
  20
3.5377
  30
0
  11
2.75114
  21
3.45824
  31
0
  0
LINE
  8
0
  10
2.75114
  20
3.45824
  30
0
  11
2.67168
  21
3.35469
  31
0
  0
LINE
  8
0
  10
2.67168
  20
3.35469
  30
0
  11
2.62173
  21
3.2341
  31
0
  0
LINE
  8
0
  10
2.62173
  20
3.2341
  30
0
  11
2.60469
  21
3.10469
  31
0
  0
LINE
  8
0
  10
2.60469
  20
3.10469
  30
0
  11
2.62173
  21
2.97528
  31
0
  0
LINE
  8
0
  10
2.62173
  20
2.97528
  30
0
  11
2.67168
  21
2.85469
  31
0
  0
LINE
  8
0
  10
2.67168
  20
2.85469
  30
0
  11
2.75114
  21
2.75114
  31
0
  0
LINE
  8
0
  10
2.75114
  20
2.75114
  30
0
  11
2.85469
  21
2.67168
  31
0
  0
LINE
  8
0
  10
2.85469
  20
2.67168
  30
0
  11
2.97528
  21
2.62173
  31
0
  0
LINE
  8
0
  10
2.97528
  20
2.62173
  30
0
  11
3.10469
  21
2.60469
  31
0
  0
LINE
  8
0
  10
3.10469
  20
2.60469
  30
0
  11
3.2341
  21
2.62173
  31
0
  0
LINE
  8
0
  10
3.2341
  20
2.62173
  30
0
  11
3.35469
  21
2.67168
  31
0
  0
LINE
  8
0
  10
3.35469
  20
2.67168
  30
0
  11
3.45824
  21
2.75114
  31
0
  0
LINE
  8
0
  10
3.45824
  20
2.75114
  30
0
  11
3.5377
  21
2.85469
  31
0
  0
LINE
  8
0
  10
3.5377
  20
2.85469
  30
0
  11
3.58765
  21
2.97528
  31
0
  0
LINE
  8
0
  10
3.58765
  20
2.97528
  30
0
  11
3.60469
  21
3.10469
  31
0
  0
LINE
  8
0
  10
3.60469
  20
3.10469
  30
0
  11
3.60469
  21
3.10469
  31
0
  0
LINE
  8
0
  10
6.21939
  20
2.98544
  30
0
  11
6.21939
  21
2.98544
  31
0
  0
LINE
  8
0
  10
6.21939
  20
2.98544
  30
0
  11
6.20153
  21
3.1195
  31
0
  0
LINE
  8
0
  10
6.20153
  20
3.1195
  30
0
  11
6.19386
  21
3.13096
  31
0
  0
LINE
  8
0
  10
6.19386
  20
3.13096
  30
0
  11
6.1862
  21
3.13931
  31
0
  0
LINE
  8
0
  10
6.1862
  20
3.13931
  30
0
  11
6.17853
  21
3.14598
  31
0
  0
LINE
  8
0
  10
6.17853
  20
3.14598
  30
0
  11
6.17085
  21
3.15153
  31
0
  0
LINE
  8
0
  10
6.17085
  20
3.15153
  30
0
  11
6.15541
  21
3.16028
  31
0
  0
LINE
  8
0
  10
6.15541
  20
3.16028
  30
0
  11
6.13986
  21
3.16679
  31
0
  0
LINE
  8
0
  10
6.13986
  20
3.16679
  30
0
  11
6.12421
  21
3.17162
  31
0
  0
LINE
  8
0
  10
6.12421
  20
3.17162
  30
0
  11
6.10845
  21
3.17509
  31
0
  0
LINE
  8
0
  10
6.10845
  20
3.17509
  30
0
  11
6.07666
  21
3.17867
  31
0
  0
LINE
  8
0
  10
6.07666
  20
3.17867
  30
0
  11
6.04454
  21
3.1785
  31
0
  0
LINE
  8
0
  10
6.04454
  20
3.1785
  30
0
  11
6.01253
  21
3.17955
  31
0
  0
LINE
  8
0
  10
6.01253
  20
3.17955
  30
0
  11
5.98142
  21
3.19102
  31
0
  0
LINE
  8
0
  10
5.98142
  20
3.19102
  30
0
  11
5.9508
  21
3.2065
  31
0
  0
LINE
  8
0
  10
5.9508
  20
3.2065
  30
0
  11
5.92072
  21
3.22527
  31
0
  0
LINE
  8
0
  10
5.92072
  20
3.22527
  30
0
  11
5.89127
  21
3.247
  31
0
  0
LINE
  8
0
  10
5.89127
  20
3.247
  30
0
  11
5.86255
  21
3.27148
  31
0
  0
LINE
  8
0
  10
5.86255
  20
3.27148
  30
0
  11
5.83465
  21
3.29856
  31
0
  0
LINE
  8
0
  10
5.83465
  20
3.29856
  30
0
  11
5.80769
  21
3.32813
  31
0
  0
LINE
  8
0
  10
5.80769
  20
3.32813
  30
0
  11
5.78177
  21
3.3601
  31
0
  0
LINE
  8
0
  10
5.78177
  20
3.3601
  30
0
  11
5.76307
  21
3.3856
  31
0
  0
LINE
  8
0
  10
5.76307
  20
3.3856
  30
0
  11
5.80452
  21
3.52117
  31
0
  0
LINE
  8
0
  10
5.80452
  20
3.52117
  30
0
  11
5.86173
  21
3.65088
  31
0
  0
LINE
  8
0
  10
5.86173
  20
3.65088
  30
0
  11
5.89254
  21
3.65797
  31
0
  0
LINE
  8
0
  10
5.89254
  20
3.65797
  30
0
  11
5.93306
  21
3.66523
  31
0
  0
LINE
  8
0
  10
5.93306
  20
3.66523
  30
0
  11
5.97279
  21
3.67
  31
0
  0
LINE
  8
0
  10
5.97279
  20
3.67
  30
0
  11
6.0116
  21
3.67227
  31
0
  0
LINE
  8
0
  10
6.0116
  20
3.67227
  30
0
  11
6.04934
  21
3.67204
  31
0
  0
LINE
  8
0
  10
6.04934
  20
3.67204
  30
0
  11
6.08583
  21
3.66924
  31
0
  0
LINE
  8
0
  10
6.08583
  20
3.66924
  30
0
  11
6.12086
  21
3.6638
  31
0
  0
LINE
  8
0
  10
6.12086
  20
3.6638
  30
0
  11
6.15416
  21
3.6555
  31
0
  0
LINE
  8
0
  10
6.15416
  20
3.6555
  30
0
  11
6.1852
  21
3.64386
  31
0
  0
LINE
  8
0
  10
6.1852
  20
3.64386
  30
0
  11
6.21012
  21
3.62374
  31
0
  0
LINE
  8
0
  10
6.21012
  20
3.62374
  30
0
  11
6.23432
  21
3.60262
  31
0
  0
LINE
  8
0
  10
6.23432
  20
3.60262
  30
0
  11
6.26073
  21
3.58456
  31
0
  0
LINE
  8
0
  10
6.26073
  20
3.58456
  30
0
  11
6.27493
  21
3.57689
  31
0
  0
LINE
  8
0
  10
6.27493
  20
3.57689
  30
0
  11
6.28993
  21
3.57032
  31
0
  0
LINE
  8
0
  10
6.28993
  20
3.57032
  30
0
  11
6.30595
  21
3.56509
  31
0
  0
LINE
  8
0
  10
6.30595
  20
3.56509
  30
0
  11
6.32336
  21
3.56162
  31
0
  0
LINE
  8
0
  10
6.32336
  20
3.56162
  30
0
  11
6.3328
  21
3.5608
  31
0
  0
LINE
  8
0
  10
6.3328
  20
3.5608
  30
0
  11
6.34296
  21
3.56084
  31
0
  0
LINE
  8
0
  10
6.34296
  20
3.56084
  30
0
  11
6.35422
  21
3.56216
  31
0
  0
LINE
  8
0
  10
6.35422
  20
3.56216
  30
0
  11
6.36751
  21
3.56582
  31
0
  0
LINE
  8
0
  10
6.36751
  20
3.56582
  30
0
  11
6.46863
  21
3.65563
  31
0
  0
LINE
  8
0
  10
6.46863
  20
3.65563
  30
0
  11
6.46863
  21
3.65563
  31
0
  0
LINE
  8
0
  10
6.46863
  20
3.65563
  30
0
  11
6.46863
  21
3.65563
  31
0
  0
LINE
  8
0
  10
6.46863
  20
3.65563
  30
0
  11
6.5758
  21
3.73812
  31
0
  0
LINE
  8
0
  10
6.5758
  20
3.73812
  30
0
  11
6.58188
  21
3.7505
  31
0
  0
LINE
  8
0
  10
6.58188
  20
3.7505
  30
0
  11
6.58529
  21
3.76131
  31
0
  0
LINE
  8
0
  10
6.58529
  20
3.76131
  30
0
  11
6.58723
  21
3.77128
  31
0
  0
LINE
  8
0
  10
6.58723
  20
3.77128
  30
0
  11
6.58819
  21
3.78071
  31
0
  0
LINE
  8
0
  10
6.58819
  20
3.78071
  30
0
  11
6.58805
  21
3.79846
  31
0
  0
LINE
  8
0
  10
6.58805
  20
3.79846
  30
0
  11
6.58592
  21
3.81518
  31
0
  0
LINE
  8
0
  10
6.58592
  20
3.81518
  30
0
  11
6.58227
  21
3.83115
  31
0
  0
LINE
  8
0
  10
6.58227
  20
3.83115
  30
0
  11
6.5774
  21
3.84653
  31
0
  0
LINE
  8
0
  10
6.5774
  20
3.84653
  30
0
  11
6.5646
  21
3.87585
  31
0
  0
LINE
  8
0
  10
6.5646
  20
3.87585
  30
0
  11
6.54839
  21
3.90358
  31
0
  0
LINE
  8
0
  10
6.54839
  20
3.90358
  30
0
  11
6.5333
  21
3.93183
  31
0
  0
LINE
  8
0
  10
6.5333
  20
3.93183
  30
0
  11
6.52768
  21
3.96451
  31
0
  0
LINE
  8
0
  10
6.52768
  20
3.96451
  30
0
  11
6.52577
  21
3.99877
  31
0
  0
LINE
  8
0
  10
6.52577
  20
3.99877
  30
0
  11
6.52699
  21
4.0342
  31
0
  0
LINE
  8
0
  10
6.52699
  20
4.0342
  30
0
  11
6.53108
  21
4.07057
  31
0
  0
LINE
  8
0
  10
6.53108
  20
4.07057
  30
0
  11
6.53792
  21
4.10768
  31
0
  0
LINE
  8
0
  10
6.53792
  20
4.10768
  30
0
  11
6.54742
  21
4.14538
  31
0
  0
LINE
  8
0
  10
6.54742
  20
4.14538
  30
0
  11
6.55956
  21
4.18352
  31
0
  0
LINE
  8
0
  10
6.55956
  20
4.18352
  30
0
  11
6.57428
  21
4.22195
  31
0
  0
LINE
  8
0
  10
6.57428
  20
4.22195
  30
0
  11
6.58702
  21
4.25089
  31
0
  0
LINE
  8
0
  10
6.58702
  20
4.25089
  30
0
  11
6.72515
  21
4.28279
  31
0
  0
LINE
  8
0
  10
6.72515
  20
4.28279
  30
0
  11
6.86608
  21
4.29809
  31
0
  0
LINE
  8
0
  10
6.86608
  20
4.29809
  30
0
  11
6.88763
  21
4.27495
  31
0
  0
LINE
  8
0
  10
6.88763
  20
4.27495
  30
0
  11
6.91418
  21
4.2435
  31
0
  0
LINE
  8
0
  10
6.91418
  20
4.2435
  30
0
  11
6.93817
  21
4.21147
  31
0
  0
LINE
  8
0
  10
6.93817
  20
4.21147
  30
0
  11
6.95955
  21
4.17899
  31
0
  0
LINE
  8
0
  10
6.95955
  20
4.17899
  30
0
  11
6.97821
  21
4.14619
  31
0
  0
LINE
  8
0
  10
6.97821
  20
4.14619
  30
0
  11
6.99403
  21
4.11319
  31
0
  0
LINE
  8
0
  10
6.99403
  20
4.11319
  30
0
  11
7.00684
  21
4.08013
  31
0
  0
LINE
  8
0
  10
7.00684
  20
4.08013
  30
0
  11
7.0163
  21
4.04715
  31
0
  0
LINE
  8
0
  10
7.0163
  20
4.04715
  30
0
  11
7.02174
  21
4.01444
  31
0
  0
LINE
  8
0
  10
7.02174
  20
4.01444
  30
0
  11
7.01678
  21
3.9828
  31
0
  0
LINE
  8
0
  10
7.01678
  20
3.9828
  30
0
  11
7.01059
  21
3.95129
  31
0
  0
LINE
  8
0
  10
7.01059
  20
3.95129
  30
0
  11
7.00815
  21
3.91938
  31
0
  0
LINE
  8
0
  10
7.00815
  20
3.91938
  30
0
  11
7.00861
  21
3.90326
  31
0
  0
LINE
  8
0
  10
7.00861
  20
3.90326
  30
0
  11
7.01042
  21
3.88697
  31
0
  0
LINE
  8
0
  10
7.01042
  20
3.88697
  30
0
  11
7.0139
  21
3.87048
  31
0
  0
LINE
  8
0
  10
7.0139
  20
3.87048
  30
0
  11
7.0196
  21
3.85368
  31
0
  0
LINE
  8
0
  10
7.0196
  20
3.85368
  30
0
  11
7.02361
  21
3.84509
  31
0
  0
LINE
  8
0
  10
7.02361
  20
3.84509
  30
0
  11
7.02872
  21
3.83631
  31
0
  0
LINE
  8
0
  10
7.02872
  20
3.83631
  30
0
  11
7.03549
  21
3.82722
  31
0
  0
LINE
  8
0
  10
7.03549
  20
3.82722
  30
0
  11
7.04531
  21
3.81754
  31
0
  0
LINE
  8
0
  10
7.04531
  20
3.81754
  30
0
  11
7.17365
  21
3.77487
  31
0
  0
LINE
  8
0
  10
7.17365
  20
3.77487
  30
0
  11
7.17365
  21
3.77487
  31
0
  0
LINE
  8
0
  10
7.17365
  20
3.77487
  30
0
  11
7.17365
  21
3.77487
  31
0
  0
LINE
  8
0
  10
7.17365
  20
3.77487
  30
0
  11
7.29867
  21
3.72331
  31
0
  0
LINE
  8
0
  10
7.29867
  20
3.72331
  30
0
  11
7.31243
  21
3.72423
  31
0
  0
LINE
  8
0
  10
7.31243
  20
3.72423
  30
0
  11
7.3235
  21
3.72668
  31
0
  0
LINE
  8
0
  10
7.3235
  20
3.72668
  30
0
  11
7.33311
  21
3.72999
  31
0
  0
LINE
  8
0
  10
7.33311
  20
3.72999
  30
0
  11
7.34175
  21
3.73387
  31
0
  0
LINE
  8
0
  10
7.34175
  20
3.73387
  30
0
  11
7.35705
  21
3.74287
  31
0
  0
LINE
  8
0
  10
7.35705
  20
3.74287
  30
0
  11
7.37046
  21
3.75308
  31
0
  0
LINE
  8
0
  10
7.37046
  20
3.75308
  30
0
  11
7.38247
  21
3.76422
  31
0
  0
LINE
  8
0
  10
7.38247
  20
3.76422
  30
0
  11
7.39335
  21
3.77613
  31
0
  0
LINE
  8
0
  10
7.39335
  20
3.77613
  30
0
  11
7.41235
  21
3.80187
  31
0
  0
LINE
  8
0
  10
7.41235
  20
3.80187
  30
0
  11
7.42826
  21
3.82977
  31
0
  0
LINE
  8
0
  10
7.42826
  20
3.82977
  30
0
  11
7.44518
  21
3.85697
  31
0
  0
LINE
  8
0
  10
7.44518
  20
3.85697
  30
0
  11
7.47067
  21
3.87817
  31
0
  0
LINE
  8
0
  10
7.47067
  20
3.87817
  30
0
  11
7.49938
  21
3.89696
  31
0
  0
LINE
  8
0
  10
7.49938
  20
3.89696
  30
0
  11
7.53068
  21
3.91362
  31
0
  0
LINE
  8
0
  10
7.53068
  20
3.91362
  30
0
  11
7.56422
  21
3.92826
  31
0
  0
LINE
  8
0
  10
7.56422
  20
3.92826
  30
0
  11
7.59978
  21
3.94089
  31
0
  0
LINE
  8
0
  10
7.59978
  20
3.94089
  30
0
  11
7.63718
  21
3.95151
  31
0
  0
LINE
  8
0
  10
7.63718
  20
3.95151
  30
0
  11
7.67627
  21
3.96007
  31
0
  0
LINE
  8
0
  10
7.67627
  20
3.96007
  30
0
  11
7.71692
  21
3.96654
  31
0
  0
LINE
  8
0
  10
7.71692
  20
3.96654
  30
0
  11
7.74836
  21
3.96998
  31
0
  0
LINE
  8
0
  10
7.74836
  20
3.96998
  30
0
  11
7.84504
  21
3.8663
  31
0
  0
LINE
  8
0
  10
7.84504
  20
3.8663
  30
0
  11
7.92876
  21
3.7519
  31
0
  0
LINE
  8
0
  10
7.92876
  20
3.7519
  30
0
  11
7.91949
  21
3.72167
  31
0
  0
LINE
  8
0
  10
7.91949
  20
3.72167
  30
0
  11
7.90553
  21
3.68295
  31
0
  0
LINE
  8
0
  10
7.90553
  20
3.68295
  30
0
  11
7.88979
  21
3.64616
  31
0
  0
LINE
  8
0
  10
7.88979
  20
3.64616
  30
0
  11
7.87235
  21
3.61141
  31
0
  0
LINE
  8
0
  10
7.87235
  20
3.61141
  30
0
  11
7.85328
  21
3.57885
  31
0
  0
LINE
  8
0
  10
7.85328
  20
3.57885
  30
0
  11
7.83261
  21
3.54864
  31
0
  0
LINE
  8
0
  10
7.83261
  20
3.54864
  30
0
  11
7.81038
  21
3.52102
  31
0
  0
LINE
  8
0
  10
7.81038
  20
3.52102
  30
0
  11
7.78655
  21
3.49634
  31
0
  0
LINE
  8
0
  10
7.78655
  20
3.49634
  30
0
  11
7.76094
  21
3.47527
  31
0
  0
LINE
  8
0
  10
7.76094
  20
3.47527
  30
0
  11
7.73106
  21
3.46375
  31
0
  0
LINE
  8
0
  10
7.73106
  20
3.46375
  30
0
  11
7.70067
  21
3.45335
  31
0
  0
LINE
  8
0
  10
7.70067
  20
3.45335
  30
0
  11
7.67183
  21
3.43951
  31
0
  0
LINE
  8
0
  10
7.67183
  20
3.43951
  30
0
  11
7.65809
  21
3.43105
  31
0
  0
LINE
  8
0
  10
7.65809
  20
3.43105
  30
0
  11
7.64489
  21
3.42135
  31
0
  0
LINE
  8
0
  10
7.64489
  20
3.42135
  30
0
  11
7.63235
  21
3.41009
  31
0
  0
LINE
  8
0
  10
7.63235
  20
3.41009
  30
0
  11
7.62065
  21
3.39675
  31
0
  0
LINE
  8
0
  10
7.62065
  20
3.39675
  30
0
  11
7.61521
  21
3.38898
  31
0
  0
LINE
  8
0
  10
7.61521
  20
3.38898
  30
0
  11
7.61017
  21
3.38016
  31
0
  0
LINE
  8
0
  10
7.61017
  20
3.38016
  30
0
  11
7.60568
  21
3.36975
  31
0
  0
LINE
  8
0
  10
7.60568
  20
3.36975
  30
0
  11
7.6022
  21
3.35641
  31
0
  0
LINE
  8
0
  10
7.6022
  20
3.35641
  30
0
  11
7.62942
  21
3.22393
  31
0
  0
LINE
  8
0
  10
7.62942
  20
3.22393
  30
0
  11
7.62942
  21
3.22393
  31
0
  0
LINE
  8
0
  10
7.62942
  20
3.22393
  30
0
  11
7.62942
  21
3.22393
  31
0
  0
LINE
  8
0
  10
7.62942
  20
3.22393
  30
0
  11
7.64728
  21
3.08987
  31
0
  0
LINE
  8
0
  10
7.64728
  20
3.08987
  30
0
  11
7.65496
  21
3.07842
  31
0
  0
LINE
  8
0
  10
7.65496
  20
3.07842
  30
0
  11
7.66262
  21
3.07007
  31
0
  0
LINE
  8
0
  10
7.66262
  20
3.07007
  30
0
  11
7.67028
  21
3.06339
  31
0
  0
LINE
  8
0
  10
7.67028
  20
3.06339
  30
0
  11
7.67797
  21
3.05785
  31
0
  0
LINE
  8
0
  10
7.67797
  20
3.05785
  30
0
  11
7.69341
  21
3.0491
  31
0
  0
LINE
  8
0
  10
7.69341
  20
3.0491
  30
0
  11
7.70895
  21
3.04259
  31
0
  0
LINE
  8
0
  10
7.70895
  20
3.04259
  30
0
  11
7.72461
  21
3.03776
  31
0
  0
LINE
  8
0
  10
7.72461
  20
3.03776
  30
0
  11
7.74036
  21
3.03429
  31
0
  0
LINE
  8
0
  10
7.74036
  20
3.03429
  30
0
  11
7.77216
  21
3.03071
  31
0
  0
LINE
  8
0
  10
7.77216
  20
3.03071
  30
0
  11
7.80428
  21
3.03088
  31
0
  0
LINE
  8
0
  10
7.80428
  20
3.03088
  30
0
  11
7.83629
  21
3.02983
  31
0
  0
LINE
  8
0
  10
7.83629
  20
3.02983
  30
0
  11
7.8674
  21
3.01835
  31
0
  0
LINE
  8
0
  10
7.8674
  20
3.01835
  30
0
  11
7.89802
  21
3.00288
  31
0
  0
LINE
  8
0
  10
7.89802
  20
3.00288
  30
0
  11
7.9281
  21
2.98411
  31
0
  0
LINE
  8
0
  10
7.9281
  20
2.98411
  30
0
  11
7.95755
  21
2.96238
  31
0
  0
LINE
  8
0
  10
7.95755
  20
2.96238
  30
0
  11
7.98627
  21
2.9379
  31
0
  0
LINE
  8
0
  10
7.98627
  20
2.9379
  30
0
  11
8.01416
  21
2.91082
  31
0
  0
LINE
  8
0
  10
8.01416
  20
2.91082
  30
0
  11
8.04113
  21
2.88125
  31
0
  0
LINE
  8
0
  10
8.04113
  20
2.88125
  30
0
  11
8.06705
  21
2.84928
  31
0
  0
LINE
  8
0
  10
8.06705
  20
2.84928
  30
0
  11
8.08575
  21
2.82377
  31
0
  0
LINE
  8
0
  10
8.08575
  20
2.82377
  30
0
  11
8.0443
  21
2.6882
  31
0
  0
LINE
  8
0
  10
8.0443
  20
2.6882
  30
0
  11
7.98709
  21
2.5585
  31
0
  0
LINE
  8
0
  10
7.98709
  20
2.5585
  30
0
  11
7.95627
  21
2.55141
  31
0
  0
LINE
  8
0
  10
7.95627
  20
2.55141
  30
0
  11
7.91576
  21
2.54415
  31
0
  0
LINE
  8
0
  10
7.91576
  20
2.54415
  30
0
  11
7.87603
  21
2.53938
  31
0
  0
LINE
  8
0
  10
7.87603
  20
2.53938
  30
0
  11
7.83721
  21
2.5371
  31
0
  0
LINE
  8
0
  10
7.83721
  20
2.5371
  30
0
  11
7.79948
  21
2.53734
  31
0
  0
LINE
  8
0
  10
7.79948
  20
2.53734
  30
0
  11
7.76299
  21
2.54014
  31
0
  0
LINE
  8
0
  10
7.76299
  20
2.54014
  30
0
  11
7.72795
  21
2.54558
  31
0
  0
LINE
  8
0
  10
7.72795
  20
2.54558
  30
0
  11
7.69466
  21
2.55387
  31
0
  0
LINE
  8
0
  10
7.69466
  20
2.55387
  30
0
  11
7.66361
  21
2.56552
  31
0
  0
LINE
  8
0
  10
7.66361
  20
2.56552
  30
0
  11
7.63869
  21
2.58564
  31
0
  0
LINE
  8
0
  10
7.63869
  20
2.58564
  30
0
  11
7.61449
  21
2.60675
  31
0
  0
LINE
  8
0
  10
7.61449
  20
2.60675
  30
0
  11
7.58808
  21
2.62482
  31
0
  0
LINE
  8
0
  10
7.58808
  20
2.62482
  30
0
  11
7.57389
  21
2.63249
  31
0
  0
LINE
  8
0
  10
7.57389
  20
2.63249
  30
0
  11
7.55888
  21
2.63906
  31
0
  0
LINE
  8
0
  10
7.55888
  20
2.63906
  30
0
  11
7.54286
  21
2.64429
  31
0
  0
LINE
  8
0
  10
7.54286
  20
2.64429
  30
0
  11
7.52545
  21
2.64776
  31
0
  0
LINE
  8
0
  10
7.52545
  20
2.64776
  30
0
  11
7.51601
  21
2.64858
  31
0
  0
LINE
  8
0
  10
7.51601
  20
2.64858
  30
0
  11
7.50585
  21
2.64854
  31
0
  0
LINE
  8
0
  10
7.50585
  20
2.64854
  30
0
  11
7.4946
  21
2.64722
  31
0
  0
LINE
  8
0
  10
7.4946
  20
2.64722
  30
0
  11
7.4813
  21
2.64356
  31
0
  0
LINE
  8
0
  10
7.4813
  20
2.64356
  30
0
  11
7.38018
  21
2.55375
  31
0
  0
LINE
  8
0
  10
7.38018
  20
2.55375
  30
0
  11
7.38018
  21
2.55375
  31
0
  0
LINE
  8
0
  10
7.38018
  20
2.55375
  30
0
  11
7.38018
  21
2.55375
  31
0
  0
LINE
  8
0
  10
7.38018
  20
2.55375
  30
0
  11
7.27302
  21
2.47125
  31
0
  0
LINE
  8
0
  10
7.27302
  20
2.47125
  30
0
  11
7.26693
  21
2.45888
  31
0
  0
LINE
  8
0
  10
7.26693
  20
2.45888
  30
0
  11
7.26353
  21
2.44807
  31
0
  0
LINE
  8
0
  10
7.26353
  20
2.44807
  30
0
  11
7.26158
  21
2.4381
  31
0
  0
LINE
  8
0
  10
7.26158
  20
2.4381
  30
0
  11
7.26062
  21
2.42867
  31
0
  0
LINE
  8
0
  10
7.26062
  20
2.42867
  30
0
  11
7.26076
  21
2.41092
  31
0
  0
LINE
  8
0
  10
7.26076
  20
2.41092
  30
0
  11
7.2629
  21
2.3942
  31
0
  0
LINE
  8
0
  10
7.2629
  20
2.3942
  30
0
  11
7.26654
  21
2.37823
  31
0
  0
LINE
  8
0
  10
7.26654
  20
2.37823
  30
0
  11
7.27142
  21
2.36285
  31
0
  0
LINE
  8
0
  10
7.27142
  20
2.36285
  30
0
  11
7.28421
  21
2.33352
  31
0
  0
LINE
  8
0
  10
7.28421
  20
2.33352
  30
0
  11
7.30042
  21
2.3058
  31
0
  0
LINE
  8
0
  10
7.30042
  20
2.3058
  30
0
  11
7.31552
  21
2.27755
  31
0
  0
LINE
  8
0
  10
7.31552
  20
2.27755
  30
0
  11
7.32113
  21
2.24487
  31
0
  0
LINE
  8
0
  10
7.32113
  20
2.24487
  30
0
  11
7.32304
  21
2.21061
  31
0
  0
LINE
  8
0
  10
7.32304
  20
2.21061
  30
0
  11
7.32183
  21
2.17518
  31
0
  0
LINE
  8
0
  10
7.32183
  20
2.17518
  30
0
  11
7.31773
  21
2.13881
  31
0
  0
LINE
  8
0
  10
7.31773
  20
2.13881
  30
0
  11
7.3109
  21
2.1017
  31
0
  0
LINE
  8
0
  10
7.3109
  20
2.1017
  30
0
  11
7.30139
  21
2.064
  31
0
  0
LINE
  8
0
  10
7.30139
  20
2.064
  30
0
  11
7.28926
  21
2.02586
  31
0
  0
LINE
  8
0
  10
7.28926
  20
2.02586
  30
0
  11
7.27453
  21
1.98743
  31
0
  0
LINE
  8
0
  10
7.27453
  20
1.98743
  30
0
  11
7.2618
  21
1.95848
  31
0
  0
LINE
  8
0
  10
7.2618
  20
1.95848
  30
0
  11
7.12367
  21
1.92659
  31
0
  0
LINE
  8
0
  10
7.12367
  20
1.92659
  30
0
  11
6.98273
  21
1.91128
  31
0
  0
LINE
  8
0
  10
6.98273
  20
1.91128
  30
0
  11
6.96119
  21
1.93443
  31
0
  0
LINE
  8
0
  10
6.96119
  20
1.93443
  30
0
  11
6.93464
  21
1.96588
  31
0
  0
LINE
  8
0
  10
6.93464
  20
1.96588
  30
0
  11
6.91064
  21
1.99791
  31
0
  0
LINE
  8
0
  10
6.91064
  20
1.99791
  30
0
  11
6.88927
  21
2.03038
  31
0
  0
LINE
  8
0
  10
6.88927
  20
2.03038
  30
0
  11
6.87061
  21
2.06318
  31
0
  0
LINE
  8
0
  10
6.87061
  20
2.06318
  30
0
  11
6.85478
  21
2.09618
  31
0
  0
LINE
  8
0
  10
6.85478
  20
2.09618
  30
0
  11
6.84198
  21
2.12925
  31
0
  0
LINE
  8
0
  10
6.84198
  20
2.12925
  30
0
  11
6.83251
  21
2.16223
  31
0
  0
LINE
  8
0
  10
6.83251
  20
2.16223
  30
0
  11
6.82707
  21
2.19493
  31
0
  0
LINE
  8
0
  10
6.82707
  20
2.19493
  30
0
  11
6.83204
  21
2.22657
  31
0
  0
LINE
  8
0
  10
6.83204
  20
2.22657
  30
0
  11
6.83822
  21
2.25809
  31
0
  0
LINE
  8
0
  10
6.83822
  20
2.25809
  30
0
  11
6.84066
  21
2.29
  31
0
  0
LINE
  8
0
  10
6.84066
  20
2.29
  30
0
  11
6.84021
  21
2.30612
  31
0
  0
LINE
  8
0
  10
6.84021
  20
2.30612
  30
0
  11
6.8384
  21
2.3224
  31
0
  0
LINE
  8
0
  10
6.8384
  20
2.3224
  30
0
  11
6.83492
  21
2.33889
  31
0
  0
LINE
  8
0
  10
6.83492
  20
2.33889
  30
0
  11
6.82922
  21
2.3557
  31
0
  0
LINE
  8
0
  10
6.82922
  20
2.3557
  30
0
  11
6.82521
  21
2.36429
  31
0
  0
LINE
  8
0
  10
6.82521
  20
2.36429
  30
0
  11
6.82009
  21
2.37307
  31
0
  0
LINE
  8
0
  10
6.82009
  20
2.37307
  30
0
  11
6.81332
  21
2.38216
  31
0
  0
LINE
  8
0
  10
6.81332
  20
2.38216
  30
0
  11
6.80351
  21
2.39184
  31
0
  0
LINE
  8
0
  10
6.80351
  20
2.39184
  30
0
  11
6.67517
  21
2.4345
  31
0
  0
LINE
  8
0
  10
6.67517
  20
2.4345
  30
0
  11
6.67517
  21
2.4345
  31
0
  0
LINE
  8
0
  10
6.67517
  20
2.4345
  30
0
  11
6.67517
  21
2.4345
  31
0
  0
LINE
  8
0
  10
6.67517
  20
2.4345
  30
0
  11
6.55014
  21
2.48607
  31
0
  0
LINE
  8
0
  10
6.55014
  20
2.48607
  30
0
  11
6.53638
  21
2.48515
  31
0
  0
LINE
  8
0
  10
6.53638
  20
2.48515
  30
0
  11
6.52532
  21
2.48269
  31
0
  0
LINE
  8
0
  10
6.52532
  20
2.48269
  30
0
  11
6.51571
  21
2.47939
  31
0
  0
LINE
  8
0
  10
6.51571
  20
2.47939
  30
0
  11
6.50706
  21
2.47551
  31
0
  0
LINE
  8
0
  10
6.50706
  20
2.47551
  30
0
  11
6.49176
  21
2.46651
  31
0
  0
LINE
  8
0
  10
6.49176
  20
2.46651
  30
0
  11
6.47835
  21
2.4563
  31
0
  0
LINE
  8
0
  10
6.47835
  20
2.4563
  30
0
  11
6.46635
  21
2.44516
  31
0
  0
LINE
  8
0
  10
6.46635
  20
2.44516
  30
0
  11
6.45546
  21
2.43325
  31
0
  0
LINE
  8
0
  10
6.45546
  20
2.43325
  30
0
  11
6.43646
  21
2.40751
  31
0
  0
LINE
  8
0
  10
6.43646
  20
2.40751
  30
0
  11
6.42055
  21
2.3796
  31
0
  0
LINE
  8
0
  10
6.42055
  20
2.3796
  30
0
  11
6.40364
  21
2.35241
  31
0
  0
LINE
  8
0
  10
6.40364
  20
2.35241
  30
0
  11
6.37815
  21
2.3312
  31
0
  0
LINE
  8
0
  10
6.37815
  20
2.3312
  30
0
  11
6.34943
  21
2.31242
  31
0
  0
LINE
  8
0
  10
6.34943
  20
2.31242
  30
0
  11
6.31814
  21
2.29576
  31
0
  0
LINE
  8
0
  10
6.31814
  20
2.29576
  30
0
  11
6.2846
  21
2.28112
  31
0
  0
LINE
  8
0
  10
6.2846
  20
2.28112
  30
0
  11
6.24904
  21
2.26848
  31
0
  0
LINE
  8
0
  10
6.24904
  20
2.26848
  30
0
  11
6.21163
  21
2.25787
  31
0
  0
LINE
  8
0
  10
6.21163
  20
2.25787
  30
0
  11
6.17254
  21
2.2493
  31
0
  0
LINE
  8
0
  10
6.17254
  20
2.2493
  30
0
  11
6.13189
  21
2.24284
  31
0
  0
LINE
  8
0
  10
6.13189
  20
2.24284
  30
0
  11
6.10046
  21
2.2394
  31
0
  0
LINE
  8
0
  10
6.10046
  20
2.2394
  30
0
  11
6.00378
  21
2.34308
  31
0
  0
LINE
  8
0
  10
6.00378
  20
2.34308
  30
0
  11
5.92005
  21
2.45747
  31
0
  0
LINE
  8
0
  10
5.92005
  20
2.45747
  30
0
  11
5.92932
  21
2.48771
  31
0
  0
LINE
  8
0
  10
5.92932
  20
2.48771
  30
0
  11
5.94329
  21
2.52642
  31
0
  0
LINE
  8
0
  10
5.94329
  20
2.52642
  30
0
  11
5.95902
  21
2.56322
  31
0
  0
LINE
  8
0
  10
5.95902
  20
2.56322
  30
0
  11
5.97646
  21
2.59797
  31
0
  0
LINE
  8
0
  10
5.97646
  20
2.59797
  30
0
  11
5.99554
  21
2.63053
  31
0
  0
LINE
  8
0
  10
5.99554
  20
2.63053
  30
0
  11
6.0162
  21
2.66073
  31
0
  0
LINE
  8
0
  10
6.0162
  20
2.66073
  30
0
  11
6.03843
  21
2.68835
  31
0
  0
LINE
  8
0
  10
6.03843
  20
2.68835
  30
0
  11
6.06226
  21
2.71304
  31
0
  0
LINE
  8
0
  10
6.06226
  20
2.71304
  30
0
  11
6.08787
  21
2.73411
  31
0
  0
LINE
  8
0
  10
6.08787
  20
2.73411
  30
0
  11
6.11775
  21
2.74563
  31
0
  0
LINE
  8
0
  10
6.11775
  20
2.74563
  30
0
  11
6.14814
  21
2.75603
  31
0
  0
LINE
  8
0
  10
6.14814
  20
2.75603
  30
0
  11
6.17699
  21
2.76987
  31
0
  0
LINE
  8
0
  10
6.17699
  20
2.76987
  30
0
  11
6.19073
  21
2.77832
  31
0
  0
LINE
  8
0
  10
6.19073
  20
2.77832
  30
0
  11
6.20392
  21
2.78803
  31
0
  0
LINE
  8
0
  10
6.20392
  20
2.78803
  30
0
  11
6.21647
  21
2.79929
  31
0
  0
LINE
  8
0
  10
6.21647
  20
2.79929
  30
0
  11
6.22817
  21
2.81263
  31
0
  0
LINE
  8
0
  10
6.22817
  20
2.81263
  30
0
  11
6.2336
  21
2.8204
  31
0
  0
LINE
  8
0
  10
6.2336
  20
2.8204
  30
0
  11
6.23865
  21
2.82922
  31
0
  0
LINE
  8
0
  10
6.23865
  20
2.82922
  30
0
  11
6.24313
  21
2.83963
  31
0
  0
LINE
  8
0
  10
6.24313
  20
2.83963
  30
0
  11
6.24661
  21
2.85297
  31
0
  0
LINE
  8
0
  10
6.24661
  20
2.85297
  30
0
  11
6.21939
  21
2.98544
  31
0
  0
LINE
  8
0
  10
6.21939
  20
2.98544
  30
0
  11
6.21939
  21
2.98544
  31
0
  0
LINE
  8
0
  10
6.21939
  20
2.98544
  30
0
  11
6.21939
  21
2.98544
  31
0
  0
LINE
  8
0
  10
7.42441
  20
3.10469
  30
0
  11
7.42441
  21
3.10469
  31
0
  0
LINE
  8
0
  10
7.42441
  20
3.10469
  30
0
  11
7.40737
  21
3.2341
  31
0
  0
LINE
  8
0
  10
7.40737
  20
3.2341
  30
0
  11
7.35742
  21
3.35469
  31
0
  0
LINE
  8
0
  10
7.35742
  20
3.35469
  30
0
  11
7.27796
  21
3.45824
  31
0
  0
LINE
  8
0
  10
7.27796
  20
3.45824
  30
0
  11
7.17441
  21
3.5377
  31
0
  0
LINE
  8
0
  10
7.17441
  20
3.5377
  30
0
  11
7.05382
  21
3.58765
  31
0
  0
LINE
  8
0
  10
7.05382
  20
3.58765
  30
0
  11
6.92441
  21
3.60469
  31
0
  0
LINE
  8
0
  10
6.92441
  20
3.60469
  30
0
  11
6.795
  21
3.58765
  31
0
  0
LINE
  8
0
  10
6.795
  20
3.58765
  30
0
  11
6.67441
  21
3.5377
  31
0
  0
LINE
  8
0
  10
6.67441
  20
3.5377
  30
0
  11
6.57085
  21
3.45824
  31
0
  0
LINE
  8
0
  10
6.57085
  20
3.45824
  30
0
  11
6.49139
  21
3.35469
  31
0
  0
LINE
  8
0
  10
6.49139
  20
3.35469
  30
0
  11
6.44144
  21
3.2341
  31
0
  0
LINE
  8
0
  10
6.44144
  20
3.2341
  30
0
  11
6.42441
  21
3.10469
  31
0
  0
LINE
  8
0
  10
6.42441
  20
3.10469
  30
0
  11
6.44144
  21
2.97528
  31
0
  0
LINE
  8
0
  10
6.44144
  20
2.97528
  30
0
  11
6.49139
  21
2.85469
  31
0
  0
LINE
  8
0
  10
6.49139
  20
2.85469
  30
0
  11
6.57085
  21
2.75114
  31
0
  0
LINE
  8
0
  10
6.57085
  20
2.75114
  30
0
  11
6.67441
  21
2.67168
  31
0
  0
LINE
  8
0
  10
6.67441
  20
2.67168
  30
0
  11
6.795
  21
2.62173
  31
0
  0
LINE
  8
0
  10
6.795
  20
2.62173
  30
0
  11
6.92441
  21
2.60469
  31
0
  0
LINE
  8
0
  10
6.92441
  20
2.60469
  30
0
  11
7.05382
  21
2.62173
  31
0
  0
LINE
  8
0
  10
7.05382
  20
2.62173
  30
0
  11
7.17441
  21
2.67168
  31
0
  0
LINE
  8
0
  10
7.17441
  20
2.67168
  30
0
  11
7.27796
  21
2.75114
  31
0
  0
LINE
  8
0
  10
7.27796
  20
2.75114
  30
0
  11
7.35742
  21
2.85469
  31
0
  0
LINE
  8
0
  10
7.35742
  20
2.85469
  30
0
  11
7.40737
  21
2.97528
  31
0
  0
LINE
  8
0
  10
7.40737
  20
2.97528
  30
0
  11
7.42441
  21
3.10469
  31
0
  0
LINE
  8
0
  10
7.42441
  20
3.10469
  30
0
  11
7.42441
  21
3.10469
  31
0
  0
ENDSEC
  0
EOF
